#N canvas 453 33 818 745 12;
#X declare -path planifolia;
#X msg 269 367 1, f 4;
#X obj 356 550 print;
#X obj 338 518 any.==;
#X obj 83 137 cnv 18 3 17 empty empty 0 5 9 0 14 #dcdcdc #9c9c9c 0;
#X obj 83 157 cnv 18 3 17 empty empty 1 5 9 0 14 #dcdcdc #9c9c9c 0;
#X obj 83 214 cnv 18 3 17 empty empty 0 5 9 0 14 #dcdcdc #9c9c9c 0;
#X text 32 44 tests if two data types (floats \, symbols and lists) are equal;
#X msg 619 459 symbol list, f 13;
#X msg 472 436 symbol a, f 10;
#X msg 619 482 symbol bang, f 15;
#X msg 619 505 symbol float, f 14;
#X msg 619 528 symbol symbol, f 16;
#X msg 475 390 1, f 4;
#X msg 24 418 symbol list, f 13;
#X msg 269 412 symbol a, f 11;
#X msg 24 440 symbol bang, f 15;
#X msg 24 463 symbol float, f 15;
#X msg 24 485 symbol symbol, f 17;
#X msg 24 390 symbol b, f 12;
#X msg 619 436 symbol b, f 12;
#X msg 269 440 a;
#X text 105 209 1 (equal) / 0 (unequal);
#X text 103 133 float \, symbol or list;
#X text 104 153 float \, symbol or list;
#X obj 0 0 cnv 15 805 23 empty empty any.== 8 10 0 20 #282d39 #efefef 0;
#X obj 0 119 cnv 15 805 17 empty empty inlets 8 8 0 12 #282d39 #efefef 0;
#X obj 0 185 cnv 15 805 17 empty empty outlets 8 8 0 12 #282d39 #efefef 0;
#X obj 0 324 cnv 15 805 17 empty empty example 8 8 0 12 #282d39 #efefef 0;
#X obj 621 40 plnf_version;
#X obj 0 245 cnv 15 805 17 empty empty arguments 8 8 0 12 #282d39 #efefef 0;
#X text 85 270 optionally \, give as argument what to compare;
#X msg 204 618 1, f 4;
#X msg 104 663 symbol a, f 11;
#X msg 104 689 a;
#X obj 158 772 any.== 1;
#X obj 158 805 tgl 25 0 empty empty empty 17 7 0 10 #e4e4e4 #4d4d4d #373737 0 1;
#X msg 104 640 1 2 3 a b, f 10;
#X msg 269 389 1 2 3 a b, f 10;
#X msg 476 412 1 2 3 a b;
#X msg 472 463 a;
#X msg 104 714 symbol bang;
#X obj 104 766 bng 25 250 50 0 empty empty empty 17 7 0 10 #e4e4e4 #4d4d4d #373737;
#X msg 104 740 bang;
#X msg 504 618 1, f 4;
#X msg 504 663 symbol a, f 11;
#X msg 504 689 a;
#X obj 558 805 tgl 25 0 empty empty empty 17 7 0 10 #e4e4e4 #4d4d4d #373737 0 1;
#X msg 604 640 1 2 3 a b, f 10;
#X msg 504 714 symbol bang;
#X obj 504 766 bng 25 250 50 0 empty empty empty 17 7 0 10 #e4e4e4 #4d4d4d #373737;
#X msg 504 740 bang;
#X msg 144 938 1, f 4;
#X msg 245 983 symbol a, f 11;
#X msg 245 1009 a;
#X obj 198 1125 tgl 25 0 empty empty empty 17 7 0 10 #e4e4e4 #4d4d4d #373737 0 1;
#X msg 144 960 1 2 3 a b, f 10;
#X msg 144 1034 symbol bang;
#X obj 144 1086 bng 25 250 50 0 empty empty empty 17 7 0 10 #e4e4e4 #4d4d4d #373737;
#X msg 144 1060 bang;
#X msg 508 946 1, f 4;
#X msg 508 991 symbol a, f 11;
#X msg 508 1017 a;
#X obj 562 1133 tgl 25 0 empty empty empty 17 7 0 10 #e4e4e4 #4d4d4d #373737 0 1;
#X msg 508 968 1 2 3 a b, f 10;
#X msg 604 1009 symbol bang;
#X obj 604 1061 bng 25 250 50 0 empty empty empty 17 7 0 10 #e4e4e4 #4d4d4d #373737;
#X msg 604 1035 bang;
#X obj 558 772 any.== 1 2 3 a b;
#X obj 198 1092 any.== a;
#X obj 562 1100 any.== bang;
#X msg 204 658 0, f 4;
#X msg 204 698 1.01;
#X msg 604 680 4 5 6 7 8, f 10;
#X msg 604 720 1 2 3, f 10;
#X msg 245 1034 symbol b, f 11;
#X msg 245 1060 b;
#X text 109 576 float;
#X text 529 576 list;
#X text 149 896 symbol;
#X text 505 900 bang or symbol bang;
#X text 503 920 (technically not equal \, but here treated as equal);
#X obj 648 367 declare -path planifolia;
#X connect 0 0 2 0;
#X connect 2 0 1 0;
#X connect 7 0 2 1;
#X connect 8 0 2 1;
#X connect 9 0 2 1;
#X connect 10 0 2 1;
#X connect 11 0 2 1;
#X connect 12 0 2 1;
#X connect 13 0 2 0;
#X connect 14 0 2 0;
#X connect 15 0 2 0;
#X connect 16 0 2 0;
#X connect 17 0 2 0;
#X connect 18 0 2 0;
#X connect 19 0 2 1;
#X connect 20 0 2 0;
#X connect 31 0 34 0;
#X connect 32 0 34 0;
#X connect 33 0 34 0;
#X connect 34 0 35 0;
#X connect 36 0 34 0;
#X connect 37 0 2 0;
#X connect 38 0 2 1;
#X connect 39 0 2 1;
#X connect 41 0 34 0;
#X connect 42 0 34 0;
#X connect 43 0 67 0;
#X connect 44 0 67 0;
#X connect 45 0 67 0;
#X connect 47 0 67 0;
#X connect 49 0 67 0;
#X connect 50 0 67 0;
#X connect 51 0 68 0;
#X connect 52 0 68 0;
#X connect 53 0 68 0;
#X connect 55 0 68 0;
#X connect 57 0 68 0;
#X connect 58 0 68 0;
#X connect 59 0 69 0;
#X connect 60 0 69 0;
#X connect 61 0 69 0;
#X connect 63 0 69 0;
#X connect 65 0 69 0;
#X connect 66 0 69 0;
#X connect 67 0 46 0;
#X connect 68 0 54 0;
#X connect 69 0 62 0;
#X connect 70 0 34 0;
#X connect 71 0 34 0;
#X connect 72 0 67 0;
#X connect 73 0 67 0;
#X connect 74 0 68 0;
#X connect 75 0 68 0;
