#N canvas 528 72 794 487 12;
#X obj 265 48 route list;
#X obj 35 48 route list;
#X msg 364 92 2;
#X msg 134 93 2;
#X msg 297 142 1;
#X msg 67 173 1;
#X obj 35 332 outlet;
#X obj 35 309 r \$0-outval;
#X obj 35 150 t l b;
#X obj 102 70 t a b;
#X obj 265 120 t l b;
#X obj 332 70 t a b;
#X obj 35 24 inlet;
#X obj 265 24 inlet;
#X obj 297 165 s \$0-test1b;
#X obj 364 114 s \$0-test1b;
#X obj 134 115 s \$0-test1a;
#X obj 67 196 s \$0-test1a;
#X obj 332 137 s \$0-anyb;
#X obj 102 138 s \$0-anya;
#N canvas 673 135 725 542 symbol_float_compare 0;
#X obj 11 74 symbol.==;
#X obj 11 51 spigot;
#X obj 11 96 s \$0-outval;
#X obj 11 8 r \$0-anya;
#X obj 73 51 r \$0-anyb;
#X obj 50 29 r \$0-spigsymbola;
#X connect 0 0 2 0;
#X connect 1 0 0 0;
#X connect 3 0 1 0;
#X connect 4 0 0 1;
#X connect 5 0 1 1;
#X restore 35 264 pd symbol_float_compare;
#N canvas 365 758 450 300 type_compare 0;
#X obj 8 28 ==;
#X obj 8 50 sel 1 0;
#X msg 31 74 0;
#X obj 44 100 s \$0-outval;
#X obj 126 54 f;
#X obj 126 77 sel 1 2;
#X msg 184 129 1;
#X msg 216 129 0;
#X msg 183 77 1;
#X msg 222 75 0;
#X obj 91 6 r \$0-test1b;
#X obj 91 30 t f f;
#X obj 8 6 r \$0-test1a;
#X obj 249 107 s \$0-spiglista;
#X obj 44 122 s \$0-spiglista;
#X obj 44 145 s \$0-spiglistb;
#X obj 249 130 s \$0-spigsymbola;
#X floatatom 164 35 5 0 0 0 - - -;
#X floatatom 239 47 5 0 0 0 - - -;
#X connect 0 0 1 0;
#X connect 1 0 4 0;
#X connect 1 1 2 0;
#X connect 2 0 3 0;
#X connect 2 0 14 0;
#X connect 2 0 15 0;
#X connect 4 0 5 0;
#X connect 5 0 7 0;
#X connect 5 0 8 0;
#X connect 5 1 6 0;
#X connect 5 1 9 0;
#X connect 6 0 16 0;
#X connect 7 0 16 0;
#X connect 8 0 13 0;
#X connect 9 0 13 0;
#X connect 10 0 11 0;
#X connect 11 0 0 1;
#X connect 11 1 4 1;
#X connect 11 1 18 0;
#X connect 12 0 0 0;
#X connect 12 0 17 0;
#X restore 35 243 pd type_compare;
#X obj 266 187 s \$0-listb;
#X obj 35 218 s \$0-lista;
#N canvas 875 238 1030 726 list_compare 1;
#X obj 155 157 list prepend;
#X obj 5 246 list prepend;
#X obj 5 89 t l l;
#X obj 155 83 t l l;
#X obj 37 111 list length;
#X obj 187 107 list length;
#X obj 37 135 ==;
#X msg 83 202 0;
#X obj 83 224 s \$0-outval;
#X obj 5 181 spigot;
#X obj 5 317 s \$0-outval;
#X obj 83 180 sel 0;
#X obj 5 48 spigot;
#X obj 44 27 r \$0-spiglista;
#X obj 155 59 r \$0-listb;
#X obj 5 6 r \$0-lista;
#X obj 37 158 t f f;
#X obj 5 269 ls.binop symbol.==;
#X obj 5 292 ls.unop &&;
#X connect 0 0 17 1;
#X connect 1 0 17 0;
#X connect 2 0 9 0;
#X connect 2 1 4 0;
#X connect 3 0 0 0;
#X connect 3 1 5 0;
#X connect 4 0 6 0;
#X connect 5 0 6 1;
#X connect 6 0 16 0;
#X connect 7 0 8 0;
#X connect 9 0 1 0;
#X connect 11 0 7 0;
#X connect 12 0 2 0;
#X connect 13 0 12 1;
#X connect 14 0 3 0;
#X connect 15 0 12 0;
#X connect 16 0 9 1;
#X connect 16 1 11 0;
#X connect 17 0 18 0;
#X connect 18 0 10 0;
#X restore 35 286 pd list_compare;
#X connect 0 0 10 0;
#X connect 0 1 11 0;
#X connect 1 0 8 0;
#X connect 1 1 9 0;
#X connect 2 0 15 0;
#X connect 3 0 16 0;
#X connect 4 0 14 0;
#X connect 5 0 17 0;
#X connect 7 0 6 0;
#X connect 8 0 23 0;
#X connect 8 1 5 0;
#X connect 9 0 19 0;
#X connect 9 1 3 0;
#X connect 10 0 22 0;
#X connect 10 1 4 0;
#X connect 11 0 18 0;
#X connect 11 1 2 0;
#X connect 12 0 1 0;
#X connect 13 0 0 0;
