#N canvas 528 72 794 487 12;
#X obj 265 48 route list;
#X obj 35 48 route list;
#X msg 364 92 2;
#X msg 134 105 2;
#X msg 297 142 1;
#X msg 67 173 1;
#X obj 35 332 outlet;
#X obj 35 309 r \$0-outval;
#X obj 35 150 t l b;
#X obj 102 70 t a b;
#X obj 265 120 t l b;
#X obj 332 70 t a b;
#X obj 35 24 inlet;
#X obj 265 24 inlet;
#X obj 297 165 s \$0-test1b;
#X obj 364 114 s \$0-test1b;
#X obj 134 127 s \$0-test1a;
#X obj 67 196 s \$0-test1a;
#X obj 332 137 s \$0-anyb;
#X obj 102 150 s \$0-anya;
#N canvas 673 135 725 542 symbol_float_compare 0;
#X obj 11 74 symbol.==;
#X obj 11 51 spigot;
#X obj 11 96 s \$0-outval;
#X obj 11 8 r \$0-anya;
#X obj 73 51 r \$0-anyb;
#X obj 50 29 r \$0-spigsymbola;
#X connect 0 0 2 0;
#X connect 1 0 0 0;
#X connect 3 0 1 0;
#X connect 4 0 0 1;
#X connect 5 0 1 1;
#X restore 35 264 pd symbol_float_compare;
#N canvas 365 758 450 300 type_compare 0;
#X obj 23 67 ==;
#X obj 23 89 sel 1 0;
#X msg 39 146 0;
#X obj 19 199 s \$0-outval;
#X obj 141 93 f;
#X obj 141 116 sel 1 2;
#X msg 199 168 1;
#X msg 173 168 0;
#X msg 131 221 1;
#X msg 157 221 0;
#X obj 106 23 r \$0-test1b;
#X obj 106 59 t f f;
#X obj 23 23 r \$0-test1a;
#X obj 131 264 s \$0-spiglista;
#X obj 19 221 s \$0-spiglista;
#X obj 19 244 s \$0-spiglistb;
#X obj 182 199 s \$0-spigsymbola;
#X floatatom 59 39 5 0 0 0 - - - 0;
#X floatatom 198 49 5 0 0 0 - - - 0;
#X floatatom 303 362 5 0 0 0 - - - 12;
#X floatatom 182 372 5 0 0 0 - - - 12;
#X text 225 263 1: both are lists;
#X text 299 198 2: both are symbols;
#X connect 0 0 1 0;
#X connect 1 0 4 0;
#X connect 1 1 2 0;
#X connect 2 0 3 0;
#X connect 2 0 14 0;
#X connect 2 0 15 0;
#X connect 4 0 5 0;
#X connect 5 0 7 0;
#X connect 5 0 8 0;
#X connect 5 1 6 0;
#X connect 5 1 9 0;
#X connect 6 0 16 0;
#X connect 7 0 16 0;
#X connect 8 0 13 0;
#X connect 9 0 13 0;
#X connect 10 0 11 0;
#X connect 10 0 19 0;
#X connect 11 0 0 1;
#X connect 11 1 4 1;
#X connect 11 1 18 0;
#X connect 12 0 0 0;
#X connect 12 0 17 0;
#X connect 12 0 20 0;
#X restore 35 243 pd type_compare;
#X obj 266 187 s \$0-listb;
#X obj 35 218 s \$0-lista;
#N canvas 875 238 1030 726 list_compare 0;
#X obj 196 259 list prepend;
#X obj 5 259 list prepend;
#X obj 5 89 t l l;
#X obj 250 87 t l l;
#X obj 37 111 list length;
#X obj 261 118 list length;
#X obj 37 135 ==;
#X msg 83 202 0;
#X obj 83 224 s \$0-outval;
#X obj 5 181 spigot;
#X obj 5 395 s \$0-outval;
#X obj 83 180 sel 0;
#X obj 5 48 spigot;
#X obj 73 6 r \$0-spiglista;
#X obj 250 6 r \$0-listb;
#X obj 5 6 r \$0-lista;
#X obj 37 158 t f f;
#X obj 5 286 ls.binop symbol.==;
#X obj 5 360 ==;
#X obj 5 320 ls.sum;
#X text 439 18 1 both are lists?;
#X text 250 36 1b: only lists get here;
#X text 73 36 1a: only lists get here;
#X text 450 110 2: same size?;
#X text 456 285 3: pair-wise comparison;
#X text 455 359 4: sum of pair-wise comparison must be equal to list lengths;
#X connect 0 0 17 1;
#X connect 1 0 17 0;
#X connect 2 0 9 0;
#X connect 2 1 4 0;
#X connect 3 0 0 0;
#X connect 3 1 5 0;
#X connect 4 0 6 0;
#X connect 5 0 6 1;
#X connect 5 0 18 1;
#X connect 6 0 16 0;
#X connect 7 0 8 0;
#X connect 9 0 1 0;
#X connect 11 0 7 0;
#X connect 12 0 2 0;
#X connect 13 0 12 1;
#X connect 14 0 3 0;
#X connect 15 0 12 0;
#X connect 16 0 9 1;
#X connect 16 1 11 0;
#X connect 17 0 19 0;
#X connect 18 0 10 0;
#X connect 19 0 18 0;
#X restore 35 286 pd list_compare;
#X obj 339 -67 pdcontrol;
#X msg 339 -96 args 0;
#X obj 339 -118 loadbang;
#X obj 714 218 list length;
#X obj 650 218 t l l;
#X obj 714 244 > 1;
#X obj 650 264 spigot;
#X obj 714 270 tgl 25 0 empty empty empty 17 7 0 10 #e4e4e4 #4d4d4d #373737 0 1;
#X obj 339 -41 route list float bang symbol;
#X obj 533 70 symbol;
#X obj 652 330 list prepend;
#X obj 154 196 s \$0-spiglista;
#X connect 0 0 10 0;
#X connect 0 1 11 0;
#X connect 1 0 8 0;
#X connect 1 1 9 0;
#X connect 2 0 15 0;
#X connect 3 0 16 0;
#X connect 4 0 14 0;
#X connect 5 0 17 0;
#X connect 5 0 36 0;
#X connect 7 0 6 0;
#X connect 8 0 23 0;
#X connect 8 1 5 0;
#X connect 9 0 19 0;
#X connect 9 1 3 0;
#X connect 10 0 22 0;
#X connect 10 1 4 0;
#X connect 11 0 18 0;
#X connect 11 1 2 0;
#X connect 12 0 1 0;
#X connect 13 0 0 0;
#X connect 25 0 33 0;
#X connect 26 0 25 0;
#X connect 27 0 26 0;
#X connect 28 0 30 0;
#X connect 29 0 31 0;
#X connect 29 1 28 0;
#X connect 30 0 31 1;
#X connect 30 0 32 0;
#X connect 31 0 35 0;
#X connect 33 0 29 0;
#X connect 33 1 11 0;
#X connect 33 2 11 0;
#X connect 33 3 11 0;
#X connect 33 4 34 0;
#X connect 34 0 11 0;
#X connect 35 0 10 0;
