#N canvas 385 23 1049 600 12;
#X obj 48 186 array size;
#X obj -82 186 array size;
#X obj 62 241 ==;
#X obj 62 265 sel 0;
#X msg 62 289 sizes don't match;
#X obj -84 248 until;
#X obj -84 302 f;
#X obj -56 302 + 1;
#X msg -66 280 0;
#X obj -84 420 array get;
#X msg -54 398 1;
#X obj -14 420 array get;
#X msg 16 398 1;
#X obj -52 376 loadbang;
#X obj -84 448 &&;
#X obj -82 208 t f f b;
#X obj -82 90 inlet;
#X obj -64 504 outlet;
#X obj -82 119 t b b b b b;
#X obj -134 504 array set;
#X obj -84 325 t f f f;
#X obj -116 475 t f f;
#X obj 62 313 print \$0-array.binop;
#X obj 698 261 f \$0;
#N canvas 0 23 450 300 \$0-binop 1;
#X restore 797 92 pd \$0-binop;
#X msg 698 282 \; pd-\$1-binop clear \;;
#X obj 468 94 pdcontrol;
#X msg 468 71 args 0;
#X obj -15 159 symbol \$1;
#X obj 115 159 symbol \$2;
#X obj 196 159 symbol \$3;
#X obj 468 115 list trim;
#X obj 468 139 list length;
#X obj 468 165 < 4;
#X msg 330 445 \; pd-\$1-binop obj 10 10 r \$1-binop_in1 \; pd-\$1-binop
obj 70 10 r \$1-binop_in2 \; pd-\$1-binop obj 10 40 \$2 \; pd-\$1-binop
obj 10 70 r \$1-binop_out \;, f 68;
#X obj 330 420 pack \$0 \$4;
#X connect 0 0 2 1;
#X connect 1 0 15 0;
#X connect 2 0 3 0;
#X connect 3 0 4 0;
#X connect 4 0 22 0;
#X connect 5 0 6 0;
#X connect 6 0 7 0;
#X connect 6 0 20 0;
#X connect 7 0 6 1;
#X connect 8 0 6 1;
#X connect 9 0 14 0;
#X connect 10 0 9 1;
#X connect 11 0 14 1;
#X connect 12 0 11 1;
#X connect 13 0 10 0;
#X connect 13 0 12 0;
#X connect 14 0 21 0;
#X connect 15 0 5 0;
#X connect 15 1 2 0;
#X connect 15 2 8 0;
#X connect 16 0 18 0;
#X connect 18 0 1 0;
#X connect 18 1 0 0;
#X connect 18 2 28 0;
#X connect 18 3 29 0;
#X connect 18 4 30 0;
#X connect 20 0 9 0;
#X connect 20 1 11 0;
#X connect 20 2 19 1;
#X connect 21 0 19 0;
#X connect 21 1 17 0;
#X connect 23 0 25 0;
#X connect 26 0 31 0;
#X connect 27 0 26 0;
#X connect 28 0 1 1;
#X connect 28 0 9 2;
#X connect 29 0 0 1;
#X connect 29 0 11 2;
#X connect 30 0 19 2;
#X connect 31 0 32 0;
#X connect 32 0 33 0;
#X connect 35 0 34 0;
