#N canvas 39 44 1881 1014 12;
#X obj 647 174 loadbang;
#X msg 790 266 \; pd-\$1-map clear \;;
#N canvas 0 23 450 300 \$0-map 0;
#X obj 10 10 r 13692-map_in1;
#X obj 10 190 s 13692-map_out;
#X obj 10 100 expr abs(cos($f1));
#X connect 0 0 2 0;
#X connect 2 0 1 0;
#X restore 1427 59 pd \$0-map;
#X msg 780 520 \; pd-13692-map obj 10 100 expr abs(cos($f1)) \;;
#X msg 780 405 addsemi;
#X obj 780 496 r \$0-buildmess;
#X obj 968 383 s \$0-buildmess;
#X obj 968 405 s \$0-buildmess;
#X msg 780 383 set;
#X msg 780 474 addsemi;
#X obj 969 474 s \$0-buildmess;
#X obj 968 429 s \$0-buildmess;
#X obj 969 450 s \$0-buildmess;
#N canvas 669 174 674 469 argparse 0;
#X obj 156 139 pdcontrol;
#X msg 156 117 args 0;
#X obj 156 187 list trim;
#X obj 296 162 list length;
#X obj 156 161 t l l;
#X msg 296 237 + 1;
#N canvas 0 23 450 300 iterate 0;
#X obj 68 315 until;
#X obj 68 418 list store;
#X obj 68 340 f;
#X obj 106 341 + 1;
#X msg 120 315 0, f 2;
#X msg 68 389 get \$1 1;
#X obj 117 219 inlet;
#X obj 68 446 outlet;
#X obj 68 363 t f f;
#X obj 68 292 list length;
#X obj 117 242 t a b a b;
#X connect 0 0 2 0;
#X connect 1 0 7 0;
#X connect 2 0 3 0;
#X connect 2 0 8 0;
#X connect 3 0 2 1;
#X connect 4 0 2 1;
#X connect 5 0 1 0;
#X connect 6 0 10 0;
#X connect 8 0 5 0;
#X connect 9 0 0 0;
#X connect 10 0 9 0;
#X connect 10 1 4 0;
#X connect 10 2 1 1;
#X connect 10 3 1 1;
#X restore 156 237 pd iterate;
#X obj 156 212 spigot;
#X obj 296 211 sel 0;
#X obj 296 187 > 0;
#X obj 156 5 inlet;
#X obj 156 292 outlet;
#X msg 156 264 add2 \$1;
#X obj 304 3 inlet;
#X obj 304 25 list trim;
#X obj 156 84 spigot;
#X msg 204 60 1;
#X msg 204 83 0;
#X obj 217 1 loadbang;
#X obj 368 71 spigot;
#X msg 416 47 1;
#X msg 416 70 0;
#X obj 447 70 loadbang;
#X obj 156 29 t b b;
#X obj 304 50 t a b;
#X obj 278 99 list store;
#X connect 0 0 4 0;
#X connect 1 0 0 0;
#X connect 2 0 7 0;
#X connect 3 0 9 0;
#X connect 4 0 2 0;
#X connect 4 1 3 0;
#X connect 5 0 6 0;
#X connect 6 0 12 0;
#X connect 7 0 6 0;
#X connect 8 0 5 0;
#X connect 9 0 7 1;
#X connect 9 0 8 0;
#X connect 10 0 23 0;
#X connect 12 0 11 0;
#X connect 13 0 14 0;
#X connect 14 0 24 0;
#X connect 15 0 1 0;
#X connect 16 0 15 1;
#X connect 17 0 15 1;
#X connect 18 0 16 0;
#X connect 19 0 25 0;
#X connect 20 0 19 1;
#X connect 21 0 19 1;
#X connect 22 0 21 0;
#X connect 23 0 15 0;
#X connect 23 1 19 0;
#X connect 24 0 25 1;
#X connect 24 1 20 0;
#X connect 25 0 6 0;
#X restore 780 450 pd argparse;
#X obj 647 226 t f b b b f b b f f;
#X msg 780 428 add2 pd-\$1-map obj 10 100;
#X obj 647 202 f \$0;
#X obj 844 139 inlet;
#X obj 844 162 t b a;
#X obj 108 246 array size;
#X obj 106 308 until;
#X obj 106 362 f;
#X obj 134 362 + 1;
#X msg 124 340 0;
#X obj 106 480 array get;
#X msg 136 458 1;
#X obj 138 436 loadbang;
#X obj 108 80 inlet;
#X obj 322 608 outlet;
#X obj 234 578 t f f;
#X obj 204 608 array set \$0arr;
#X obj 162 220 symbol;
#X obj 73 504 s \$0-map_in1;
#X obj 234 556 r \$0-map_out;
#X obj 386 219 symbol \$0arr;
#X obj 108 108 route bang inarray outarray binop;
#X obj 106 385 t f f;
#X msg 790 304 \; pd-\$1-map obj 10 10 r \$1-map_in1 \; pd-\$1-map
obj 10 190 s \$1-map_out \;, f 68;
#X msg 780 557 \; pd-\$1-map connect 0 0 2 0 \; pd-\$1-map connect
2 0 1 0 \;, f 68;
#X obj 107 136 t b b b;
#X obj 108 268 t f b;
#X connect 0 0 16 0;
#X connect 4 0 7 0;
#X connect 5 0 3 0;
#X connect 8 0 6 0;
#X connect 9 0 10 0;
#X connect 13 0 12 0;
#X connect 14 0 38 0;
#X connect 14 1 3 0;
#X connect 14 2 9 0;
#X connect 14 3 13 0;
#X connect 14 4 15 0;
#X connect 14 5 4 0;
#X connect 14 6 8 0;
#X connect 14 7 37 0;
#X connect 14 8 1 0;
#X connect 15 0 11 0;
#X connect 16 0 14 0;
#X connect 17 0 18 0;
#X connect 18 0 16 0;
#X connect 18 1 13 1;
#X connect 19 0 40 0;
#X connect 20 0 21 0;
#X connect 21 0 22 0;
#X connect 21 0 36 0;
#X connect 22 0 21 1;
#X connect 23 0 21 1;
#X connect 24 0 32 0;
#X connect 25 0 24 1;
#X connect 26 0 25 0;
#X connect 27 0 35 0;
#X connect 29 0 30 0;
#X connect 29 1 28 0;
#X connect 31 0 19 1;
#X connect 31 0 24 2;
#X connect 33 0 29 0;
#X connect 34 0 30 2;
#X connect 35 0 39 0;
#X connect 35 1 31 0;
#X connect 35 2 34 0;
#X connect 36 0 24 0;
#X connect 36 1 30 1;
#X connect 39 0 19 0;
#X connect 39 1 31 0;
#X connect 39 2 34 0;
#X connect 40 0 20 0;
#X connect 40 1 23 0;
