#N canvas 124 23 1049 600 12;
#X obj 48 186 array size;
#X obj -82 186 array size;
#X obj 62 241 ==;
#X obj 62 265 sel 0;
#X msg 62 289 sizes don't match;
#X obj -84 248 until;
#X obj -84 302 f;
#X obj -56 302 + 1;
#X msg -66 280 0;
#X obj -84 420 array get;
#X msg -54 398 1;
#X obj -14 420 array get;
#X msg 16 398 1;
#X obj -52 376 loadbang;
#X obj -82 208 t f f b;
#X obj -82 20 inlet;
#X obj 132 548 outlet;
#X obj -82 119 t b b b b b;
#X obj -84 325 t f f f;
#X obj 44 518 t f f;
#X obj 62 313 print \$0-array.binop;
#N canvas 0 23 450 300 \$0-binop 0;
#X obj 10 10 r 1037-binop_in1;
#X obj 170 10 r 1037-binop_in2;
#X obj 10 40 *;
#X obj 10 70 s 1037-binop_out;
#X connect 0 0 2 0;
#X connect 1 0 2 1;
#X connect 2 0 3 0;
#X restore 797 92 pd \$0-binop;
#X msg 609 114 \; pd-\$1-binop clear \;;
#X obj 580 177 pdcontrol;
#X msg 580 154 args 0;
#X obj -15 159 symbol \$1;
#X obj 115 159 symbol \$2;
#X obj 580 198 list trim;
#X obj 580 222 list length;
#X obj 540 342 pack \$0 s;
#X msg 540 366 \; pd-\$1-binop obj 10 10 r \$1-binop_in1 \; pd-\$1-binop
obj 170 10 r \$1-binop_in2 \; pd-\$1-binop obj 10 40 \$2 \; pd-\$1-binop
obj 10 70 s \$1-binop_out \; pd-\$1-binop connect 0 0 2 0 \; pd-\$1-binop
connect 1 0 2 1 \; pd-\$1-binop connect 2 0 3 0 \;, f 68;
#X obj -13 444 s \$0-binop_in2;
#X obj -117 444 s \$0-binop_in1;
#X obj 44 496 r \$0-binop_out;
#X obj 539 85 loadbang;
#X obj 580 269 sel 1;
#X obj 580 293 symbol +;
#X obj 539 107 f \$0;
#X obj 540 128 t b b b f;
#X obj -82 48 route bang array1 array2 array3 binop;
#X obj 196 159 symbol \$4;
#X obj 580 248 < 3;
#X obj 560 316 symbol \$3;
#X obj 14 548 array set \$0arr;
#X obj 496 254 == 4;
#X obj 496 282 sel 1;
#X obj 289 85 table \$0arr 2;
#X connect 0 0 2 1;
#X connect 1 0 14 0;
#X connect 2 0 3 0;
#X connect 3 0 4 0;
#X connect 4 0 20 0;
#X connect 5 0 6 0;
#X connect 6 0 7 0;
#X connect 6 0 18 0;
#X connect 7 0 6 1;
#X connect 8 0 6 1;
#X connect 9 0 32 0;
#X connect 10 0 9 1;
#X connect 11 0 31 0;
#X connect 12 0 11 1;
#X connect 13 0 10 0;
#X connect 13 0 12 0;
#X connect 14 0 5 0;
#X connect 14 1 2 0;
#X connect 14 2 8 0;
#X connect 15 0 39 0;
#X connect 17 0 1 0;
#X connect 17 1 0 0;
#X connect 17 2 25 0;
#X connect 17 3 26 0;
#X connect 18 0 9 0;
#X connect 18 1 11 0;
#X connect 18 2 43 1;
#X connect 19 0 43 0;
#X connect 19 1 16 0;
#X connect 23 0 27 0;
#X connect 24 0 23 0;
#X connect 25 0 1 1;
#X connect 25 0 9 2;
#X connect 26 0 0 1;
#X connect 26 0 11 2;
#X connect 27 0 28 0;
#X connect 28 0 41 0;
#X connect 28 0 44 0;
#X connect 29 0 30 0;
#X connect 33 0 19 0;
#X connect 34 0 37 0;
#X connect 35 0 36 0;
#X connect 36 0 42 1;
#X connect 37 0 38 0;
#X connect 38 0 29 0;
#X connect 38 1 42 0;
#X connect 38 2 24 0;
#X connect 38 3 22 0;
#X connect 39 0 17 0;
#X connect 39 1 25 1;
#X connect 39 2 26 1;
#X connect 39 3 40 1;
#X connect 39 4 42 0;
#X connect 40 0 43 2;
#X connect 41 0 35 0;
#X connect 42 0 29 1;
#X connect 44 0 45 0;
#X connect 45 0 40 0;
