#N canvas 0 23 1170 776 12;
#X obj 643 144 symbol \$1;
#X obj 562 429 array set;
#X obj 643 121 loadbang;
#X obj 131 187 s \$0-array;
#X obj 711 121 r \$0-array;
#X obj 246 106 f \$2;
#X obj 287 106 f \$3;
#X obj 356 106 f \$4;
#X obj 245 209 abs;
#X msg 356 148 1;
#X obj 356 169 /;
#X obj 192 303 random 1;
#X obj 287 127 t f b b;
#X obj 209 29 route array min max unit bang;
#X obj 558 176 array size;
#X obj 556 238 until;
#X obj 556 282 f;
#X obj 584 282 + 1;
#X msg 574 260 0;
#X obj 558 198 t f b;
#X obj 369 54 t b b;
#X obj 192 327 *;
#X obj 356 127 t b f f;
#X obj 192 350 +;
#X obj 556 305 t b f;
#X obj 209 5 inlet;
#X obj 245 186 - 0;
#X obj 245 233 * 1;
#X obj 484 -40 pdcontrol;
#X obj 484 25 list length;
#X msg 531 107 1;
#X obj 531 61 < 3;
#X obj 531 84 sel 1;
#X msg 573 107 1;
#X obj 573 84 sel 1;
#X obj 573 61 < 4;
#X obj 487 85 sel 1;
#X obj 487 62 < 2;
#X obj 484 -94 loadbang;
#X floatatom 314 251 5 0 0 0 - - -;
#X floatatom 284 175 5 0 0 0 - - -;
#X floatatom 368 219 5 0 0 0 - - -;
#X obj 605 62 tgl 15 0 empty empty empty 17 7 0 10 -262144 -1 -1 1
1;
#X obj 585 26 tgl 15 0 empty empty empty 17 7 0 10 -262144 -1 -1 0
1;
#X obj 465 66 tgl 15 0 empty empty empty 17 7 0 10 -262144 -1 -1 0
1;
#X floatatom 512 -4 5 0 0 0 - - -;
#X obj 484 -18 list trim;
#X msg 484 -69 args 0;
#X obj 246 267 + 1;
#X msg 487 108 0;
#X connect 0 0 14 1;
#X connect 0 0 1 2;
#X connect 2 0 0 0;
#X connect 4 0 0 0;
#X connect 5 0 23 1;
#X connect 5 0 26 1;
#X connect 6 0 12 0;
#X connect 7 0 22 0;
#X connect 8 0 27 0;
#X connect 8 0 40 0;
#X connect 9 0 10 0;
#X connect 10 0 27 1;
#X connect 11 0 21 0;
#X connect 12 0 26 0;
#X connect 12 1 5 0;
#X connect 12 2 7 0;
#X connect 13 0 3 0;
#X connect 13 1 5 0;
#X connect 13 2 6 1;
#X connect 13 3 7 0;
#X connect 13 4 20 0;
#X connect 14 0 19 0;
#X connect 15 0 16 0;
#X connect 16 0 17 0;
#X connect 16 0 24 0;
#X connect 17 0 16 1;
#X connect 18 0 16 1;
#X connect 19 0 15 0;
#X connect 19 1 18 0;
#X connect 20 0 14 0;
#X connect 20 1 6 0;
#X connect 21 0 23 0;
#X connect 22 0 9 0;
#X connect 22 1 10 1;
#X connect 22 2 21 1;
#X connect 23 0 1 0;
#X connect 24 0 11 0;
#X connect 24 1 1 1;
#X connect 25 0 13 0;
#X connect 26 0 8 0;
#X connect 27 0 39 0;
#X connect 27 0 48 0;
#X connect 28 0 46 0;
#X connect 29 0 31 0;
#X connect 29 0 35 0;
#X connect 29 0 37 0;
#X connect 29 0 45 0;
#X connect 30 0 6 1;
#X connect 31 0 32 0;
#X connect 31 0 43 0;
#X connect 32 0 30 0;
#X connect 33 0 7 0;
#X connect 34 0 33 0;
#X connect 35 0 34 0;
#X connect 35 0 42 0;
#X connect 36 0 49 0;
#X connect 37 0 36 0;
#X connect 37 0 44 0;
#X connect 38 0 47 0;
#X connect 46 0 29 0;
#X connect 47 0 28 0;
#X connect 48 0 11 1;
#X connect 49 0 5 1;
