#N canvas 0 23 1049 600 12;
#X obj 534 173 symbol \$2;
#X obj 467 200 array size;
#X obj 337 200 array size;
#X obj 404 173 symbol \$1;
#X obj 481 255 ==;
#X obj 481 279 sel 0;
#X msg 481 303 sizes don't match;
#X obj 335 262 until;
#X obj 335 316 f;
#X obj 363 316 + 1;
#X msg 353 294 0;
#X obj 335 434 array get;
#X msg 365 412 1;
#X obj 405 434 array get;
#X msg 435 412 1;
#X obj 367 390 loadbang;
#X obj 335 462 &&;
#X obj 337 222 t f f b;
#X obj 337 104 inlet;
#X obj 355 518 outlet;
#X obj 481 327 print \$0-array.AND;
#X obj 614 173 symbol \$3;
#X obj 337 133 t b b b b b;
#X obj 285 518 array set;
#X obj 335 339 t f f f;
#X obj 303 489 t f f;
#X connect 0 0 1 1;
#X connect 0 0 13 2;
#X connect 1 0 4 1;
#X connect 2 0 17 0;
#X connect 3 0 2 1;
#X connect 3 0 11 2;
#X connect 4 0 5 0;
#X connect 5 0 6 0;
#X connect 6 0 20 0;
#X connect 7 0 8 0;
#X connect 8 0 9 0;
#X connect 8 0 24 0;
#X connect 9 0 8 1;
#X connect 10 0 8 1;
#X connect 11 0 16 0;
#X connect 12 0 11 1;
#X connect 13 0 16 1;
#X connect 14 0 13 1;
#X connect 15 0 12 0;
#X connect 15 0 14 0;
#X connect 16 0 25 0;
#X connect 17 0 7 0;
#X connect 17 1 4 0;
#X connect 17 2 10 0;
#X connect 18 0 22 0;
#X connect 21 0 23 2;
#X connect 22 0 2 0;
#X connect 22 1 1 0;
#X connect 22 2 3 0;
#X connect 22 3 0 0;
#X connect 22 4 21 0;
#X connect 24 0 11 0;
#X connect 24 1 13 0;
#X connect 24 2 23 1;
#X connect 25 0 23 0;
#X connect 25 1 19 0;
