#N canvas 452 177 1385 836 12;
#N canvas 0 22 450 278 (subpatch) 0;
#X array arrayA 10 float 3;
#A 0 0.5 0.3 0.5 0.8 0.2 0 0.9 -0.7 0.8 0.6;
#X coords 0 1 10 -1 200 140 1 0 0;
#X restore 221 61 graph;
#N canvas 0 22 450 278 (subpatch) 0;
#X array arrayB 10 float 3;
#A 0 -1 1 1 0 1 -1 -1 -1 0 -1;
#X coords 0 1 10 -1 200 140 1 0 0;
#X restore 218 279 graph;
#N canvas 0 22 450 278 (subpatch) 0;
#X array arrayC 10 float 3;
#A 0 0.428577 0.257145 0.0428542 -0.214295 -0.285725 -0.328583 -0.485729
-0.542874 -0.62859 -0.871452;
#X coords 0 1 10 -1 200 140 1 0 0;
#X restore 219 615 graph;
#X obj 870 263 bng 15 250 50 0 empty empty empty 17 7 0 10 -262144
-1 -1;
#X obj 869 217 bng 15 250 50 0 empty empty empty 17 7 0 10 -262144
-1 -1;
#X obj 522 77 bng 15 250 50 0 empty empty empty 17 7 0 10 -262144 -1
-1;
#X obj 870 285 array.rand arrayB -1 1 1;
#X msg 547 106 inarray1 arrayA;
#X msg 547 127 inarray2 arrayB;
#X msg 547 150 outarray arrayC;
#X obj 547 82 t b b b;
#X obj 602 82 loadbang;
#X obj 528 276 bng 15 250 50 0 empty empty empty 17 7 0 10 -262144
-1 -1;
#X msg 553 304 inarray1 arrayA;
#X msg 553 326 inarray2 arrayB;
#X msg 553 349 outarray arrayC;
#X obj 553 281 t b b b;
#X obj 608 281 loadbang;
#X obj 527 371 array.map2 fmod;
#X obj 532 451 bng 15 250 50 0 empty empty empty 17 7 0 10 -262144
-1 -1;
#X msg 557 479 inarray1 arrayA;
#X msg 557 501 inarray2 arrayB;
#X msg 557 524 outarray arrayC;
#X obj 557 456 t b b b;
#X obj 612 456 loadbang;
#X obj 531 546 array.map2 ||;
#X obj 869 239 array.rand arrayA -1 1 0.1;
#X obj 521 172 array.map2 expr +;
#X connect 3 0 6 0;
#X connect 4 0 26 0;
#X connect 5 0 27 0;
#X connect 7 0 27 0;
#X connect 8 0 27 0;
#X connect 9 0 27 0;
#X connect 10 0 7 0;
#X connect 10 1 8 0;
#X connect 10 2 9 0;
#X connect 11 0 10 0;
#X connect 12 0 18 0;
#X connect 13 0 18 0;
#X connect 14 0 18 0;
#X connect 15 0 18 0;
#X connect 16 0 13 0;
#X connect 16 1 14 0;
#X connect 16 2 15 0;
#X connect 17 0 16 0;
#X connect 19 0 25 0;
#X connect 20 0 25 0;
#X connect 21 0 25 0;
#X connect 22 0 25 0;
#X connect 23 0 20 0;
#X connect 23 1 21 0;
#X connect 23 2 22 0;
#X connect 24 0 23 0;
