#N canvas 180 163 679 429 12;
#X obj 220 80 f \$2;
#X text 15 117 list length;
#X obj 220 56 r \$1-bang;
#X obj 220 144 random;
#X obj 247 190 ls.removeAt;
#X obj 296 112 r \$1-random;
#X text 379 113 may be usefull to set seed (to do);
#X obj 247 240 s \$1-list_withoutval;
#X obj 321 217 s \$1-current_val;
#X obj 220 113 t b f;
#X obj 321 167 r \$1-current_list;
#X connect 0 0 9 0;
#X connect 2 0 0 0;
#X connect 3 0 4 0;
#X connect 4 0 7 0;
#X connect 4 1 8 0;
#X connect 5 0 3 0;
#X connect 9 0 3 0;
#X connect 9 1 3 1;
#X connect 10 0 4 1;
