#N canvas 413 35 945 773 12;
#X obj 284 315 mtof;
#X obj 494 353 r \$2-filterQ;
#X obj 494 433 line;
#X msg 494 405 \$1 100;
#X obj 494 377 route float list;
#X msg 548 405 \$1 \$2;
#X obj 284 348 phasor~;
#X obj 646 169 f \$1;
#X obj 646 192 + 48;
#X obj 646 215 mtof;
#X obj 646 148 loadbang;
#X obj 413 461 vcf~;
#X obj 413 491 vcf~;
#X obj 424 230 osc~;
#X text 461 230 LFO;
#X floatatom 424 204 5 0 0 0 - - -;
#X text 464 204 freq;
#X obj 424 255 *~;
#X text 455 255 depth;
#X obj 284 139 f \$1;
#X obj 284 113 loadbang;
#X obj 438 389 +~;
#X obj 284 231 t b f;
#X obj 284 292 -;
#X obj 510 227 r \$2-filterDepth;
#X obj 511 139 r \$2-filterLFO;
#X obj 461 300 r \$2-filterCentralFreq;
#X obj 38 24 inlet;
#X obj 38 67 route 1 0;
#X obj 70 215 switch~;
#X obj -20 188 t b b;
#X msg 70 190 1;
#X obj 82 97 t b b;
#X msg 102 190 0;
#X obj 424 50 loadbang;
#X obj 424 100 / 100;
#X obj 424 122 + 0.2;
#X obj 723 228 loadbang;
#X obj 723 256 random 500;
#X obj 723 278 + 500;
#X obj 724 337 loadbang;
#X msg 724 360 750;
#X obj 721 445 loadbang;
#X msg 721 471 3;
#X obj 47 372 line~;
#X obj 334 564 *~;
#X obj 116 282 pack 0 250;
#X obj 102 164 t b b;
#X obj 102 140 del 250;
#X msg -22 250 1;
#X obj -22 281 pack 0 5;
#X obj 81 24 r \$2-ctsAttTime;
#X obj 158 231 r \$2-ctsRelTime;
#X msg 54 283 0.9 100;
#X obj -33 309 t l b;
#X obj 284 166 / \$3;
#X text 603 32 \$2 main patch \$0;
#X obj 334 604 outlet~;
#X floatatom 332 314 5 0 0 0 - - -;
#X msg 107 246 0;
#X obj 494 457 max 3;
#X obj 284 193 int;
#X obj 52 329 del 100;
#X obj 138 80 bng 15 250 50 0 empty empty empty 17 7 0 10 -262144 -1
-1;
#X obj 424 78 random 300;
#X msg 284 259 72;
#X connect 0 0 6 0;
#X connect 0 0 58 0;
#X connect 1 0 4 0;
#X connect 2 0 60 0;
#X connect 3 0 2 0;
#X connect 4 0 3 0;
#X connect 4 1 5 0;
#X connect 5 0 2 0;
#X connect 6 0 11 0;
#X connect 7 0 8 0;
#X connect 8 0 9 0;
#X connect 10 0 7 0;
#X connect 11 0 12 0;
#X connect 12 0 45 0;
#X connect 13 0 17 0;
#X connect 15 0 13 0;
#X connect 17 0 21 0;
#X connect 19 0 55 0;
#X connect 20 0 19 0;
#X connect 21 0 11 1;
#X connect 21 0 12 1;
#X connect 22 0 65 0;
#X connect 22 1 23 1;
#X connect 23 0 0 0;
#X connect 24 0 17 1;
#X connect 25 0 15 0;
#X connect 26 0 21 1;
#X connect 27 0 28 0;
#X connect 28 0 30 0;
#X connect 28 1 32 0;
#X connect 28 1 63 0;
#X connect 30 0 49 0;
#X connect 30 1 31 0;
#X connect 31 0 29 0;
#X connect 32 0 59 0;
#X connect 32 1 48 0;
#X connect 33 0 29 0;
#X connect 34 0 64 0;
#X connect 35 0 36 0;
#X connect 36 0 15 0;
#X connect 37 0 38 0;
#X connect 38 0 39 0;
#X connect 39 0 17 1;
#X connect 40 0 41 0;
#X connect 41 0 21 1;
#X connect 42 0 43 0;
#X connect 43 0 3 0;
#X connect 44 0 45 1;
#X connect 45 0 57 0;
#X connect 46 0 44 0;
#X connect 47 0 33 0;
#X connect 48 0 47 0;
#X connect 49 0 50 0;
#X connect 50 0 54 0;
#X connect 51 0 50 1;
#X connect 52 0 46 1;
#X connect 53 0 44 0;
#X connect 54 0 44 0;
#X connect 54 1 62 0;
#X connect 55 0 61 0;
#X connect 59 0 46 0;
#X connect 60 0 11 2;
#X connect 60 0 12 2;
#X connect 61 0 22 0;
#X connect 62 0 53 0;
#X connect 64 0 35 0;
#X connect 65 0 23 0;
