#N canvas 559 211 948 532 12;
#X obj 237 121 /;
#X obj 320 87 t f f;
#X obj 237 170 *;
#X obj 237 145 i;
#X obj 205 57 t f f;
#X obj 205 195 -;
#X obj 157 -18 inlet;
#X obj 157 232 f;
#X obj 157 260 outlet;
#X obj 361 13 inlet;
#X obj 320 64 f \$1;
#X obj 367 37 loadbang;
#X obj 253 31 unpack 0 0;
#X obj 157 7 route bang float list;
#X connect 0 0 3 0;
#X connect 1 0 0 1;
#X connect 1 1 2 1;
#X connect 2 0 5 1;
#X connect 3 0 2 0;
#X connect 4 0 5 0;
#X connect 4 1 0 0;
#X connect 5 0 7 0;
#X connect 6 0 13 0;
#X connect 7 0 8 0;
#X connect 9 0 10 0;
#X connect 10 0 1 0;
#X connect 11 0 10 0;
#X connect 12 0 4 0;
#X connect 12 1 10 0;
#X connect 13 0 7 0;
#X connect 13 1 4 0;
#X connect 13 2 12 0;
