#N canvas 472 23 805 622 12;
#X declare -path planifolia;
#X msg 72 257 10 20 30 40 50;
#X obj 83 117 cnv 18 3 17 empty empty 0 5 9 0 14 #dcdcdc #9c9c9c 0;
#X obj 621 40 plnf_version;
#X obj 83 167 cnv 18 3 17 empty empty 0 5 9 0 14 #dcdcdc #9c9c9c 0;
#X msg 60 232 list a b c d e;
#X msg 160 292 a b c d e;
#X text 183 246 sets list and automatically chooses element;
#X text 234 291 non lists are converted to lists;
#X obj 60 328 ls.butlast;
#X obj 60 379 print;
#X text 103 117 list;
#X text 105 167 list;
#X text 32 48 returns list without its last element;
#X obj -1 -1 cnv 15 805 23 empty empty ls.butlast 8 10 0 20 #282d39 #efefef 0;
#X obj -1 93 cnv 15 805 17 empty empty inlets 8 8 0 12 #282d39 #efefef 0;
#X obj -1 147 cnv 15 805 17 empty empty outlets 8 8 0 12 #282d39 #efefef 0;
#X obj -1 207 cnv 15 805 17 empty empty example 8 8 0 12 #282d39 #efefef 0;
#X obj 636 240 declare -path planifolia;
#X connect 0 0 8 0;
#X connect 4 0 8 0;
#X connect 5 0 8 0;
#X connect 8 0 9 0;
