#N canvas 0 23 718 432 12;
#X obj 190 139 list length;
#X obj 123 145 t l l;
#X obj 122 -16 inlet;
#X obj 123 116 list store;
#X obj 123 211 outlet;
#X obj 123 185 list split;
#X obj 190 163 - 1;
#X obj 122 8 route list bang;
#X obj 122 35 list trim;
#X obj 123 87 t l b;
#X obj 123 60 list prepend;
#X connect 0 0 6 0;
#X connect 1 0 5 0;
#X connect 1 1 0 0;
#X connect 2 0 7 0;
#X connect 3 0 1 0;
#X connect 5 0 4 0;
#X connect 6 0 5 1;
#X connect 7 0 8 0;
#X connect 7 1 3 0;
#X connect 8 0 10 0;
#X connect 9 0 3 0;
#X connect 9 1 3 1;
#X connect 10 0 9 0;
