#N canvas 472 23 822 798 12;
#X declare -path planifolia;
#X obj 68 598 ls.choose;
#X obj 68 649 print a;
#X obj 128 622 print b;
#X text 182 624 index;
#X text 122 651 element;
#X msg 72 367 10 20 30 40 50;
#X obj 83 137 cnv 18 3 17 empty empty 0 5 9 0 14 #dcdcdc #9c9c9c 0;
#X obj 621 40 plnf_version;
#X obj 83 260 cnv 18 3 17 empty empty 0 5 9 0 14 #dcdcdc #9c9c9c 0;
#X text 103 157 bang: chooses element of stored (or last) list;
#X text 103 137 list: sets list and automatically chooses element;
#X text 103 177 seed: sets random seed;
#X obj 83 207 cnv 18 3 17 empty empty 1 5 9 0 14 #dcdcdc #9c9c9c 0;
#X text 103 207 list: changes stored list (does not output choosed element);
#X text 32 48 chooses random element of a list and returns element (left outlet) and index (right outlet);
#X msg 60 342 list a b c d e;
#X msg 124 394 seed 23;
#X obj 164 430 bng 15 250 50 0 empty empty empty 17 7 0 10 #fcfcfc #000000 #000000;
#X msg 144 563 6 7 8 9;
#X msg 160 472 a b c d e;
#X text 183 356 sets list and automatically chooses element;
#X text 183 392 set random seed;
#X text 183 428 chooses new element;
#X text 234 471 non lists are converted to lists;
#X text 214 560 change stored list (no output);
#X text 105 260 element;
#X obj 83 283 cnv 18 3 17 empty empty 1 5 9 0 14 #dcdcdc #9c9c9c 0;
#X text 105 283 index of element in the list;
#X obj -1 -1 cnv 15 805 23 empty empty ls.choose 8 10 0 20 #282d39 #efefef 0;
#X obj -1 113 cnv 15 805 17 empty empty inlets 8 8 0 12 #282d39 #efefef 0;
#X obj -1 237 cnv 15 805 17 empty empty outlets 8 8 0 12 #282d39 #efefef 0;
#X obj -1 317 cnv 15 805 17 empty empty example 8 8 0 12 #282d39 #efefef 0;
#X obj 642 356 declare -path planifolia;
#X connect 0 0 1 0;
#X connect 0 1 2 0;
#X connect 5 0 0 0;
#X connect 15 0 0 0;
#X connect 16 0 0 0;
#X connect 17 0 0 0;
#X connect 18 0 0 1;
#X connect 19 0 0 0;
