#N canvas 0 0 940 674 12;
#X obj 164 212 list;
#X obj 294 260 list length;
#X obj 164 235 t a a;
#X obj 164 400 spigot;
#X obj 162 433 t a a;
#X obj 294 310 sel 0;
#X obj 294 335 t b;
#X obj 294 285 <= 8;
#X obj 294 389 list split 7;
#X obj 164 122 t f f;
#X obj 280 113 bng 15 250 50 0 empty empty empty 17 7 0 10 #fcfcfc
#000000 #000000;
#X obj 294 364 list, f 10;
#X obj 294 537 list;
#X obj 294 455 f;
#X obj 294 415 t b a;
#X obj 189 169 r \$0_l1_r;
#X obj 191 458 s \$0_l1_r;
#X obj 294 564 s \$0_l1_r;
#X obj 280 133 s \$0_reset;
#X obj 176 146 r \$0_reset;
#X obj 361 334 r \$0_reset;
#X obj 206 120 s \$0_f;
#X obj 323 455 r \$0_f;
#X obj 330 506 r \$0_reset;
#X obj 372 364 r \$0_l1_r;
#X obj 338 415 s \$0_l3_r;
#X obj 319 484 r \$0_l3_r;
#X obj 172 618 outlet;
#X obj 164 48 inlet;
#X obj 564 233 loadbang;
#X obj 564 258 f \$1;
#X obj 564 283 t f f;
#X obj 546 338 > 0;
#X obj 618 338 f;
#X obj 546 363 sel 1 0;
#X msg 569 387 10;
#X obj 618 363 s \$0_size;
#X obj 329 285 r \$0_size;
#X obj 457 406 r \$0_size;
#X obj 457 431 - 1;
#X obj 618 54 inlet;
#X obj 164 73 route float bang reset;
#X obj 169 562 route bang;
#X obj 372 618 outlet;
#X connect 0 0 2 0;
#X connect 1 0 7 0;
#X connect 2 0 3 0;
#X connect 2 1 1 0;
#X connect 3 0 4 0;
#X connect 4 0 42 0;
#X connect 4 1 16 0;
#X connect 5 0 6 0;
#X connect 6 0 11 0;
#X connect 7 0 3 1;
#X connect 7 0 5 0;
#X connect 7 0 43 0;
#X connect 8 0 14 0;
#X connect 9 0 0 0;
#X connect 9 1 21 0;
#X connect 10 0 18 0;
#X connect 11 0 8 0;
#X connect 12 0 17 0;
#X connect 12 0 42 0;
#X connect 13 0 12 0;
#X connect 14 0 13 0;
#X connect 14 1 25 0;
#X connect 15 0 0 1;
#X connect 19 0 0 1;
#X connect 19 0 0 0;
#X connect 20 0 11 1;
#X connect 20 0 11 0;
#X connect 22 0 13 1;
#X connect 23 0 12 1;
#X connect 23 0 12 0;
#X connect 24 0 11 1;
#X connect 26 0 12 1;
#X connect 28 0 41 0;
#X connect 29 0 30 0;
#X connect 30 0 31 0;
#X connect 31 0 32 0;
#X connect 31 1 33 1;
#X connect 32 0 34 0;
#X connect 33 0 36 0;
#X connect 34 0 33 0;
#X connect 34 1 35 0;
#X connect 35 0 33 0;
#X connect 37 0 7 1;
#X connect 38 0 39 0;
#X connect 39 0 8 1;
#X connect 40 0 33 0;
#X connect 41 0 9 0;
#X connect 41 1 10 0;
#X connect 41 2 10 0;
#X connect 42 1 27 0;
