#N canvas 28 313 998 621 12;
#X obj 122 170 list length;
#X obj 141 322 list store;
#X obj 122 218 random;
#X msg 121 269 get \$1 1;
#X obj 121 194 t b f;
#X obj 122 14 inlet;
#X obj 122 113 list store;
#X obj 141 349 outlet;
#X obj 122 241 t f f;
#X obj 201 349 outlet;
#X obj 302 10 inlet;
#X obj 302 34 route list;
#X obj 122 48 route list bang seed;
#X msg 245 150 seed \$1;
#X obj 122 78 t b a;
#X obj 122 147 t a a;
#X obj 259 72 list;
#X obj 369 61 list;
#X connect 0 0 4 0;
#X connect 1 0 7 0;
#X connect 2 0 8 0;
#X connect 3 0 1 0;
#X connect 4 0 2 0;
#X connect 4 1 2 1;
#X connect 5 0 12 0;
#X connect 6 0 15 0;
#X connect 8 0 3 0;
#X connect 8 1 9 0;
#X connect 10 0 11 0;
#X connect 11 0 6 1;
#X connect 11 1 17 0;
#X connect 12 0 14 0;
#X connect 12 1 6 0;
#X connect 12 2 13 0;
#X connect 12 3 16 0;
#X connect 13 0 2 0;
#X connect 14 0 6 0;
#X connect 14 1 6 1;
#X connect 15 0 0 0;
#X connect 15 1 1 1;
#X connect 16 0 14 0;
#X connect 17 0 6 1;
