#N canvas 354 136 768 737 12;
#X obj 385 203 f \$1;
#X obj 386 88 inlet;
#X obj 92 49 inlet;
#X msg 92 404 list 28 29;
#X obj 385 110 t f b;
#X obj 417 133 s \$0-reset_msg;
#X obj 598 211 r \$0-reset_msg;
#X obj 255 129 s \$0-reset_msg;
#X obj 99 381 r \$0-msg;
#X obj 598 257 s \$0-msg;
#X obj 224 176 s \$0-msg;
#X obj 218 230 r \$0-reset_msg;
#X msg 218 253 0;
#X obj 200 278 f;
#X obj 231 278 + 1;
#X obj 215 309 ==;
#X obj 215 331 sel 1;
#X obj 215 353 s \$0-msg;
#X obj 53 668 outlet;
#X msg 224 152 add2 \$1;
#X msg 598 234 set list;
#X obj 92 431 t l b;
#X obj 124 453 s \$0-reset_msg;
#X obj 398 178 loadbang;
#X obj 385 268 - 1;
#X obj 92 487 route list float symbol bang;
#X obj 270 662 outlet;
#X obj 385 246 abs;
#X obj 385 225 int;
#X obj 334 97 list;
#X obj 92 73 route bang symbol float reset clear list;
#X obj 295 45 ls.iter;
#X obj 53 644 spigot;
#X msg 91 602 1;
#X msg 101 623 0;
#X obj 151 669 outlet;
#X obj 151 645 spigot;
#X msg 189 603 1;
#X msg 199 624 0;
#X obj 201 129 t b a b;
#X obj 295 356 t b b;
#X obj 92 340 t b b b;
#X obj 393 29 loadbang;
#X msg 397 54 clear;
#X connect 0 0 28 0;
#X connect 1 0 4 0;
#X connect 2 0 30 0;
#X connect 3 0 21 0;
#X connect 4 0 0 0;
#X connect 4 1 5 0;
#X connect 6 0 20 0;
#X connect 8 0 3 0;
#X connect 11 0 12 0;
#X connect 12 0 13 1;
#X connect 13 0 14 0;
#X connect 13 0 15 0;
#X connect 14 0 13 1;
#X connect 15 0 16 0;
#X connect 16 0 17 0;
#X connect 19 0 10 0;
#X connect 20 0 9 0;
#X connect 21 0 25 0;
#X connect 21 1 22 0;
#X connect 23 0 0 0;
#X connect 24 0 15 1;
#X connect 25 0 32 0;
#X connect 25 0 36 0;
#X connect 25 1 32 0;
#X connect 25 1 36 0;
#X connect 25 2 32 0;
#X connect 25 2 36 0;
#X connect 25 3 26 0;
#X connect 27 0 24 0;
#X connect 28 0 27 0;
#X connect 29 0 30 0;
#X connect 30 0 41 0;
#X connect 30 1 39 0;
#X connect 30 2 39 0;
#X connect 30 3 7 0;
#X connect 30 4 7 0;
#X connect 30 5 31 0;
#X connect 30 6 29 0;
#X connect 31 0 30 0;
#X connect 32 0 18 0;
#X connect 33 0 32 1;
#X connect 34 0 32 1;
#X connect 36 0 35 0;
#X connect 37 0 36 1;
#X connect 38 0 36 1;
#X connect 39 0 13 0;
#X connect 39 1 19 0;
#X connect 39 2 40 0;
#X connect 40 0 33 0;
#X connect 40 1 38 0;
#X connect 41 0 3 0;
#X connect 41 1 34 0;
#X connect 41 2 37 0;
#X connect 42 0 43 0;
#X connect 43 0 30 0;
