#N canvas 0 23 637 458 12;
#X obj 120 24 inlet;
#X obj 20 24 inlet;
#X obj 120 46 list store;
#X obj 38 76 list length;
#X obj 20 99 mod;
#X obj 20 123 f;
#X obj 53 146 list store;
#X obj 53 168 outlet;
#X msg 53 123 get \$1 1;
#X connect 0 0 2 0;
#X connect 1 0 4 0;
#X connect 2 0 3 0;
#X connect 2 0 6 1;
#X connect 3 0 4 1;
#X connect 4 0 5 0;
#X connect 5 0 8 0;
#X connect 6 0 7 0;
#X connect 8 0 6 0;
