#N canvas 0 23 637 458 12;
#X obj 160 24 inlet;
#X obj 20 24 inlet;
#X obj 160 86 list store;
#X obj 38 146 list length;
#X obj 20 169 mod;
#X obj 20 193 f;
#X obj 53 216 list store;
#X obj 53 238 outlet;
#X msg 53 193 get \$1 1;
#X obj 20 48 route float bang;
#X obj 20 72 f;
#X obj 160 48 list;
#X connect 0 0 11 0;
#X connect 1 0 9 0;
#X connect 2 0 3 0;
#X connect 2 0 6 1;
#X connect 3 0 4 1;
#X connect 4 0 5 0;
#X connect 5 0 8 0;
#X connect 6 0 7 0;
#X connect 8 0 6 0;
#X connect 9 0 10 0;
#X connect 9 1 10 0;
#X connect 10 0 4 0;
#X connect 11 0 2 0;
