#N canvas 53 63 1206 910 12;
#X declare -path planifolia;
#X obj 83 111 cnv 18 3 17 empty empty 0 5 9 0 14 #dcdcdc #9c9c9c 0;
#X obj 83 221 cnv 18 3 17 empty empty 0 5 9 0 14 #dcdcdc #9c9c9c 0;
#X obj 83 241 cnv 18 3 17 empty empty 1 5 9 0 14 #dcdcdc #9c9c9c 0;
#X obj 621 40 plnf_version;
#X text 106 111 list to iterate;
#X text 105 221 element;
#X text 105 241 index of element;
#X obj -1 -1 cnv 15 805 23 empty empty ls.iter 8 10 0 20 #282d39 #efefef 0;
#X obj -1 88 cnv 15 805 17 empty empty inlets 8 8 0 12 #282d39 #efefef 0;
#X obj -1 191 cnv 15 805 17 empty empty outlets 8 8 0 12 #282d39 #efefef 0;
#X obj -1 342 cnv 15 805 17 empty empty example 8 8 0 12 #282d39 #efefef 0;
#X text 32 52 iterates through a list (from beginning to end or from [start \, end(;
#X obj 83 133 cnv 18 3 17 empty empty 1 5 9 0 14 #dcdcdc #9c9c9c 0;
#X text 106 133 start (inclsive);
#X obj 83 155 cnv 18 3 17 empty empty 2 5 9 0 14 #dcdcdc #9c9c9c 0;
#X text 106 155 end (exclusive);
#X obj 19 563 print el;
#X obj 65 540 print idx;
#X msg 19 376 list a b c d e f g, f 19;
#X msg 29 423 10 20 30 40 50 60 70, f 21;
#X obj 39 458 bng 20 250 50 0 empty empty empty 0 -10 0 12 #fcfcfc #000000 #000000;
#X obj 19 511 ls.iter;
#X text 63 458 reiterate last list;
#X obj 339 563 print el;
#X obj 399 539 print idx;
#X msg 339 376 list a b c d e f g, f 25;
#X msg 349 423 10 20 30 40 50 60 70, f 22;
#X floatatom 369 486 3 0 0 0 - - - 16;
#X obj 339 511 ls.iter 1;
#X text 410 488 start idx;
#X text 369 449 change start: inlet 1 \, or 1st arg;
#X obj 29 834 print el;
#X obj 103 836 print idx;
#X msg 29 613 list a b c d e f g;
#X msg 39 640 10 20 30 40 50 60 70;
#X floatatom 66 703 5 0 0 0 - - - 0;
#X text 107 705 start idx;
#X text 62 681 change start: inlet 1 \, or 1st arg;
#X floatatom 103 763 5 0 0 0 - - - 0;
#X text 99 741 change end: inlet 2 \, or 2st arg;
#X text 144 765 end idx;
#X obj 29 808 ls.iter 1 4;
#X obj 339 860 print el;
#X obj 385 837 print idx;
#X msg 339 613 list a b c d e f g;
#X msg 349 640 10 20 30 40 50 60 70;
#X obj 359 675 bng 20 250 50 0 empty empty empty 0 -10 0 12 #fcfcfc #000000 #000000;
#X obj 339 808 ls.iter;
#X text 383 675 reiterate last list;
#X msg 403 715 range 1 3;
#X text 485 715 also sets start and end;
#X msg 401 751 clear;
#X text 452 752 resets range to whole list;
#X obj -1 269 cnv 15 805 17 empty empty arguments 8 8 0 12 #282d39 #efefef 0;
#X text 106 291 start (inclusive) [optional];
#X text 106 309 end (exclusive) [optional \, but requires start];
#X obj 83 292 cnv 18 3 17 empty empty 0 5 9 0 14 #dcdcdc #9c9c9c 0;
#X obj 83 312 cnv 18 3 17 empty empty 1 5 9 0 14 #dcdcdc #9c9c9c 0;
#X obj 639 379 declare -path planifolia;
#X connect 18 0 21 0;
#X connect 19 0 21 0;
#X connect 20 0 21 0;
#X connect 21 0 16 0;
#X connect 21 1 17 0;
#X connect 25 0 28 0;
#X connect 26 0 28 0;
#X connect 27 0 28 1;
#X connect 28 0 23 0;
#X connect 28 1 24 0;
#X connect 33 0 41 0;
#X connect 34 0 41 0;
#X connect 35 0 41 1;
#X connect 38 0 41 2;
#X connect 41 0 31 0;
#X connect 41 1 32 0;
#X connect 44 0 47 0;
#X connect 45 0 47 0;
#X connect 46 0 47 0;
#X connect 47 0 42 0;
#X connect 47 1 43 0;
#X connect 49 0 47 0;
#X connect 51 0 47 0;
