#N canvas 0 23 658 408 12;
#X obj 70 167 until;
#X obj 70 270 list store;
#X obj 70 192 f;
#X obj 108 193 + 1;
#X msg 122 167 0, f 2;
#X msg 70 241 get \$1 1;
#X obj 119 71 inlet;
#X obj 70 298 outlet;
#X obj 204 298 outlet;
#X obj 70 215 t f f;
#X obj 70 144 list length;
#X obj 119 94 t a b a b;
#X connect 0 0 2 0;
#X connect 1 0 7 0;
#X connect 2 0 3 0;
#X connect 2 0 9 0;
#X connect 3 0 2 1;
#X connect 4 0 2 1;
#X connect 5 0 1 0;
#X connect 6 0 11 0;
#X connect 9 0 5 0;
#X connect 9 1 8 0;
#X connect 10 0 0 0;
#X connect 11 0 10 0;
#X connect 11 1 4 0;
#X connect 11 2 1 1;
#X connect 11 3 1 1;
