#N canvas 0 23 1071 537 12;
#X obj 70 167 until;
#X obj 83 358 list store;
#X obj 129 197 f;
#X obj 231 197 + 1;
#X msg 83 329 get \$1 1;
#X obj 174 -81 inlet;
#X obj 83 386 outlet;
#X obj 215 318 outlet;
#X obj 83 303 t f f;
#X obj 70 100 list length;
#X obj 176 54 list;
#X obj 300 43 inlet;
#X obj 299 65 t f b;
#X obj 331 88 s \$0-reset_msg;
#X obj 70 139 -;
#X obj 125 159 f;
#X msg 600 53 args 0;
#X obj 600 78 pdcontrol;
#X obj 600 103 list length;
#X obj 600 128 sel 0 1 2;
#X obj 528 268 f \$1;
#X obj 528 290 int;
#X obj 528 315 s \$0_from;
#X obj 210 133 r \$0_from;
#X obj 299 126 s \$0_from;
#X obj 435 43 inlet;
#X obj 434 65 t f b;
#X obj 466 88 s \$0-reset_msg;
#X obj 434 126 s \$0_to;
#X obj 640 155 list \$1 \$2;
#X obj 640 210 unpack 0 0;
#X obj 630 286 int;
#X obj 630 354 s \$0_to;
#X obj 129 227 t a a;
#X obj 282 200 r \$0_to;
#X obj 231 222 ==;
#X obj 231 277 s \$0_stop;
#X obj 188 173 r \$0_stop;
#X obj 231 247 sel 1;
#X msg 680 291 -1;
#X text 714 293 no upper limit;
#X obj 176 83 t a b a b;
#X floatatom 688 326 5 0 0 0 - - - 0;
#X obj 630 264 f \$2;
#X obj 640 180 t b a;
#X obj 605 25 loadbang;
#X obj 174 -56 route list bang clear range;
#X obj 267 -2 s \$0_clear;
#X obj 695 53 r \$0_clear;
#X msg 695 78 0 -1;
#X obj 317 -32 s \$0_range;
#X obj 776 53 r \$0_range;
#X msg 776 78 \$1 \$2;
#X obj 211 54 list;
#X connect 0 0 2 0;
#X connect 1 0 6 0;
#X connect 2 0 33 0;
#X connect 3 0 2 1;
#X connect 3 0 35 0;
#X connect 4 0 1 0;
#X connect 5 0 46 0;
#X connect 8 0 4 0;
#X connect 8 1 7 0;
#X connect 9 0 14 0;
#X connect 10 0 41 0;
#X connect 11 0 12 0;
#X connect 12 0 24 0;
#X connect 12 1 13 0;
#X connect 14 0 0 0;
#X connect 15 0 2 1;
#X connect 16 0 17 0;
#X connect 17 0 18 0;
#X connect 18 0 19 0;
#X connect 19 0 39 0;
#X connect 19 1 20 0;
#X connect 19 1 39 0;
#X connect 19 2 29 0;
#X connect 20 0 21 0;
#X connect 21 0 22 0;
#X connect 23 0 15 1;
#X connect 23 0 14 1;
#X connect 25 0 26 0;
#X connect 26 0 28 0;
#X connect 26 1 27 0;
#X connect 29 0 44 0;
#X connect 30 0 20 0;
#X connect 30 1 43 1;
#X connect 31 0 32 0;
#X connect 33 0 8 0;
#X connect 33 1 3 0;
#X connect 34 0 35 1;
#X connect 35 0 38 0;
#X connect 37 0 0 1;
#X connect 38 0 36 0;
#X connect 39 0 32 0;
#X connect 41 0 9 0;
#X connect 41 1 15 0;
#X connect 41 2 1 1;
#X connect 41 3 1 1;
#X connect 43 0 31 0;
#X connect 44 0 43 0;
#X connect 44 1 30 0;
#X connect 45 0 16 0;
#X connect 46 0 10 0;
#X connect 46 0 53 1;
#X connect 46 1 53 0;
#X connect 46 2 47 0;
#X connect 46 3 50 0;
#X connect 48 0 49 0;
#X connect 49 0 29 0;
#X connect 51 0 52 0;
#X connect 52 0 29 0;
#X connect 53 0 41 0;
