#N canvas 0 23 718 432 12;
#X obj 122 200 list length;
#X obj 140 331 list store;
#X msg 120 278 get \$1 1;
#X obj 122 177 t l l;
#X obj 122 -16 inlet;
#X obj 122 38 route list bang;
#X obj 122 143 list store;
#X obj 140 358 outlet;
#X obj 121 250 t f f;
#X obj 200 358 outlet;
#X obj 121 224 - 1;
#X obj 123 14 t l b;
#X obj 122 65 list trim;
#X obj 123 90 list prepend;
#X connect 0 0 10 0;
#X connect 1 0 7 0;
#X connect 2 0 1 0;
#X connect 3 0 0 0;
#X connect 3 1 1 1;
#X connect 4 0 11 0;
#X connect 5 0 12 0;
#X connect 5 1 6 0;
#X connect 6 0 3 0;
#X connect 8 0 2 0;
#X connect 8 1 9 0;
#X connect 10 0 8 0;
#X connect 11 0 5 0;
#X connect 11 1 1 1;
#X connect 12 0 13 0;
#X connect 13 0 6 0;
