#N canvas 0 23 1170 780 12;
#X obj 136 171 list length;
#X obj 135 298 list store;
#X obj 136 224 until;
#X obj 136 248 f;
#X obj 166 248 + 1;
#X msg 212 223 0;
#X msg 135 275 get \$1 1;
#X obj 116 373 f;
#X obj 136 197 t f f;
#X obj 116 396 /;
#X obj 117 144 t b l l b;
#X obj 135 324 + 0;
#X obj 135 348 t f f;
#X obj 32 21 inlet;
#X obj 32 45 route list bang;
#X obj 32 68 t b l;
#X obj 117 121 list store;
#X obj 244 50 pdcontrol;
#X msg 184 50 args 0;
#X obj 184 28 loadbang;
#X obj 184 72 t l l;
#X obj 226 72 list length;
#X obj 236 96 > 0;
#X obj 184 95 spigot;
#X obj 116 420 outlet;
#X connect 0 0 8 0;
#X connect 1 0 11 0;
#X connect 2 0 3 0;
#X connect 3 0 4 0;
#X connect 3 0 6 0;
#X connect 4 0 3 1;
#X connect 5 0 3 1;
#X connect 5 0 11 1;
#X connect 6 0 1 0;
#X connect 7 0 9 0;
#X connect 8 0 2 0;
#X connect 8 1 9 1;
#X connect 9 0 24 0;
#X connect 10 0 7 0;
#X connect 10 1 0 0;
#X connect 10 2 1 1;
#X connect 10 3 5 0;
#X connect 11 0 12 0;
#X connect 12 0 11 1;
#X connect 12 1 7 1;
#X connect 13 0 14 0;
#X connect 14 0 15 0;
#X connect 14 1 16 0;
#X connect 15 0 16 0;
#X connect 15 1 16 1;
#X connect 16 0 10 0;
#X connect 17 0 20 0;
#X connect 18 0 17 0;
#X connect 19 0 18 0;
#X connect 20 0 23 0;
#X connect 20 1 21 0;
#X connect 21 0 22 0;
#X connect 22 0 23 1;
#X connect 23 0 16 1;
