#N canvas 638 33 806 335 12;
#X declare -path planifolia;
#X obj 83 118 cnv 18 3 17 empty empty 0 5 9 0 14 #dcdcdc #9c9c9c 0;
#X obj 84 180 cnv 18 3 17 empty empty 0 5 9 0 14 #dcdcdc #9c9c9c 0;
#X obj 621 40 plnf_version;
#X text 106 180 element;
#X text 106 118 list;
#X obj 29 372 print item;
#X obj 62 338 print count;
#X msg 29 279 a a b a b 1 2 a b b b c 2;
#X obj 29 306 ls.mode;
#X text 32 52 gets mode of a list;
#X obj 84 200 cnv 18 3 17 empty empty 1 5 9 0 14 #dcdcdc #9c9c9c 0;
#X text 106 200 count;
#X obj -1 -1 cnv 15 805 23 empty empty ls.mode 8 10 0 20 #282d39 #efefef 0;
#X obj -1 94 cnv 15 805 17 empty empty inlets 8 8 0 12 #282d39 #efefef 0;
#X obj -1 151 cnv 15 805 17 empty empty outlets 8 8 0 12 #282d39 #efefef 0;
#X obj -1 232 cnv 15 805 17 empty empty example 8 8 0 12 #282d39 #efefef 0;
#X obj 636 264 declare -path planifolia;
#X connect 7 0 8 0;
#X connect 8 0 5 0;
#X connect 8 1 6 0;
