#N canvas 458 53 825 583 12;
#X obj 148 181 print;
#X msg 142 125 1 0.2 3.3 4 5;
#X obj 148 159 ls.mapcar expr cos($f1*3.14185);
#X msg 316 111 expr $f1+1;
#X msg 174 226 1 2 3 4 5 6 7 8;
#X obj 141 295 ls.mapcar expr (($f1+2)*10);
#X connect 1 0 2 0;
#X connect 2 0 0 0;
#X connect 3 0 2 1;
#X connect 4 0 5 0;
#X connect 5 0 0 0;
