#N canvas 638 33 806 399 12;
#X declare -path planifolia;
#X obj 83 120 cnv 18 3 17 empty empty 0 5 9 0 14 #dcdcdc #9c9c9c 0;
#X obj 83 181 cnv 18 3 17 empty empty 0 5 9 0 14 #dcdcdc #9c9c9c 0;
#X obj 621 40 plnf_version;
#X obj 32 371 print el;
#X text 105 181 element;
#X text 106 120 list;
#X obj 32 319 ls.max;
#X msg 32 283 10 9 8 23 7 6 5;
#X text 32 52 gets greatest element of a list;
#X obj -1 -1 cnv 15 805 23 empty empty ls.max 8 10 0 20 #282d39 #efefef 0;
#X obj -1 94 cnv 15 805 17 empty empty inlets 8 8 0 12 #282d39 #efefef 0;
#X obj -1 151 cnv 15 805 17 empty empty outlets 8 8 0 12 #282d39 #efefef 0;
#X obj -1 232 cnv 15 805 17 empty empty example 8 8 0 12 #282d39 #efefef 0;
#X obj 639 259 declare -path planifolia;
#X connect 6 0 3 0;
#X connect 7 0 6 0;
