#N canvas 365 23 934 807 12;
#X obj 207 121 ls.quicksort;
#X obj 207 350 list store;
#X obj 207 228 list length;
#X obj 416 210 list store;
#X text 494 209 elements;
#X obj 416 280 list store;
#X text 494 279 counts;
#X obj 207 252 until;
#X obj 207 276 f;
#X obj 247 276 + 1;
#X msg 252 252 0;
#X msg 207 327 get \$1 1;
#X obj 207 305 t f f;
#X obj 255 377 == 0;
#X obj 483 187 r \$0-el;
#X obj 483 256 r \$0-counts;
#X obj 216 411 spigot;
#X obj 184 381 t f f;
#X obj 717 262 change;
#X floatatom 717 286 5 0 0 0 - - -;
#X floatatom 717 240 5 0 0 0 - - -;
#X obj 492 437 ==;
#X floatatom 492 411 5 0 0 0 - - -;
#X obj 41 526 f;
#X obj 118 526 !=;
#X obj 118 547 sel 1 0;
#X obj 45 478 t f f b;
#X obj 136 503 v \$0-lastval;
#X obj 216 474 v \$0-lastval;
#X obj 747 430 v \$0-maxcount;
#X obj 747 454 v \$0-finalitem;
#X obj 309 474 v \$0-finalitem;
#X obj 327 430 v \$0-maxcount;
#X msg 296 430 1;
#X obj 132 651 v \$0-maxcount;
#X obj 72 611 f;
#X obj 101 611 + 1;
#X msg 18 606 1;
#X obj -40 578 v \$0-lastval;
#X obj 15 555 t f b;
#X obj 72 573 bng 15 250 50 0 empty empty empty 17 7 0 10 -262144 -1
-1;
#X obj 72 661 >=;
#X obj 72 684 sel 1;
#X obj 72 635 t f b f;
#X obj 121 713 f;
#X obj 121 735 v \$0-maxcount;
#X obj 5 761 v \$0-finalitem;
#X obj 5 739 v \$0-lastval;
#X obj 72 707 t b b;
#X obj 187 178 t b l l b;
#X obj 358 632 t b b;
#X obj 331 746 outlet;
#X obj 381 746 outlet;
#X obj 443 681 v \$0-maxcount;
#X obj 337 681 v \$0-finalitem;
#X obj 337 705 print item;
#X obj 443 705 print count;
#X msg 207 96 1 3 1 2 5 4 3 2 5 7 9 6 3 2 0 2 -1;
#X obj 216 435 t a b;
#X msg 427 502 set \$1;
#X msg 227 503;
#X msg 310 501;
#X connect 0 0 49 0;
#X connect 1 0 17 0;
#X connect 2 0 7 0;
#X connect 7 0 8 0;
#X connect 8 0 9 0;
#X connect 8 0 12 0;
#X connect 9 0 8 1;
#X connect 10 0 8 1;
#X connect 11 0 1 0;
#X connect 12 0 11 0;
#X connect 12 1 13 0;
#X connect 13 0 16 1;
#X connect 14 0 3 1;
#X connect 15 0 5 1;
#X connect 16 0 58 0;
#X connect 17 0 26 0;
#X connect 17 1 16 0;
#X connect 18 0 19 0;
#X connect 20 0 18 0;
#X connect 22 0 21 0;
#X connect 23 0 39 0;
#X connect 24 0 25 0;
#X connect 25 0 23 0;
#X connect 25 1 40 0;
#X connect 26 0 24 0;
#X connect 26 1 23 1;
#X connect 26 2 27 0;
#X connect 26 2 60 0;
#X connect 27 0 24 1;
#X connect 33 0 32 0;
#X connect 34 0 41 1;
#X connect 35 0 36 0;
#X connect 35 0 43 0;
#X connect 36 0 35 1;
#X connect 37 0 35 0;
#X connect 39 0 38 0;
#X connect 39 1 37 0;
#X connect 40 0 35 0;
#X connect 41 0 42 0;
#X connect 42 0 48 0;
#X connect 43 0 41 0;
#X connect 43 1 34 0;
#X connect 43 2 44 1;
#X connect 44 0 45 0;
#X connect 47 0 46 0;
#X connect 48 0 47 0;
#X connect 48 1 44 0;
#X connect 49 0 50 0;
#X connect 49 1 2 0;
#X connect 49 2 1 1;
#X connect 49 3 10 0;
#X connect 50 0 54 0;
#X connect 50 1 53 0;
#X connect 53 0 56 0;
#X connect 54 0 55 0;
#X connect 57 0 0 0;
#X connect 58 0 28 0;
#X connect 58 0 31 0;
#X connect 58 0 59 0;
#X connect 58 1 33 0;
#X connect 59 0 60 0;
#X connect 59 0 61 0;
