#N canvas 638 33 806 399 12;
#X obj 1 31 cnv 3 800 3 empty empty description 12 12 0 12 -128992
-66577 0;
#X obj 1 105 cnv 3 800 3 empty empty inlets 8 12 0 13 -228856 -1 0
;
#X obj 83 111 cnv 18 3 17 empty empty 0 5 9 0 14 -228856 -162280 0
;
#X obj 1 145 cnv 3 800 3 empty empty outlets 8 12 0 13 -228856 -1 0
;
#X obj 83 151 cnv 18 3 17 empty empty 0 5 9 0 14 -228856 -162280 0
;
#X obj 1 225 cnv 3 800 3 empty empty example 8 12 0 13 -228856 -1 0
;
#X obj 1 1 cnv 3 800 3 empty empty ls.mean 14 14 1 16 -128992 -66577
0;
#X obj 621 40 plnf_version;
#X text 105 151 element;
#X text 106 111 list;
#X obj 32 310 ls.mean;
#X obj 32 362 print mean;
#X msg 32 274 1 2 3 4 5;
#X text 32 52 gets mean of a list;
#X connect 10 0 11 0;
#X connect 12 0 10 0;
