#N canvas 365 23 1212 954 12;
#X obj 177 58 ls.quicksort;
#X obj 221 240 list store;
#X obj 221 126 list length;
#X obj 221 149 until;
#X obj 221 172 f;
#X obj 266 173 + 1;
#X msg 266 149 0;
#X msg 221 217 get \$1 1;
#X obj 221 195 t f f;
#X obj 292 287 == 0;
#X obj 253 308 spigot;
#X obj 497 243 v \$0-maxcount;
#X obj 318 352 v \$0-maxcount;
#X obj 261 672 v \$0-maxcount;
#X obj 221 624 f;
#X obj 250 624 + 1;
#X msg 221 602 1;
#X obj 221 674 >=;
#X obj 221 697 sel 1;
#X obj 221 648 t f b f;
#X obj 253 743 f;
#X obj 253 765 v \$0-maxcount;
#X obj 221 720 t b b;
#X obj 575 710 t b b;
#X obj 667 768 v \$0-maxcount;
#X obj 253 331 t a b;
#X msg 267 488 3;
#X obj 221 535 any.==;
#X obj 221 580 sel 0 1;
#X msg 120 738 3;
#X obj 269 376 s \$0-to_last_val;
#X msg 575 768 symbol b;
#X msg 497 176 set;
#X obj 497 198 s \$0-reset;
#X obj 221 263 t a a;
#X obj 120 766 s \$0-to_final_item;
#X obj 256 398 s \$0-to_final_item;
#X obj 303 443 r \$0-to_last_val;
#X msg 404 488 set \$1;
#X obj 278 422 r \$0-reset;
#X obj 42 738 r \$0-reset;
#X obj 576 743 r \$0-reset;
#X msg 497 220 0;
#X obj 303 465 route symbol float;
#X obj 244 511 s \$0-to_last_val;
#X obj 221 422 t a a b;
#X msg 285 352 1;
#X obj 221 559 t f f;
#X msg 302 487 set symbol \$1;
#X obj 19 664 r \$0-to_last_val;
#X msg 120 709 set \$1;
#X obj 19 686 route symbol float;
#X msg 18 708 set symbol \$1;
#X msg 520 743 set \$1;
#X obj 419 720 route symbol float;
#X msg 418 742 set symbol \$1;
#X obj 419 698 r \$0-to_final_item;
#X obj 497 152 loadbang;
#X obj 250 82 s \$0-loadbang;
#X obj 399 152 r \$0-loadbang;
#X obj 298 149 r \$0-loadbang;
#X obj 177 82 t b l l b;
#X obj 221 104 s \$0-l1;
#X obj 288 218 r \$0-l1;
#X obj 263 195 s \$0-testfirst;
#X obj 292 264 r \$0-testfirst;
#X obj 318 329 s \$0-numitemf;
#X obj 254 602 r \$0-numitemf;
#X obj 102 112 s \$0-finally;
#X obj 575 688 r \$0-finally;
#X obj 667 790 outlet;
#X obj 575 790 outlet;
#X obj 177 35 inlet;
#X connect 0 0 61 0;
#X connect 1 0 34 0;
#X connect 2 0 3 0;
#X connect 3 0 4 0;
#X connect 4 0 5 0;
#X connect 4 0 8 0;
#X connect 5 0 4 1;
#X connect 6 0 4 1;
#X connect 7 0 1 0;
#X connect 8 0 7 0;
#X connect 8 1 64 0;
#X connect 9 0 10 1;
#X connect 10 0 25 0;
#X connect 13 0 17 1;
#X connect 14 0 15 0;
#X connect 14 0 19 0;
#X connect 15 0 14 1;
#X connect 16 0 14 0;
#X connect 17 0 18 0;
#X connect 18 0 22 0;
#X connect 19 0 17 0;
#X connect 19 1 13 0;
#X connect 19 2 20 1;
#X connect 20 0 21 0;
#X connect 22 0 29 0;
#X connect 22 1 20 0;
#X connect 23 0 31 0;
#X connect 23 1 24 0;
#X connect 24 0 70 0;
#X connect 25 0 36 0;
#X connect 25 0 30 0;
#X connect 25 1 46 0;
#X connect 26 0 27 1;
#X connect 27 0 47 0;
#X connect 28 0 16 0;
#X connect 28 1 14 0;
#X connect 29 0 35 0;
#X connect 31 0 71 0;
#X connect 32 0 33 0;
#X connect 34 0 45 0;
#X connect 34 1 10 0;
#X connect 37 0 43 0;
#X connect 38 0 26 0;
#X connect 39 0 26 0;
#X connect 40 0 29 0;
#X connect 41 0 31 0;
#X connect 42 0 11 0;
#X connect 43 0 48 0;
#X connect 43 1 38 0;
#X connect 45 0 27 0;
#X connect 45 1 44 0;
#X connect 45 2 26 0;
#X connect 46 0 12 0;
#X connect 46 0 66 0;
#X connect 47 0 28 0;
#X connect 48 0 26 0;
#X connect 49 0 51 0;
#X connect 50 0 29 0;
#X connect 51 0 52 0;
#X connect 51 1 50 0;
#X connect 52 0 29 0;
#X connect 53 0 31 0;
#X connect 54 0 55 0;
#X connect 54 1 53 0;
#X connect 55 0 31 0;
#X connect 56 0 54 0;
#X connect 57 0 32 0;
#X connect 57 0 42 0;
#X connect 59 0 32 0;
#X connect 59 0 42 0;
#X connect 60 0 6 0;
#X connect 61 0 68 0;
#X connect 61 1 2 0;
#X connect 61 2 62 0;
#X connect 61 3 58 0;
#X connect 63 0 1 1;
#X connect 65 0 9 0;
#X connect 67 0 14 1;
#X connect 69 0 23 0;
#X connect 72 0 0 0;
