#N canvas 638 33 806 399 12;
#X declare -path planifolia;
#X obj 85 143 cnv 18 3 17 empty empty 0 5 9 0 14 #dcdcdc #9c9c9c 0;
#X obj 86 228 cnv 18 3 17 empty empty 0 5 9 0 14 #dcdcdc #9c9c9c 0;
#X obj 621 40 plnf_version;
#X obj 85 167 cnv 18 3 17 empty empty 1 5 9 0 14 #dcdcdc #9c9c9c 0;
#X text 108 167 list: to search;
#X floatatom 414 487 5 0 0 0 - - - 12;
#X msg 382 487 13;
#X floatatom 579 573 5 0 0 0 - - - 12;
#X floatatom 504 573 5 0 0 0 - - - 12;
#X floatatom 429 573 5 0 0 0 - - - 12;
#X obj 429 545 ls.nearest 23 400 900 1240;
#X text 429 595 idx;
#X text 576 595 difference (nearest-target);
#X text 507 595 nearest;
#X text 382 457 target;
#X floatatom 60 484 5 0 0 0 - - - 12;
#X msg 46 514 13;
#X msg 22 543 3.5;
#X obj 130 553 ls.nearest;
#X floatatom 175 583 5 0 0 0 - - - 12;
#X floatatom 152 610 5 0 0 0 - - - 12;
#X floatatom 129 633 5 0 0 0 - - - 12;
#X msg 175 514 -100 -30 0 12 23.5 900 5000.3;
#X text 22 457 target;
#X text 175 632 idx;
#X text 197 609 nearest;
#X obj -1 -1 cnv 15 805 23 empty empty ls.nearest 8 10 0 20 #282d39 #efefef 0;
#X obj -1 118 cnv 15 805 17 empty empty inlets 8 8 0 12 #282d39 #efefef 0;
#X obj -1 202 cnv 15 805 17 empty empty outlets 8 8 0 12 #282d39 #efefef 0;
#X obj -1 422 cnv 15 805 17 empty empty example 8 8 0 12 #282d39 #efefef 0;
#X text 108 143 float: target item;
#X text 108 228 idx of nearest element in list;
#X obj 86 254 cnv 18 3 17 empty empty 1 5 9 0 14 #dcdcdc #9c9c9c 0;
#X text 108 254 value of nearest element in list;
#X obj 86 280 cnv 18 3 17 empty empty 2 5 9 0 14 #dcdcdc #9c9c9c 0;
#X text 108 280 difference (nearest - target);
#X text 35 39 given a target number \, searches (by iteration) for the nearest number in a list \, returning the index of the nearest element in the list \, the nearest value itself \, and the difference between the input value and the found one;
#X obj -1 339 cnv 15 805 17 empty empty arguments 8 8 0 12 #282d39 #efefef 0;
#X text 85 373 list of values (i.e. \, a search list);
#X text 176 486 search list;
#X text 499 518 search list as argument;
#X text 217 582 difference (nearest-target);
#X obj 618 454 declare -path planifolia;
#X connect 5 0 10 0;
#X connect 6 0 10 0;
#X connect 10 0 9 0;
#X connect 10 1 8 0;
#X connect 10 2 7 0;
#X connect 15 0 18 0;
#X connect 16 0 18 0;
#X connect 17 0 18 0;
#X connect 18 0 21 0;
#X connect 18 1 20 0;
#X connect 18 2 19 0;
#X connect 22 0 18 1;
