#N canvas 219 227 1481 589 12;
#X obj 159 93 inlet;
#X obj 496 57 inlet;
#X obj 596 72 pdcontrol;
#X msg 596 43 args 0;
#X obj 596 21 loadbang;
#X obj 596 106 t l l, f 7;
#X obj 656 106 list length;
#X obj 656 136 > 0, f 7;
#X obj 596 145 spigot;
#X obj 496 81 route list;
#X obj 159 119 route float bang;
#X obj 387 274 f;
#X obj 431 274 + 1, f 7;
#X msg 478 231 0;
#X obj 387 231 bng 25 250 50 0 empty empty empty 17 7 0 10 #e3dfd9 #5a5a5a #5a5a5a;
#X obj 387 457 list store;
#X msg 387 346 get \$1 1;
#X obj 387 579 -;
#X obj 387 309 t f f f, f 12;
#X obj 744 673 f;
#X text 790 672 current index;
#X obj 330 546 f;
#X obj 387 605 abs;
#X obj 396 762 min;
#X obj 424 689 bng 25 250 50 0 empty empty empty 17 7 0 10 #e3dfd9 #5a5a5a #5a5a5a;
#X obj 446 762 change;
#X obj 512 762 bng 25 250 50 0 empty empty empty 17 7 0 10 #e3dfd9 #5a5a5a #5a5a5a;
#X obj 617 673 f;
#X text 656 672 current val;
#X obj 547 762 t b b, f 8;
#X obj 338 163 until;
#X obj 727 904 f;
#X obj 876 902 f;
#X text 775 903 best index;
#X text 919 903 best val;
#X obj 407 851 >;
#X obj 407 877 sel 1;
#X obj 443 1187 s \$0_stop_until;
#X obj 381 104 r \$0_stop_until;
#X obj 381 130 bng 25 250 50 0 empty empty empty 17 7 0 10 #e3dfd9 #5a5a5a #5a5a5a;
#X floatatom 876 928 5 0 0 0 - - - 12;
#X floatatom 727 930 5 0 0 0 - - - 12;
#X obj 368 1134 r \$0_stop;
#X obj 407 903 s \$0_stop;
#X obj 368 1213 s \$0_return_vals;
#X obj 368 1160 t b b, f 14;
#X obj 906 663 r \$0_return_vals;
#X obj 268 210 t f b, f 7;
#X obj 297 303 s \$0_reset;
#X obj 476 200 r \$0_reset;
#X obj 858 414 r \$0_reset;
#X obj 775 612 r \$0_reset;
#X msg 775 638 0;
#X obj 775 817 r \$0_reset;
#X msg 775 843 0;
#X obj 919 817 r \$0_reset;
#X msg 919 843 0;
#X obj 646 612 r \$0_reset;
#X msg 646 638 0;
#X obj 617 259 list length;
#X obj 617 285 v \$0_listlen;
#X obj 387 960 v \$0_listlen;
#X obj 512 359 v \$0_curidx;
#X obj 763 265 loadbang;
#X obj 808 303 r \$0_reset;
#X obj 368 657 t f f b, f 11;
#X obj 368 805 t b b f, f 9;
#X obj 368 1022 v \$0_curidx;
#X obj 387 986 - 1, f 6;
#X obj 368 1074 sel 1;
#X obj 368 1048 ==;
#X obj 368 1101 s \$0_stop;
#X obj 159 202 t b f b, f 8;
#X obj 159 326 s \$0_start;
#X obj 159 156 f;
#X obj 337 72 r \$0_start;
#X text 1095 926 diff;
#X obj 175 292 s \$0_innum;
#X obj 341 521 r \$0_innum;
#X obj 1038 874 r \$0_reset;
#X msg 1038 900 0;
#X obj 432 579 s \$0_lastdiff;
#X obj 998 927 v \$0_lastdiff;
#X obj 906 689 t b b b, f 16;
#X obj 727 1007 outlet;
#X obj 876 1007 outlet;
#X obj 998 1007 outlet;
#X floatatom 998 953 5 0 0 0 - - - 12;
#X obj 387 483 t b f f, f 11;
#X obj 763 407 loadbang;
#X obj 763 461 pow;
#X floatatom 763 487 5 0 0 0 - - - 12;
#X msg 763 433 10 40;
#X obj 424 728 f, f 6;
#X obj 716 140 == 0, f 7;
#X obj 716 166 sel 1;
#X msg 716 193 0 100;
#X text 784 192 <- need to have some list to avoid until infinite loop;
#X text 786 43 added on version 0.24;
#X msg 763 303 0;
#X connect 0 0 10 0;
#X connect 1 0 9 0;
#X connect 2 0 5 0;
#X connect 3 0 2 0;
#X connect 4 0 3 0;
#X connect 5 0 8 0;
#X connect 5 1 6 0;
#X connect 6 0 7 0;
#X connect 6 0 94 0;
#X connect 7 0 8 1;
#X connect 8 0 15 1;
#X connect 8 0 59 0;
#X connect 9 0 15 1;
#X connect 9 0 59 0;
#X connect 10 0 74 0;
#X connect 10 1 74 0;
#X connect 11 0 18 0;
#X connect 12 0 11 1;
#X connect 13 0 11 1;
#X connect 14 0 11 0;
#X connect 15 0 88 0;
#X connect 16 0 15 0;
#X connect 17 0 22 0;
#X connect 17 0 81 0;
#X connect 18 0 16 0;
#X connect 18 1 19 1;
#X connect 18 1 62 0;
#X connect 18 2 12 0;
#X connect 19 0 31 1;
#X connect 21 0 17 0;
#X connect 22 0 65 0;
#X connect 23 0 25 0;
#X connect 23 0 93 1;
#X connect 24 0 93 0;
#X connect 25 0 26 0;
#X connect 26 0 29 0;
#X connect 27 0 32 1;
#X connect 29 0 27 0;
#X connect 29 1 19 0;
#X connect 30 0 14 0;
#X connect 31 0 41 0;
#X connect 32 0 40 0;
#X connect 35 0 36 0;
#X connect 36 0 43 0;
#X connect 38 0 39 0;
#X connect 39 0 30 1;
#X connect 40 0 85 0;
#X connect 41 0 84 0;
#X connect 42 0 45 0;
#X connect 45 0 44 0;
#X connect 45 1 37 0;
#X connect 46 0 83 0;
#X connect 47 1 48 0;
#X connect 49 0 13 0;
#X connect 50 0 92 0;
#X connect 51 0 52 0;
#X connect 52 0 19 1;
#X connect 53 0 54 0;
#X connect 54 0 31 1;
#X connect 55 0 56 0;
#X connect 56 0 32 1;
#X connect 57 0 58 0;
#X connect 58 0 27 1;
#X connect 59 0 60 0;
#X connect 61 0 68 0;
#X connect 63 0 99 0;
#X connect 64 0 99 0;
#X connect 65 0 66 0;
#X connect 65 1 23 0;
#X connect 65 2 24 0;
#X connect 66 0 67 0;
#X connect 66 1 61 0;
#X connect 66 2 35 0;
#X connect 67 0 70 0;
#X connect 68 0 70 1;
#X connect 69 0 71 0;
#X connect 70 0 69 0;
#X connect 72 0 73 0;
#X connect 72 1 77 0;
#X connect 72 2 48 0;
#X connect 74 0 47 0;
#X connect 74 0 72 0;
#X connect 75 0 30 0;
#X connect 78 0 21 1;
#X connect 79 0 80 0;
#X connect 80 0 82 0;
#X connect 82 0 86 0;
#X connect 82 0 87 0;
#X connect 83 0 31 0;
#X connect 83 1 32 0;
#X connect 83 2 82 0;
#X connect 88 0 21 0;
#X connect 88 1 17 1;
#X connect 88 2 27 1;
#X connect 89 0 92 0;
#X connect 90 0 91 0;
#X connect 91 0 93 1;
#X connect 92 0 90 0;
#X connect 93 0 23 1;
#X connect 93 0 35 1;
#X connect 94 0 95 0;
#X connect 95 0 96 0;
#X connect 96 0 9 0;
#X connect 99 0 62 0;
