#N canvas 0 23 637 458 12;
#X obj 344 44 inlet;
#X obj 119 64 inlet;
#X obj 390 92 list store;
#X obj 344 67 t a b a;
#X obj 268 245 list split;
#X obj 390 118 list length;
#X obj 193 149 mod;
#X obj 194 173 f;
#X obj 268 220 list store;
#X obj 257 187 t b f;
#X obj 268 278 list prepend;
#X obj 268 336 outlet;
#X connect 0 0 3 0;
#X connect 1 0 6 0;
#X connect 2 0 5 0;
#X connect 2 0 8 1;
#X connect 3 2 2 0;
#X connect 4 0 10 0;
#X connect 4 1 10 1;
#X connect 5 0 6 1;
#X connect 6 0 7 0;
#X connect 7 0 9 0;
#X connect 8 0 4 0;
#X connect 9 0 8 0;
#X connect 9 1 4 1;
#X connect 10 0 11 0;
