#N canvas 286 366 902 612 12;
#X obj 133 333 list store;
#X obj 505 109 list length;
#X floatatom 504 137 5 0 0 0 - - -;
#X obj 503 159 - 1;
#X obj 124 151 t f f;
#X obj 133 357 list split;
#X obj 124 179 spigot;
#X obj 173 180 tgl 15 0 empty empty empty 17 7 0 10 -262144 -1 -1 1
1;
#X obj 231 386 list split 1;
#X obj 133 419 list store;
#X obj 133 386 list prepend;
#X obj 367 387 list store;
#X msg 367 325 get \$1 1;
#X obj 124 203 t b f f;
#X obj 459 -49 inlet;
#X obj 54 -49 inlet;
#X obj 133 442 outlet;
#X obj 367 434 outlet;
#X obj 124 129 int \$1;
#X obj 54 -18 route float index i idx bang list;
#X obj 205 89 t b b;
#X obj 142 82 t f b;
#X obj 459 1 route list float;
#X obj 282 4 list trim;
#X obj 282 28 list prepend;
#X obj 244 57 t b a b;
#X obj 459 84 t a a a;
#N canvas 0 54 1101 742 (subpatch) 0;
#X obj 12 105 &&;
#X obj 12 10 inlet;
#X obj 12 130 outlet;
#X obj 49 77 <=;
#X obj 12 32 t f f;
#X obj 100 10 inlet;
#X obj 12 77 >= 0;
#X msg 152 129 index is out of range;
#X obj 111 129 sel 0;
#X obj 152 151 print ls.removeAt;
#X connect 0 0 2 0;
#X connect 0 0 8 0;
#X connect 1 0 4 0;
#X connect 3 0 0 1;
#X connect 4 0 6 0;
#X connect 4 1 3 0;
#X connect 5 0 3 1;
#X connect 6 0 0 0;
#X connect 7 0 9 0;
#X connect 8 0 7 0;
#X restore 175 155 pd;
#X obj 568 27 list trim;
#X obj 568 51 list prepend;
#X connect 0 0 5 0;
#X connect 1 0 2 0;
#X connect 2 0 3 0;
#X connect 2 0 5 1;
#X connect 3 0 27 1;
#X connect 4 0 6 0;
#X connect 4 1 27 0;
#X connect 5 0 10 0;
#X connect 5 1 8 0;
#X connect 6 0 13 0;
#X connect 7 0 6 1;
#X connect 8 1 9 1;
#X connect 9 0 16 0;
#X connect 10 0 9 0;
#X connect 11 0 17 0;
#X connect 12 0 11 0;
#X connect 13 0 0 0;
#X connect 13 1 5 1;
#X connect 13 2 12 0;
#X connect 14 0 22 0;
#X connect 15 0 19 0;
#X connect 18 0 4 0;
#X connect 19 0 21 0;
#X connect 19 1 21 0;
#X connect 19 2 21 0;
#X connect 19 3 21 0;
#X connect 19 4 20 0;
#X connect 19 5 25 0;
#X connect 19 6 23 0;
#X connect 20 0 18 0;
#X connect 20 1 9 1;
#X connect 21 0 18 0;
#X connect 21 1 9 1;
#X connect 22 0 26 0;
#X connect 22 1 26 0;
#X connect 22 2 28 0;
#X connect 23 0 24 0;
#X connect 24 0 25 0;
#X connect 25 0 18 0;
#X connect 25 1 26 0;
#X connect 25 2 11 1;
#X connect 25 2 9 1;
#X connect 26 0 0 1;
#X connect 26 1 11 1;
#X connect 26 2 1 0;
#X connect 27 0 7 0;
#X connect 28 0 29 0;
#X connect 29 0 26 0;
