#N canvas 0 23 637 458 12;
#X obj 390 47 inlet;
#X obj 193 57 inlet;
#X obj 390 92 list store;
#X obj 268 245 list split;
#X obj 390 118 list length;
#X obj 193 149 mod;
#X obj 194 173 f;
#X obj 268 220 list store;
#X obj 268 278 list prepend;
#X obj 268 336 outlet;
#X obj 193 81 route float bang;
#X obj 193 118 f;
#X obj 599 79 pdcontrol;
#X msg 599 50 args 0;
#X obj 599 28 loadbang;
#X obj 599 113 t l l, f 7;
#X obj 659 113 list length;
#X obj 659 143 > 0, f 7;
#X obj 599 152 spigot;
#X obj 509 336 outlet;
#X obj 257 187 t b f f;
#X connect 0 0 2 0;
#X connect 1 0 10 0;
#X connect 2 0 4 0;
#X connect 2 0 7 1;
#X connect 3 0 8 0;
#X connect 3 1 8 1;
#X connect 4 0 5 1;
#X connect 5 0 6 0;
#X connect 6 0 20 0;
#X connect 7 0 3 0;
#X connect 8 0 9 0;
#X connect 10 0 11 0;
#X connect 10 1 11 0;
#X connect 11 0 5 0;
#X connect 12 0 15 0;
#X connect 13 0 12 0;
#X connect 14 0 13 0;
#X connect 15 0 18 0;
#X connect 15 1 16 0;
#X connect 16 0 17 0;
#X connect 17 0 18 1;
#X connect 18 0 2 0;
#X connect 20 0 7 0;
#X connect 20 1 3 1;
#X connect 20 2 19 0;
