#N canvas 0 23 637 458 12;
#X obj 390 47 inlet;
#X obj 119 64 inlet;
#X obj 390 92 list store;
#X obj 268 245 list split;
#X obj 390 118 list length;
#X obj 193 149 mod;
#X obj 194 173 f;
#X obj 268 220 list store;
#X obj 257 187 t b f;
#X obj 268 278 list prepend;
#X obj 268 336 outlet;
#X obj 390 70 list;
#X obj 119 88 route float bang;
#X obj 119 112 f;
#X connect 0 0 11 0;
#X connect 1 0 12 0;
#X connect 2 0 4 0;
#X connect 2 0 7 1;
#X connect 3 0 9 0;
#X connect 3 1 9 1;
#X connect 4 0 5 1;
#X connect 5 0 6 0;
#X connect 6 0 8 0;
#X connect 7 0 3 0;
#X connect 8 0 7 0;
#X connect 8 1 3 1;
#X connect 9 0 10 0;
#X connect 11 0 2 0;
#X connect 12 0 13 0;
#X connect 12 1 13 1;
#X connect 13 0 5 0;
