#N canvas 224 53 802 772 12;
#X declare -path planifolia;
#X obj 83 144 cnv 18 3 17 empty empty 0 5 9 0 14 #dcdcdc #9c9c9c 0;
#X obj 83 271 cnv 18 3 17 empty empty 0 5 9 0 14 #dcdcdc #9c9c9c 0;
#X text 104 144 list: input list;
#X text 104 164 float/i/index: index of the element to remove;
#X text 104 184 bang: last processed list;
#X obj 83 207 cnv 18 3 17 empty empty 1 5 9 0 14 #dcdcdc #9c9c9c 0;
#X text 104 207 list: fixed input list;
#X text 105 271 list: output list;
#X text 84 381 1 float: index of the element to remove;
#X obj 356 517 ls.ser.arithm 1 20 1;
#X obj 360 494 bng 15 250 50 0 empty empty empty 17 7 0 10 #fcfcfc #000000 #000000;
#X msg 425 587 2;
#X msg 489 587 idx 2;
#X obj 426 626 bng 15 250 50 0 empty empty empty 17 7 0 10 #fcfcfc #000000 #000000;
#X msg 378 541 a 2 v s f fge rgeg eg;
#X obj 356 664 ls.removeAt 3;
#X text 399 493 input lists;
#X msg 454 587 i 2;
#X text 446 626 retrigger last list;
#X floatatom 542 587 5 0 0 0 - - - 0;
#X text 342 451 this also works;
#X obj 37 581 ls.removeAt;
#X floatatom 37 482 5 0 0 0 - - - 0;
#X msg 138 533 1 2 3 4 5 6 7 8 9 10;
#X obj 138 510 loadbang;
#X text 81 480 element to remove;
#X obj 356 694 print outputlist;
#X obj 455 664 print removed_element;
#X obj 111 605 print removed_element;
#X obj 37 634 print outputlist;
#X obj 83 291 cnv 18 3 17 empty empty 1 5 9 0 14 #dcdcdc #9c9c9c 0;
#X text 105 291 symbol/float: removed element;
#X text 32 52 removes (pops) the Nth element of a list;
#X obj 619 60 plnf_version;
#X obj -1 -1 cnv 15 805 23 empty empty ls.removeAt 8 10 0 20 #282d39 #efefef 0;
#X obj -1 118 cnv 15 805 17 empty empty inlets 8 8 0 12 #282d39 #efefef 0;
#X obj -1 242 cnv 15 805 17 empty empty outlets 8 8 0 12 #282d39 #efefef 0;
#X obj -1 421 cnv 15 805 17 empty empty example 8 8 0 12 #282d39 #efefef 0;
#X obj -1 359 cnv 15 805 17 empty empty arguments 8 8 0 12 #282d39 #efefef 0;
#X obj 157 891 ls.removeAt;
#X obj 268 891 print removed_element;
#X obj 157 968 print outputlist;
#X obj 157 917 t b l;
#X obj 124 829 bng 25 250 50 0 empty empty empty 17 7 0 10 #e4e4e4 #4d4d4d #373737;
#X text 237 770 1st ->;
#X text 155 828 <- then...;
#X text 126 742 random degrade a list;
#X obj 283 776 bng 15 250 50 0 empty empty empty 17 7 0 10 #fcfcfc #000000 #000000;
#X listbox 279 825 45 0 0 0 - - - 16;
#X obj 279 799 ls.ser.arithm 1 25 1;
#X obj 157 860 random 25;
#X text 449 560 change element to remove;
#X obj 621 462 declare -path planifolia;
#X connect 9 0 15 0;
#X connect 10 0 9 0;
#X connect 11 0 15 0;
#X connect 12 0 15 0;
#X connect 13 0 15 0;
#X connect 14 0 15 0;
#X connect 15 0 26 0;
#X connect 15 1 27 0;
#X connect 17 0 15 0;
#X connect 19 0 15 0;
#X connect 21 0 29 0;
#X connect 21 1 28 0;
#X connect 22 0 21 0;
#X connect 23 0 21 1;
#X connect 24 0 23 0;
#X connect 39 0 42 0;
#X connect 39 1 40 0;
#X connect 42 0 43 0;
#X connect 42 1 39 1;
#X connect 42 1 41 0;
#X connect 43 0 50 0;
#X connect 47 0 49 0;
#X connect 48 0 39 1;
#X connect 49 0 48 0;
#X connect 50 0 39 0;
