#N canvas 476 159 810 452 12;
#X declare -path planifolia;
#X obj 11 502 print;
#X obj 15 420 bng 15 250 50 0 empty empty empty 17 7 0 10 #fcfcfc #000000 #000000;
#X obj 11 454 ls.ser.arithm 1 1000 1;
#X obj 619 60 plnf_version;
#X obj 87 142 cnv 18 3 17 empty empty 0 5 9 0 14 #dcdcdc #9c9c9c 0;
#X obj 87 243 cnv 18 3 17 empty empty 0 5 9 0 14 #dcdcdc #9c9c9c 0;
#X text 107 142 bang;
#X text 109 243 list;
#X text 87 313 \$1 float: low;
#X text 87 332 \$2 float: high;
#X text 87 349 \$3 float: step;
#X text 32 48 generates an arithmetic series from 'low' to 'high' in 'step' steps;
#X obj -1 -1 cnv 15 805 23 empty empty ls.ser.arithm 8 10 0 20 #282d39 #efefef 0;
#X obj -1 118 cnv 15 805 17 empty empty inlets 8 8 0 12 #282d39 #efefef 0;
#X obj -1 380 cnv 15 805 17 empty empty example 8 8 0 12 #282d39 #efefef 0;
#X obj 0 290 cnv 15 805 17 empty empty arguments 8 8 0 12 #282d39 #efefef 0;
#X obj -1 218 cnv 15 805 17 empty empty outlets 8 8 0 12 #282d39 #efefef 0;
#X text 107 167 list: new parameters;
#X msg 86 416 5 50 2.5;
#X obj 621 402 declare -path planifolia;
#X connect 1 0 2 0;
#X connect 2 0 0 0;
#X connect 18 0 2 0;
