#N canvas 269 23 800 529 12;
#X obj 189 397 f;
#X obj 189 365 until;
#X obj 189 301 t f f;
#X obj 189 339 expr abs(int(($f2-$f1)/$f3)+1);
#X obj 189 156 t l l;
#X obj 229 182 unpack 0 0;
#X obj 228 208 !=;
#X obj 189 232 spigot;
#X obj 409 339 expr if($f2>$f1 \, abs($f3) \, abs($f3)*-1);
#X obj 266 278 unpack 0 0 0;
#X obj 221 397 +;
#X obj 189 278 unpack 0 0;
#X obj 138 451 list store;
#X msg 189 425 append \$1;
#X obj 138 475 outlet;
#X obj 291 86 expr if($f1==0 \, 1 \, $f1);
#X obj 189 133 pack 0 0 0;
#X obj 138 -20 inlet;
#X obj 189 255 t l l b;
#X obj 138 5 route bang list;
#X floatatom 347 62 5 0 0 0 - - -;
#X obj 245 255 s \$0-resetlist;
#X obj 214 451 r \$0-resetlist;
#X obj 249 -20 loadbang;
#X obj 249 5 pack \$1 \$2 \$3;
#X obj 189 62 unpack 0 0 0;
#X obj 240 110 expr if($f1==0 \, 10 \, $f1);
#X connect 0 0 13 0;
#X connect 0 0 10 0;
#X connect 1 0 0 0;
#X connect 2 0 3 0;
#X connect 2 1 0 1;
#X connect 3 0 1 0;
#X connect 4 0 7 0;
#X connect 4 1 5 0;
#X connect 5 0 6 0;
#X connect 5 1 6 1;
#X connect 6 0 7 1;
#X connect 7 0 18 0;
#X connect 8 0 3 2;
#X connect 8 0 10 1;
#X connect 9 0 8 0;
#X connect 9 1 8 1;
#X connect 9 2 8 2;
#X connect 10 0 0 1;
#X connect 11 0 2 0;
#X connect 11 1 3 1;
#X connect 12 0 14 0;
#X connect 13 0 12 0;
#X connect 15 0 16 2;
#X connect 16 0 4 0;
#X connect 17 0 19 0;
#X connect 18 0 11 0;
#X connect 18 1 9 0;
#X connect 18 2 21 0;
#X connect 19 0 12 0;
#X connect 19 1 25 0;
#X connect 22 0 12 1;
#X connect 23 0 24 0;
#X connect 24 0 25 0;
#X connect 25 0 16 0;
#X connect 25 1 26 0;
#X connect 25 2 15 0;
#X connect 25 2 20 0;
#X connect 26 0 16 1;
