#N canvas 476 159 803 481 12;
#X declare -path planifolia;
#X obj 13 438 print;
#X obj 14 314 bng 15 250 50 0 empty empty empty 17 7 0 10 #fcfcfc #000000 #000000;
#X obj 13 414 ls.scramble;
#X obj 84 136 cnv 18 3 17 empty empty 0 5 9 0 14 #dcdcdc #9c9c9c 0;
#X obj 83 187 cnv 18 3 17 empty empty 0 5 9 0 14 #dcdcdc #9c9c9c 0;
#X text 32 48 vanilla abstraction that scrambles the elements of a list;
#X text 105 136 list: list to scramble;
#X text 105 187 list: scrambled list;
#X msg 13 244 seed 100;
#X text 81 244 pseudo random seed generator;
#X obj 619 60 plnf_version;
#X obj -1 -1 cnv 15 805 23 empty empty ls.scramble 8 10 0 20 #282d39 #efefef 0;
#X obj -1 108 cnv 15 805 17 empty empty inlets 8 8 0 12 #282d39 #efefef 0;
#X obj -1 163 cnv 15 805 17 empty empty outlets 8 8 0 12 #282d39 #efefef 0;
#X obj -1 286 cnv 15 805 17 empty empty example 8 8 0 12 #282d39 #efefef 0;
#X obj -1 212 cnv 15 805 17 empty empty arguments\ and\ messages 8 8 0 12 #282d39 #efefef 0;
#X obj 303 246 ls.scramble 100;
#X obj 13 340 ls.ser.arithm 1 1000 1;
#X obj 336 314 bng 15 250 50 0 empty empty empty 17 7 0 10 #fcfcfc #000000 #000000;
#X msg 519 359 seed 123;
#X obj 495 429 ls.scramble;
#X obj 335 429 ls.scramble 123;
#X obj 335 340 ls.ser.arithm 1 30 1;
#X obj 519 328 loadbang;
#X obj 335 453 print seed_arg;
#X obj 495 453 print seedmsg;
#X obj 621 322 declare -path planifolia;
#X connect 1 0 17 0;
#X connect 2 0 0 0;
#X connect 17 0 2 0;
#X connect 18 0 22 0;
#X connect 19 0 20 0;
#X connect 20 0 25 0;
#X connect 21 0 24 0;
#X connect 22 0 21 0;
#X connect 22 0 20 0;
#X connect 23 0 19 0;
