#N canvas 285 136 862 652 12;
#X obj 89 -5 inlet;
#X obj 397 30 inlet;
#X obj 199 103 list store;
#X obj 397 57 list trim;
#X obj 284 15 inlet;
#X obj 239 201 list split;
#X obj 89 18 list trim;
#X obj 94 439 outlet;
#X obj 91 63 t l b l;
#X obj 116 173 list split;
#X obj 224 344 list prepend;
#X obj 85 372 list append;
#X obj 272 231 list split 1;
#X connect 0 0 6 0;
#X connect 1 0 3 0;
#X connect 2 0 5 0;
#X connect 3 0 2 1;
#X connect 4 0 5 1;
#X connect 5 0 11 0;
#X connect 5 1 12 0;
#X connect 6 0 8 0;
#X connect 8 1 2 0;
#X connect 8 2 10 1;
#X connect 10 0 11 1;
#X connect 11 0 7 0;
#X connect 12 1 10 0;
