#N canvas 911 133 1009 620 12;
#X obj 560 641 list store;
#X obj 560 596 r \$0-current_val;
#X msg 560 618 append \$1;
#N canvas 109 26 751 383 \$0-loop 0;
#X obj 10 10 aux_ls.scramble.loop 1355 1;
#X restore 641 419 pd \$0-loop;
#X obj 155 223 list length;
#X obj 160 313 f;
#X obj 198 313 - 1;
#X obj 83 248 until;
#X obj 83 193 f;
#X obj 154 250 t f f;
#X obj 219 371 f \$0;
#X obj 219 394 pack 0 0;
#X msg 219 419 \; pd-\$1-loop clear \; pd-\$1-loop obj 10 10 aux_ls.scramble.loop \$1 \$2 \;;
#X obj 143 199 s \$0-reset_outlist;
#X obj 636 641 r \$0-reset_outlist;
#X obj 51 224 t b f;
#X obj 259 524 s \$0-current_list;
#X obj 259 501 list;
#X obj 84 169 t b l b l;
#X obj 284 476 r \$0-list_withoutval;
#X obj 155 169 s \$0-list_withoutval;
#X obj 127 556 f \$0;
#X msg 127 579 \; \$1-bang bang \;;
#X obj 452 551 r \$0-endbang;
#X obj 24 301 s \$0-endbang;
#X obj 196 339 t b b f;
#X obj 84 35 inlet;
#X obj 84 121 list store;
#X obj 84 98 t b l;
#X obj 317 200 t f b;
#X obj 84 65 route list bang seed;
#X msg 316 301 set seed \$1;
#X msg 235 597 seed 123;
#X obj 235 622 s \$0-random;
#X obj 235 566 spigot;
#X obj 197 475 t b b b;
#X obj 360 223 s \$0_seed_toggle;
#X msg 360 200 1;
#X obj 285 566 r \$0_seed_toggle;
#X obj 452 575 t b b;
#X msg 452 597 0;
#X obj 416 631 s \$0_seed_toggle;
#X obj 560 675 outlet;
#X obj 317 72 pdcontrol;
#X msg 317 47 args 0;
#X obj 317 25 loadbang;
#X obj 317 98 list length;
#X obj 317 124 sel 0 1;
#X obj 331 149 f \$1;
#X connect 0 0 42 0;
#X connect 1 0 2 0;
#X connect 2 0 0 0;
#X connect 4 0 9 0;
#X connect 5 0 6 0;
#X connect 5 0 25 0;
#X connect 6 0 5 1;
#X connect 7 0 5 0;
#X connect 8 0 15 0;
#X connect 9 0 8 1;
#X connect 9 1 5 1;
#X connect 10 0 11 0;
#X connect 11 0 12 0;
#X connect 14 0 0 1;
#X connect 15 0 24 0;
#X connect 15 1 7 0;
#X connect 17 0 16 0;
#X connect 18 0 8 0;
#X connect 18 1 4 0;
#X connect 18 2 13 0;
#X connect 18 3 20 0;
#X connect 19 0 17 1;
#X connect 21 0 22 0;
#X connect 23 0 39 0;
#X connect 25 0 35 0;
#X connect 25 1 10 0;
#X connect 25 2 11 1;
#X connect 26 0 30 0;
#X connect 27 0 18 0;
#X connect 28 0 27 0;
#X connect 28 1 27 1;
#X connect 29 0 31 0;
#X connect 29 1 37 0;
#X connect 30 0 28 0;
#X connect 30 1 27 0;
#X connect 30 2 29 0;
#X connect 31 0 32 0;
#X connect 32 0 33 0;
#X connect 34 0 32 0;
#X connect 35 0 21 0;
#X connect 35 1 34 0;
#X connect 35 2 17 0;
#X connect 37 0 36 0;
#X connect 38 0 34 1;
#X connect 39 0 40 0;
#X connect 39 1 0 0;
#X connect 40 0 41 0;
#X connect 43 0 46 0;
#X connect 44 0 43 0;
#X connect 45 0 44 0;
#X connect 46 0 47 0;
#X connect 47 1 48 0;
#X connect 48 0 29 0;
