#N canvas 186 402 1326 626 12;
#X obj 612 36 r \$2-stog-\$1;
#X msg 61 230 color -1.24870e+07 -1.24870e+07 -1.24870e+07;
#X msg 422 230 color -5.92137e+06 -5.92137e+06 -5.92137e+06;
#X obj 422 253 s \$2-rtog-\$1;
#X obj 542 165 v \$2-\$1-tval;
#X msg 682 103 set \$1;
#X obj -64 -88 r \$2-mtxgui_colorons;
#X obj 421 -112 r \$2-mtxgui_coloroffs;
#X obj 273 129 f;
#X obj 682 125 s \$2-rtog-\$1;
#X obj 61 255 s \$2-rtog-\$1;
#X obj 273 193 sel 1 0;
#X obj -78 -129 inlet;
#X floatatom 502 328 5 0 0 0 - - -;
#X obj 476 354 mod;
#X obj 442 354 div;
#X obj 442 326 t f f;
#X obj 476 377 + 1;
#X obj 442 377 + 1;
#X obj 444 407 pack 0 0 0;
#X obj 502 305 v \$2-mtx-cols;
#X obj 442 302 f \$1;
#X obj 612 59 t b b f f f f;
#X obj 402 279 t b b;
#X obj 402 523 s \$2-mtxgui_mtxdump;
#X obj 444 433 s \$2-mtxguiout4;
#X obj 511 495 tgl 15 0 empty empty empty 17 7 0 10 -262144 -1 -1 0
1;
#X obj 402 486 spigot;
#X obj -30 31 r \$2-mtxgui_cellcolorons;
#X obj 22 103 pack 0 0 0;
#X obj -30 55 unpack 0 0 0 0;
#X obj -31 152 list store;
#X obj -31 106 == \$1;
#X obj -31 128 sel 1;
#X obj 337 28 pack 0 0 0;
#X obj 285 -20 unpack 0 0 0 0;
#X obj 284 77 list store;
#X obj 284 31 == \$1;
#X obj 284 53 sel 1;
#X obj 285 -44 r \$2-mtxgui_cellcoloroffs;
#X obj 499 461 r \$2mtxgui_mtxdumpspigot;
#X obj 241 -79 r \$2-colormode;
#X obj 596 -37 r \$2-colormode;
#N canvas 289 23 1416 947 mtxguicolors 0;
#X obj 200 322 +;
#X obj 181 346 +;
#X obj 101 296 * -65536;
#X obj 178 297 * -256;
#X obj 244 297 * -1;
#X obj 181 369 - 1;
#X obj 101 247 unpack 0 0 0;
#X obj 69 13 inlet;
#X obj 239 443 outlet;
#X msg 239 417 set color \$1 \$1 \$1;
#X obj 181 392 t b f;
#X obj 69 450 outlet;
#X obj 69 53 t b l;
#X obj 101 274 int;
#X obj 178 274 int;
#X obj 245 272 int;
#X obj 176 14 inlet;
#X obj 176 102 sel RGB rgb HSV hsv;
#X obj 176 80 symbol;
#N canvas 0 23 936 634 hsv2rgb 0;
#X obj 187 34 route 0;
#X msg 187 6 \$2 \$3 \$1;
#X obj 187 479 f;
#X obj 233 56 unpack 0 0 0;
#X text 250 21 svh;
#X obj 417 148 * 6;
#X obj 396 196 % 6;
#X obj 364 173 t f f;
#X msg 364 149 0;
#X text 422 196 i;
#X obj 364 219 -;
#X obj 233 189 *;
#X obj 233 146 - 1;
#X obj 233 168 * -1;
#X obj 256 298 *;
#X obj 256 256 - 1;
#X obj 256 277 * -1;
#X obj 256 234 *;
#X obj 364 240 t f f;
#X obj 396 261 - 1;
#X obj 396 282 * -1;
#X obj 279 210 *;
#X obj 279 168 - 1;
#X obj 279 189 * -1;
#X obj 279 146 *;
#X obj 233 123 t f f f;
#X obj 233 432 pack 0 0 0 0;
#N canvas 387 255 646 315 select 0;
#X obj 290 37 inlet;
#X obj 16 247 outlet;
#X obj 92 104 t b l;
#X obj 125 128 unpack 0 0 0 0;
#X obj 89 43 inlet p q t v;
#X obj 92 128 i;
#X obj 92 151 select 0 1 2 3 4 5;
#X obj 16 223 pack 0 0 0;
#X obj 16 203 f;
#X obj 96 223 pack 0 0 0;
#X obj 96 203 f;
#X obj 176 223 pack 0 0 0;
#X obj 176 203 f;
#X obj 256 223 pack 0 0 0;
#X obj 256 203 f;
#X obj 336 223 pack 0 0 0;
#X obj 336 203 f;
#X obj 416 223 pack 0 0 0;
#X obj 416 203 f;
#X connect 0 0 5 1;
#X connect 2 0 5 0;
#X connect 2 1 3 0;
#X connect 3 0 7 2;
#X connect 3 0 9 2;
#X connect 3 0 12 1;
#X connect 3 0 14 1;
#X connect 3 0 15 1;
#X connect 3 0 17 1;
#X connect 3 1 10 1;
#X connect 3 1 13 1;
#X connect 3 1 17 2;
#X connect 3 2 7 1;
#X connect 3 2 11 2;
#X connect 3 2 16 1;
#X connect 3 3 8 1;
#X connect 3 3 9 1;
#X connect 3 3 11 1;
#X connect 3 3 13 2;
#X connect 3 3 15 2;
#X connect 3 3 18 1;
#X connect 4 0 2 0;
#X connect 5 0 6 0;
#X connect 6 0 8 0;
#X connect 6 1 10 0;
#X connect 6 2 12 0;
#X connect 6 3 14 0;
#X connect 6 4 16 0;
#X connect 6 5 18 0;
#X connect 7 0 1 0;
#X connect 8 0 7 0;
#X connect 9 0 1 0;
#X connect 10 0 9 0;
#X connect 11 0 1 0;
#X connect 12 0 11 0;
#X connect 13 0 1 0;
#X connect 14 0 13 0;
#X connect 15 0 1 0;
#X connect 16 0 15 0;
#X connect 17 0 1 0;
#X connect 18 0 17 0;
#X restore 233 455 pd select;
#X msg 187 548 \$1 \$1 \$1;
#X obj 233 101 clip 0 1;
#X obj 298 101 clip 0 1;
#X obj 364 101 clip 0 1;
#X obj 364 126 select 1;
#X obj 364 79 / 255;
#X obj 298 79 / 255;
#X obj 233 79 / 255;
#X obj 187 520 clip 0 255;
#X obj 237 327 * 255;
#X obj 264 349 * 255;
#X obj 291 372 * 255;
#X obj 321 395 * 255;
#X obj 187 -22 inlet;
#X obj 187 590 outlet;
#X connect 0 0 2 0;
#X connect 0 1 3 0;
#X connect 1 0 0 0;
#X connect 2 0 36 0;
#X connect 3 0 35 0;
#X connect 3 1 34 0;
#X connect 3 2 33 0;
#X connect 5 0 7 0;
#X connect 6 0 10 1;
#X connect 6 0 27 1;
#X connect 7 0 10 0;
#X connect 7 1 6 0;
#X connect 8 0 7 0;
#X connect 10 0 18 0;
#X connect 11 0 37 0;
#X connect 12 0 13 0;
#X connect 13 0 11 0;
#X connect 14 0 38 0;
#X connect 15 0 16 0;
#X connect 16 0 14 0;
#X connect 17 0 15 0;
#X connect 18 0 17 1;
#X connect 18 1 19 0;
#X connect 19 0 20 0;
#X connect 20 0 24 1;
#X connect 21 0 39 0;
#X connect 22 0 23 0;
#X connect 23 0 21 0;
#X connect 24 0 22 0;
#X connect 25 0 12 0;
#X connect 25 1 17 0;
#X connect 25 2 24 0;
#X connect 26 0 27 0;
#X connect 27 0 42 0;
#X connect 28 0 42 0;
#X connect 29 0 25 0;
#X connect 30 0 11 1;
#X connect 30 0 14 1;
#X connect 30 0 21 1;
#X connect 30 0 40 0;
#X connect 31 0 32 0;
#X connect 32 0 8 0;
#X connect 32 1 5 0;
#X connect 33 0 31 0;
#X connect 34 0 30 0;
#X connect 35 0 29 0;
#X connect 36 0 28 0;
#X connect 37 0 26 0;
#X connect 38 0 26 1;
#X connect 39 0 26 2;
#X connect 40 0 26 3;
#X connect 41 0 1 0;
#X restore 240 203 pd hsv2rgb;
#X obj 240 180 spigot;
#X obj 122 179 spigot;
#X text 172 178 RGB;
#X text 288 178 HSV;
#X msg 176 128 1;
#X msg 176 150 0;
#X msg 280 128 1;
#X msg 280 150 0;
#X connect 0 0 1 1;
#X connect 1 0 5 0;
#X connect 2 0 1 0;
#X connect 3 0 0 0;
#X connect 4 0 0 1;
#X connect 5 0 10 0;
#X connect 6 0 13 0;
#X connect 6 1 14 0;
#X connect 6 2 15 0;
#X connect 7 0 12 0;
#X connect 9 0 8 0;
#X connect 10 1 9 0;
#X connect 12 0 11 0;
#X connect 12 1 21 0;
#X connect 12 1 20 0;
#X connect 13 0 2 0;
#X connect 14 0 3 0;
#X connect 15 0 4 0;
#X connect 16 0 18 0;
#X connect 17 0 24 0;
#X connect 17 0 27 0;
#X connect 17 1 24 0;
#X connect 17 1 27 0;
#X connect 17 2 25 0;
#X connect 17 2 26 0;
#X connect 17 3 25 0;
#X connect 17 3 26 0;
#X connect 18 0 17 0;
#X connect 19 0 6 0;
#X connect 20 0 19 0;
#X connect 21 0 6 0;
#X connect 24 0 21 1;
#X connect 25 0 21 1;
#X connect 26 0 20 1;
#X connect 27 0 20 1;
#X restore 487 -16 pd mtxguicolors;
#X msg 487 -40 255 255 255;
#X obj 485 -63 loadbang;
#X obj 97 -92 loadbang;
#X msg 97 -69 200 0 0;
#X obj 591 -97 loadbang;
#X msg 591 -76 rgb;
#N canvas 289 23 1416 947 mtxguicolors 0;
#X obj 200 322 +;
#X obj 181 346 +;
#X obj 101 296 * -65536;
#X obj 178 297 * -256;
#X obj 244 297 * -1;
#X obj 181 369 - 1;
#X obj 101 247 unpack 0 0 0;
#X obj 69 13 inlet;
#X obj 239 443 outlet;
#X msg 239 417 set color \$1 \$1 \$1;
#X obj 181 392 t b f;
#X obj 69 450 outlet;
#X obj 69 53 t b l;
#X obj 101 274 int;
#X obj 178 274 int;
#X obj 245 272 int;
#X obj 176 14 inlet;
#X obj 176 102 sel RGB rgb HSV hsv;
#X obj 176 80 symbol;
#N canvas 0 23 936 634 hsv2rgb 0;
#X obj 187 34 route 0;
#X msg 187 6 \$2 \$3 \$1;
#X obj 187 479 f;
#X obj 233 56 unpack 0 0 0;
#X text 250 21 svh;
#X obj 417 148 * 6;
#X obj 396 196 % 6;
#X obj 364 173 t f f;
#X msg 364 149 0;
#X text 422 196 i;
#X obj 364 219 -;
#X obj 233 189 *;
#X obj 233 146 - 1;
#X obj 233 168 * -1;
#X obj 256 298 *;
#X obj 256 256 - 1;
#X obj 256 277 * -1;
#X obj 256 234 *;
#X obj 364 240 t f f;
#X obj 396 261 - 1;
#X obj 396 282 * -1;
#X obj 279 210 *;
#X obj 279 168 - 1;
#X obj 279 189 * -1;
#X obj 279 146 *;
#X obj 233 123 t f f f;
#X obj 233 432 pack 0 0 0 0;
#N canvas 387 255 646 315 select 0;
#X obj 290 37 inlet;
#X obj 16 247 outlet;
#X obj 92 104 t b l;
#X obj 125 128 unpack 0 0 0 0;
#X obj 89 43 inlet p q t v;
#X obj 92 128 i;
#X obj 92 151 select 0 1 2 3 4 5;
#X obj 16 223 pack 0 0 0;
#X obj 16 203 f;
#X obj 96 223 pack 0 0 0;
#X obj 96 203 f;
#X obj 176 223 pack 0 0 0;
#X obj 176 203 f;
#X obj 256 223 pack 0 0 0;
#X obj 256 203 f;
#X obj 336 223 pack 0 0 0;
#X obj 336 203 f;
#X obj 416 223 pack 0 0 0;
#X obj 416 203 f;
#X connect 0 0 5 1;
#X connect 2 0 5 0;
#X connect 2 1 3 0;
#X connect 3 0 7 2;
#X connect 3 0 9 2;
#X connect 3 0 12 1;
#X connect 3 0 14 1;
#X connect 3 0 15 1;
#X connect 3 0 17 1;
#X connect 3 1 10 1;
#X connect 3 1 13 1;
#X connect 3 1 17 2;
#X connect 3 2 7 1;
#X connect 3 2 11 2;
#X connect 3 2 16 1;
#X connect 3 3 8 1;
#X connect 3 3 9 1;
#X connect 3 3 11 1;
#X connect 3 3 13 2;
#X connect 3 3 15 2;
#X connect 3 3 18 1;
#X connect 4 0 2 0;
#X connect 5 0 6 0;
#X connect 6 0 8 0;
#X connect 6 1 10 0;
#X connect 6 2 12 0;
#X connect 6 3 14 0;
#X connect 6 4 16 0;
#X connect 6 5 18 0;
#X connect 7 0 1 0;
#X connect 8 0 7 0;
#X connect 9 0 1 0;
#X connect 10 0 9 0;
#X connect 11 0 1 0;
#X connect 12 0 11 0;
#X connect 13 0 1 0;
#X connect 14 0 13 0;
#X connect 15 0 1 0;
#X connect 16 0 15 0;
#X connect 17 0 1 0;
#X connect 18 0 17 0;
#X restore 233 455 pd select;
#X msg 187 548 \$1 \$1 \$1;
#X obj 233 101 clip 0 1;
#X obj 298 101 clip 0 1;
#X obj 364 101 clip 0 1;
#X obj 364 126 select 1;
#X obj 364 79 / 255;
#X obj 298 79 / 255;
#X obj 233 79 / 255;
#X obj 187 520 clip 0 255;
#X obj 237 327 * 255;
#X obj 264 349 * 255;
#X obj 291 372 * 255;
#X obj 321 395 * 255;
#X obj 187 -22 inlet;
#X obj 187 590 outlet;
#X connect 0 0 2 0;
#X connect 0 1 3 0;
#X connect 1 0 0 0;
#X connect 2 0 36 0;
#X connect 3 0 35 0;
#X connect 3 1 34 0;
#X connect 3 2 33 0;
#X connect 5 0 7 0;
#X connect 6 0 10 1;
#X connect 6 0 27 1;
#X connect 7 0 10 0;
#X connect 7 1 6 0;
#X connect 8 0 7 0;
#X connect 10 0 18 0;
#X connect 11 0 37 0;
#X connect 12 0 13 0;
#X connect 13 0 11 0;
#X connect 14 0 38 0;
#X connect 15 0 16 0;
#X connect 16 0 14 0;
#X connect 17 0 15 0;
#X connect 18 0 17 1;
#X connect 18 1 19 0;
#X connect 19 0 20 0;
#X connect 20 0 24 1;
#X connect 21 0 39 0;
#X connect 22 0 23 0;
#X connect 23 0 21 0;
#X connect 24 0 22 0;
#X connect 25 0 12 0;
#X connect 25 1 17 0;
#X connect 25 2 24 0;
#X connect 26 0 27 0;
#X connect 27 0 42 0;
#X connect 28 0 42 0;
#X connect 29 0 25 0;
#X connect 30 0 11 1;
#X connect 30 0 14 1;
#X connect 30 0 21 1;
#X connect 30 0 40 0;
#X connect 31 0 32 0;
#X connect 32 0 8 0;
#X connect 32 1 5 0;
#X connect 33 0 31 0;
#X connect 34 0 30 0;
#X connect 35 0 29 0;
#X connect 36 0 28 0;
#X connect 37 0 26 0;
#X connect 38 0 26 1;
#X connect 39 0 26 2;
#X connect 40 0 26 3;
#X connect 41 0 1 0;
#X restore 240 203 pd hsv2rgb;
#X obj 240 180 spigot;
#X obj 122 179 spigot;
#X text 172 178 RGB;
#X text 288 178 HSV;
#X msg 176 128 1;
#X msg 176 150 0;
#X msg 280 128 1;
#X msg 280 150 0;
#X connect 0 0 1 1;
#X connect 1 0 5 0;
#X connect 2 0 1 0;
#X connect 3 0 0 0;
#X connect 4 0 0 1;
#X connect 5 0 10 0;
#X connect 6 0 13 0;
#X connect 6 1 14 0;
#X connect 6 2 15 0;
#X connect 7 0 12 0;
#X connect 9 0 8 0;
#X connect 10 1 9 0;
#X connect 12 0 11 0;
#X connect 12 1 21 0;
#X connect 12 1 20 0;
#X connect 13 0 2 0;
#X connect 14 0 3 0;
#X connect 15 0 4 0;
#X connect 16 0 18 0;
#X connect 17 0 24 0;
#X connect 17 0 27 0;
#X connect 17 1 24 0;
#X connect 17 1 27 0;
#X connect 17 2 25 0;
#X connect 17 2 26 0;
#X connect 17 3 25 0;
#X connect 17 3 26 0;
#X connect 18 0 17 0;
#X connect 19 0 6 0;
#X connect 20 0 19 0;
#X connect 21 0 6 0;
#X connect 24 0 21 1;
#X connect 25 0 21 1;
#X connect 26 0 20 1;
#X connect 27 0 20 1;
#X restore 139 -3 pd mtxguicolors;
#X obj 273 151 != 0;
#X connect 0 0 22 0;
#X connect 1 0 10 0;
#X connect 2 0 3 0;
#X connect 5 0 9 0;
#X connect 6 0 50 0;
#X connect 7 0 43 0;
#X connect 8 0 51 0;
#X connect 11 0 1 0;
#X connect 11 1 2 0;
#X connect 13 0 14 1;
#X connect 13 0 15 1;
#X connect 14 0 17 0;
#X connect 15 0 18 0;
#X connect 16 0 15 0;
#X connect 16 1 14 0;
#X connect 17 0 19 1;
#X connect 18 0 19 0;
#X connect 19 0 25 0;
#X connect 20 0 13 0;
#X connect 21 0 16 0;
#X connect 22 0 23 0;
#X connect 22 1 20 0;
#X connect 22 2 19 2;
#X connect 22 3 4 0;
#X connect 22 4 5 0;
#X connect 22 5 8 0;
#X connect 23 0 27 0;
#X connect 23 1 21 0;
#X connect 27 0 24 0;
#X connect 28 0 30 0;
#X connect 29 0 31 1;
#X connect 30 0 32 0;
#X connect 30 1 29 0;
#X connect 30 2 29 1;
#X connect 30 3 29 2;
#X connect 31 0 50 0;
#X connect 32 0 33 0;
#X connect 33 0 31 0;
#X connect 34 0 36 1;
#X connect 35 0 37 0;
#X connect 35 1 34 0;
#X connect 35 2 34 1;
#X connect 35 3 34 2;
#X connect 36 0 43 0;
#X connect 37 0 38 0;
#X connect 38 0 36 0;
#X connect 39 0 35 0;
#X connect 40 0 26 0;
#X connect 40 0 27 1;
#X connect 41 0 50 1;
#X connect 42 0 43 1;
#X connect 43 0 8 0;
#X connect 43 1 2 0;
#X connect 44 0 43 0;
#X connect 45 0 44 0;
#X connect 46 0 47 0;
#X connect 47 0 50 0;
#X connect 48 0 49 0;
#X connect 49 0 43 1;
#X connect 49 0 50 1;
#X connect 50 0 8 0;
#X connect 50 1 1 0;
#X connect 51 0 11 0;
