#N canvas 0 23 1440 855 12;
#X obj 216 279 mtxgui 20 12;
#X obj 220 650 print o0;
#X obj 240 620 print o1;
#X obj 290 590 print o2;
#X obj 310 567 print o3;
#X obj 248 162 tgl 15 0 empty empty empty 17 7 0 10 -262144 -1 -1 0
1;
#X msg 534 185 col 1;
#X obj 429 185 r \$0-valback;
#X obj 404 380 print stopsynth;
#X msg 164 210 get 2 5;
#X msg 248 181 sw row 10 \$1;
#X obj 410 101 tgl 15 0 empty empty empty 17 7 0 10 -262144 -1 -1 0
1;
#X msg 410 120 sw row 1 \$1;
#X msg 242 78 bpm row 1 80;
#X obj 452 15 tgl 15 0 empty empty empty 17 7 0 10 -262144 -1 -1 0
1;
#X msg 452 34 sw row 2 \$1;
#X msg 242 101 bpm row 2 100;
#X msg 563 101 rownum 1 4;
#X msg 687 238 satval inactive off \$1 \$2;
#X obj 685 233 pack 0 0;
#X obj 687 103 vsl 15 128 0 255 0 0 empty empty empty 0 -9 0 10 -262144
-1 -1 0 1;
#X obj 740 103 vsl 15 128 0 255 0 0 empty empty empty 0 -9 0 10 -262144
-1 -1 0 1;
#X msg 663 303 satval inactive off 0 90;
#X msg 663 326 satval inactive on 70 190;
#X msg 663 349 satval active off 0 210;
#X msg 69 138 sw \$1;
#X obj 91 162 tgl 15 0 empty empty empty 17 7 0 10 -262144 -1 -1 0
1;
#X msg 663 372 satval active on 225 245;
#X msg 563 147 rownum 10;
#X msg 106 50 bpm col 1 122;
#X obj 277 15 tgl 15 0 empty empty empty 17 7 0 10 -262144 -1 -1 0
1;
#X msg 277 34 sw col 1 \$1;
#X msg 622 50 colnum 1 4;
#X obj 485 613 dac~;
#X obj 485 590 *~;
#X obj 515 590 dbtorms;
#X obj 596 525 vsl 15 128 0 100 0 0 empty empty empty 0 -9 0 10 -262144
-1 -1 0 1;
#X floatatom 596 660 5 0 0 0 - - -;
#X obj 774 620 s \$2-filterQ;
#X obj 854 428 vsl 15 128 3 100 0 0 empty empty empty 0 -9 0 10 -262144
-1 -1 0 1;
#X floatatom 854 563 5 0 0 0 - - -;
#X obj 476 448 clone -s 1 clone-trivial-synth 240 \$0 12;
#X obj 931 233 ls.iter;
#X obj 931 256 print;
#X msg 931 210 1 2;
#X msg 793 50;
#X msg 51 233 ms 1000 4;
#X msg 165 136 dir row 1 3;
#X msg 82 326 get 1 1;
#X obj 82 303 print n;
#X obj 216 256 t a a;
#X obj 278 256 t a a;
#X obj 82 326 print l;
#X msg 318 162 mode colrow;
#N canvas 0 23 450 300 (subpatch) 0;
#X restore 1024 372 pd;
#X msg 429 208 mode col;
#X msg 429 162 bpm 20;
#X msg 433 181 bpm 120;
#X msg 534 162 pat rows 1 2 3;
#X obj 1105 523 pdcontrol;
#X msg 534 208 pat row 1 1 2 3 2;
#X msg 534 181 pat 1 2;
#X msg 401 326 dirpat rows 1 1 1 1 -1;
#X msg 461 303 dirpat 12 3 -1;
#X msg 401 349 del row 1 100;
#X msg 563 124 rownum 2 28;
#X obj 1128 216 mtxgui 20 12;
#X obj 1128 193 t a a;
#X obj 1190 193 t a a;
#X msg 1194 118 sw \$1;
#X obj 1216 142 tgl 15 0 empty empty empty 17 7 0 10 -262144 -1 -1
0 1;
#X obj 278 233 mtxstepseq 20 12 mtxback1;
#X obj 120 567 s mtxback1;
#X obj 1295 151 bng 15 250 50 0 empty empty empty 17 7 0 10 -262144
-1 -1;
#X obj 474 827 savestate;
#X obj 1190 170 mtxstepseq 20 12 mtxback;
#X connect 0 0 72 0;
#X connect 0 1 2 0;
#X connect 0 2 3 0;
#X connect 0 3 4 0;
#X connect 5 0 10 0;
#X connect 6 0 0 0;
#X connect 9 0 0 0;
#X connect 10 0 71 0;
#X connect 11 0 12 0;
#X connect 11 0 14 0;
#X connect 12 0 71 0;
#X connect 13 0 71 0;
#X connect 14 0 15 0;
#X connect 15 0 71 0;
#X connect 16 0 71 0;
#X connect 17 0 71 0;
#X connect 18 0 71 0;
#X connect 19 0 18 0;
#X connect 20 0 19 0;
#X connect 21 0 19 1;
#X connect 22 0 71 0;
#X connect 23 0 71 0;
#X connect 24 0 71 0;
#X connect 25 0 71 0;
#X connect 26 0 25 0;
#X connect 27 0 71 0;
#X connect 28 0 71 0;
#X connect 29 0 71 0;
#X connect 30 0 31 0;
#X connect 31 0 71 0;
#X connect 32 0 71 0;
#X connect 34 0 33 0;
#X connect 34 0 33 1;
#X connect 35 0 34 1;
#X connect 36 0 35 0;
#X connect 36 0 37 0;
#X connect 39 0 38 0;
#X connect 39 0 40 0;
#X connect 41 0 34 0;
#X connect 42 0 43 0;
#X connect 44 0 42 0;
#X connect 46 0 71 0;
#X connect 47 0 71 0;
#X connect 48 0 0 0;
#X connect 50 0 0 0;
#X connect 51 0 0 0;
#X connect 53 0 71 0;
#X connect 55 0 71 0;
#X connect 56 0 71 0;
#X connect 57 0 71 0;
#X connect 58 0 71 0;
#X connect 60 0 71 0;
#X connect 61 0 71 0;
#X connect 62 0 71 0;
#X connect 63 0 71 0;
#X connect 64 0 71 0;
#X connect 65 0 71 0;
#X connect 67 0 66 0;
#X connect 68 0 66 0;
#X connect 69 0 75 0;
#X connect 70 0 69 0;
#X connect 71 0 50 0;
#X connect 71 1 51 0;
#X connect 73 0 75 1;
#X connect 75 0 67 0;
#X connect 75 1 68 0;
