#N canvas 0 23 1440 855 12;
#X obj 1509 792 inlet;
#N canvas 0 23 450 300 \$0-matrix 0;
#X obj 0 2 tgl 13 0 2974-stog-0 2974-rtog-0 empty 17 7 0 10 -91543
-91543 -91543 0 1;
#X obj 13 2 tgl 13 0 2974-stog-1 2974-rtog-1 empty 17 7 0 10 -91543
-91543 -91543 0 1;
#X obj 26 2 tgl 13 0 2974-stog-2 2974-rtog-2 empty 17 7 0 10 -91543
-91543 -91543 0 1;
#X obj 39 2 tgl 13 0 2974-stog-3 2974-rtog-3 empty 17 7 0 10 -91543
-91543 -91543 0 1;
#X obj 52 2 tgl 13 0 2974-stog-4 2974-rtog-4 empty 17 7 0 10 -91543
-91543 -91543 0 1;
#X obj 65 2 tgl 13 0 2974-stog-5 2974-rtog-5 empty 17 7 0 10 -91543
-91543 -91543 0 1;
#X obj 78 2 tgl 13 0 2974-stog-6 2974-rtog-6 empty 17 7 0 10 -91543
-91543 -91543 0 1;
#X obj 91 2 tgl 13 0 2974-stog-7 2974-rtog-7 empty 17 7 0 10 -91543
-91543 -91543 0 1;
#X obj 104 2 tgl 13 0 2974-stog-8 2974-rtog-8 empty 17 7 0 10 -91543
-91543 -91543 0 1;
#X obj 0 15 tgl 13 0 2974-stog-9 2974-rtog-9 empty 17 7 0 10 -91543
-91543 -91543 0 1;
#X obj 13 15 tgl 13 0 2974-stog-10 2974-rtog-10 empty 17 7 0 10 -91543
-91543 -91543 0 1;
#X obj 26 15 tgl 13 0 2974-stog-11 2974-rtog-11 empty 17 7 0 10 -91543
-91543 -91543 0 1;
#X obj 39 15 tgl 13 0 2974-stog-12 2974-rtog-12 empty 17 7 0 10 -91543
-91543 -91543 0 1;
#X obj 52 15 tgl 13 0 2974-stog-13 2974-rtog-13 empty 17 7 0 10 -91543
-91543 -91543 0 1;
#X obj 65 15 tgl 13 0 2974-stog-14 2974-rtog-14 empty 17 7 0 10 -91543
-91543 -91543 0 1;
#X obj 78 15 tgl 13 0 2974-stog-15 2974-rtog-15 empty 17 7 0 10 -91543
-91543 -91543 0 1;
#X obj 91 15 tgl 13 0 2974-stog-16 2974-rtog-16 empty 17 7 0 10 -91543
-91543 -91543 0 1;
#X obj 104 15 tgl 13 0 2974-stog-17 2974-rtog-17 empty 17 7 0 10 -91543
-91543 -91543 0 1;
#X obj 0 28 tgl 13 0 2974-stog-18 2974-rtog-18 empty 17 7 0 10 -91543
-91543 -91543 0 1;
#X obj 13 28 tgl 13 0 2974-stog-19 2974-rtog-19 empty 17 7 0 10 -91543
-91543 -91543 0 1;
#X obj 26 28 tgl 13 0 2974-stog-20 2974-rtog-20 empty 17 7 0 10 -91543
-91543 -91543 0 1;
#X obj 39 28 tgl 13 0 2974-stog-21 2974-rtog-21 empty 17 7 0 10 -91543
-91543 -91543 0 1;
#X obj 52 28 tgl 13 0 2974-stog-22 2974-rtog-22 empty 17 7 0 10 -91543
-91543 -91543 0 1;
#X obj 65 28 tgl 13 0 2974-stog-23 2974-rtog-23 empty 17 7 0 10 -91543
-91543 -91543 0 1;
#X obj 78 28 tgl 13 0 2974-stog-24 2974-rtog-24 empty 17 7 0 10 -91543
-91543 -91543 0 1;
#X obj 91 28 tgl 13 0 2974-stog-25 2974-rtog-25 empty 17 7 0 10 -91543
-91543 -91543 0 1;
#X obj 104 28 tgl 13 0 2974-stog-26 2974-rtog-26 empty 17 7 0 10 -91543
-91543 -91543 0 1;
#X obj 0 41 tgl 13 0 2974-stog-27 2974-rtog-27 empty 17 7 0 10 -91543
-91543 -91543 0 1;
#X obj 13 41 tgl 13 0 2974-stog-28 2974-rtog-28 empty 17 7 0 10 -91543
-91543 -91543 0 1;
#X obj 26 41 tgl 13 0 2974-stog-29 2974-rtog-29 empty 17 7 0 10 -91543
-91543 -91543 0 1;
#X obj 39 41 tgl 13 0 2974-stog-30 2974-rtog-30 empty 17 7 0 10 -91543
-91543 -91543 0 1;
#X obj 52 41 tgl 13 0 2974-stog-31 2974-rtog-31 empty 17 7 0 10 -91543
-91543 -91543 0 1;
#X obj 65 41 tgl 13 0 2974-stog-32 2974-rtog-32 empty 17 7 0 10 -91543
-91543 -91543 0 1;
#X obj 78 41 tgl 13 0 2974-stog-33 2974-rtog-33 empty 17 7 0 10 -91543
-91543 -91543 0 1;
#X obj 91 41 tgl 13 0 2974-stog-34 2974-rtog-34 empty 17 7 0 10 -91543
-91543 -91543 0 1;
#X obj 104 41 tgl 13 0 2974-stog-35 2974-rtog-35 empty 17 7 0 10 -91543
-91543 -91543 0 1;
#X coords 0 -1 1 1 117 56 2 0 0;
#X restore 0 0 pd \$0-matrix;
#N canvas 0 53 417 99 \$0-toggs 0;
#X obj 10 10 clone mtxgui_auxabs 36 2974;
#X restore 1749 864 pd \$0-toggs;
#N canvas 0 23 1440 855 dyn_patching 0;
#X obj 1140 368 f \$0;
#X obj 1132 342 bng 15 250 50 0 empty empty empty 17 7 0 10 -262144
-1 -1;
#X obj 324 202 r \$0-matrix;
#X obj 324 223 route size rows cols;
#X obj 573 308 unpack 0 0 15;
#X floatatom 600 444 5 0 0 0 - - -;
#X obj 600 470 t f b;
#X msg 652 492 0;
#X obj 600 516 f;
#X obj 628 516 + 1;
#X floatatom 498 604 5 0 0 0 - - -;
#X obj 600 493 until;
#X msg 545 703 0;
#X obj 493 727 f;
#X obj 521 727 + 1;
#X obj 493 704 until;
#X obj 499 626 t b b f;
#X floatatom 492 761 5 0 0 0 - - -;
#X obj 624 584 *;
#X obj 601 538 t f f b;
#X obj 492 868 pack 0 0 0 0;
#X obj 515 834 *;
#X obj 492 788 t f f b;
#X obj 794 568 f \$0;
#X obj 483 308 unpack 0 0 0;
#X obj 962 459 v \$0-mtx-size;
#X obj 874 484 *;
#X obj 918 484 *;
#X obj 794 594 pack 0 0 0;
#X obj 854 393 t b b b b;
#X msg 645 917 0;
#X obj 627 940 f;
#X obj 655 940 + 1;
#X obj 492 891 t l b;
#X floatatom 627 964 5 0 0 0 - - -;
#X obj 496 1014 pack \$0 0 0 0 0 0 0;
#X msg 496 1037 \; pd-\$1-matrix obj \$2 \$3 tgl \$7 0 \$1-stog-\$6
\$1-rtog-\$6 empty 17 7 0 10 -262144 -1 -1 0 1 \;;
#X obj 963 484 *;
#X obj 963 532 pack \$0 0;
#X obj 963 506 t b f;
#X obj 512 983 unpack 0 0 0 0;
#X msg 492 931 \$2 \$4 \$1 \$3;
#X msg 1129 394 \; pd-\$1-matrix clear \; pd-\$1-toggs clear \;;
#X obj 874 417 v \$0-mtx-cols;
#X obj 918 438 v \$0-mtx-rows;
#X msg 964 572 \; pd-\$1-toggs obj 10 10 clone mtxgui_auxabs \$2 \$1
\;;
#X msg 792 666 \; pd-\$1-matrix coords 0 -1 1 1 \$2 \$3 2 0 0 pd-\$1-matrix
restore 100 52 pd-\$1-matrix \; \$1-mtxgui coords 0 -1 1 1 \$2 \$3
2 0 0 \$1-mtxgui restore 100 52 \$1-mtxgui \;;
#X obj 611 79 r \$0-mtxgui_args;
#X obj 611 101 unpack 0 0 0;
#X obj 611 204 pack 0 0 0;
#X obj 451 79 r \$0-mtxgui_setrowsnum;
#X obj 730 79 r \$0-mtxgui_setcolsnum;
#X obj 1036 79 r \$0-mtxgui_setsize;
#X obj 890 79 r \$0-mtxgui_cellsize;
#X obj 889 105 t b f;
#X obj 728 129 t b f;
#X obj 1036 104 unpack 0 0;
#X obj 324 467 v \$0-mtx-size;
#X obj 369 444 v \$0-mtx-rows;
#X obj 415 421 v \$0-mtx-cols;
#X obj 626 991 v \$0-mtx-size;
#X obj 492 955 t b l b;
#X obj 538 812 v \$0-mtx-size;
#X obj 494 659 v \$0-mtx-cols;
#X obj 647 561 v \$0-mtx-size;
#X obj 601 422 v \$0-mtx-rows;
#X obj 794 943 + 2;
#X obj 879 565 + 4;
#X obj 570 398 t b b;
#X obj 280 680 s \$0-mtxgui_mtxdumpspigot;
#X msg 281 657 1;
#X obj 213 570 s \$0-mtxgui_inlet;
#X msg 268 538 colorreset;
#X obj 431 495 t b b b;
#X obj 76 590 s \$0-mtxguiout4;
#X msg 75 515 mtxgui_ready 1;
#X msg 85 545 mtxgui_ready 0;
#X obj 611 226 t b l b b l b;
#X obj 268 503 s \$0-ready;
#X connect 0 0 42 0;
#X connect 1 0 0 0;
#X connect 2 0 3 0;
#X connect 3 0 57 0;
#X connect 3 1 58 0;
#X connect 3 2 59 0;
#X connect 4 0 58 0;
#X connect 4 1 59 0;
#X connect 4 2 57 0;
#X connect 5 0 6 0;
#X connect 6 0 11 0;
#X connect 6 1 7 0;
#X connect 7 0 8 1;
#X connect 7 0 30 0;
#X connect 8 0 9 0;
#X connect 8 0 19 0;
#X connect 9 0 8 1;
#X connect 10 0 16 0;
#X connect 11 0 8 0;
#X connect 12 0 13 1;
#X connect 13 0 14 0;
#X connect 13 0 17 0;
#X connect 14 0 13 1;
#X connect 15 0 13 0;
#X connect 16 0 63 0;
#X connect 16 1 12 0;
#X connect 16 2 20 2;
#X connect 17 0 22 0;
#X connect 18 0 20 3;
#X connect 19 0 10 0;
#X connect 19 1 18 0;
#X connect 19 2 64 0;
#X connect 20 0 33 0;
#X connect 21 0 20 1;
#X connect 22 0 20 0;
#X connect 22 1 21 0;
#X connect 22 2 62 0;
#X connect 23 0 28 0;
#X connect 24 0 58 0;
#X connect 24 1 59 0;
#X connect 24 2 57 0;
#X connect 25 0 27 1;
#X connect 25 0 26 1;
#X connect 26 0 28 1;
#X connect 27 0 67 0;
#X connect 28 0 46 0;
#X connect 29 0 23 0;
#X connect 29 1 43 0;
#X connect 29 2 44 0;
#X connect 29 3 25 0;
#X connect 30 0 31 1;
#X connect 31 0 32 0;
#X connect 31 0 34 0;
#X connect 32 0 31 1;
#X connect 33 0 41 0;
#X connect 33 1 31 0;
#X connect 34 0 35 5;
#X connect 35 0 36 0;
#X connect 37 0 39 0;
#X connect 38 0 45 0;
#X connect 39 0 38 0;
#X connect 39 1 38 1;
#X connect 40 0 35 1;
#X connect 40 1 66 0;
#X connect 40 2 35 3;
#X connect 40 3 35 4;
#X connect 41 0 61 0;
#X connect 43 0 26 0;
#X connect 43 0 37 0;
#X connect 44 0 27 0;
#X connect 44 0 37 1;
#X connect 47 0 48 0;
#X connect 48 0 49 0;
#X connect 48 1 49 1;
#X connect 48 2 49 2;
#X connect 49 0 77 0;
#X connect 50 0 49 0;
#X connect 51 0 55 0;
#X connect 52 0 56 0;
#X connect 53 0 54 0;
#X connect 54 0 49 0;
#X connect 54 1 49 2;
#X connect 55 0 49 0;
#X connect 55 1 49 1;
#X connect 56 0 49 0;
#X connect 56 1 49 1;
#X connect 60 0 35 6;
#X connect 61 0 35 0;
#X connect 61 1 40 0;
#X connect 61 2 60 0;
#X connect 62 0 21 1;
#X connect 63 0 15 0;
#X connect 64 0 18 1;
#X connect 65 0 5 0;
#X connect 66 0 35 2;
#X connect 67 0 28 2;
#X connect 68 0 73 0;
#X connect 68 1 65 0;
#X connect 70 0 69 0;
#X connect 72 0 71 0;
#X connect 73 0 75 0;
#X connect 73 0 78 0;
#X connect 73 1 72 0;
#X connect 73 2 70 0;
#X connect 75 0 74 0;
#X connect 76 0 74 0;
#X connect 77 0 68 0;
#X connect 77 1 4 0;
#X connect 77 2 29 0;
#X connect 77 3 1 0;
#X connect 77 4 24 0;
#X connect 77 5 76 0;
#X restore 1721 908 pd dyn_patching;
#X obj 1686 843 namecanvas \$0-mtxgui;
#N canvas 406 113 894 560 arg_management 0;
#X obj 5 49 pdcontrol;
#X msg 5 26 args;
#X obj 5 4 loadbang;
#X msg 5 366 mtxgui created with default values: 3 4 13;
#X msg 37 322 3 4 13;
#X obj 5 300 t b b;
#X obj 37 344 s \$0-mtxgui_args;
#X obj 5 388 print \$0-mtxgui;
#X obj 88 116 list length;
#X obj 56 94 t l l;
#X obj 5 71 route bang list;
#X obj 182 140 sel 1 2 3;
#X obj 182 276 print \$0-mtxgui;
#X obj 182 173 t b b;
#X msg 214 195 3 4 13;
#X obj 214 217 s \$0-mtxgui_args;
#X msg 182 240 Please inform mtxgui args: rows cols cellsize [optional].
A mtxgui was created with the default values: 3 4 13;
#X obj 56 159 spigot;
#X obj 56 203 pack 0 0 13;
#X obj 56 181 unpack 0 0 0;
#X msg 106 159 1;
#X obj 56 226 s \$0-mtxgui_args;
#X connect 0 0 10 0;
#X connect 1 0 0 0;
#X connect 2 0 1 0;
#X connect 3 0 7 0;
#X connect 4 0 6 0;
#X connect 5 0 3 0;
#X connect 5 1 4 0;
#X connect 8 0 11 0;
#X connect 9 0 17 0;
#X connect 9 1 8 0;
#X connect 10 0 5 0;
#X connect 10 1 9 0;
#X connect 11 0 13 0;
#X connect 11 1 20 0;
#X connect 11 2 20 0;
#X connect 11 3 13 0;
#X connect 13 0 16 0;
#X connect 13 1 14 0;
#X connect 14 0 15 0;
#X connect 16 0 12 0;
#X connect 17 0 19 0;
#X connect 18 0 21 0;
#X connect 19 0 18 0;
#X connect 19 1 18 1;
#X connect 19 2 18 2;
#X connect 20 0 17 1;
#X restore 1707 885 pd arg_management;
#N canvas 0 23 1353 855 message_processing 0;
#X obj 66 5 inlet;
#N canvas 294 67 1386 961 getset 0;
#X obj 179 26 inlet;
#X obj 295 160 list length;
#X obj 179 136 t l l l;
#X obj 298 229 spigot;
#X msg 351 229 1;
#X msg 383 230 0;
#X obj 352 207 sel 3;
#N canvas 251 23 947 1005 set_element 0;
#X obj 186 791 v;
#X obj 187 728 t b a;
#X obj 187 705 list prepend symbol;
#X obj 219 751 list trim;
#X floatatom 451 394 5 0 0 0 - - -;
#X obj 428 443 tgl 15 0 empty empty empty 17 7 0 10 -262144 -1 -1 0
1;
#X obj 428 460 sel 0;
#X obj 461 498 f;
#X msg 461 522 col \$1 out of range;
#X obj 428 351 t f b f;
#X floatatom 385 597 5 0 0 0 - - -;
#X obj 362 646 tgl 15 0 empty empty empty 17 7 0 10 -262144 -1 -1 0
1;
#X obj 362 663 sel 0;
#X obj 395 701 f;
#X obj 362 554 t f b f;
#X msg 395 725 row \$1 out of range;
#X obj 321 427 &&;
#X obj 135 280 spigot;
#X obj 361 329 unpack 0 0 0;
#X obj 135 329 unpack 0 0 0;
#X obj 135 368 - 1;
#X obj 174 367 - 1;
#X obj 174 398 t f b;
#X obj 181 523 *;
#X msg 34 732 \; \$1-stog-\$2 \$3 \;;
#X obj 140 558 +;
#X floatatom 140 585 5 0 0 0 - - -;
#X floatatom 231 499 5 0 0 0 - - -;
#X floatatom 161 443 5 0 0 0 - - -;
#X obj 74 638 pack \$0 0 0;
#X obj 71 604 t b f;
#X msg 135 305 \$2 \$1 \$3;
#X obj 159 756 f;
#X msg 187 677 \$1-\$2-tval;
#X obj 187 654 pack 0 \$0;
#X msg 133 686 \$2;
#X obj 157 69 t l l;
#X obj 157 43 inlet;
#X obj 451 373 v \$0-mtx-cols;
#X obj 385 576 v \$0-mtx-rows;
#X obj 206 468 v \$0-mtx-cols;
#N canvas 0 23 450 300 expr 0;
#X obj 104 35 inlet;
#X obj 234 35 inlet;
#X obj 161 85 > 0;
#X obj 104 61 t f f;
#X obj 104 113 &&;
#X obj 104 139 outlet;
#X obj 104 87 <=;
#X text 198 70 expr if(($f1<=$f2)&&($f1>0) \, 1 \, 0);
#X connect 0 0 3 0;
#X connect 1 0 6 1;
#X connect 2 0 4 1;
#X connect 3 0 6 0;
#X connect 3 1 2 0;
#X connect 4 0 5 0;
#X connect 6 0 4 0;
#X restore 428 418 pd expr;
#N canvas 0 23 450 300 expr 0;
#X obj 104 35 inlet;
#X obj 234 35 inlet;
#X obj 161 85 > 0;
#X obj 104 61 t f f;
#X obj 104 113 &&;
#X obj 104 139 outlet;
#X obj 104 87 <=;
#X text 198 70 expr if(($f1<=$f2)&&($f1>0) \, 1 \, 0);
#X connect 0 0 3 0;
#X connect 1 0 6 1;
#X connect 2 0 4 1;
#X connect 3 0 6 0;
#X connect 3 1 2 0;
#X connect 4 0 5 0;
#X connect 6 0 4 0;
#X restore 363 620 pd expr;
#X obj 396 765 print \$0-mtxgui;
#X obj 461 550 print \$0-mtxgui;
#X obj 73 676 t b l l;
#X obj 64 899 s \$0-mtxgui_inlet;
#X msg 64 875 matrixdumpcell;
#X connect 1 0 32 0;
#X connect 1 1 3 0;
#X connect 2 0 1 0;
#X connect 3 0 0 1;
#X connect 4 0 41 1;
#X connect 5 0 6 0;
#X connect 5 0 16 1;
#X connect 6 0 7 0;
#X connect 7 0 8 0;
#X connect 8 0 44 0;
#X connect 9 0 41 0;
#X connect 9 1 38 0;
#X connect 9 2 7 1;
#X connect 10 0 42 1;
#X connect 11 0 12 0;
#X connect 11 0 16 0;
#X connect 12 0 13 0;
#X connect 13 0 15 0;
#X connect 14 0 42 0;
#X connect 14 1 39 0;
#X connect 14 2 13 1;
#X connect 15 0 43 0;
#X connect 16 0 17 1;
#X connect 17 0 31 0;
#X connect 18 0 14 0;
#X connect 18 1 9 0;
#X connect 19 0 20 0;
#X connect 19 1 21 0;
#X connect 19 2 29 2;
#X connect 19 2 32 1;
#X connect 20 0 25 0;
#X connect 21 0 22 0;
#X connect 22 0 23 0;
#X connect 22 0 28 0;
#X connect 22 1 40 0;
#X connect 23 0 25 1;
#X connect 25 0 26 0;
#X connect 26 0 30 0;
#X connect 29 0 45 0;
#X connect 30 0 29 0;
#X connect 30 1 29 1;
#X connect 31 0 19 0;
#X connect 32 0 0 0;
#X connect 33 0 2 0;
#X connect 34 0 33 0;
#X connect 35 0 34 0;
#X connect 36 0 17 0;
#X connect 36 1 18 0;
#X connect 37 0 36 0;
#X connect 38 0 4 0;
#X connect 39 0 10 0;
#X connect 40 0 23 1;
#X connect 40 0 27 0;
#X connect 41 0 5 0;
#X connect 42 0 11 0;
#X connect 45 0 47 0;
#X connect 45 1 35 0;
#X connect 45 2 24 0;
#X connect 47 0 46 0;
#X restore 298 254 pd set_element;
#N canvas 683 132 947 851 get_element 0;
#X obj 59 747 v;
#X obj 140 661 list prepend symbol;
#X obj 77 709 list trim;
#X floatatom 451 394 5 0 0 0 - - -;
#X obj 428 443 tgl 15 0 empty empty empty 17 7 0 10 -262144 -1 -1 0
1;
#X obj 428 460 sel 0;
#X obj 461 498 f;
#X msg 461 522 col \$1 out of range;
#X obj 428 351 t f b f;
#X floatatom 385 597 5 0 0 0 - - -;
#X obj 362 646 tgl 15 0 empty empty empty 17 7 0 10 -262144 -1 -1 0
1;
#X obj 362 663 sel 0;
#X obj 395 701 f;
#X obj 362 554 t f b f;
#X msg 395 725 row \$1 out of range;
#X obj 321 427 &&;
#X obj 154 277 spigot;
#X obj 135 368 - 1;
#X obj 174 367 - 1;
#X obj 174 398 t f b;
#X obj 181 523 *;
#X obj 140 558 +;
#X floatatom 140 585 5 0 0 0 - - -;
#X floatatom 231 499 5 0 0 0 - - -;
#X floatatom 161 443 5 0 0 0 - - -;
#X obj 140 610 pack 0 \$0;
#X obj 157 43 inlet;
#X msg 156 303 \$2 \$1;
#X obj 135 329 unpack 0 0;
#X obj 59 773 outlet;
#X floatatom 88 747 5 0 0 0 - - -;
#X obj 157 69 t b l l;
#X obj 451 373 v \$0-mtx-cols;
#X obj 385 576 v \$0-mtx-rows;
#X obj 206 468 v \$0-mtx-cols;
#X obj 361 318 unpack 0 0;
#X obj 259 330 tgl 15 0 empty empty empty 17 7 0 10 -262144 -1 -1 0
1;
#X obj 159 748 bng 15 250 50 0 empty empty empty 17 7 0 10 -262144
-1 -1;
#X msg 140 633 \$2-\$1-tval;
#N canvas 0 23 450 300 expr 0;
#X obj 104 35 inlet;
#X obj 234 35 inlet;
#X obj 161 85 > 0;
#X obj 104 61 t f f;
#X obj 104 113 &&;
#X obj 104 139 outlet;
#X obj 104 87 <=;
#X text 198 70 expr if(($f1<=$f2)&&($f1>0) \, 1 \, 0);
#X connect 0 0 3 0;
#X connect 1 0 6 1;
#X connect 2 0 4 1;
#X connect 3 0 6 0;
#X connect 3 1 2 0;
#X connect 4 0 5 0;
#X connect 6 0 4 0;
#X restore 428 420 pd expr;
#N canvas 0 23 450 300 expr 0;
#X obj 104 35 inlet;
#X obj 234 35 inlet;
#X obj 161 85 > 0;
#X obj 104 61 t f f;
#X obj 104 113 &&;
#X obj 104 139 outlet;
#X obj 104 87 <=;
#X text 198 70 expr if(($f1<=$f2)&&($f1>0) \, 1 \, 0);
#X connect 0 0 3 0;
#X connect 1 0 6 1;
#X connect 2 0 4 1;
#X connect 3 0 6 0;
#X connect 3 1 2 0;
#X connect 4 0 5 0;
#X connect 6 0 4 0;
#X restore 362 624 pd expr;
#X obj 396 765 print \$0-mtxgui;
#X obj 461 550 print \$0-mtxgui;
#X connect 0 0 29 0;
#X connect 0 0 30 0;
#X connect 0 0 37 0;
#X connect 1 0 2 0;
#X connect 2 0 0 1;
#X connect 3 0 39 1;
#X connect 4 0 5 0;
#X connect 4 0 15 1;
#X connect 5 0 6 0;
#X connect 6 0 7 0;
#X connect 7 0 42 0;
#X connect 8 0 39 0;
#X connect 8 1 32 0;
#X connect 8 2 6 1;
#X connect 9 0 40 1;
#X connect 10 0 11 0;
#X connect 10 0 15 0;
#X connect 11 0 12 0;
#X connect 12 0 14 0;
#X connect 13 0 40 0;
#X connect 13 1 33 0;
#X connect 13 2 12 1;
#X connect 14 0 41 0;
#X connect 15 0 16 1;
#X connect 15 0 36 0;
#X connect 16 0 27 0;
#X connect 17 0 21 0;
#X connect 18 0 19 0;
#X connect 19 0 20 0;
#X connect 19 0 24 0;
#X connect 19 1 34 0;
#X connect 20 0 21 1;
#X connect 21 0 22 0;
#X connect 22 0 25 0;
#X connect 25 0 38 0;
#X connect 26 0 31 0;
#X connect 27 0 28 0;
#X connect 28 0 17 0;
#X connect 28 1 18 0;
#X connect 31 0 0 0;
#X connect 31 1 16 0;
#X connect 31 2 35 0;
#X connect 32 0 3 0;
#X connect 33 0 9 0;
#X connect 34 0 20 1;
#X connect 34 0 23 0;
#X connect 35 0 13 0;
#X connect 35 1 8 0;
#X connect 38 0 1 0;
#X connect 39 0 4 0;
#X connect 40 0 10 0;
#X restore 179 254 pd get_element;
#X obj 179 228 spigot;
#X msg 232 228 1;
#X msg 264 229 0;
#X obj 233 206 sel 2;
#X obj 472 23 inlet;
#X obj 832 21 inlet;
#X obj 504 82 list length;
#X obj 472 53 t l l;
#X obj 504 104 sel 2;
#X obj 465 138 spigot;
#X msg 518 138 1;
#X msg 550 139 0;
#X obj 864 82 list length;
#X obj 832 53 t l l;
#X obj 825 138 spigot;
#X msg 878 138 1;
#X msg 910 139 0;
#X obj 864 104 sel 3;
#X msg 910 164 set message expects 3 args (row \, col \, value);
#X msg 550 164 get message expects 2 args (row \, col);
#X obj 179 318 s \$0-mtxguiout1;
#X obj 418 254 r \$0-mtxgui_set_element;
#X obj 458 174 bng 15 250 50 0 empty empty empty 17 7 0 10 -262144
-1 -1;
#X obj 910 186 print \$0-mtxgui;
#X obj 550 186 print \$0-mtxgui;
#X connect 0 0 2 0;
#X connect 1 0 6 0;
#X connect 1 0 12 0;
#X connect 2 0 9 0;
#X connect 2 1 3 0;
#X connect 2 2 1 0;
#X connect 3 0 7 0;
#X connect 4 0 3 1;
#X connect 5 0 3 1;
#X connect 6 0 4 0;
#X connect 6 1 5 0;
#X connect 8 0 29 0;
#X connect 9 0 8 0;
#X connect 10 0 9 1;
#X connect 11 0 9 1;
#X connect 12 0 10 0;
#X connect 12 1 11 0;
#X connect 13 0 16 0;
#X connect 14 0 22 0;
#X connect 15 0 17 0;
#X connect 16 0 18 0;
#X connect 16 1 15 0;
#X connect 17 0 19 0;
#X connect 17 1 20 0;
#X connect 17 1 28 0;
#X connect 18 0 8 0;
#X connect 18 0 31 0;
#X connect 19 0 18 1;
#X connect 20 0 18 1;
#X connect 21 0 26 0;
#X connect 22 0 23 0;
#X connect 22 1 21 0;
#X connect 23 0 7 0;
#X connect 24 0 23 1;
#X connect 25 0 23 1;
#X connect 26 0 24 0;
#X connect 26 1 25 0;
#X connect 26 1 27 0;
#X connect 27 0 32 0;
#X connect 28 0 33 0;
#X connect 30 0 7 0;
#X restore 122 638 pd getset;
#X obj 179 543 s \$0-mtxgui_setrowsnum;
#X obj 198 520 s \$0-mtxgui_setcolsnum;
#X obj 217 498 s \$0-mtxgui_setsize;
#X obj 236 476 s \$0-mtxgui_cellsize;
#X obj 255 451 s \$0-mtxgui_args;
#N canvas 0 23 920 495 getsetmatrix 0;
#X obj 29 13 inlet;
#X obj 29 36 route bang list;
#N canvas 0 23 845 562 getmatrix 0;
#N canvas 50 262 964 766 getrow 0;
#X obj 220 24 inlet;
#X msg 290 183 0;
#X msg 385 222 set;
#X floatatom 29 220 5 0 0 0 - - -;
#X obj 29 243 pack 0 \$0;
#X obj 43 357 v;
#X msg 29 266 \$2-\$1-tval;
#X obj 29 311 t b a;
#X obj 29 288 list prepend symbol;
#X obj 61 334 list trim;
#X msg 45 422 1 0 0 0 1;
#X msg 44 389 add2 \$1;
#X obj 57 467 outlet;
#X floatatom 471 70 5 0 0 0 - - -;
#X obj 409 160 tgl 15 0 empty empty empty 17 7 0 10 -262144 -1 -1 0
1;
#X obj 220 92 spigot;
#X obj 422 189 sel 0;
#X obj 455 227 f;
#X obj 215 52 t f f b f;
#X obj 471 46 value \$0-mtx-rows;
#X obj 272 250 value \$0-mtx-cols;
#X floatatom 272 274 5 0 0 0 - - -;
#X obj 254 303 *;
#X obj 213 304 f;
#X obj 220 135 t b b f b b b;
#X floatatom 254 326 5 0 0 0 - - -;
#X obj 254 220 - 1;
#X obj 213 326 until;
#X obj 217 376 f;
#X obj 244 376 + 1;
#X obj 234 464 outlet;
#X msg 177 431 20 21 22 23 24;
#X msg 225 405 add2 \$1;
#X obj 112 464 outlet;
#X obj 313 465 outlet;
#X obj 180 181 t b b;
#X msg 455 251 row \$1 out of range;
#X obj 167 468 outlet;
#N canvas 0 23 450 300 expr 0;
#X obj 104 35 inlet;
#X obj 234 35 inlet;
#X obj 161 85 > 0;
#X obj 104 61 t f f;
#X obj 104 113 &&;
#X obj 104 139 outlet;
#X obj 104 87 <=;
#X text 198 70 expr if(($f1<=$f2)&&($f1>0) \, 1 \, 0);
#X connect 0 0 3 0;
#X connect 1 0 6 1;
#X connect 2 0 4 1;
#X connect 3 0 6 0;
#X connect 3 1 2 0;
#X connect 4 0 5 0;
#X connect 6 0 4 0;
#X restore 409 129 pd expr;
#X obj 455 279 print \$0-mtxgui;
#X connect 0 0 18 0;
#X connect 2 0 31 0;
#X connect 2 0 10 0;
#X connect 3 0 4 0;
#X connect 4 0 6 0;
#X connect 5 0 11 0;
#X connect 5 0 37 0;
#X connect 6 0 8 0;
#X connect 7 0 5 0;
#X connect 7 1 9 0;
#X connect 8 0 7 0;
#X connect 9 0 5 1;
#X connect 10 0 12 0;
#X connect 11 0 10 0;
#X connect 13 0 34 0;
#X connect 13 0 38 1;
#X connect 14 0 15 1;
#X connect 14 0 16 0;
#X connect 15 0 24 0;
#X connect 16 0 17 0;
#X connect 17 0 36 0;
#X connect 18 0 15 0;
#X connect 18 1 38 0;
#X connect 18 2 19 0;
#X connect 18 3 17 1;
#X connect 19 0 13 0;
#X connect 20 0 21 0;
#X connect 21 0 23 1;
#X connect 21 0 22 1;
#X connect 22 0 25 0;
#X connect 23 0 27 0;
#X connect 24 0 35 0;
#X connect 24 1 23 0;
#X connect 24 2 26 0;
#X connect 24 3 20 0;
#X connect 24 4 1 0;
#X connect 24 5 2 0;
#X connect 25 0 28 1;
#X connect 26 0 22 0;
#X connect 27 0 28 0;
#X connect 28 0 29 0;
#X connect 28 0 30 0;
#X connect 28 0 32 0;
#X connect 28 0 3 0;
#X connect 29 0 28 1;
#X connect 31 0 33 0;
#X connect 32 0 31 0;
#X connect 35 0 10 0;
#X connect 35 1 31 0;
#X connect 36 0 39 0;
#X connect 38 0 14 0;
#X restore 324 209 pd getrow;
#X obj 176 44 inlet;
#X msg 265 320 matrix 5 5 0 1 1 1 0 1 0 1 0 1 0 0 0 1 1 1 1 0 0 0 1
0 0 0 1;
#X obj 593 97 value \$0-mtx-rows;
#X obj 468 97 value \$0-mtx-cols;
#X msg 719 97 set matrix;
#X obj 266 82 t b b b b b;
#X msg 481 152 add2 \$1;
#X obj 325 135 f;
#X obj 324 161 until;
#X obj 324 183 f;
#X obj 352 183 + 1;
#X msg 415 159 1;
#X msg 292 247 add2 \$1;
#X obj 266 533 outlet;
#X connect 0 2 13 0;
#X connect 1 0 6 0;
#X connect 2 0 14 0;
#X connect 3 0 7 0;
#X connect 3 0 8 1;
#X connect 4 0 7 0;
#X connect 5 0 2 0;
#X connect 6 0 2 0;
#X connect 6 1 8 0;
#X connect 6 2 4 0;
#X connect 6 3 3 0;
#X connect 6 4 5 0;
#X connect 6 4 12 0;
#X connect 7 0 2 0;
#X connect 8 0 9 0;
#X connect 9 0 10 0;
#X connect 10 0 11 0;
#X connect 10 0 0 0;
#X connect 11 0 10 1;
#X connect 12 0 10 1;
#X connect 13 0 2 0;
#X restore 29 128 pd getmatrix;
#N canvas 444 26 1236 832 setmatrix 0;
#X obj 238 16 inlet;
#X obj 310 98 unpack 0 0;
#X obj 310 122 *;
#X obj 391 38 list split 2;
#X obj 488 146 list length;
#X obj 330 192 sel 0;
#X msg 27 217 can't construct a matrix with these parameters;
#X obj 27 238 print \$0-mtxgui;
#X obj 362 323 list;
#X obj 304 411 until;
#X obj 317 494 list store;
#X obj 338 381 t b b l;
#X obj 304 436 f;
#X obj 342 437 + 1;
#X msg 356 411 0, f 2;
#X msg 303 465 get \$1 1;
#X obj 362 349 t l b;
#X obj 511 300 s \$0-mtxgui_setsize;
#X obj 298 748 s \$0-mtxgui_set_element;
#X obj 437 593 v \$0-mtx-cols;
#X floatatom 437 615 5 0 0 0 - - -;
#X msg 511 253 set \$1 \$2;
#X msg 511 275 5 5;
#X obj 298 724 pack 0 0 0;
#X obj 297 606 f;
#X obj 324 606 + 1;
#X msg 369 568 0;
#X obj 331 665 mod;
#X obj 297 665 div;
#X obj 331 688 + 1;
#X obj 297 688 + 1;
#X obj 317 539 t b f;
#X obj 310 73 t l l b b;
#X obj 259 145 t f f;
#X obj 297 630 t f f f b;
#X obj 89 122 s \$0-mtxgui_mtxdumpspigot;
#X msg 264 81 0;
#X msg 180 76 1;
#X obj 362 300 t b b b;
#X obj 244 45 t b b l b;
#X msg 89 58 matrix;
#X obj 17 85 s \$0-mtxgui_inlet;
#X obj 330 170 ==;
#X obj 317 516 fmod 2;
#X connect 0 0 39 0;
#X connect 1 0 2 0;
#X connect 1 1 2 1;
#X connect 2 0 33 0;
#X connect 3 0 32 0;
#X connect 3 1 4 0;
#X connect 3 1 8 1;
#X connect 4 0 42 1;
#X connect 5 0 6 0;
#X connect 5 1 38 0;
#X connect 6 0 7 0;
#X connect 8 0 16 0;
#X connect 9 0 12 0;
#X connect 10 0 43 0;
#X connect 10 1 9 1;
#X connect 11 0 9 0;
#X connect 11 1 14 0;
#X connect 11 2 10 1;
#X connect 12 0 13 0;
#X connect 12 0 15 0;
#X connect 13 0 12 1;
#X connect 14 0 12 1;
#X connect 15 0 10 0;
#X connect 16 0 11 0;
#X connect 16 1 26 0;
#X connect 19 0 20 0;
#X connect 20 0 27 1;
#X connect 20 0 28 1;
#X connect 21 0 22 0;
#X connect 22 0 17 0;
#X connect 23 0 18 0;
#X connect 24 0 25 0;
#X connect 24 0 34 0;
#X connect 25 0 24 1;
#X connect 26 0 24 1;
#X connect 27 0 29 0;
#X connect 28 0 30 0;
#X connect 29 0 23 1;
#X connect 30 0 23 0;
#X connect 31 0 24 0;
#X connect 31 1 23 2;
#X connect 32 0 1 0;
#X connect 32 1 21 0;
#X connect 33 0 42 0;
#X connect 34 1 28 0;
#X connect 34 2 27 0;
#X connect 34 3 19 0;
#X connect 36 0 35 0;
#X connect 37 0 35 0;
#X connect 38 0 8 0;
#X connect 38 1 36 0;
#X connect 38 2 22 0;
#X connect 39 0 40 0;
#X connect 39 1 37 0;
#X connect 39 2 3 0;
#X connect 39 3 36 0;
#X connect 40 0 41 0;
#X connect 42 0 5 0;
#X connect 43 0 31 0;
#X restore 80 105 pd setmatrix;
#X obj 183 102 outlet;
#X obj 80 70 t b l;
#X obj 29 155 s \$0-mtxguiout4;
#X connect 0 0 1 0;
#X connect 1 0 2 0;
#X connect 1 1 5 0;
#X connect 2 0 6 0;
#X connect 5 0 4 0;
#X connect 5 1 3 0;
#X restore 105 664 pd getsetmatrix;
#X obj 327 307 s \$0-mtxgui_coloroffs;
#X obj 295 367 s \$0-mtxgui_colorons;
#X obj 274 246 t b l;
#X obj 295 221 t b l;
#N canvas 0 23 450 300 getsetcol 0;
#X obj 85 25 inlet;
#X obj 85 49 route float list;
#N canvas 50 262 964 766 getcol 0;
#X obj 220 -26 inlet;
#X floatatom 255 242 5 0 0 0 - - -;
#X floatatom 237 289 5 0 0 0 - - -;
#X obj 237 310 until;
#X obj 237 333 f;
#X obj 265 333 +;
#X obj 237 355 - 1;
#X msg 290 183 0;
#X obj 237 380 +;
#X msg 322 183 set;
#X msg 215 446 2 26 50 74 98 122 146;
#X msg 237 419 add2 \$1;
#X obj 220 135 t b b b f b b;
#X floatatom 69 220 5 0 0 0 - - -;
#X obj 69 243 pack 0 \$0;
#X obj 83 357 v;
#X msg 69 266 \$2-\$1-tval;
#X obj 69 311 t b a;
#X obj 69 288 list prepend symbol;
#X obj 101 334 list trim;
#X msg 85 422 0 0 0 1 0 0 0;
#X msg 84 389 add2 \$1;
#X obj 255 219 value \$0-mtx-cols;
#X obj 237 265 value \$0-mtx-rows;
#X obj 220 92 spigot;
#X obj 185 165 t b b;
#X obj 85 448 s \$0-mtxguiout2;
#N canvas 666 99 883 638 checkrange 0;
#X obj 193 49 inlet;
#X obj 182 369 outlet;
#X floatatom 245 148 5 0 0 0 - - -;
#X obj 245 124 value \$0-mtx-cols;
#X obj 199 194 tgl 15 0 empty empty empty 17 7 0 10 -262144 -1 -1 0
1;
#X obj 212 223 sel 0;
#X obj 212 246 f;
#X msg 212 270 col \$1 out of range;
#X obj 193 77 t f b f;
#N canvas 0 23 450 300 expr 0;
#X obj 104 35 inlet;
#X obj 234 35 inlet;
#X obj 161 85 > 0;
#X obj 104 61 t f f;
#X obj 104 113 &&;
#X obj 104 139 outlet;
#X obj 104 87 <=;
#X text 198 70 expr if(($f1<=$f2)&&($f1>0) \, 1 \, 0);
#X connect 0 0 3 0;
#X connect 1 0 6 1;
#X connect 2 0 4 1;
#X connect 3 0 6 0;
#X connect 3 1 2 0;
#X connect 4 0 5 0;
#X connect 6 0 4 0;
#X restore 199 172 pd expr;
#X obj 212 298 print \$0-mtxgui;
#X connect 0 0 8 0;
#X connect 2 0 9 1;
#X connect 3 0 2 0;
#X connect 4 0 5 0;
#X connect 4 0 1 0;
#X connect 5 0 6 0;
#X connect 6 0 7 0;
#X connect 7 0 10 0;
#X connect 8 0 9 0;
#X connect 8 1 3 0;
#X connect 8 2 6 1;
#X connect 9 0 4 0;
#X restore 262 51 pd checkrange;
#X obj 223 8 t f f;
#X text 371 447 togglenumber;
#X connect 0 0 28 0;
#X connect 1 0 5 1;
#X connect 2 0 3 0;
#X connect 3 0 4 0;
#X connect 4 0 5 0;
#X connect 4 0 6 0;
#X connect 5 0 4 1;
#X connect 6 0 8 0;
#X connect 7 0 4 1;
#X connect 8 0 11 0;
#X connect 8 0 13 0;
#X connect 9 0 10 0;
#X connect 9 0 20 0;
#X connect 11 0 10 0;
#X connect 12 0 25 0;
#X connect 12 1 23 0;
#X connect 12 2 22 0;
#X connect 12 3 8 1;
#X connect 12 4 7 0;
#X connect 12 5 9 0;
#X connect 13 0 14 0;
#X connect 14 0 16 0;
#X connect 15 0 21 0;
#X connect 16 0 18 0;
#X connect 17 0 15 0;
#X connect 17 1 19 0;
#X connect 18 0 17 0;
#X connect 19 0 15 1;
#X connect 20 0 26 0;
#X connect 21 0 20 0;
#X connect 22 0 1 0;
#X connect 23 0 2 0;
#X connect 24 0 12 0;
#X connect 25 0 20 0;
#X connect 25 1 10 0;
#X connect 27 0 24 1;
#X connect 28 0 24 0;
#X connect 28 1 27 0;
#X restore 85 151 pd getcol;
#N canvas 135 128 809 739 setcol 0;
#X obj 169 54 inlet;
#X obj 292 297 list split 1;
#X obj 332 250 value \$0-mtx-rows;
#X obj 332 351 list length;
#X obj 332 400 sel 1 0;
#X obj 209 458 list store;
#N canvas 0 23 450 300 parselist 0;
#X obj 62 21 inlet;
#X obj 49 183 outlet;
#X obj 36 76 until;
#X obj 49 159 list store;
#X obj 62 43 t b b l;
#X obj 36 101 f;
#X obj 74 102 + 1;
#X msg 88 76 0, f 2;
#X msg 35 130 get \$1 1;
#X connect 0 0 4 0;
#X connect 2 0 5 0;
#X connect 3 0 1 0;
#X connect 3 1 2 1;
#X connect 4 0 2 0;
#X connect 4 1 7 0;
#X connect 4 2 3 1;
#X connect 5 0 6 0;
#X connect 5 0 8 0;
#X connect 6 0 5 1;
#X connect 7 0 5 1;
#X connect 8 0 3 0;
#X restore 209 484 pd parselist;
#X msg 387 400 number of elements don't match with number of rows;
#X obj 387 421 print \$0-mtxgui;
#X obj 332 327 t l l;
#X obj 247 592 f;
#X msg 312 499 \$1;
#X obj 209 558 f;
#X obj 243 558 + 1;
#X msg 227 535 1;
#X obj 209 511 t b b f;
#X obj 212 617 pack 0 0 0;
#X msg 212 645 element \$1 \$2 \$3;
#X obj 212 670 s \$0-mtxgui_inlet;
#X obj 292 200 t l l b b;
#X msg 215 100 0;
#X obj 19 180 s \$0-mtxgui_inlet;
#X obj 332 376 ==;
#X msg 19 157 matrixdumpcolrow;
#X obj 215 122 s \$0dumpelementspigot;
#X obj 169 76 t b l b;
#X connect 0 0 25 0;
#X connect 1 1 9 0;
#X connect 2 0 22 1;
#X connect 3 0 22 0;
#X connect 4 0 5 0;
#X connect 4 1 7 0;
#X connect 5 0 6 0;
#X connect 6 0 15 0;
#X connect 7 0 8 0;
#X connect 9 0 3 0;
#X connect 9 1 5 1;
#X connect 10 0 16 1;
#X connect 11 0 10 1;
#X connect 12 0 13 0;
#X connect 12 0 16 0;
#X connect 13 0 12 1;
#X connect 14 0 12 1;
#X connect 15 0 12 0;
#X connect 15 1 10 0;
#X connect 15 2 16 2;
#X connect 16 0 17 0;
#X connect 17 0 18 0;
#X connect 19 0 1 0;
#X connect 19 1 11 0;
#X connect 19 2 2 0;
#X connect 19 3 14 0;
#X connect 20 0 24 0;
#X connect 22 0 4 0;
#X connect 23 0 21 0;
#X connect 25 0 23 0;
#X connect 25 1 19 0;
#X connect 25 2 20 0;
#X restore 139 88 pd setcol;
#X connect 0 0 1 0;
#X connect 1 0 2 0;
#X connect 1 1 3 0;
#X restore 66 716 pd getsetcol;
#N canvas 0 23 450 300 getsetrow 0;
#X obj 85 25 inlet;
#X obj 85 49 route float list;
#N canvas 50 262 964 766 getrow 0;
#X obj 220 24 inlet;
#X msg 290 183 0;
#X msg 385 222 set;
#X floatatom 29 220 5 0 0 0 - - -;
#X obj 29 243 pack 0 \$0;
#X obj 43 357 v;
#X msg 29 266 \$2-\$1-tval;
#X obj 29 311 t b a;
#X obj 29 288 list prepend symbol;
#X obj 61 334 list trim;
#X msg 45 422 0 1 0 0 0 1 0 0 0 0 0 0 0 0 0 0 0 0 0 0 0 0 0 0;
#X msg 44 389 add2 \$1;
#X floatatom 471 70 5 0 0 0 - - -;
#X obj 409 160 tgl 15 0 empty empty empty 17 7 0 10 -262144 -1 -1 0
1;
#X obj 220 92 spigot;
#X obj 422 189 sel 0;
#X obj 455 227 f;
#X obj 215 52 t f f b f;
#X floatatom 272 274 5 0 0 0 - - -;
#X obj 254 303 *;
#X obj 213 304 f;
#X obj 220 135 t b b f b b b;
#X floatatom 254 326 5 0 0 0 - - -;
#X obj 254 220 - 1;
#X obj 213 326 until;
#X obj 217 376 f;
#X obj 244 376 + 1;
#X msg 177 431 0 1 2 3 4 5 6 7 8 9 10 11 12 13 14 15 16 17 18 19 20
21 22 23;
#X msg 210 405 add2 \$1;
#X obj 180 181 t b b;
#X msg 455 251 row \$1 out of range;
#X obj 471 46 v \$0-mtx-rows;
#X obj 273 250 v \$0-mtx-cols;
#X obj 10 454 s \$0-mtxguiout2;
#N canvas 0 23 450 300 expr 0;
#X obj 104 35 inlet;
#X obj 234 35 inlet;
#X obj 161 85 > 0;
#X obj 104 61 t f f;
#X obj 104 113 &&;
#X obj 104 139 outlet;
#X obj 104 87 <=;
#X text 198 70 expr if(($f1<=$f2)&&($f1>0) \, 1 \, 0);
#X connect 0 0 3 0;
#X connect 1 0 6 1;
#X connect 2 0 4 1;
#X connect 3 0 6 0;
#X connect 3 1 2 0;
#X connect 4 0 5 0;
#X connect 6 0 4 0;
#X restore 409 135 pd expr;
#X obj 455 279 print \$0-mtxgui;
#X connect 0 0 17 0;
#X connect 2 0 27 0;
#X connect 2 0 10 0;
#X connect 3 0 4 0;
#X connect 4 0 6 0;
#X connect 5 0 11 0;
#X connect 6 0 8 0;
#X connect 7 0 5 0;
#X connect 7 1 9 0;
#X connect 8 0 7 0;
#X connect 9 0 5 1;
#X connect 10 0 33 0;
#X connect 11 0 10 0;
#X connect 12 0 34 1;
#X connect 13 0 14 1;
#X connect 13 0 15 0;
#X connect 14 0 21 0;
#X connect 15 0 16 0;
#X connect 16 0 30 0;
#X connect 17 0 14 0;
#X connect 17 1 34 0;
#X connect 17 2 31 0;
#X connect 17 3 16 1;
#X connect 18 0 20 1;
#X connect 18 0 19 1;
#X connect 19 0 22 0;
#X connect 20 0 24 0;
#X connect 21 0 29 0;
#X connect 21 1 20 0;
#X connect 21 2 23 0;
#X connect 21 3 32 0;
#X connect 21 4 1 0;
#X connect 21 5 2 0;
#X connect 22 0 25 1;
#X connect 23 0 19 0;
#X connect 24 0 25 0;
#X connect 25 0 26 0;
#X connect 25 0 28 0;
#X connect 25 0 3 0;
#X connect 26 0 25 1;
#X connect 28 0 27 0;
#X connect 29 0 10 0;
#X connect 29 1 27 0;
#X connect 30 0 35 0;
#X connect 31 0 12 0;
#X connect 32 0 18 0;
#X connect 34 0 13 0;
#X restore 85 97 pd getrow;
#N canvas 135 128 1232 930 setrow 0;
#X obj 88 237 list split 1;
#X obj 133 291 list length;
#X obj 133 340 sel 1 0;
#X obj 80 418 list store;
#N canvas 0 23 450 300 parselist 0;
#X obj 62 21 inlet;
#X obj 49 183 outlet;
#X obj 36 76 until;
#X obj 49 159 list store;
#X obj 62 43 t b b l;
#X obj 36 101 f;
#X obj 74 102 + 1;
#X msg 88 76 0, f 2;
#X msg 35 130 get \$1 1;
#X connect 0 0 4 0;
#X connect 2 0 5 0;
#X connect 3 0 1 0;
#X connect 3 1 2 1;
#X connect 4 0 2 0;
#X connect 4 1 7 0;
#X connect 4 2 3 1;
#X connect 5 0 6 0;
#X connect 5 0 8 0;
#X connect 6 0 5 1;
#X connect 7 0 5 1;
#X connect 8 0 3 0;
#X restore 80 444 pd parselist;
#X obj 188 361 print \$0-mtxgui;
#X obj 133 267 t l l;
#X obj 76 535 f;
#X msg 93 284 \$1;
#X obj 111 535 f;
#X obj 145 535 + 1;
#X msg 129 512 1;
#X obj 80 478 t b b f;
#X obj 78 577 pack 0 0 0;
#X msg 78 605 element \$1 \$2 \$3;
#X obj 78 630 s \$0-mtxgui_inlet;
#X obj 128 190 value \$0-mtx-cols;
#X obj 88 140 t l l b b;
#X msg 188 340 number of elements don't match with number of cols;
#X obj 65 22 inlet;
#X obj 133 316 ==;
#X msg 111 69 0;
#X obj -45 109 s \$0-mtxgui_inlet;
#X msg -45 86 matrixdumpcolrow;
#X obj 111 91 s \$0dumpelementspigot;
#X obj 65 45 t b l b;
#X connect 0 1 6 0;
#X connect 1 0 20 0;
#X connect 2 0 3 0;
#X connect 2 1 18 0;
#X connect 3 0 4 0;
#X connect 4 0 12 0;
#X connect 6 0 1 0;
#X connect 6 1 3 1;
#X connect 7 0 13 0;
#X connect 8 0 7 1;
#X connect 9 0 10 0;
#X connect 9 0 13 1;
#X connect 10 0 9 1;
#X connect 11 0 9 1;
#X connect 12 0 7 0;
#X connect 12 1 9 0;
#X connect 12 2 13 2;
#X connect 13 0 14 0;
#X connect 14 0 15 0;
#X connect 16 0 20 1;
#X connect 17 0 0 0;
#X connect 17 1 8 0;
#X connect 17 2 16 0;
#X connect 17 3 11 0;
#X connect 18 0 5 0;
#X connect 19 0 25 0;
#X connect 20 0 2 0;
#X connect 21 0 24 0;
#X connect 23 0 22 0;
#X connect 25 0 23 0;
#X connect 25 1 17 0;
#X connect 25 2 21 0;
#X restore 139 74 pd setrow;
#X connect 0 0 1 0;
#X connect 1 0 2 0;
#X connect 1 1 3 0;
#X restore 84 690 pd getsetrow;
#N canvas 187 163 1493 895 colcolors 0;
#X obj 462 28 inlet;
#X floatatom 250 242 5 0 0 0 - - -;
#X floatatom 230 289 5 0 0 0 - - -;
#X obj 230 310 until;
#X obj 230 333 f;
#X obj 258 333 +;
#X obj 230 355 - 1;
#X msg 290 183 0;
#X obj 230 380 +;
#X obj 250 219 value \$0-mtx-cols;
#X obj 230 265 value \$0-mtx-rows;
#X obj 220 92 spigot;
#N canvas 550 63 883 638 checkrange 0;
#X obj 193 49 inlet;
#X obj 182 369 outlet;
#X floatatom 428 139 5 0 0 0 - - -;
#X obj 428 115 value \$0-mtx-cols;
#X obj 199 194 tgl 15 0 empty empty empty 17 7 0 10 -262144 -1 -1 0
1;
#X obj 212 223 sel 0;
#X obj 212 246 f;
#X msg 212 270 col \$1 out of range;
#X obj 193 77 t f b f;
#N canvas 0 23 450 300 expr 0;
#X obj 104 35 inlet;
#X obj 234 35 inlet;
#X obj 161 85 > 0;
#X obj 104 61 t f f;
#X obj 104 113 &&;
#X obj 104 139 outlet;
#X obj 104 87 <=;
#X text 198 70 expr if(($f1<=$f2)&&($f1>0) \, 1 \, 0);
#X connect 0 0 3 0;
#X connect 1 0 6 1;
#X connect 2 0 4 1;
#X connect 3 0 6 0;
#X connect 3 1 2 0;
#X connect 4 0 5 0;
#X connect 6 0 4 0;
#X restore 199 170 pd expr;
#X obj 212 298 print \$0-mtxgui;
#X connect 0 0 8 0;
#X connect 2 0 9 1;
#X connect 3 0 2 0;
#X connect 4 0 5 0;
#X connect 4 0 1 0;
#X connect 5 0 6 0;
#X connect 6 0 7 0;
#X connect 7 0 10 0;
#X connect 8 0 9 0;
#X connect 8 1 3 0;
#X connect 8 2 6 1;
#X connect 9 0 4 0;
#X restore 262 51 pd checkrange;
#X obj 223 8 t f f;
#X text 137 381 togglenumber;
#N canvas 0 23 450 300 checkargs 0;
#X obj 43 9 inlet;
#X obj 74 61 list length;
#X obj 42 32 t l l;
#X obj 42 155 spigot;
#X msg 88 117 1;
#X msg 120 118 0;
#X obj 74 83 sel 4;
#X obj 42 226 outlet;
#X msg 119 143 colcolorons message expects 4 args (col \, r \, g \,
b);
#X obj 120 165 print \$0-mtxgui;
#X connect 0 0 2 0;
#X connect 1 0 6 0;
#X connect 2 0 3 0;
#X connect 2 1 1 0;
#X connect 3 0 7 0;
#X connect 4 0 3 1;
#X connect 5 0 3 1;
#X connect 6 0 4 0;
#X connect 6 1 5 0;
#X connect 6 1 8 0;
#X connect 8 0 9 0;
#X restore 462 56 pd checkargs;
#X obj 462 83 unpack 0 0 0 0;
#X obj 230 431 s \$0-mtxgui_cellcolorons;
#X obj 230 405 pack 0 0 0 0;
#X obj 230 159 t b b f b;
#X obj 888 38 inlet;
#X floatatom 676 252 5 0 0 0 - - -;
#X floatatom 656 299 5 0 0 0 - - -;
#X obj 656 320 until;
#X obj 656 343 f;
#X obj 684 343 +;
#X obj 656 365 - 1;
#X msg 716 193 0;
#X obj 656 390 +;
#X obj 676 229 value \$0-mtx-cols;
#X obj 656 275 value \$0-mtx-rows;
#X obj 646 102 spigot;
#N canvas 569 151 883 638 checkrange 0;
#X obj 193 49 inlet;
#X obj 182 369 outlet;
#X floatatom 428 139 5 0 0 0 - - -;
#X obj 428 115 value \$0-mtx-cols;
#X obj 199 194 tgl 15 0 empty empty empty 17 7 0 10 -262144 -1 -1 0
1;
#X obj 212 223 sel 0;
#X obj 212 246 f;
#X msg 212 270 col \$1 out of range;
#X obj 193 77 t f b f;
#N canvas 0 23 450 300 expr 0;
#X obj 104 35 inlet;
#X obj 234 35 inlet;
#X obj 161 85 > 0;
#X obj 104 61 t f f;
#X obj 104 113 &&;
#X obj 104 139 outlet;
#X obj 104 87 <=;
#X text 198 70 expr if(($f1<=$f2)&&($f1>0) \, 1 \, 0);
#X connect 0 0 3 0;
#X connect 1 0 6 1;
#X connect 2 0 4 1;
#X connect 3 0 6 0;
#X connect 3 1 2 0;
#X connect 4 0 5 0;
#X connect 6 0 4 0;
#X restore 199 171 pd expr;
#X obj 212 298 print \$0-mtxgui;
#X connect 0 0 8 0;
#X connect 2 0 9 1;
#X connect 3 0 2 0;
#X connect 4 0 5 0;
#X connect 4 0 1 0;
#X connect 5 0 6 0;
#X connect 6 0 7 0;
#X connect 7 0 10 0;
#X connect 8 0 9 0;
#X connect 8 1 3 0;
#X connect 8 2 6 1;
#X connect 9 0 4 0;
#X restore 688 61 pd checkrange;
#X obj 649 18 t f f;
#X text 563 391 togglenumber;
#N canvas 0 23 450 300 checkargs 0;
#X obj 43 9 inlet;
#X obj 74 61 list length;
#X obj 42 32 t l l;
#X obj 42 155 spigot;
#X msg 88 117 1;
#X msg 120 118 0;
#X obj 74 83 sel 4;
#X obj 42 226 outlet;
#X msg 119 143 colcoloroffs message expects 4 args (col \, r \, g \,
b);
#X obj 120 166 print \$0-mtxgui;
#X connect 0 0 2 0;
#X connect 1 0 6 0;
#X connect 2 0 3 0;
#X connect 2 1 1 0;
#X connect 3 0 7 0;
#X connect 4 0 3 1;
#X connect 5 0 3 1;
#X connect 6 0 4 0;
#X connect 6 1 5 0;
#X connect 6 1 8 0;
#X connect 8 0 9 0;
#X restore 888 66 pd checkargs;
#X obj 888 93 unpack 0 0 0 0;
#X obj 656 415 pack 0 0 0 0;
#X obj 656 169 t b b f b;
#X obj 656 441 s \$0-mtxgui_cellcoloroffs;
#X connect 0 0 15 0;
#X connect 1 0 5 1;
#X connect 2 0 3 0;
#X connect 3 0 4 0;
#X connect 4 0 5 0;
#X connect 4 0 6 0;
#X connect 5 0 4 1;
#X connect 6 0 8 0;
#X connect 7 0 4 1;
#X connect 8 0 18 0;
#X connect 9 0 1 0;
#X connect 10 0 2 0;
#X connect 11 0 19 0;
#X connect 12 0 11 1;
#X connect 13 0 11 0;
#X connect 13 1 12 0;
#X connect 15 0 16 0;
#X connect 16 0 13 0;
#X connect 16 1 18 1;
#X connect 16 2 18 2;
#X connect 16 3 18 3;
#X connect 18 0 17 0;
#X connect 19 0 10 0;
#X connect 19 1 9 0;
#X connect 19 2 8 1;
#X connect 19 3 7 0;
#X connect 20 0 35 0;
#X connect 21 0 25 1;
#X connect 22 0 23 0;
#X connect 23 0 24 0;
#X connect 24 0 25 0;
#X connect 24 0 26 0;
#X connect 25 0 24 1;
#X connect 26 0 28 0;
#X connect 27 0 24 1;
#X connect 28 0 37 0;
#X connect 29 0 21 0;
#X connect 30 0 22 0;
#X connect 31 0 38 0;
#X connect 32 0 31 1;
#X connect 33 0 31 0;
#X connect 33 1 32 0;
#X connect 35 0 36 0;
#X connect 36 0 33 0;
#X connect 36 1 37 1;
#X connect 36 2 37 2;
#X connect 36 3 37 3;
#X connect 37 0 39 0;
#X connect 38 0 30 0;
#X connect 38 1 29 0;
#X connect 38 2 28 1;
#X connect 38 3 27 0;
#X restore 378 139 pd colcolors;
#N canvas 427 290 1493 895 rowcolors 0;
#X obj 462 8 inlet;
#X obj 220 192 spigot;
#N canvas 515 114 883 638 checkrange 0;
#X obj 193 -11 inlet;
#X obj 182 369 outlet;
#X obj 193 17 t f b f;
#X floatatom 428 90 5 0 0 0 - - -;
#X obj 199 143 tgl 15 0 empty empty empty 17 7 0 10 -262144 -1 -1 0
1;
#X obj 212 172 sel 0;
#X obj 245 210 f;
#X msg 245 234 row \$1 out of range;
#X obj 428 66 v \$0-mtx-rows;
#N canvas 0 23 450 300 expr 0;
#X obj 104 35 inlet;
#X obj 234 35 inlet;
#X obj 161 85 > 0;
#X obj 104 61 t f f;
#X obj 104 113 &&;
#X obj 104 139 outlet;
#X obj 104 87 <=;
#X text 198 70 expr if(($f1<=$f2)&&($f1>0) \, 1 \, 0);
#X connect 0 0 3 0;
#X connect 1 0 6 1;
#X connect 2 0 4 1;
#X connect 3 0 6 0;
#X connect 3 1 2 0;
#X connect 4 0 5 0;
#X connect 6 0 4 0;
#X restore 199 117 pd expr;
#X obj 245 262 print \$0-mtxgui;
#X connect 0 0 2 0;
#X connect 2 0 9 0;
#X connect 2 1 8 0;
#X connect 2 2 6 1;
#X connect 3 0 9 1;
#X connect 4 0 5 0;
#X connect 4 0 1 0;
#X connect 5 0 6 0;
#X connect 6 0 7 0;
#X connect 7 0 10 0;
#X connect 8 0 3 0;
#X connect 9 0 4 0;
#X restore 262 151 pd checkrange;
#X obj 223 108 t f f;
#X text 129 334 togglenumber;
#N canvas 0 23 450 300 checkargs 0;
#X obj 43 9 inlet;
#X obj 74 61 list length;
#X obj 42 32 t l l;
#X obj 42 155 spigot;
#X msg 88 117 1;
#X msg 120 118 0;
#X obj 74 83 sel 4;
#X obj 42 226 outlet;
#X msg 119 143 rowcolorons message expects 4 args (row \, r \, g \,
b);
#X obj 120 165 print \$0-mtxgui;
#X connect 0 0 2 0;
#X connect 1 0 6 0;
#X connect 2 0 3 0;
#X connect 2 1 1 0;
#X connect 3 0 7 0;
#X connect 4 0 3 1;
#X connect 5 0 3 1;
#X connect 6 0 4 0;
#X connect 6 1 5 0;
#X connect 6 1 8 0;
#X connect 8 0 9 0;
#X restore 462 36 pd checkargs;
#X obj 462 63 unpack 0 0 0 0;
#X obj 220 387 s \$0-mtxgui_cellcolorons;
#X obj 220 361 pack 0 0 0 0;
#X floatatom 270 259 5 0 0 0 - - -;
#X obj 261 282 *;
#X obj 220 283 f;
#X floatatom 261 305 5 0 0 0 - - -;
#X obj 243 259 - 1;
#X obj 220 305 until;
#X obj 220 331 f;
#X obj 247 331 + 1;
#X obj 270 237 v \$0-mtx-cols;
#X obj 220 214 t b f b;
#X obj 852 8 inlet;
#X obj 610 192 spigot;
#N canvas 506 81 883 638 checkrange 0;
#X obj 193 -11 inlet;
#X obj 182 369 outlet;
#X obj 193 17 t f b f;
#X floatatom 428 90 5 0 0 0 - - -;
#X obj 199 143 tgl 15 0 empty empty empty 17 7 0 10 -262144 -1 -1 0
1;
#X obj 212 172 sel 0;
#X obj 245 210 f;
#X msg 245 234 row \$1 out of range;
#X obj 428 66 v \$0-mtx-rows;
#N canvas 0 23 450 300 expr 0;
#X obj 104 35 inlet;
#X obj 234 35 inlet;
#X obj 161 85 > 0;
#X obj 104 61 t f f;
#X obj 104 113 &&;
#X obj 104 139 outlet;
#X obj 104 87 <=;
#X text 198 70 expr if(($f1<=$f2)&&($f1>0) \, 1 \, 0);
#X connect 0 0 3 0;
#X connect 1 0 6 1;
#X connect 2 0 4 1;
#X connect 3 0 6 0;
#X connect 3 1 2 0;
#X connect 4 0 5 0;
#X connect 6 0 4 0;
#X restore 199 122 pd expr;
#X obj 245 262 print \$0-mtxgui;
#X connect 0 0 2 0;
#X connect 2 0 9 0;
#X connect 2 1 8 0;
#X connect 2 2 6 1;
#X connect 3 0 9 1;
#X connect 4 0 5 0;
#X connect 4 0 1 0;
#X connect 5 0 6 0;
#X connect 6 0 7 0;
#X connect 7 0 10 0;
#X connect 8 0 3 0;
#X connect 9 0 4 0;
#X restore 652 151 pd checkrange;
#X obj 613 108 t f f;
#X text 519 334 togglenumber;
#N canvas 0 23 450 300 checkargs 0;
#X obj 43 9 inlet;
#X obj 74 61 list length;
#X obj 42 32 t l l;
#X obj 42 155 spigot;
#X msg 88 117 1;
#X msg 120 118 0;
#X obj 74 83 sel 4;
#X obj 42 226 outlet;
#X msg 119 143 rowcoloroffs message expects 4 args (row \, r \, g \,
b);
#X obj 120 165 print \$0-mtxgui;
#X connect 0 0 2 0;
#X connect 1 0 6 0;
#X connect 2 0 3 0;
#X connect 2 1 1 0;
#X connect 3 0 7 0;
#X connect 4 0 3 1;
#X connect 5 0 3 1;
#X connect 6 0 4 0;
#X connect 6 1 5 0;
#X connect 6 1 8 0;
#X connect 8 0 9 0;
#X restore 852 36 pd checkargs;
#X obj 852 63 unpack 0 0 0 0;
#X obj 610 361 pack 0 0 0 0;
#X floatatom 660 259 5 0 0 0 - - -;
#X obj 651 282 *;
#X obj 610 283 f;
#X floatatom 651 305 5 0 0 0 - - -;
#X obj 633 259 - 1;
#X obj 610 305 until;
#X obj 610 331 f;
#X obj 637 331 + 1;
#X obj 660 237 v \$0-mtx-cols;
#X obj 610 214 t b f b;
#X obj 610 387 s \$0-mtxgui_cellcoloroffs;
#X connect 0 0 5 0;
#X connect 1 0 18 0;
#X connect 2 0 1 1;
#X connect 3 0 1 0;
#X connect 3 1 2 0;
#X connect 5 0 6 0;
#X connect 6 0 3 0;
#X connect 6 1 8 1;
#X connect 6 2 8 2;
#X connect 6 3 8 3;
#X connect 8 0 7 0;
#X connect 9 0 11 1;
#X connect 9 0 10 1;
#X connect 10 0 12 0;
#X connect 11 0 14 0;
#X connect 12 0 15 1;
#X connect 13 0 10 0;
#X connect 14 0 15 0;
#X connect 15 0 16 0;
#X connect 15 0 8 0;
#X connect 16 0 15 1;
#X connect 17 0 9 0;
#X connect 18 0 11 0;
#X connect 18 1 13 0;
#X connect 18 2 17 0;
#X connect 19 0 24 0;
#X connect 20 0 36 0;
#X connect 21 0 20 1;
#X connect 22 0 20 0;
#X connect 22 1 21 0;
#X connect 24 0 25 0;
#X connect 25 0 22 0;
#X connect 25 1 26 1;
#X connect 25 2 26 2;
#X connect 25 3 26 3;
#X connect 26 0 37 0;
#X connect 27 0 29 1;
#X connect 27 0 28 1;
#X connect 28 0 30 0;
#X connect 29 0 32 0;
#X connect 30 0 33 1;
#X connect 31 0 28 0;
#X connect 32 0 33 0;
#X connect 33 0 34 0;
#X connect 33 0 26 0;
#X connect 34 0 33 1;
#X connect 35 0 27 0;
#X connect 36 0 29 0;
#X connect 36 1 31 0;
#X connect 36 2 35 0;
#X restore 420 116 pd rowcolors;
#N canvas 296 323 1313 710 cellcolors 0;
#X obj 58 31 inlet;
#X obj 90 124 list length;
#X obj 58 95 t l l;
#X obj 58 218 spigot;
#X msg 104 180 1;
#X msg 136 181 0;
#X obj 90 146 sel 5;
#N canvas 733 23 947 1005 set_cellcoloron 0;
#X obj 150 119 spigot;
#X obj 150 239 - 1;
#X obj 177 207 - 1;
#X obj 177 278 t f b;
#X obj 191 344 *;
#X obj 150 372 +;
#X obj 157 69 t l l;
#X obj 157 43 inlet;
#X obj 209 308 v \$0-mtx-cols;
#X obj 150 168 unpack 0 0 0 0 0;
#X obj 208 449 s \$0-mtxgui_cellcolorons;
#X obj 208 414 pack 0 0 0 0;
#N canvas 616 23 1092 1005 range_check 0;
#X obj 102 31 inlet;
#X obj 112 460 outlet;
#X floatatom 332 150 5 0 0 0 - - -;
#X obj 309 199 tgl 15 0 empty empty empty 17 7 0 10 -262144 -1 -1 1
1;
#X obj 309 216 sel 0;
#X obj 342 254 f;
#X msg 342 278 col \$1 out of range;
#X obj 309 107 t f b f;
#X floatatom 266 353 5 0 0 0 - - -;
#X obj 243 402 tgl 15 0 empty empty empty 17 7 0 10 -262144 -1 -1 1
1;
#X obj 243 419 sel 0;
#X obj 276 457 f;
#X obj 243 310 t f b f;
#X msg 276 481 row \$1 out of range;
#X obj 112 439 &&;
#X obj 242 85 unpack 0 0 0;
#X obj 332 129 v \$0-mtx-cols;
#X obj 266 332 v \$0-mtx-rows;
#N canvas 0 23 450 300 expr 0;
#X obj 104 35 inlet;
#X obj 234 35 inlet;
#X obj 161 85 > 0;
#X obj 104 61 t f f;
#X obj 104 113 &&;
#X obj 104 139 outlet;
#X obj 104 87 <=;
#X text 198 70 expr if(($f1<=$f2)&&($f1>0) \, 1 \, 0);
#X connect 0 0 3 0;
#X connect 1 0 6 1;
#X connect 2 0 4 1;
#X connect 3 0 6 0;
#X connect 3 1 2 0;
#X connect 4 0 5 0;
#X connect 6 0 4 0;
#X restore 309 177 pd expr;
#N canvas 0 23 450 300 expr 0;
#X obj 104 35 inlet;
#X obj 234 35 inlet;
#X obj 161 85 > 0;
#X obj 104 61 t f f;
#X obj 104 113 &&;
#X obj 104 139 outlet;
#X obj 104 87 <=;
#X text 198 70 expr if(($f1<=$f2)&&($f1>0) \, 1 \, 0);
#X connect 0 0 3 0;
#X connect 1 0 6 1;
#X connect 2 0 4 1;
#X connect 3 0 6 0;
#X connect 3 1 2 0;
#X connect 4 0 5 0;
#X connect 6 0 4 0;
#X restore 243 381 pd expr;
#X obj 342 306 print \$0-mtxgui;
#X obj 277 521 print \$0-mtxgui;
#X connect 0 0 15 0;
#X connect 2 0 18 1;
#X connect 3 0 4 0;
#X connect 3 0 14 1;
#X connect 4 0 5 0;
#X connect 5 0 6 0;
#X connect 6 0 20 0;
#X connect 7 0 18 0;
#X connect 7 1 16 0;
#X connect 7 2 5 1;
#X connect 8 0 19 1;
#X connect 9 0 10 0;
#X connect 9 0 14 0;
#X connect 10 0 11 0;
#X connect 11 0 13 0;
#X connect 12 0 19 0;
#X connect 12 1 17 0;
#X connect 12 2 11 1;
#X connect 13 0 21 0;
#X connect 14 0 1 0;
#X connect 15 0 12 0;
#X connect 15 1 7 0;
#X connect 16 0 2 0;
#X connect 17 0 8 0;
#X connect 18 0 3 0;
#X connect 19 0 9 0;
#X restore 189 93 pd range_check;
#X msg 150 144 \$2 \$1 \$3 \$4 \$5;
#X connect 0 0 13 0;
#X connect 1 0 5 0;
#X connect 2 0 3 0;
#X connect 3 0 4 0;
#X connect 3 1 8 0;
#X connect 4 0 5 1;
#X connect 5 0 11 0;
#X connect 6 0 0 0;
#X connect 6 1 12 0;
#X connect 7 0 6 0;
#X connect 8 0 4 1;
#X connect 9 0 1 0;
#X connect 9 1 2 0;
#X connect 9 2 11 1;
#X connect 9 3 11 2;
#X connect 9 4 11 3;
#X connect 11 0 10 0;
#X connect 12 0 0 1;
#X connect 13 0 9 0;
#X restore 58 275 pd set_cellcoloron;
#X msg 136 206 cellcolorons message expects 5 args (row \, col \, r
\, g \, b);
#X obj 592 43 inlet;
#X obj 624 104 list length;
#X obj 592 75 t l l;
#X obj 592 198 spigot;
#X msg 638 160 1;
#X msg 670 161 0;
#X obj 624 126 sel 5;
#N canvas 733 23 947 1005 set_cellcoloroff 0;
#X obj 150 119 spigot;
#X obj 150 239 - 1;
#X obj 177 207 - 1;
#X obj 177 278 t f b;
#X obj 191 344 *;
#X obj 150 372 +;
#X obj 157 69 t l l;
#X obj 157 43 inlet;
#X obj 209 308 v \$0-mtx-cols;
#X obj 150 168 unpack 0 0 0 0 0;
#X obj 208 414 pack 0 0 0 0;
#N canvas 490 53 1092 1005 range_check 0;
#X obj 102 31 inlet;
#X obj 112 460 outlet;
#X floatatom 332 150 5 0 0 0 - - -;
#X obj 309 199 tgl 15 0 empty empty empty 17 7 0 10 -262144 -1 -1 1
1;
#X obj 309 216 sel 0;
#X obj 342 254 f;
#X msg 342 278 col \$1 out of range;
#X obj 309 107 t f b f;
#X floatatom 266 353 5 0 0 0 - - -;
#X obj 243 402 tgl 15 0 empty empty empty 17 7 0 10 -262144 -1 -1 1
1;
#X obj 243 419 sel 0;
#X obj 276 457 f;
#X obj 243 310 t f b f;
#X msg 276 481 row \$1 out of range;
#X obj 112 439 &&;
#X obj 242 85 unpack 0 0 0;
#X obj 332 129 v \$0-mtx-cols;
#X obj 266 332 v \$0-mtx-rows;
#N canvas 0 23 450 300 expr 0;
#X obj 104 35 inlet;
#X obj 234 35 inlet;
#X obj 161 85 > 0;
#X obj 104 61 t f f;
#X obj 104 113 &&;
#X obj 104 139 outlet;
#X obj 104 87 <=;
#X text 198 70 expr if(($f1<=$f2)&&($f1>0) \, 1 \, 0);
#X connect 0 0 3 0;
#X connect 1 0 6 1;
#X connect 2 0 4 1;
#X connect 3 0 6 0;
#X connect 3 1 2 0;
#X connect 4 0 5 0;
#X connect 6 0 4 0;
#X restore 309 177 pd expr;
#N canvas 0 23 450 300 expr 0;
#X obj 104 35 inlet;
#X obj 234 35 inlet;
#X obj 161 85 > 0;
#X obj 104 61 t f f;
#X obj 104 113 &&;
#X obj 104 139 outlet;
#X obj 104 87 <=;
#X text 198 70 expr if(($f1<=$f2)&&($f1>0) \, 1 \, 0);
#X connect 0 0 3 0;
#X connect 1 0 6 1;
#X connect 2 0 4 1;
#X connect 3 0 6 0;
#X connect 3 1 2 0;
#X connect 4 0 5 0;
#X connect 6 0 4 0;
#X restore 243 380 pd expr;
#X obj 342 306 print \$0-mtxgui;
#X obj 277 521 print \$0-mtxgui;
#X connect 0 0 15 0;
#X connect 2 0 18 1;
#X connect 3 0 4 0;
#X connect 3 0 14 1;
#X connect 4 0 5 0;
#X connect 5 0 6 0;
#X connect 6 0 20 0;
#X connect 7 0 18 0;
#X connect 7 1 16 0;
#X connect 7 2 5 1;
#X connect 8 0 19 1;
#X connect 9 0 10 0;
#X connect 9 0 14 0;
#X connect 10 0 11 0;
#X connect 11 0 13 0;
#X connect 12 0 19 0;
#X connect 12 1 17 0;
#X connect 12 2 11 1;
#X connect 13 0 21 0;
#X connect 14 0 1 0;
#X connect 15 0 12 0;
#X connect 15 1 7 0;
#X connect 16 0 2 0;
#X connect 17 0 8 0;
#X connect 18 0 3 0;
#X connect 19 0 9 0;
#X restore 189 93 pd range_check;
#X obj 208 449 s \$0-mtxgui_cellcoloroffs;
#X msg 150 145 \$2 \$1 \$3 \$4 \$5;
#X connect 0 0 13 0;
#X connect 1 0 5 0;
#X connect 2 0 3 0;
#X connect 3 0 4 0;
#X connect 3 1 8 0;
#X connect 4 0 5 1;
#X connect 5 0 10 0;
#X connect 6 0 0 0;
#X connect 6 1 11 0;
#X connect 7 0 6 0;
#X connect 8 0 4 1;
#X connect 9 0 1 0;
#X connect 9 1 2 0;
#X connect 9 2 10 1;
#X connect 9 3 10 2;
#X connect 9 4 10 3;
#X connect 10 0 12 0;
#X connect 11 0 0 1;
#X connect 13 0 9 0;
#X restore 592 255 pd set_cellcoloroff;
#X msg 670 186 cellcoloroffs message expects 5 args (row \, col \,
r \, g \, b);
#X obj 136 228 print \$0-mtxgui;
#X obj 670 208 print \$0-mtxgui;
#X connect 0 0 2 0;
#X connect 1 0 6 0;
#X connect 2 0 3 0;
#X connect 2 1 1 0;
#X connect 3 0 7 0;
#X connect 4 0 3 1;
#X connect 5 0 3 1;
#X connect 6 0 4 0;
#X connect 6 1 5 0;
#X connect 6 1 8 0;
#X connect 8 0 18 0;
#X connect 9 0 11 0;
#X connect 10 0 15 0;
#X connect 11 0 12 0;
#X connect 11 1 10 0;
#X connect 12 0 16 0;
#X connect 13 0 12 1;
#X connect 14 0 12 1;
#X connect 15 0 13 0;
#X connect 15 1 14 0;
#X connect 15 1 17 0;
#X connect 17 0 19 0;
#X restore 336 162 pd cellcolors;
#X obj 358 217 tgl 15 0 empty empty empty 17 7 0 10 -262144 -1 -1 0
1;
#X obj 316 187 s \$0mtxgui_mtxdumpspigot;
#N canvas 219 128 1335 770 matrixdumplogic 0;
#X text 87 43 1 mtxdump is a switch: if on \, must dump a matrix for
every change \, if off no.;
#X text 86 83 2 when on \, must distinguish set/element commands (dump
every cell change) and col/row messages (dump only when the entire
col or row changed);
#X obj 380 179 r \$0matrixdumpcolrow;
#X obj 682 182 r \$0matrixdumpcell;
#X obj 381 307 spigot;
#X msg 381 331 matrix;
#X obj 381 354 s \$0-mtxgui_inlet;
#X obj 420 282 v \$0mtxgui_mtxdumpspigot;
#N canvas 0 23 845 562 getmatrix 0;
#N canvas 50 262 964 766 getrow 0;
#X obj 220 24 inlet;
#X msg 290 183 0;
#X msg 385 222 set;
#X floatatom 29 220 5 0 0 0 - - -;
#X obj 29 243 pack 0 \$0;
#X obj 43 357 v;
#X msg 29 266 \$2-\$1-tval;
#X obj 29 311 t b a;
#X obj 29 288 list prepend symbol;
#X obj 61 334 list trim;
#X msg 45 422 0 0 0 0 0 0 0 0;
#X msg 44 389 add2 \$1;
#X floatatom 471 70 5 0 0 0 - - -;
#X obj 409 160 tgl 15 0 empty empty empty 17 7 0 10 -262144 -1 -1 0
1;
#X obj 220 92 spigot;
#X obj 422 189 sel 0;
#X obj 455 227 f;
#X obj 215 52 t f f b f;
#X obj 471 46 value \$0-mtx-rows;
#X obj 272 250 value \$0-mtx-cols;
#X floatatom 272 274 5 0 0 0 - - -;
#X obj 254 303 *;
#X obj 213 304 f;
#X obj 220 135 t b b f b b b;
#X floatatom 254 326 5 0 0 0 - - -;
#X obj 254 220 - 1;
#X obj 213 326 until;
#X obj 217 376 f;
#X obj 244 376 + 1;
#X msg 177 431 48 49 50 51 52 53 54 55;
#X msg 225 405 add2 \$1;
#X obj 180 181 t b b;
#X msg 455 251 row \$1 out of range;
#X obj 26 521 outlet;
#N canvas 0 23 450 300 expr 0;
#X obj 104 35 inlet;
#X obj 234 35 inlet;
#X obj 161 85 > 0;
#X obj 104 61 t f f;
#X obj 104 113 &&;
#X obj 104 139 outlet;
#X obj 104 87 <=;
#X text 198 70 expr if(($f1<=$f2)&&($f1>0) \, 1 \, 0);
#X connect 0 0 3 0;
#X connect 1 0 6 1;
#X connect 2 0 4 1;
#X connect 3 0 6 0;
#X connect 3 1 2 0;
#X connect 4 0 5 0;
#X connect 6 0 4 0;
#X restore 408 116 pd expr;
#X obj 455 279 print \$0-mtxgui;
#X connect 0 0 17 0;
#X connect 2 0 29 0;
#X connect 2 0 10 0;
#X connect 3 0 4 0;
#X connect 4 0 6 0;
#X connect 5 0 11 0;
#X connect 5 0 33 0;
#X connect 6 0 8 0;
#X connect 7 0 5 0;
#X connect 7 1 9 0;
#X connect 8 0 7 0;
#X connect 9 0 5 1;
#X connect 11 0 10 0;
#X connect 12 0 34 1;
#X connect 13 0 14 1;
#X connect 13 0 15 0;
#X connect 14 0 23 0;
#X connect 15 0 16 0;
#X connect 16 0 32 0;
#X connect 17 0 14 0;
#X connect 17 1 34 0;
#X connect 17 2 18 0;
#X connect 17 3 16 1;
#X connect 18 0 12 0;
#X connect 19 0 20 0;
#X connect 20 0 22 1;
#X connect 20 0 21 1;
#X connect 21 0 24 0;
#X connect 22 0 26 0;
#X connect 23 0 31 0;
#X connect 23 1 22 0;
#X connect 23 2 25 0;
#X connect 23 3 19 0;
#X connect 23 4 1 0;
#X connect 23 5 2 0;
#X connect 24 0 27 1;
#X connect 25 0 21 0;
#X connect 26 0 27 0;
#X connect 27 0 28 0;
#X connect 27 0 30 0;
#X connect 27 0 3 0;
#X connect 28 0 27 1;
#X connect 30 0 29 0;
#X connect 31 0 10 0;
#X connect 31 1 29 0;
#X connect 32 0 35 0;
#X connect 34 0 13 0;
#X restore 292 223 pd getrow;
#X obj 176 44 inlet;
#X msg 233 351 matrix 7 8 0 0 0 0 0 0 0 0 0 0 0 0 0 0 0 0 1 1 1 1 1
1 1 1 0 0 0 0 0 0 0 0 0 0 0 0 0 0 0 0 0 0 0 0 0 0 0 0 0 0 0 0 0 0 0
0;
#X obj 561 138 value \$0-mtx-rows;
#X obj 436 138 value \$0-mtx-cols;
#X msg 687 138 set matrix;
#X obj 266 82 t b b b b b;
#X msg 449 166 add2 \$1;
#X obj 293 149 f;
#X obj 292 175 until;
#X obj 292 197 f;
#X obj 320 197 + 1;
#X msg 383 173 1;
#X msg 292 247 add2 \$1;
#X obj 233 546 outlet;
#X connect 0 0 13 0;
#X connect 1 0 6 0;
#X connect 2 0 14 0;
#X connect 3 0 7 0;
#X connect 3 0 8 1;
#X connect 4 0 7 0;
#X connect 5 0 2 0;
#X connect 6 0 2 0;
#X connect 6 1 8 0;
#X connect 6 2 4 0;
#X connect 6 3 3 0;
#X connect 6 4 5 0;
#X connect 6 4 12 0;
#X connect 7 0 2 0;
#X connect 8 0 9 0;
#X connect 9 0 10 0;
#X connect 10 0 11 0;
#X connect 10 0 0 0;
#X connect 11 0 10 1;
#X connect 12 0 10 1;
#X connect 13 0 2 0;
#X restore 113 459 pd getmatrix;
#X obj 113 435 r \$0-mtxgui_mtxdump;
#X obj 112 503 s \$0-mtxguiout4;
#X obj 682 214 t b b;
#X obj 682 262 spigot;
#X msg 682 396 matrix;
#X obj 682 419 s \$0-mtxgui_inlet;
#X obj 714 237 v \$0mtxgui_mtxdumpspigot;
#X msg 440 229 0;
#X obj 682 375 spigot;
#X obj 380 205 t b b b b;
#X msg 356 225 1;
#X obj 818 281 loadbang;
#X msg 818 302 1;
#X obj 805 376 r \$0dumpelementspigot;
#X obj 440 255 s \$0dumpelementspigot;
#X connect 2 0 18 0;
#X connect 3 0 11 0;
#X connect 4 0 5 0;
#X connect 5 0 6 0;
#X connect 7 0 4 1;
#X connect 9 0 8 0;
#X connect 11 0 12 0;
#X connect 11 1 15 0;
#X connect 12 0 17 0;
#X connect 13 0 14 0;
#X connect 15 0 12 1;
#X connect 16 0 23 0;
#X connect 17 0 13 0;
#X connect 18 0 19 0;
#X connect 18 1 4 0;
#X connect 18 2 7 0;
#X connect 18 3 16 0;
#X connect 19 0 23 0;
#X connect 20 0 21 0;
#X connect 21 0 17 1;
#X connect 22 0 17 1;
#X restore 746 106 pd matrixdumplogic;
#X obj 519 70 s \$0matrixdumpcolrow;
#X obj 544 29 s \$0matrixdumpcell;
#X msg 530 279 255 255 255;
#X msg 530 305 200 0 0;
#X obj 66 29 route col row matrix element get set setrows setcols setsize
setcellsize setnewargs colorons coloroffs mtxdump cellcolorons cellcoloroffs
colcolorons colcoloroffs rowcolorons rowcoloroffs matrixdumpcolrow
matrixdumpcell colordefault colorreset colormode;
#X obj 630 253 s \$0-colormode;
#X obj 567 170 loadbang;
#X obj 327 283 list store;
#X obj 295 346 list store;
#X obj 536 244 t b b b b;
#X obj 371 250 r \$0-ready;
#X msg 630 230 hsv;
#X connect 0 0 24 0;
#X connect 7 0 27 0;
#X connect 10 1 28 0;
#X connect 11 1 27 0;
#X connect 22 0 27 1;
#X connect 23 0 28 1;
#X connect 24 0 12 0;
#X connect 24 1 13 0;
#X connect 24 2 7 0;
#X connect 24 3 1 0;
#X connect 24 4 1 1;
#X connect 24 5 1 2;
#X connect 24 6 2 0;
#X connect 24 7 3 0;
#X connect 24 8 4 0;
#X connect 24 9 5 0;
#X connect 24 10 6 0;
#X connect 24 11 10 0;
#X connect 24 12 11 0;
#X connect 24 13 17 0;
#X connect 24 13 18 0;
#X connect 24 14 16 0;
#X connect 24 15 16 1;
#X connect 24 16 14 0;
#X connect 24 17 14 1;
#X connect 24 18 15 0;
#X connect 24 19 15 1;
#X connect 24 20 20 0;
#X connect 24 21 21 0;
#X connect 24 22 29 0;
#X connect 24 23 29 0;
#X connect 24 24 25 0;
#X connect 26 0 29 0;
#X connect 27 0 8 0;
#X connect 28 0 9 0;
#X connect 29 1 23 0;
#X connect 29 2 22 0;
#X connect 29 3 31 0;
#X connect 30 0 27 0;
#X connect 30 0 28 0;
#X connect 31 0 25 0;
#X restore 1509 865 pd message_processing;
#X obj 1551 842 r \$0-mtxgui_inlet;
#N canvas 661 203 450 300 \$0-cloneplace 0;
#X obj 10 10 clone -s 1 mtxstepseq_auxabs 4 2974 row;
#X obj 10 40 clone -s 1 mtxstepseq_auxabs 9 2974 col;
#X restore 3086 926 pd \$0-cloneplace;
#N canvas 112 88 905 700 init 1;
#X obj 147 58 pdcontrol;
#X obj 147 11 loadbang;
#X msg 147 34 args 0 1 2;
#X obj 180 124 unpack 0 0 s;
#X obj 221 217 v \$0-mtx-cols;
#X obj 180 240 v \$0-mtx-rows;
#X obj 261 195 s \$0-abs_inlet;
#X msg 261 173 mode \$1;
#N canvas 162 25 1278 853 dynpatching 0;
#X obj 415 -15 f \$0;
#X obj 395 17 v \$0-mtx-cols;
#X obj 375 46 v \$0-mtx-rows;
#X obj 355 -65 inlet;
#X obj 355 -38 t b b b b;
#X obj 410 320 s \$0-ready;
#X obj 182 348 s \$0-cloneloadbang;
#X obj 378 343 v \$0-mtx-rows;
#X obj 355 320 t b b b;
#X obj 377 390 until;
#X obj 377 439 f;
#X obj 406 439 + 1;
#X msg 395 416 1;
#X obj 409 484 v \$0-mtx-cols;
#X obj 409 511 until;
#X obj 409 560 f;
#X obj 438 560 + 1;
#X msg 427 537 1;
#X obj 409 622 pack 0 0 0;
#X obj 518 571 /;
#X msg 518 535 255;
#X obj 462 599 *;
#X obj 377 462 t b f b;
#X obj 247 806 list append;
#X msg 248 828 cellcolorons \$2 \$1 \$3 \$4 \$5;
#X obj 477 806 list append;
#X msg 477 829 cellcoloroffs \$2 \$1 0 \$4 \$5;
#X obj 289 760 t b l;
#X obj 519 749 t b l;
#X obj 289 738 r \$0-isatvalon;
#X obj 518 726 r \$0-isatvaloff;
#X obj 377 367 t f b f b;
#X obj 477 852 s \$0-colors;
#X obj 248 850 s \$0-colors;
#X obj 289 784 s \$0bng_rows;
#X obj 519 772 s \$0bng_rows;
#X obj 475 343 r \$0bng_rows;
#X obj 677 629 loadbang;
#X msg 836 698 0 90;
#X msg 649 698 70 190;
#X obj 375 68 t f f;
#X obj 417 68 *;
#X msg 375 230 \; pd-\$1-cloneplace obj 10 10 clone -s 1 mtxstepseq_auxabs
\$2 \$1 row \; pd-\$1-cloneplace obj 10 40 clone -s 1 mtxstepseq_auxabs
\$3 \$1 col \;, f 68;
#X msg 375 207 \$3 \$1 \$2;
#X obj 416 113 until;
#X obj 517 92 t f f;
#X obj 594 92 + 10;
#X obj 417 90 t f b;
#X obj 458 113 f;
#X obj 487 113 + 1;
#X msg 476 92 0;
#X obj 517 114 pack 0 0 \$0;
#X obj 375 184 pack 0 0 \$0;
#X msg 629 92 \$3 \$1 \$2;
#X msg 698 92 \; pd-\$1-cvals obj 10 \$3 array define \$1-cval-\$2
10 \;, f 68;
#X msg 451 -43 \; pd-\$1-cloneplace clear \; pd-\$1-cvals clear \;
;
#X obj 559 92 * 26;
#X connect 0 0 55 0;
#X connect 1 0 41 1;
#X connect 1 0 52 1;
#X connect 2 0 40 0;
#X connect 3 0 4 0;
#X connect 4 0 8 0;
#X connect 4 1 2 0;
#X connect 4 2 1 0;
#X connect 4 3 0 0;
#X connect 7 0 31 0;
#X connect 8 0 6 0;
#X connect 8 1 7 0;
#X connect 8 2 5 0;
#X connect 9 0 10 0;
#X connect 10 0 11 0;
#X connect 10 0 22 0;
#X connect 11 0 10 1;
#X connect 12 0 10 1;
#X connect 13 0 14 0;
#X connect 14 0 15 0;
#X connect 15 0 16 0;
#X connect 15 0 18 0;
#X connect 16 0 15 1;
#X connect 17 0 15 1;
#X connect 18 0 25 0;
#X connect 18 0 23 0;
#X connect 19 0 21 1;
#X connect 20 0 19 0;
#X connect 21 0 18 2;
#X connect 22 0 13 0;
#X connect 22 1 21 0;
#X connect 22 1 18 1;
#X connect 22 2 17 0;
#X connect 23 0 24 0;
#X connect 24 0 33 0;
#X connect 25 0 26 0;
#X connect 26 0 32 0;
#X connect 27 0 34 0;
#X connect 27 1 23 1;
#X connect 28 0 35 0;
#X connect 28 1 25 1;
#X connect 29 0 27 0;
#X connect 30 0 28 0;
#X connect 31 0 9 0;
#X connect 31 1 20 0;
#X connect 31 2 19 1;
#X connect 31 3 12 0;
#X connect 36 0 7 0;
#X connect 37 0 39 0;
#X connect 37 0 38 0;
#X connect 38 0 25 1;
#X connect 39 0 23 1;
#X connect 40 0 52 0;
#X connect 40 1 41 0;
#X connect 41 0 47 0;
#X connect 43 0 42 0;
#X connect 44 0 48 0;
#X connect 45 0 51 0;
#X connect 45 1 56 0;
#X connect 46 0 51 1;
#X connect 47 0 44 0;
#X connect 47 1 50 0;
#X connect 48 0 49 0;
#X connect 48 0 45 0;
#X connect 49 0 48 1;
#X connect 50 0 48 1;
#X connect 51 0 53 0;
#X connect 52 0 43 0;
#X connect 53 0 54 0;
#X connect 56 0 46 0;
#X restore 170 287 pd dynpatching;
#X obj 283 17 r \$0-init;
#X obj 261 152 symbol col;
#X msg 130 458 satval inactive off 0 90;
#X msg 130 482 satval inactive on 70 190;
#X msg 130 506 satval active off 0 210;
#X msg 130 530 satval active on 255 255;
#X obj 114 553 s \$0-abs_inlet;
#X obj 147 81 t b b l b;
#X obj 279 570 print;
#X obj 278 335 r \$0-colorreset;
#X obj 124 392 del 10;
#X connect 0 0 16 0;
#X connect 1 0 2 0;
#X connect 2 0 0 0;
#X connect 3 0 5 0;
#X connect 3 1 4 0;
#X connect 3 2 10 0;
#X connect 7 0 6 0;
#X connect 9 0 2 0;
#X connect 10 0 7 0;
#X connect 11 0 15 0;
#X connect 11 0 17 0;
#X connect 12 0 15 0;
#X connect 12 0 17 0;
#X connect 13 0 15 0;
#X connect 13 0 17 0;
#X connect 14 0 15 0;
#X connect 14 0 17 0;
#X connect 16 0 19 0;
#X connect 16 1 8 0;
#X connect 16 2 3 0;
#X connect 18 0 19 0;
#X connect 19 0 11 0;
#X connect 19 0 14 0;
#X connect 19 0 13 0;
#X connect 19 0 12 0;
#X restore 3086 948 pd init;
#N canvas 0 23 1440 855 tempocalc 0;
#X obj 46 23 r \$0-ms;
#X obj 469 335 r \$0-cps;
#X obj 271 715 v \$0-mtx-rows;
#X obj 271 819 pack 0 0;
#X obj 271 740 until;
#X obj 271 794 f;
#X obj 299 794 + 1;
#X msg 289 771 1;
#X obj 408 740 until;
#X obj 408 794 f;
#X obj 436 794 + 1;
#X msg 426 771 1;
#X obj 408 715 v \$0-mtx-cols;
#X obj 408 819 pack 0 0;
#X obj 46 335 r \$0-sec;
#X obj 89 447 unpack 0 0;
#X obj 156 470 / 1000;
#X obj 89 470 pack 0 0;
#X obj 132 381 unpack 0 0;
#X obj 199 404 / 1000;
#X obj 132 404 pack 0 0;
#X obj 556 67 unpack 0 0;
#X obj 556 90 pack 0 0;
#X obj 470 23 r \$0-bpm;
#X obj 633 67 t b f;
#X msg 676 67 60000;
#X obj 675 90 /;
#X obj 470 232 t b f;
#X msg 470 254 60000;
#X obj 469 277 /;
#X obj 555 383 unpack 0 0;
#X obj 555 406 pack 0 0;
#X obj 632 383 t b f;
#X obj 674 406 /;
#X obj 469 544 t b f;
#X obj 468 589 /;
#X msg 675 383 1000;
#X msg 469 566 1000;
#X obj 271 841 s \$0-rowmetros_set;
#X obj 408 841 s \$0-colmetros_set;
#X obj 46 547 * 1000;
#X obj 556 112 s \$0-rowmetros_set;
#X obj 132 426 s \$0-rowmetros_set;
#X obj 132 72 s \$0-rowmetros_set;
#X obj 555 428 s \$0-rowmetros_set;
#X obj 512 495 s \$0-colmetros_set;
#X obj 513 179 s \$0-colmetros_set;
#X obj 89 492 s \$0-colmetros_set;
#X obj 89 94 s \$0-colmetros_set;
#X obj 470 45 route float col row;
#X obj 46 357 route float col row;
#X obj 46 49 route float col row;
#X obj 469 360 route float col row;
#X obj 243 162 s \$0-rowbeatgroup_set;
#X msg 78 120 1;
#X obj 176 117 unpack 0 0;
#X floatatom 260 117 5 0 0 0 - - -;
#X floatatom 183 146 5 0 0 0 - - -;
#X obj 46 94 t f b;
#X obj 271 682 t b b f b;
#X obj 176 519 unpack 0 0;
#X obj 243 544 s \$0-rowbeatgroup_set;
#X msg 78 519 1;
#X obj 46 492 t f b;
#X obj 46 270 s \$0-mtxmetrosvals;
#X obj 271 657 r \$0-mtxmetrosvals;
#X obj 46 570 s \$0-mtxmetrosvals;
#X obj 600 203 unpack 0 0;
#X obj 667 227 s \$0-rowbeatgroup_set;
#X msg 502 203 1;
#X obj 470 180 t f b;
#X obj 469 299 s \$0-mtxmetrosvals;
#X obj 599 518 unpack 0 0;
#X obj 666 542 s \$0-rowbeatgroup_set;
#X msg 501 518 1;
#X obj 469 495 t f b;
#X obj 468 612 s \$0-mtxmetrosvals;
#X floatatom 529 276 5 0 0 0 - - -;
#X obj 680 205 s \$0-colbeatgroup_set;
#X obj 255 139 s \$0-colbeatgroup_set;
#X obj 253 518 s \$0-colbeatgroup_set;
#X obj 678 518 s \$0-colbeatgroup_set;
#X obj 513 134 unpack 0 0;
#X obj 513 157 pack 0 0;
#X obj 590 134 t b f;
#X msg 633 134 60000;
#X obj 632 157 /;
#X obj 512 450 unpack 0 0;
#X obj 512 473 pack 0 0;
#X obj 589 450 t b f;
#X obj 631 473 /;
#X msg 632 450 1000;
#X connect 0 0 51 0;
#X connect 1 0 52 0;
#X connect 2 0 4 0;
#X connect 3 0 38 0;
#X connect 4 0 5 0;
#X connect 5 0 6 0;
#X connect 5 0 3 0;
#X connect 6 0 5 1;
#X connect 7 0 5 1;
#X connect 8 0 9 0;
#X connect 9 0 10 0;
#X connect 9 0 13 0;
#X connect 10 0 9 1;
#X connect 11 0 9 1;
#X connect 12 0 8 0;
#X connect 13 0 39 0;
#X connect 14 0 50 0;
#X connect 15 0 17 0;
#X connect 15 1 16 0;
#X connect 16 0 17 1;
#X connect 17 0 47 0;
#X connect 18 0 20 0;
#X connect 18 1 19 0;
#X connect 19 0 20 1;
#X connect 20 0 42 0;
#X connect 21 0 22 0;
#X connect 21 1 24 0;
#X connect 22 0 41 0;
#X connect 23 0 49 0;
#X connect 24 0 25 0;
#X connect 24 1 26 1;
#X connect 25 0 26 0;
#X connect 26 0 22 1;
#X connect 27 0 28 0;
#X connect 27 1 29 1;
#X connect 28 0 29 0;
#X connect 29 0 71 0;
#X connect 29 0 77 0;
#X connect 30 0 31 0;
#X connect 30 1 32 0;
#X connect 31 0 44 0;
#X connect 32 0 36 0;
#X connect 32 1 33 1;
#X connect 33 0 31 1;
#X connect 34 0 37 0;
#X connect 34 1 35 1;
#X connect 35 0 76 0;
#X connect 36 0 33 0;
#X connect 37 0 35 0;
#X connect 40 0 66 0;
#X connect 49 0 70 0;
#X connect 49 1 82 0;
#X connect 49 2 21 0;
#X connect 49 3 67 0;
#X connect 50 0 63 0;
#X connect 50 1 15 0;
#X connect 50 2 18 0;
#X connect 50 3 60 0;
#X connect 51 0 58 0;
#X connect 51 1 48 0;
#X connect 51 2 43 0;
#X connect 51 3 55 0;
#X connect 52 0 75 0;
#X connect 52 1 87 0;
#X connect 52 2 30 0;
#X connect 52 3 72 0;
#X connect 54 0 53 0;
#X connect 54 0 79 0;
#X connect 55 0 57 0;
#X connect 55 0 64 0;
#X connect 55 1 53 0;
#X connect 55 1 56 0;
#X connect 55 1 79 0;
#X connect 58 0 64 0;
#X connect 58 1 54 0;
#X connect 59 0 2 0;
#X connect 59 1 12 0;
#X connect 59 2 13 1;
#X connect 59 2 3 1;
#X connect 59 3 11 0;
#X connect 59 3 7 0;
#X connect 60 0 40 0;
#X connect 60 1 61 0;
#X connect 60 1 80 0;
#X connect 62 0 61 0;
#X connect 62 0 80 0;
#X connect 63 0 40 0;
#X connect 63 1 62 0;
#X connect 65 0 59 0;
#X connect 67 0 27 0;
#X connect 67 1 68 0;
#X connect 67 1 78 0;
#X connect 69 0 68 0;
#X connect 69 0 78 0;
#X connect 70 0 27 0;
#X connect 70 1 69 0;
#X connect 72 0 34 0;
#X connect 72 1 73 0;
#X connect 72 1 81 0;
#X connect 74 0 73 0;
#X connect 74 0 81 0;
#X connect 75 0 34 0;
#X connect 75 1 74 0;
#X connect 82 0 83 0;
#X connect 82 1 84 0;
#X connect 83 0 46 0;
#X connect 84 0 85 0;
#X connect 84 1 86 1;
#X connect 85 0 86 0;
#X connect 86 0 83 1;
#X connect 87 0 88 0;
#X connect 87 1 89 0;
#X connect 88 0 45 0;
#X connect 89 0 91 0;
#X connect 89 1 90 1;
#X connect 90 0 88 1;
#X connect 91 0 90 0;
#X restore 3086 970 pd tempocalc;
#N canvas 0 23 1440 855 switches 0;
#X obj 20 18 r \$0-sw;
#X obj 185 47 r \$0-mode;
#X obj 185 101 sel col row colrow;
#X obj 185 78 symbol;
#X obj 21 348 spigot;
#X obj 71 348 spigot;
#X msg 60 296 1;
#X msg 60 318 0;
#X msg 110 296 1;
#X msg 110 318 0;
#X obj 21 383 s \$0-colmetros_sw;
#X obj 71 415 s \$0-rowmetros_sw;
#X obj 124 345 tgl 15 0 empty empty empty 17 7 0 10 -262144 -1 -1 1
1;
#X obj 43 324 tgl 15 0 empty empty empty 17 7 0 10 -262144 -1 -1 0
1;
#X obj 20 77 route col row float;
#X connect 0 0 14 0;
#X connect 1 0 3 0;
#X connect 2 0 6 0;
#X connect 2 0 9 0;
#X connect 2 1 8 0;
#X connect 2 1 7 0;
#X connect 2 2 6 0;
#X connect 2 2 8 0;
#X connect 3 0 2 0;
#X connect 4 0 10 0;
#X connect 5 0 11 0;
#X connect 6 0 4 1;
#X connect 6 0 13 0;
#X connect 7 0 4 1;
#X connect 7 0 13 0;
#X connect 8 0 5 1;
#X connect 8 0 12 0;
#X connect 9 0 5 1;
#X connect 9 0 12 0;
#X connect 14 0 4 0;
#X connect 14 1 5 0;
#X connect 14 2 4 0;
#X connect 14 2 5 0;
#X restore 3086 992 pd switches;
#X msg 1947 1616 colormode hsv;
#X obj 1947 1595 loadbang;
#X obj 1854 944 r \$0-read;
#X obj 2120 1041 r \$0-noread;
#X msg 1854 1002 get \$1 \$2;
#X obj 2306 1649 outlet;
#X obj 2899 1305 r \$0-ready;
#X msg 2959 1352 bpm 60;
#X obj 2899 1329 t b b b b;
#X obj 2959 1374 s \$0-abs_inlet;
#X obj 2939 1419 s \$0-abs_inlet;
#X obj 1854 972 t l l;
#X obj 2436 1321 list prepend;
#X obj 2306 1062 unpack 0 0;
#X obj 2306 1087 - 1;
#X obj 2306 1109 t f b;
#X obj 2306 1155 *;
#X obj 2403 1187 +;
#X obj 2386 1649 outlet;
#X obj 2338 1133 v \$0-mtx-cols;
#X obj 2120 1063 unpack 0 0;
#X obj 2120 1088 - 1;
#X obj 2120 1110 t f b;
#X obj 2120 1156 *;
#X obj 2217 1188 +;
#X obj 2152 1134 v \$0-mtx-cols;
#X obj 2072 1620 r \$0-colors;
#X msg 2939 1397 mode row;
#X msg 2216 1216 \$1 0 stop;
#X obj 1551 821 s \$0-abs_inlet;
#X obj 2794 860 table \$0-acellsrow \$1;
#X obj 2794 882 table \$0-acellscol \$2;
#X text 2736 859 i:R v:C;
#X text 2736 882 i:C v:R;
#X obj 2437 1295 r \$0-mtxguiout1;
#X obj 2508 1626 list trim;
#X obj 2508 1523 list prepend mtxguiout1;
#X obj 2518 1547 list prepend mtxguiout2;
#X obj 2528 1570 list prepend mtxguiout3;
#X obj 2538 1594 list prepend mtxguiout4;
#X obj 2473 1411 r \$0-mtxguiout1;
#X obj 2523 1433 r \$0-mtxguiout2;
#X obj 2583 1455 r \$0-mtxguiout3;
#X obj 2653 1477 r \$0-mtxguiout4;
#X obj 2508 1650 outlet;
#X obj 1854 1646 s \$0-mtxgui_inlet;
#X obj 2072 1644 s \$0-mtxgui_inlet;
#N canvas 87 23 1353 855 message_processing2 0;
#X obj 71 161 s \$0-sw;
#X obj 104 140 s \$0-ms;
#X obj 138 119 s \$0-sec;
#X obj 171 98 s \$0-bpm;
#X obj 205 77 s \$0-cps;
#X obj 238 56 s \$0-mode;
#X obj 678 122 route off on;
#X obj 678 145 s \$0-isatvaloff;
#X obj 798 146 s \$0-isatvalon;
#X obj 770 98 route off on;
#X obj 678 76 route inactive active;
#X obj 771 121 s \$0-asatvaloff;
#X obj 884 121 s \$0-asatvalon;
#X obj 811 594 s \$0-allrows_beatpat_set;
#X obj 624 616 s \$0-row_beatpat_set;
#X obj 624 571 route row col rows cols;
#X obj 811 616 s \$0-allcols_beatpat_set;
#X obj 663 594 s \$0-col_beatpat_set;
#X obj 443 96 s \$0-reset_vals;
#X obj 71 291 s \$0-row_num_set;
#X obj 121 269 s \$0-col_num_set;
#X obj 71 242 route rownum colnum;
#X obj 678 54 route satval;
#X obj 624 548 route beatpat;
#X obj 630 436 route row col rows cols;
#X obj 630 413 route dirpat;
#X obj 669 459 s \$0-col_dirpat_set;
#X obj 630 481 s \$0-row_dirpat_set;
#X obj 817 459 s \$0-allrows_dirpat_set;
#X obj 817 481 s \$0-allcols_dirpat_set;
#X obj 443 75 route reset;
#X obj 71 33 route sw ms sec bpm cps mode float;
#X obj 71 10 r \$0-abs_inlet;
#X obj 71 220 r \$0-abs_inlet;
#X obj 678 32 r \$0-abs_inlet;
#X obj 630 390 r \$0-abs_inlet;
#X obj 624 527 r \$0-abs_inlet;
#X obj 443 54 r \$0-abs_inlet;
#X obj 48 681 route row col rows cols;
#X obj 48 637 r \$0-abs_inlet;
#X obj 48 726 s \$0-row_del_set;
#X obj 87 704 s \$0-col_del_set;
#X obj 235 704 s \$0-allrows_del_set;
#X obj 235 727 s \$0-allcols_del_set;
#X obj 48 658 route del;
#X obj 48 541 route row col rows cols;
#X obj 48 497 r \$0-abs_inlet;
#X obj 87 564 s \$0-col_num_set;
#X obj 48 586 s \$0-row_num_set;
#X obj 235 564 s \$0-allrows_num_set;
#X obj 235 587 s \$0-allcols_num_set;
#X obj 48 519 route num phase;
#X obj 631 685 r \$0-abs_inlet;
#X obj 437 194 r \$0-abs_inlet;
#X obj 437 215 route colorreset;
#X obj 437 266 s \$0-colorreset;
#X obj 565 272 s \$0-mtxgui_inlet;
#X msg 567 247 colormode hsv;
#X obj 448 242 t b b;
#X obj 631 707 route hue;
#X obj 631 729 route row col float list;
#X obj 631 756 s \$0-hue_row;
#X obj 672 778 s \$0-hue_col;
#X obj 713 800 s \$0-hue_float;
#X obj 754 825 s \$0-hue_list;
#X connect 6 0 7 0;
#X connect 6 1 8 0;
#X connect 9 0 11 0;
#X connect 9 1 12 0;
#X connect 10 0 6 0;
#X connect 10 1 9 0;
#X connect 15 0 14 0;
#X connect 15 1 17 0;
#X connect 15 2 13 0;
#X connect 15 3 16 0;
#X connect 15 4 13 0;
#X connect 15 4 16 0;
#X connect 21 0 19 0;
#X connect 21 1 20 0;
#X connect 22 0 10 0;
#X connect 23 0 15 0;
#X connect 24 0 27 0;
#X connect 24 1 26 0;
#X connect 24 2 28 0;
#X connect 24 3 29 0;
#X connect 24 4 28 0;
#X connect 24 4 29 0;
#X connect 25 0 24 0;
#X connect 30 0 18 0;
#X connect 31 0 0 0;
#X connect 31 1 1 0;
#X connect 31 2 2 0;
#X connect 31 3 3 0;
#X connect 31 4 4 0;
#X connect 31 5 5 0;
#X connect 31 6 0 0;
#X connect 32 0 31 0;
#X connect 33 0 21 0;
#X connect 34 0 22 0;
#X connect 35 0 25 0;
#X connect 36 0 23 0;
#X connect 37 0 30 0;
#X connect 38 0 40 0;
#X connect 38 1 41 0;
#X connect 38 2 42 0;
#X connect 38 3 43 0;
#X connect 38 4 42 0;
#X connect 38 4 43 0;
#X connect 39 0 44 0;
#X connect 44 0 38 0;
#X connect 45 0 48 0;
#X connect 45 1 47 0;
#X connect 45 2 49 0;
#X connect 45 3 50 0;
#X connect 45 4 49 0;
#X connect 45 4 50 0;
#X connect 46 0 51 0;
#X connect 51 0 45 0;
#X connect 51 1 45 0;
#X connect 52 0 59 0;
#X connect 53 0 54 0;
#X connect 54 0 58 0;
#X connect 57 0 56 0;
#X connect 58 0 55 0;
#X connect 58 1 57 0;
#X connect 59 0 60 0;
#X connect 60 0 61 0;
#X connect 60 1 62 0;
#X connect 60 2 63 0;
#X connect 60 3 64 0;
#X restore 1882 844 pd message_processing2;
#X obj 2087 1584 print;
#N canvas 661 203 450 300 \$0-cvals 0;
#X obj 10 10 array define 2974-cval-0 10;
#X obj 10 36 array define 2974-cval-1 10;
#X obj 10 62 array define 2974-cval-2 10;
#X obj 10 88 array define 2974-cval-3 10;
#X obj 10 114 array define 2974-cval-4 10;
#X obj 10 140 array define 2974-cval-5 10;
#X obj 10 166 array define 2974-cval-6 10;
#X obj 10 192 array define 2974-cval-7 10;
#X obj 10 218 array define 2974-cval-8 10;
#X obj 10 244 array define 2974-cval-9 10;
#X obj 10 270 array define 2974-cval-10 10;
#X obj 10 296 array define 2974-cval-11 10;
#X obj 10 322 array define 2974-cval-12 10;
#X obj 10 348 array define 2974-cval-13 10;
#X obj 10 374 array define 2974-cval-14 10;
#X obj 10 400 array define 2974-cval-15 10;
#X obj 10 426 array define 2974-cval-16 10;
#X obj 10 452 array define 2974-cval-17 10;
#X obj 10 478 array define 2974-cval-18 10;
#X obj 10 504 array define 2974-cval-19 10;
#X obj 10 530 array define 2974-cval-20 10;
#X obj 10 556 array define 2974-cval-21 10;
#X obj 10 582 array define 2974-cval-22 10;
#X obj 10 608 array define 2974-cval-23 10;
#X obj 10 634 array define 2974-cval-24 10;
#X obj 10 660 array define 2974-cval-25 10;
#X obj 10 686 array define 2974-cval-26 10;
#X obj 10 712 array define 2974-cval-27 10;
#X obj 10 738 array define 2974-cval-28 10;
#X obj 10 764 array define 2974-cval-29 10;
#X obj 10 790 array define 2974-cval-30 10;
#X obj 10 816 array define 2974-cval-31 10;
#X obj 10 842 array define 2974-cval-32 10;
#X obj 10 868 array define 2974-cval-33 10;
#X obj 10 894 array define 2974-cval-34 10;
#X obj 10 920 array define 2974-cval-35 10;
#X restore 3086 903 pd \$0-cvals;
#X text 2679 1061 cval;
#X text 2806 1077 0 1 2;
#X text 2807 1114 3 4 5;
#X text 2806 1061 h s v;
#X text 2807 1099 h s v;
#X text 2719 1061 inactive____;
#X text 2720 1098 active______;
#X text 2720 1138 half-active_;
#X text 2807 1139 h s v;
#X text 2807 1154 6 7 8;
#X connect 0 0 6 0;
#X connect 0 0 41 0;
#X connect 7 0 6 0;
#X connect 12 0 57 0;
#X connect 13 0 12 0;
#X connect 14 0 23 0;
#X connect 15 0 32 0;
#X connect 16 0 57 0;
#X connect 18 0 20 0;
#X connect 19 0 21 0;
#X connect 20 2 39 0;
#X connect 20 3 19 0;
#X connect 23 0 16 0;
#X connect 23 1 25 0;
#X connect 24 0 30 0;
#X connect 25 0 26 0;
#X connect 25 1 29 1;
#X connect 26 0 27 0;
#X connect 27 0 28 0;
#X connect 27 1 31 0;
#X connect 28 0 29 0;
#X connect 29 0 24 1;
#X connect 31 0 28 1;
#X connect 32 0 33 0;
#X connect 32 1 36 1;
#X connect 33 0 34 0;
#X connect 34 0 35 0;
#X connect 34 1 37 0;
#X connect 35 0 36 0;
#X connect 36 0 40 0;
#X connect 37 0 35 1;
#X connect 38 0 58 0;
#X connect 38 0 60 0;
#X connect 39 0 22 0;
#X connect 40 0 17 0;
#X connect 46 0 24 0;
#X connect 47 0 56 0;
#X connect 48 0 47 0;
#X connect 49 0 47 0;
#X connect 50 0 47 0;
#X connect 51 0 47 0;
#X connect 52 0 48 0;
#X connect 53 0 49 0;
#X connect 54 0 50 0;
#X connect 55 0 51 0;
#X coords 0 -1 1 1 117 56 2 0 0;
