#N canvas 169 46 1440 855 10;
#X obj 409 467 mtxstep 4 9;
#X obj 979 252 mtxstep 20 1;
#X obj 1012 251 mtxstep 20 2;
#X obj 421 327 mtxstep 4 9;
#X msg 458 293 colorreset;
#X msg 663 326 satval inactive on 70 190;
#X msg 663 349 satval active off 0 210;
#X msg 663 372 satval active on 225 245;
#X msg 663 303 satval inactive off 0 100;
#X msg 435 262 loadbang;
#X msg 577 243 hue 1 1 150;
#X msg 379 110 hue 140;
#X text 432 110 hue of all active cells;
#X msg 379 134 hue row 1 140;
#X text 475 134 hue of all active cells in row 1;
#X text 475 154 hue of all active cells in col 1;
#X msg 378 84 hue 1 1 140;
#X text 474 84 hue of cell r c (when active);
#X obj 302 221 print a;
#X obj 303 175 route hue;
#X obj 312 243 print b;
#X obj 330 262 print c;
#X obj 354 281 print d;
#X obj 303 194 route row col float list;
#X msg 379 154 hue col 1 150;
#X floatatom 685 255 5 0 0 0 - - -;
#X floatatom 740 200 5 0 0 0 - - -;
#X msg 741 219 hue col 1 \$1;
#X msg 511 233 mode row;
#X msg 686 274 hue row 3 \$1;
#X floatatom 622 195 5 0 0 0 - - -;
#X msg 623 214 hue \$1;
#X msg 511 214 mode col;
#X msg 511 194 mode colrow;
#X msg 559 309 bpm 60;
#X obj -3 442 mtxstep 4 9;
#X obj -8 382 tgl 15 0 empty empty empty 17 7 0 10 -262144 -1 -1 0
1;
#X msg -8 403 sw \$1;
#X msg 52 411 beatpat 1 2;
#X obj 561 472 mtxstep 4 5;
#X msg 735 -219 color hue 140;
#X text 733 -236 implementar!;
#X text 823 -218 <- setar hue global;
#X text 733 -37 implementar!;
#X text 823 -19 <- setar hue global;
#X msg 735 12 color hue on 140;
#X text 849 11 <- setar hue global p/ toggle on;
#X msg 735 32 color hue off 140;
#X text 849 31 <- setar hue global p/ toggle off;
#X msg 735 -20 color sat 140;
#X msg 735 -187 color hue aon 140;
#X msg 735 -167 color hue aoff 140;
#X text 859 -188 <- setar hue global p/ toggle on ativo;
#X text 859 -169 <- setar hue global p/ toggle off ativo;
#X msg 735 -137 color hue ion 140;
#X msg 735 -117 color hue ioff 140;
#X text 859 -138 <- setar hue global p/ toggle on inativo;
#X text 859 -119 <- setar hue global p/ toggle off inativo;
#X msg 327 -225 color hue row 1 140;
#X text 452 -225 <- setar hue para todo row 1;
#X msg 327 -195 color hue row 1 140;
#X text 452 -195 <- setar hue para todo row 1;
#X text 470 -164 <- setar hue para cell;
#X msg 327 -165 color hue cell 1 1 140;
#X obj 291 612 vsl 15 128 0 255 0 0 empty empty empty 0 -9 0 10 -262144
-1 -1 0 1;
#X obj 56 618 mtxstep 10 3;
#X obj 9 563 tgl 15 0 empty empty empty 17 7 0 10 -262144 -1 -1 0 1
;
#X msg 9 584 sw \$1;
#X msg 73 575 color hue \$1;
#X obj 153 502 vsl 15 128 0 255 0 0 empty empty empty 0 -9 0 10 -262144
-1 -1 0 1;
#X floatatom 221 684 5 0 0 0 - - -;
#X obj 184 710 f;
#X obj 201 615 bng 15 250 50 0 empty empty empty 17 7 0 10 -262144
-1 -1;
#X msg 259 721 100;
#X msg 257 746 color hue cell 1 1 off \$1;
#X obj 372 581 vsl 15 128 0 255 0 0 empty empty empty 0 -9 0 10 -262144
-1 -1 0 1;
#X msg 340 690 100;
#X msg 338 715 color hue cell 1 1 ioff \$1;
#X obj 560 577 vsl 15 128 0 255 0 0 empty empty empty 0 -9 0 10 -262144
-1 -1 0 1;
#X msg 528 686 100;
#X msg 526 711 color hue cell 1 1 ion \$1;
#X obj 608 667 vsl 15 128 0 255 0 0 empty empty empty 0 -9 0 10 -262144
-1 -1 0 1;
#X msg 576 776 100;
#X obj 796 663 vsl 15 128 0 255 0 0 empty empty empty 0 -9 0 10 -262144
-1 -1 0 1;
#X msg 764 772 100;
#X msg 574 801 color hue cell 1 1 aoff \$1;
#X msg 762 797 color hue cell 1 1 aon \$1;
#X obj 1087 376 tgl 15 0 empty empty empty 17 7 0 10 -262144 -1 -1
0 1;
#X obj 1411 267 vsl 15 128 0 255 0 0 empty empty empty 0 -9 0 10 -262144
-1 -1 0 1;
#X msg 70 336 bpm row 1 300;
#X msg 147 417 mode colrow;
#X msg 129 292 hue 1 1 150;
#X msg 63 282 mode row;
#X msg 63 263 mode col;
#X msg 63 243 mode colrow;
#X msg 52 391 dirpat 1 1 -1;
#X msg 92 165;
#X obj 892 159 mtxstep 2 3;
#X msg 922 123 matrix 2 3 1 1 0 0 1 1;
#X msg 942 159 row 2 0 1 0;
#X obj 876 265 mtxstep 6 2;
#X msg 870 225 matrix 6 2 1 1 0 0 1 1 0 0 1 1 0 0;
#X msg 1087 397 sw \$1;
#X msg 1151 388 color hue \$1;
#X obj 1231 315 vsl 15 128 0 255 0 0 empty empty empty 0 -9 0 10 -262144
-1 -1 0 1;
#X msg 1111 502 beatpat 1 2;
#X msg 1111 482 dirpat 1 1 -3;
#X msg 1138 609 mode row;
#X msg 1138 590 mode col;
#X msg 1138 570 mode colrow;
#X obj 1170 91 vsl 15 128 0 255 0 0 empty empty empty 0 -9 0 10 -262144
-1 -1 0 1;
#X msg 1169 229 color sat off \$1;
#X obj 1306 60 vsl 15 128 0 255 0 0 empty empty empty 0 -9 0 10 -262144
-1 -1 0 1;
#X msg 1305 198 color sat on \$1;
#X obj 958 561 vsl 15 128 0 255 0 0 empty empty empty 0 -9 0 10 -262144
-1 -1 0 1;
#X obj 1067 646 vsl 15 128 0 255 0 0 empty empty empty 0 -9 0 10 -262144
-1 -1 0 1;
#X msg 1259 340 color hue aon \$1;
#X obj 1201 651 vsl 15 128 0 255 0 0 empty empty empty 0 -9 0 10 -262144
-1 -1 0 1;
#X msg 957 699 color sat ioff \$1;
#X msg 1066 784 color val aoff \$1;
#X msg 1200 789 color sat aoff \$1;
#X msg 1082 531 colorreset;
#X connect 4 0 3 0;
#X connect 5 0 3 0;
#X connect 6 0 3 0;
#X connect 7 0 3 0;
#X connect 8 0 3 0;
#X connect 9 0 3 0;
#X connect 10 0 3 0;
#X connect 11 0 19 0;
#X connect 11 0 3 0;
#X connect 13 0 19 0;
#X connect 13 0 3 0;
#X connect 16 0 19 0;
#X connect 16 0 3 0;
#X connect 19 0 23 0;
#X connect 23 0 18 0;
#X connect 23 1 20 0;
#X connect 23 2 21 0;
#X connect 23 3 22 0;
#X connect 24 0 19 0;
#X connect 24 0 3 0;
#X connect 25 0 29 0;
#X connect 26 0 27 0;
#X connect 27 0 3 0;
#X connect 28 0 3 0;
#X connect 29 0 3 0;
#X connect 30 0 31 0;
#X connect 31 0 3 0;
#X connect 32 0 3 0;
#X connect 33 0 3 0;
#X connect 34 0 3 0;
#X connect 36 0 37 0;
#X connect 37 0 35 0;
#X connect 38 0 35 0;
#X connect 64 0 74 0;
#X connect 66 0 67 0;
#X connect 67 0 65 0;
#X connect 68 0 65 0;
#X connect 69 0 68 0;
#X connect 70 0 71 1;
#X connect 71 0 69 0;
#X connect 72 0 71 0;
#X connect 73 0 74 0;
#X connect 74 0 65 0;
#X connect 75 0 77 0;
#X connect 76 0 77 0;
#X connect 77 0 65 0;
#X connect 78 0 80 0;
#X connect 79 0 80 0;
#X connect 80 0 65 0;
#X connect 81 0 85 0;
#X connect 82 0 85 0;
#X connect 83 0 86 0;
#X connect 84 0 86 0;
#X connect 85 0 65 0;
#X connect 86 0 65 0;
#X connect 88 0 116 0;
#X connect 89 0 35 0;
#X connect 90 0 35 0;
#X connect 92 0 35 0;
#X connect 93 0 35 0;
#X connect 94 0 35 0;
#X connect 95 0 35 0;
#X connect 98 0 97 0;
#X connect 99 0 97 0;
#X connect 101 0 100 0;
#X connect 104 0 103 0;
#X connect 110 0 111 0;
#X connect 112 0 113 0;
#X connect 114 0 118 0;
#X connect 115 0 119 0;
#X connect 117 0 120 0;
