#N canvas 0 23 1440 855 12;
#X obj 18 7 inlet;
#N canvas 87 23 1353 855 message_processing 1;
#X obj 71 161 s \$0-sw;
#X obj 104 140 s \$0-ms;
#X obj 138 119 s \$0-sec;
#X obj 171 98 s \$0-bpm;
#X obj 205 77 s \$0-cps;
#X obj 238 56 s \$0-mode;
#X obj 678 122 route off on;
#X obj 678 145 s \$0-isatvaloff;
#X obj 798 146 s \$0-isatvalon;
#X obj 770 98 route off on;
#X obj 678 76 route inactive active;
#X obj 771 121 s \$0-asatvaloff;
#X obj 884 121 s \$0-asatvalon;
#X obj 811 594 s \$0-allrows_beatpat_set;
#X obj 624 616 s \$0-row_beatpat_set;
#X obj 624 571 route row col rows cols;
#X obj 811 616 s \$0-allcols_beatpat_set;
#X obj 663 594 s \$0-col_beatpat_set;
#X obj 422 184 s \$0-reset_vals;
#X obj 71 291 s \$0-row_num_set;
#X obj 121 269 s \$0-col_num_set;
#X obj 71 242 route rownum colnum;
#X obj 678 54 route satval;
#X obj 624 548 route beatpat;
#X obj 630 436 route row col rows cols;
#X obj 630 413 route dirpat;
#X obj 669 459 s \$0-col_dirpat_set;
#X obj 630 481 s \$0-row_dirpat_set;
#X obj 817 459 s \$0-allrows_dirpat_set;
#X obj 817 481 s \$0-allcols_dirpat_set;
#X obj 422 163 route reset;
#X obj 71 33 route sw ms sec bpm cps mode float;
#X obj 71 10 r \$0-abs_inlet;
#X obj 71 220 r \$0-abs_inlet;
#X obj 678 32 r \$0-abs_inlet;
#X obj 630 390 r \$0-abs_inlet;
#X obj 624 527 r \$0-abs_inlet;
#X obj 422 142 r \$0-abs_inlet;
#X obj 48 681 route row col rows cols;
#X obj 48 637 r \$0-abs_inlet;
#X obj 48 726 s \$0-row_del_set;
#X obj 87 704 s \$0-col_del_set;
#X obj 235 704 s \$0-allrows_del_set;
#X obj 235 727 s \$0-allcols_del_set;
#X obj 48 658 route del;
#X obj 48 541 route row col rows cols;
#X obj 48 497 r \$0-abs_inlet;
#X obj 87 564 s \$0-col_num_set;
#X obj 48 586 s \$0-row_num_set;
#X obj 235 564 s \$0-allrows_num_set;
#X obj 235 587 s \$0-allcols_num_set;
#X obj 48 519 route num phase;
#X connect 6 0 7 0;
#X connect 6 1 8 0;
#X connect 9 0 11 0;
#X connect 9 1 12 0;
#X connect 10 0 6 0;
#X connect 10 1 9 0;
#X connect 15 0 14 0;
#X connect 15 1 17 0;
#X connect 15 2 13 0;
#X connect 15 3 16 0;
#X connect 15 4 13 0;
#X connect 15 4 16 0;
#X connect 21 0 19 0;
#X connect 21 1 20 0;
#X connect 22 0 10 0;
#X connect 23 0 15 0;
#X connect 24 0 27 0;
#X connect 24 1 26 0;
#X connect 24 2 28 0;
#X connect 24 3 29 0;
#X connect 24 4 28 0;
#X connect 24 4 29 0;
#X connect 25 0 24 0;
#X connect 30 0 18 0;
#X connect 31 0 0 0;
#X connect 31 1 1 0;
#X connect 31 2 2 0;
#X connect 31 3 3 0;
#X connect 31 4 4 0;
#X connect 31 5 5 0;
#X connect 31 6 0 0;
#X connect 32 0 31 0;
#X connect 33 0 21 0;
#X connect 34 0 22 0;
#X connect 35 0 25 0;
#X connect 36 0 23 0;
#X connect 37 0 30 0;
#X connect 38 0 40 0;
#X connect 38 1 41 0;
#X connect 38 2 42 0;
#X connect 38 3 43 0;
#X connect 38 4 42 0;
#X connect 38 4 43 0;
#X connect 39 0 44 0;
#X connect 44 0 38 0;
#X connect 45 0 48 0;
#X connect 45 1 47 0;
#X connect 45 2 49 0;
#X connect 45 3 50 0;
#X connect 45 4 49 0;
#X connect 45 4 50 0;
#X connect 46 0 51 0;
#X connect 51 0 45 0;
#X connect 51 1 45 0;
#X restore 61 7 pd message_processing;
#N canvas 661 56 450 300 \$0-cloneplace 0;
#X obj 10 10 clone -s 1 mtxstepseq_auxabs 20 1856 row;
#X obj 10 40 clone -s 1 mtxstepseq_auxabs 12 1856 col;
#X restore 1265 89 pd \$0-cloneplace;
#N canvas 0 48 905 700 init 0;
#X obj 147 58 pdcontrol;
#X obj 147 11 loadbang;
#X msg 147 34 args 0 1 2;
#X obj 180 124 unpack 0 0 s;
#X obj 221 217 v \$0-mtx-cols;
#X obj 180 240 v \$0-mtx-rows;
#X obj 261 195 s \$0-abs_inlet;
#X msg 261 173 mode \$1;
#N canvas 162 241 1278 853 dynpatching 0;
#X obj 415 65 f \$0;
#X obj 395 137 v \$0-mtx-cols;
#X msg 415 87 \; pd-\$1-cloneplace clear \;;
#X obj 375 160 v \$0-mtx-rows;
#X obj 375 184 pack 0 0 \$0;
#X msg 375 207 \$3 \$1 \$2;
#X obj 355 15 inlet;
#X obj 355 42 t b b b b;
#X obj 410 290 s \$0-ready;
#X obj 182 338 s \$0-cloneloadbang;
#X obj 356 337 v \$0-mtx-rows;
#X obj 355 290 t b b b;
#X obj 355 394 until;
#X obj 355 443 f;
#X obj 384 443 + 1;
#X msg 373 420 1;
#X obj 387 488 v \$0-mtx-cols;
#X obj 387 515 until;
#X obj 387 564 f;
#X obj 416 564 + 1;
#X msg 405 541 1;
#X obj 387 626 pack 0 0 0;
#X obj 496 575 /;
#X msg 496 539 255;
#X obj 440 603 *;
#X obj 355 466 t b f b;
#X obj 247 806 list append;
#X msg 248 828 cellcolorons \$2 \$1 \$3 \$4 \$5;
#X obj 477 806 list append;
#X msg 477 829 cellcoloroffs \$2 \$1 0 \$4 \$5;
#X obj 289 760 t b l;
#X obj 519 749 t b l;
#X obj 289 738 r \$0-isatvalon;
#X obj 518 726 r \$0-isatvaloff;
#X obj 355 361 t f b f b;
#X obj 477 852 s \$0-colors;
#X obj 248 850 s \$0-colors;
#X obj 289 784 s \$0bng_rows;
#X obj 519 772 s \$0bng_rows;
#X obj 453 337 r \$0bng_rows;
#X obj 677 629 loadbang;
#X msg 836 698 0 90;
#X msg 649 698 70 190;
#X msg 375 229 \; pd-\$1-cloneplace obj 10 10 clone -s 1 mtxstepseq_auxabs
\$2 \$1 row \; pd-\$1-cloneplace obj 10 40 clone -s 1 mtxstepseq_auxabs
\$3 \$1 col \;, f 68;
#X connect 0 0 2 0;
#X connect 1 0 4 1;
#X connect 3 0 4 0;
#X connect 4 0 5 0;
#X connect 5 0 43 0;
#X connect 6 0 7 0;
#X connect 7 0 11 0;
#X connect 7 1 3 0;
#X connect 7 2 1 0;
#X connect 7 3 0 0;
#X connect 10 0 34 0;
#X connect 11 0 9 0;
#X connect 11 1 10 0;
#X connect 11 2 8 0;
#X connect 12 0 13 0;
#X connect 13 0 14 0;
#X connect 13 0 25 0;
#X connect 14 0 13 1;
#X connect 15 0 13 1;
#X connect 16 0 17 0;
#X connect 17 0 18 0;
#X connect 18 0 19 0;
#X connect 18 0 21 0;
#X connect 19 0 18 1;
#X connect 20 0 18 1;
#X connect 21 0 28 0;
#X connect 21 0 26 0;
#X connect 22 0 24 1;
#X connect 23 0 22 0;
#X connect 24 0 21 2;
#X connect 25 0 16 0;
#X connect 25 1 24 0;
#X connect 25 1 21 1;
#X connect 25 2 20 0;
#X connect 26 0 27 0;
#X connect 27 0 36 0;
#X connect 28 0 29 0;
#X connect 29 0 35 0;
#X connect 30 0 37 0;
#X connect 30 1 26 1;
#X connect 31 0 38 0;
#X connect 31 1 28 1;
#X connect 32 0 30 0;
#X connect 33 0 31 0;
#X connect 34 0 12 0;
#X connect 34 1 23 0;
#X connect 34 2 22 1;
#X connect 34 3 15 0;
#X connect 39 0 10 0;
#X connect 40 0 42 0;
#X connect 40 0 41 0;
#X connect 41 0 28 1;
#X connect 42 0 26 1;
#X restore 170 287 pd dynpatching;
#X obj 283 17 r \$0-init;
#X obj 261 152 symbol col;
#X msg 130 458 satval inactive off 0 90;
#X msg 130 482 satval inactive on 70 190;
#X msg 130 506 satval active off 0 210;
#X msg 130 530 satval active on 255 255;
#X obj 114 553 s \$0-abs_inlet;
#X obj 147 81 t b b l b;
#X obj 124 392 del 10;
#X connect 0 0 16 0;
#X connect 1 0 2 0;
#X connect 2 0 0 0;
#X connect 3 0 5 0;
#X connect 3 1 4 0;
#X connect 3 2 10 0;
#X connect 7 0 6 0;
#X connect 9 0 2 0;
#X connect 10 0 7 0;
#X connect 11 0 15 0;
#X connect 12 0 15 0;
#X connect 13 0 15 0;
#X connect 14 0 15 0;
#X connect 16 0 17 0;
#X connect 16 1 8 0;
#X connect 16 2 3 0;
#X connect 17 0 11 0;
#X connect 17 0 14 0;
#X connect 17 0 13 0;
#X connect 17 0 12 0;
#X restore 1265 111 pd init;
#N canvas 0 23 1440 855 tempocalc 0;
#X obj 46 23 r \$0-ms;
#X obj 469 335 r \$0-cps;
#X obj 271 715 v \$0-mtx-rows;
#X obj 271 819 pack 0 0;
#X obj 271 740 until;
#X obj 271 794 f;
#X obj 299 794 + 1;
#X msg 289 771 1;
#X obj 408 740 until;
#X obj 408 794 f;
#X obj 436 794 + 1;
#X msg 426 771 1;
#X obj 408 715 v \$0-mtx-cols;
#X obj 408 819 pack 0 0;
#X obj 46 335 r \$0-sec;
#X obj 89 447 unpack 0 0;
#X obj 156 470 / 1000;
#X obj 89 470 pack 0 0;
#X obj 132 381 unpack 0 0;
#X obj 199 404 / 1000;
#X obj 132 404 pack 0 0;
#X obj 556 67 unpack 0 0;
#X obj 556 90 pack 0 0;
#X obj 470 23 r \$0-bpm;
#X obj 633 67 t b f;
#X msg 676 67 60000;
#X obj 675 90 /;
#X obj 470 232 t b f;
#X msg 470 254 60000;
#X obj 469 277 /;
#X obj 555 383 unpack 0 0;
#X obj 555 406 pack 0 0;
#X obj 632 383 t b f;
#X obj 674 406 /;
#X obj 469 544 t b f;
#X obj 468 589 /;
#X msg 675 383 1000;
#X msg 469 566 1000;
#X obj 271 841 s \$0-rowmetros_set;
#X obj 408 841 s \$0-colmetros_set;
#X obj 46 547 * 1000;
#X obj 556 112 s \$0-rowmetros_set;
#X obj 132 426 s \$0-rowmetros_set;
#X obj 132 72 s \$0-rowmetros_set;
#X obj 555 428 s \$0-rowmetros_set;
#X obj 512 495 s \$0-colmetros_set;
#X obj 513 179 s \$0-colmetros_set;
#X obj 89 492 s \$0-colmetros_set;
#X obj 89 94 s \$0-colmetros_set;
#X obj 470 45 route float col row;
#X obj 46 357 route float col row;
#X obj 46 49 route float col row;
#X obj 469 360 route float col row;
#X obj 243 162 s \$0-rowbeatgroup_set;
#X msg 78 120 1;
#X obj 176 117 unpack 0 0;
#X floatatom 260 117 5 0 0 0 - - -;
#X floatatom 183 146 5 0 0 0 - - -;
#X obj 46 94 t f b;
#X obj 271 682 t b b f b;
#X obj 176 519 unpack 0 0;
#X obj 243 544 s \$0-rowbeatgroup_set;
#X msg 78 519 1;
#X obj 46 492 t f b;
#X obj 46 270 s \$0-mtxmetrosvals;
#X obj 271 657 r \$0-mtxmetrosvals;
#X obj 46 570 s \$0-mtxmetrosvals;
#X obj 600 203 unpack 0 0;
#X obj 667 227 s \$0-rowbeatgroup_set;
#X msg 502 203 1;
#X obj 470 180 t f b;
#X obj 469 299 s \$0-mtxmetrosvals;
#X obj 599 518 unpack 0 0;
#X obj 666 542 s \$0-rowbeatgroup_set;
#X msg 501 518 1;
#X obj 469 495 t f b;
#X obj 468 612 s \$0-mtxmetrosvals;
#X floatatom 529 276 5 0 0 0 - - -;
#X obj 680 205 s \$0-colbeatgroup_set;
#X obj 255 139 s \$0-colbeatgroup_set;
#X obj 253 518 s \$0-colbeatgroup_set;
#X obj 678 518 s \$0-colbeatgroup_set;
#X obj 513 134 unpack 0 0;
#X obj 513 157 pack 0 0;
#X obj 590 134 t b f;
#X msg 633 134 60000;
#X obj 632 157 /;
#X obj 512 450 unpack 0 0;
#X obj 512 473 pack 0 0;
#X obj 589 450 t b f;
#X obj 631 473 /;
#X msg 632 450 1000;
#X connect 0 0 51 0;
#X connect 1 0 52 0;
#X connect 2 0 4 0;
#X connect 3 0 38 0;
#X connect 4 0 5 0;
#X connect 5 0 6 0;
#X connect 5 0 3 0;
#X connect 6 0 5 1;
#X connect 7 0 5 1;
#X connect 8 0 9 0;
#X connect 9 0 10 0;
#X connect 9 0 13 0;
#X connect 10 0 9 1;
#X connect 11 0 9 1;
#X connect 12 0 8 0;
#X connect 13 0 39 0;
#X connect 14 0 50 0;
#X connect 15 0 17 0;
#X connect 15 1 16 0;
#X connect 16 0 17 1;
#X connect 17 0 47 0;
#X connect 18 0 20 0;
#X connect 18 1 19 0;
#X connect 19 0 20 1;
#X connect 20 0 42 0;
#X connect 21 0 22 0;
#X connect 21 1 24 0;
#X connect 22 0 41 0;
#X connect 23 0 49 0;
#X connect 24 0 25 0;
#X connect 24 1 26 1;
#X connect 25 0 26 0;
#X connect 26 0 22 1;
#X connect 27 0 28 0;
#X connect 27 1 29 1;
#X connect 28 0 29 0;
#X connect 29 0 71 0;
#X connect 29 0 77 0;
#X connect 30 0 31 0;
#X connect 30 1 32 0;
#X connect 31 0 44 0;
#X connect 32 0 36 0;
#X connect 32 1 33 1;
#X connect 33 0 31 1;
#X connect 34 0 37 0;
#X connect 34 1 35 1;
#X connect 35 0 76 0;
#X connect 36 0 33 0;
#X connect 37 0 35 0;
#X connect 40 0 66 0;
#X connect 49 0 70 0;
#X connect 49 1 82 0;
#X connect 49 2 21 0;
#X connect 49 3 67 0;
#X connect 50 0 63 0;
#X connect 50 1 15 0;
#X connect 50 2 18 0;
#X connect 50 3 60 0;
#X connect 51 0 58 0;
#X connect 51 1 48 0;
#X connect 51 2 43 0;
#X connect 51 3 55 0;
#X connect 52 0 75 0;
#X connect 52 1 87 0;
#X connect 52 2 30 0;
#X connect 52 3 72 0;
#X connect 54 0 53 0;
#X connect 54 0 79 0;
#X connect 55 0 57 0;
#X connect 55 0 64 0;
#X connect 55 1 53 0;
#X connect 55 1 56 0;
#X connect 55 1 79 0;
#X connect 58 0 64 0;
#X connect 58 1 54 0;
#X connect 59 0 2 0;
#X connect 59 1 12 0;
#X connect 59 2 13 1;
#X connect 59 2 3 1;
#X connect 59 3 11 0;
#X connect 59 3 7 0;
#X connect 60 0 40 0;
#X connect 60 1 61 0;
#X connect 60 1 80 0;
#X connect 62 0 61 0;
#X connect 62 0 80 0;
#X connect 63 0 40 0;
#X connect 63 1 62 0;
#X connect 65 0 59 0;
#X connect 67 0 27 0;
#X connect 67 1 68 0;
#X connect 67 1 78 0;
#X connect 69 0 68 0;
#X connect 69 0 78 0;
#X connect 70 0 27 0;
#X connect 70 1 69 0;
#X connect 72 0 34 0;
#X connect 72 1 73 0;
#X connect 72 1 81 0;
#X connect 74 0 73 0;
#X connect 74 0 81 0;
#X connect 75 0 34 0;
#X connect 75 1 74 0;
#X connect 82 0 83 0;
#X connect 82 1 84 0;
#X connect 83 0 46 0;
#X connect 84 0 85 0;
#X connect 84 1 86 1;
#X connect 85 0 86 0;
#X connect 86 0 83 1;
#X connect 87 0 88 0;
#X connect 87 1 89 0;
#X connect 88 0 45 0;
#X connect 89 0 91 0;
#X connect 89 1 90 1;
#X connect 90 0 88 1;
#X connect 91 0 90 0;
#X restore 1265 133 pd tempocalc;
#N canvas 0 23 1440 855 switches 0;
#X obj 20 18 r \$0-sw;
#X obj 185 47 r \$0-mode;
#X obj 185 101 sel col row colrow;
#X obj 185 78 symbol;
#X obj 21 348 spigot;
#X obj 71 348 spigot;
#X msg 60 296 1;
#X msg 60 318 0;
#X msg 110 296 1;
#X msg 110 318 0;
#X obj 21 383 s \$0-colmetros_sw;
#X obj 71 415 s \$0-rowmetros_sw;
#X obj 124 345 tgl 15 0 empty empty empty 17 7 0 10 -262144 -1 -1 1
1;
#X obj 43 324 tgl 15 0 empty empty empty 17 7 0 10 -262144 -1 -1 0
1;
#X obj 20 77 route col row float;
#X connect 0 0 14 0;
#X connect 1 0 3 0;
#X connect 2 0 6 0;
#X connect 2 0 9 0;
#X connect 2 1 8 0;
#X connect 2 1 7 0;
#X connect 2 2 6 0;
#X connect 2 2 8 0;
#X connect 3 0 2 0;
#X connect 4 0 10 0;
#X connect 5 0 11 0;
#X connect 6 0 4 1;
#X connect 6 0 13 0;
#X connect 7 0 4 1;
#X connect 7 0 13 0;
#X connect 8 0 5 1;
#X connect 8 0 12 0;
#X connect 9 0 5 1;
#X connect 9 0 12 0;
#X connect 14 0 4 0;
#X connect 14 1 5 0;
#X connect 14 2 4 0;
#X connect 14 2 5 0;
#X restore 1265 155 pd switches;
#X msg 126 779 colormode hsv;
#X obj 33 809 outlet;
#X obj 126 758 loadbang;
#X obj 33 107 r \$0-read;
#X obj 299 204 r \$0-noread;
#X msg 33 165 get \$1 \$2;
#X obj 485 812 outlet;
#X obj 1078 348 r \$0-ready;
#X msg 1138 395 bpm 60;
#X obj 1078 372 t b b b b;
#X obj 1138 417 s \$0-abs_inlet;
#X obj 1118 462 s \$0-abs_inlet;
#X obj 33 135 t l l;
#X obj 615 107 inlet;
#X obj 615 484 list prepend;
#X obj 485 225 unpack 0 0;
#X obj 485 250 - 1;
#X obj 485 272 t f b;
#X obj 485 318 *;
#X obj 582 350 +;
#X obj 565 812 outlet;
#X obj 517 296 v \$0-mtx-cols;
#X obj 299 226 unpack 0 0;
#X obj 299 251 - 1;
#X obj 299 273 t f b;
#X obj 299 319 *;
#X obj 396 351 +;
#X obj 331 297 v \$0-mtx-cols;
#X obj 251 783 r \$0-colors;
#X obj 251 807 outlet;
#X msg 1118 440 mode row;
#X msg 395 379 \$1 0 stop;
#X obj 27 33 s \$0-abs_inlet;
#X obj 973 23 table \$0-acellsrow \$1;
#X obj 973 45 table \$0-acellscol \$2;
#X text 915 22 i:R v:C;
#X text 915 45 i:C v:R;
#X connect 0 0 38 0;
#X connect 6 0 7 0;
#X connect 8 0 6 0;
#X connect 9 0 18 0;
#X connect 10 0 28 0;
#X connect 11 0 7 0;
#X connect 13 0 15 0;
#X connect 14 0 16 0;
#X connect 15 2 36 0;
#X connect 15 3 14 0;
#X connect 18 0 11 0;
#X connect 18 1 21 0;
#X connect 19 0 20 0;
#X connect 20 0 26 0;
#X connect 21 0 22 0;
#X connect 21 1 25 1;
#X connect 22 0 23 0;
#X connect 23 0 24 0;
#X connect 23 1 27 0;
#X connect 24 0 25 0;
#X connect 25 0 20 1;
#X connect 27 0 24 1;
#X connect 28 0 29 0;
#X connect 28 1 32 1;
#X connect 29 0 30 0;
#X connect 30 0 31 0;
#X connect 30 1 33 0;
#X connect 31 0 32 0;
#X connect 32 0 37 0;
#X connect 33 0 31 1;
#X connect 34 0 35 0;
#X connect 36 0 17 0;
#X connect 37 0 12 0;
