#N canvas 635 23 720 855 12;
#X obj 161 -120 inlet;
#X obj 229 574 pack 0 \$1 1;
#X obj 581 662 pack 0 \$1 0;
#X text 578 571 turn-off last val;
#X text 226 450 turn-on this val;
#X obj 581 720 s \$2-noread;
#X obj 229 469 r \$0-auxrow_col;
#N canvas 0 23 1230 511 color_control 0;
#X obj 12 524 s \$2-colors;
#X obj 114 140 r \$2-isatvalon;
#X obj 30 140 list append;
#X obj 26 207 list append;
#X obj 110 207 r \$2-isatvaloff;
#X obj 35 413 list append;
#X obj 26 479 list append;
#X obj 119 413 r \$2-asatvalon;
#X obj 110 479 r \$2-asatvaloff;
#X obj 100 364 r \$0-hue;
#X obj 99 95 r \$0-hue;
#X obj 26 308 r \$0-auxrow_col;
#X text 33 284 active color;
#X obj 12 254 s \$2-colors;
#X obj 31 185 s \$2-colors;
#X obj 36 457 s \$2-colors;
#X text 24 15 inactive color;
#X obj 25 33 r \$0-auxrow_lastrow;
#X msg 31 162 cellcolorons \$1 \$2 \$3 \$4 \$5;
#X msg 12 230 cellcoloroffs \$1 \$2 0 \$4 \$5;
#X msg 36 435 cellcolorons \$1 \$2 \$3 \$4 \$5;
#X msg 12 502 cellcoloroffs \$1 \$2 0 \$4 \$5;
#X obj 36 336 mod;
#X obj 64 336 r \$0-rownum;
#X obj 35 60 mod;
#X obj 63 60 r \$0-rownum;
#X obj 26 387 pack 1 \$1 0;
#X obj 25 117 pack 1 \$1 0;
#X obj 493 132 pack 0 \$1 0;
#X obj 479 269 s \$2-colors;
#X obj 502 158 list append;
#X obj 493 224 list append;
#X obj 774 102 r \$2-asatvalon;
#X obj 567 109 r \$0-hue;
#X obj 503 202 s \$2-colors;
#X obj 752 227 r \$2-asatvaloff;
#X obj 774 125 unpack 0 0;
#X obj 774 147 pack 0 0;
#X obj 752 249 unpack 0 0;
#X obj 752 271 pack 0 0;
#X obj 855 170 int;
#X obj 819 293 int;
#X obj 855 148 * 0.75;
#X obj 819 271 * 0.75;
#X obj 493 42 r \$0-auxrow_lastrowoff;
#X msg 503 180 cellcolorons \$1 \$2 \$3 \$4 \$5;
#X msg 479 247 cellcoloroffs \$1 \$2 0 \$4 \$5;
#X connect 1 0 2 1;
#X connect 2 0 18 0;
#X connect 3 0 19 0;
#X connect 4 0 3 1;
#X connect 5 0 20 0;
#X connect 6 0 21 0;
#X connect 7 0 5 1;
#X connect 8 0 6 1;
#X connect 9 0 26 2;
#X connect 10 0 27 2;
#X connect 11 0 22 0;
#X connect 11 0 26 0;
#X connect 17 0 24 0;
#X connect 17 0 27 0;
#X connect 18 0 14 0;
#X connect 19 0 13 0;
#X connect 20 0 15 0;
#X connect 21 0 0 0;
#X connect 23 0 22 1;
#X connect 25 0 24 1;
#X connect 26 0 5 0;
#X connect 26 0 6 0;
#X connect 27 0 2 0;
#X connect 27 0 3 0;
#X connect 28 0 30 0;
#X connect 28 0 31 0;
#X connect 30 0 45 0;
#X connect 31 0 46 0;
#X connect 32 0 36 0;
#X connect 33 0 28 2;
#X connect 35 0 38 0;
#X connect 36 0 37 0;
#X connect 36 1 42 0;
#X connect 37 0 30 1;
#X connect 38 0 39 0;
#X connect 38 1 43 0;
#X connect 39 0 31 1;
#X connect 40 0 37 1;
#X connect 41 0 39 1;
#X connect 42 0 40 0;
#X connect 43 0 41 0;
#X connect 44 0 28 0;
#X connect 45 0 34 0;
#X connect 46 0 29 0;
#X restore 203 -120 pd color_control;
#X obj 581 589 r \$0-auxrow_lastrow;
#X msg 229 599 \$1 \$2 \$3;
#X msg 581 685 \$1 \$2 \$3;
#N canvas 499 23 450 300 sw 0;
#X obj 165 205 t l l;
#X msg 214 205 \$1;
#X obj 214 229 == \$1;
#X obj 165 229 spigot;
#X msg 134 229 \$2;
#X obj 106 182 route float list;
#X obj 106 229 f;
#X obj 106 159 r \$2-colmetros_sw;
#X obj 138 280 outlet;
#X obj 106 254 t f f;
#X obj 106 304 s \$0-swval;
#X connect 0 0 3 0;
#X connect 0 1 1 0;
#X connect 1 0 2 0;
#X connect 2 0 3 1;
#X connect 3 0 4 0;
#X connect 4 0 6 0;
#X connect 5 0 6 0;
#X connect 5 1 0 0;
#X connect 6 0 9 0;
#X connect 7 0 5 0;
#X connect 9 0 10 0;
#X connect 9 1 8 0;
#X restore 221 -33 pd sw;
#N canvas 0 23 450 300 metro 0;
#X obj 9 8 inlet;
#X obj 9 245 outlet;
#X obj 9 223 metro;
#X obj 215 58 t l l;
#X msg 247 80 \$1;
#X obj 247 104 == \$1;
#X obj 215 127 spigot;
#X msg 84 131 \$2;
#X obj 54 54 route float list;
#X obj 54 131 f;
#X obj 59 101 t b f;
#X msg 82 154 1;
#X obj 54 32 r \$2-colmetros_set;
#X obj 59 78 r \$2-colbeatgroup_set;
#X floatatom 82 206 5 0 0 0 - - -;
#X obj 113 154 r \$2-cloneloadbang;
#X obj 55 154 / 1;
#X connect 0 0 2 0;
#X connect 2 0 1 0;
#X connect 3 0 6 0;
#X connect 3 1 4 0;
#X connect 4 0 5 0;
#X connect 5 0 6 1;
#X connect 6 0 7 0;
#X connect 7 0 9 0;
#X connect 8 0 9 0;
#X connect 8 1 3 0;
#X connect 9 0 16 0;
#X connect 10 0 9 0;
#X connect 10 1 16 1;
#X connect 11 0 16 1;
#X connect 12 0 8 0;
#X connect 13 0 10 0;
#X connect 15 0 11 0;
#X connect 16 0 2 1;
#X connect 16 0 14 0;
#X restore 221 -3 pd metro;
#N canvas 681 23 917 681 beatpattern 0;
#X msg 191 180 1;
#N canvas 0 23 450 300 rot 0;
#X obj 120 24 inlet;
#X obj 20 24 inlet;
#X obj 120 46 list store;
#X obj 38 76 list length;
#X obj 20 99 mod;
#X obj 20 123 f;
#X obj 53 146 list store;
#X obj 53 168 outlet;
#X msg 53 123 get \$1 1;
#X connect 0 0 2 0;
#X connect 1 0 4 0;
#X connect 2 0 3 0;
#X connect 2 0 6 1;
#X connect 3 0 4 1;
#X connect 4 0 5 0;
#X connect 5 0 8 0;
#X connect 6 0 7 0;
#X connect 8 0 6 0;
#X restore 141 180 pd rot;
#X obj 112 180 ==;
#X obj 80 132 t f f;
#X obj 121 132 f;
#X obj 150 132 + 1;
#X msg 198 132 1;
#X obj 261 181 f;
#X obj 261 203 + 1;
#X obj 39 132 sel 1;
#X obj 112 203 sel 1;
#X obj 229 132 t b b;
#X obj 272 132 t b b;
#X obj 403 86 r \$2-ready;
#X obj 403 108 t b b;
#X msg 304 157 0;
#X obj 180 155 r \$0-patls;
#X obj 229 108 r \$0-colbeat_newcycle;
#X obj 314 132 r \$0-colbeat_reset;
#X obj 112 225 s \$0-colbeat_newcycle;
#X obj 121 102 inlet;
#X obj 39 250 outlet;
#X obj 521 199 t a b;
#X obj 521 222 s \$0-patls;
#X obj 580 132 list split 1;
#X obj 553 177 list store;
#X msg 580 155 \$1;
#X obj 530 155 sel \$1;
#X obj 521 88 r \$2-allcols_beatpat_set;
#X obj 580 110 r \$2-col_beatpat_set;
#X obj 564 199 s \$0-colbeat_reset;
#X floatatom 112 285 5 0 0 0 - - -;
#X floatatom 234 272 5 0 0 0 - - -;
#X floatatom 123 157 5 0 0 0 - - -;
#X obj 179 75 bng 15 250 50 0 empty empty empty 17 7 0 10 -262144 -1
-1;
#X connect 0 0 1 1;
#X connect 1 0 2 1;
#X connect 1 0 32 0;
#X connect 2 0 10 0;
#X connect 3 0 9 0;
#X connect 3 0 31 0;
#X connect 3 1 2 0;
#X connect 3 1 33 0;
#X connect 4 0 5 0;
#X connect 4 0 3 0;
#X connect 5 0 4 1;
#X connect 6 0 4 1;
#X connect 7 0 8 0;
#X connect 7 0 1 0;
#X connect 8 0 7 1;
#X connect 9 0 21 0;
#X connect 10 0 19 0;
#X connect 11 0 6 0;
#X connect 11 1 7 0;
#X connect 12 0 11 0;
#X connect 12 1 15 0;
#X connect 13 0 14 0;
#X connect 14 0 12 0;
#X connect 14 1 0 0;
#X connect 15 0 7 0;
#X connect 16 0 1 1;
#X connect 17 0 11 0;
#X connect 18 0 12 0;
#X connect 20 0 4 0;
#X connect 20 0 34 0;
#X connect 22 0 23 0;
#X connect 22 1 30 0;
#X connect 24 0 26 0;
#X connect 24 1 25 1;
#X connect 25 0 22 0;
#X connect 26 0 27 0;
#X connect 27 0 25 0;
#X connect 28 0 22 0;
#X connect 29 0 24 0;
#X restore 221 20 pd beatpattern;
#N canvas 0 23 450 300 del 0;
#X obj 42 -13 inlet;
#X obj 42 135 delay;
#X obj 133 63 t l l;
#X msg 182 63 \$1;
#X obj 182 87 == \$1;
#X obj 133 87 spigot;
#X msg 102 87 \$2;
#X obj 74 40 route float list;
#X obj 74 87 f;
#X msg 89 130 0;
#X obj 89 108 r \$2-cloneloadbang;
#X obj 42 158 outlet;
#X obj 74 18 r \$2-coldel_set;
#X connect 0 0 1 0;
#X connect 1 0 11 0;
#X connect 2 0 5 0;
#X connect 2 1 3 0;
#X connect 3 0 4 0;
#X connect 4 0 5 1;
#X connect 5 0 6 0;
#X connect 6 0 8 0;
#X connect 7 0 8 0;
#X connect 7 1 2 0;
#X connect 8 0 1 1;
#X connect 9 0 1 1;
#X connect 10 0 9 0;
#X connect 12 0 7 0;
#X restore 221 43 pd del;
#N canvas 379 56 1061 762 numset_dir 1;
#X obj 51 635 f;
#X obj 81 635 + 1;
#X msg 262 560 0;
#X obj 262 539 r \$2-cloneloadbang;
#X obj 109 635 r \$0-localdir;
#X obj 51 659 outlet;
#X obj 51 63 inlet;
#X obj 149 538 t l l;
#X msg 198 538 \$1;
#X obj 198 562 == \$1;
#X obj 149 562 spigot;
#X msg 118 562 \$2;
#X obj 90 515 route float list;
#X obj 90 562 f;
#X floatatom 234 494 5 0 0 0 - - -;
#X obj 304 245 t a b;
#X obj 363 178 list split 1;
#X obj 336 223 list store;
#X msg 363 201 \$1;
#X obj 313 201 sel \$1;
#X obj 304 268 s \$0-dirpatls;
#X msg 190 243 1;
#N canvas 0 23 450 300 rot 0;
#X obj 120 24 inlet;
#X obj 20 24 inlet;
#X obj 120 46 list store;
#X obj 38 76 list length;
#X obj 20 99 mod;
#X obj 20 123 f;
#X obj 53 146 list store;
#X obj 53 168 outlet;
#X msg 53 123 get \$1 1;
#X connect 0 0 2 0;
#X connect 1 0 4 0;
#X connect 2 0 3 0;
#X connect 2 0 6 1;
#X connect 3 0 4 1;
#X connect 4 0 5 0;
#X connect 5 0 8 0;
#X connect 6 0 7 0;
#X connect 8 0 6 0;
#X restore 140 243 pd rot;
#X obj 83 243 f;
#X obj 112 243 + 1;
#X msg 101 221 0;
#X obj 140 269 s \$0-localdir;
#X obj 179 222 r \$0-dirpatls;
#X obj 221 243 r \$2-ready;
#X obj 101 200 r \$0-coldir_reset;
#X obj 304 134 r \$2-allcols_dirpat_set;
#X obj 363 156 r \$2-col_dirpat_set;
#X obj 346 245 s \$0-coldir_reset;
#X obj 77 473 r \$2-allcols_num_set;
#X obj 90 494 r \$2-col_num_set;
#X obj 51 189 t b b;
#X connect 0 0 1 0;
#X connect 0 0 5 0;
#X connect 1 0 0 1;
#X connect 2 0 0 1;
#X connect 3 0 2 0;
#X connect 4 0 1 1;
#X connect 6 0 35 0;
#X connect 7 0 10 0;
#X connect 7 1 8 0;
#X connect 8 0 9 0;
#X connect 9 0 10 1;
#X connect 10 0 11 0;
#X connect 11 0 13 0;
#X connect 12 0 13 0;
#X connect 12 1 7 0;
#X connect 13 0 0 1;
#X connect 15 0 20 0;
#X connect 15 1 32 0;
#X connect 16 0 18 0;
#X connect 16 1 17 1;
#X connect 17 0 15 0;
#X connect 18 0 19 0;
#X connect 19 0 17 0;
#X connect 21 0 22 1;
#X connect 22 0 26 0;
#X connect 23 0 24 0;
#X connect 23 0 22 0;
#X connect 24 0 23 1;
#X connect 25 0 23 1;
#X connect 27 0 22 1;
#X connect 28 0 21 0;
#X connect 29 0 25 0;
#X connect 30 0 15 0;
#X connect 31 0 16 0;
#X connect 33 0 13 0;
#X connect 34 0 12 0;
#X connect 34 0 14 0;
#X connect 35 0 0 0;
#X connect 35 1 23 0;
#X restore 221 67 pd numset_dir;
#X obj 221 153 mod;
#X obj 221 175 + 1;
#N canvas 0 23 450 300 phase 0;
#X obj 52 19 inlet;
#X obj 52 179 outlet;
#X obj 52 148 +;
#X obj 140 124 t l l;
#X msg 189 124 \$1;
#X obj 189 148 == \$1;
#X obj 140 148 spigot;
#X msg 109 148 \$2;
#X obj 81 101 route float list;
#X obj 81 148 f;
#X obj 81 78 r \$2-colphase_set;
#X connect 0 0 2 0;
#X connect 2 0 1 0;
#X connect 3 0 6 0;
#X connect 3 1 4 0;
#X connect 4 0 5 0;
#X connect 5 0 6 1;
#X connect 6 0 7 0;
#X connect 7 0 9 0;
#X connect 8 0 9 0;
#X connect 8 1 3 0;
#X connect 9 0 2 1;
#X connect 10 0 8 0;
#X restore 221 90 pd phase;
#X obj 249 153 r \$0-rownum;
#N canvas 0 23 450 300 hue 0;
#X obj 20 15 inlet;
#X obj 131 99 v \$2-mtx-rows;
#X obj 98 50 r \$2-cloneloadbang;
#X msg 131 142 255;
#X obj 145 164 /;
#X obj 131 121 t b f;
#X obj 99 76 t b b;
#X obj 20 224 s \$0-hue;
#X obj 20 201 *;
#X obj 29 102 v \$2-mtx-rows;
#X obj 29 125 s \$0-rownum;
#X connect 0 0 8 0;
#X connect 1 0 5 0;
#X connect 2 0 6 0;
#X connect 3 0 4 0;
#X connect 4 0 8 1;
#X connect 5 0 3 0;
#X connect 5 1 4 1;
#X connect 6 0 9 0;
#X connect 6 1 1 0;
#X connect 8 0 7 0;
#X connect 9 0 10 0;
#X restore 295 271 pd hue;
#X obj 221 248 t f f;
#X obj 229 494 f;
#X obj 382 504 f \$1;
#X obj 229 524 t f f b;
#X obj 252 550 tabwrite \$2-acellsC;
#X obj 228 756 s \$2-read;
#X obj 252 678 s \$2-update_vals;
#X obj 229 623 t l l l;
#X msg 252 651 \$1 \$2;
#N canvas 295 23 1145 855 col_avoid_activerows 0;
#X obj -196 2 inlet;
#X obj -192 551 s \$0-auxrow_col;
#X obj -70 454 spigot;
#X msg -18 454 1;
#X msg 12 454 0;
#X obj 41 454 r \$2-cloneloadbang;
#N canvas 0 23 836 671 crcheck 0;
#X obj 71 50 r \$2-mode;
#X obj 71 74 route colrow;
#X obj 62 153 outlet;
#X obj 111 153 outlet;
#X connect 0 0 1 0;
#X connect 1 0 2 0;
#X connect 1 1 3 0;
#X restore -18 433 pd crcheck;
#X obj -70 406 sel 1;
#X obj -70 433 f;
#X obj -172 106 f;
#X obj -154 49 r \$0-auxrow_col;
#X obj -144 106 route 0;
#X obj -70 476 f;
#X obj -70 355 != \$1;
#X obj -14 281 !=;
#X obj -78 256 f \$1;
#X obj -70 381 &&;
#X obj -98 326 - 1;
#X obj -43 256 - 1;
#X obj 70 158 r \$2-cloneloadbang;
#N canvas 671 116 836 671 crcheck 0;
#X obj 71 50 r \$2-mode;
#X obj 62 153 outlet;
#X obj 111 153 outlet;
#X obj 71 74 route colrow;
#X connect 0 0 3 0;
#X connect 3 0 1 0;
#X connect 3 1 2 0;
#X restore 12 135 pd crcheck;
#X msg 11 158 0;
#X msg 41 158 1;
#X obj -28 181 spigot;
#X obj -28 203 f;
#X obj -98 182 t f b f f;
#X obj -41 49 r \$0-swval;
#X obj -41 95 f;
#X obj -41 71 sel 0;
#X obj -154 71 t f f;
#X obj -196 24 t f b f;
#X text 149 95 metro switch off -> half-active color / turn off synths
;
#X obj -138 24 s \$0-nowval;
#X obj 15 281 r \$0-nowval;
#X text 89 138 mode is not colrow -> just turn last cell to inactive
;
#X text 59 433 mode is colrow;
#X obj -14 95 s \$0-auxrow_lastrowoff;
#X obj -1 203 s \$0-auxrow_lastrow;
#X obj -70 499 s \$0-auxrow_lastrow;
#X text -15 345 active col for this same row (if matches \, should
not be turned off);
#X text 126 256 last col is not equal this same col?;
#X obj -70 326 tabread \$2-acellsR;
#X obj -14 256 tabread \$2-acellsC;
#X connect 0 0 30 0;
#X connect 2 0 12 0;
#X connect 3 0 2 1;
#X connect 4 0 2 1;
#X connect 5 0 4 0;
#X connect 6 0 3 0;
#X connect 6 1 4 0;
#X connect 7 0 8 0;
#X connect 8 0 2 0;
#X connect 9 0 11 0;
#X connect 10 0 29 0;
#X connect 11 1 25 0;
#X connect 12 0 38 0;
#X connect 13 0 16 0;
#X connect 14 0 16 1;
#X connect 15 0 18 0;
#X connect 16 0 7 0;
#X connect 17 0 41 0;
#X connect 18 0 42 0;
#X connect 19 0 22 0;
#X connect 20 0 21 0;
#X connect 20 1 22 0;
#X connect 21 0 23 1;
#X connect 22 0 23 1;
#X connect 23 0 24 0;
#X connect 24 0 37 0;
#X connect 25 0 17 0;
#X connect 25 1 15 0;
#X connect 25 2 8 1;
#X connect 25 3 23 0;
#X connect 26 0 28 0;
#X connect 27 0 36 0;
#X connect 28 0 27 0;
#X connect 29 0 9 1;
#X connect 29 1 27 1;
#X connect 30 0 1 0;
#X connect 30 1 9 0;
#X connect 30 2 32 0;
#X connect 33 0 14 1;
#X connect 41 0 13 0;
#X connect 42 0 14 0;
#X restore 221 303 pd col_avoid_activerows;
#X obj 382 528 - 1;
#X obj 221 112 spigot;
#X obj 269 112 r \$0-swval;
#X obj 543 547 r \$0-auxrow_lastrowoff;
#X connect 1 0 9 0;
#X connect 2 0 10 0;
#X connect 6 0 22 0;
#X connect 8 0 2 0;
#X connect 9 0 28 0;
#X connect 10 0 5 0;
#X connect 11 0 12 0;
#X connect 12 0 13 0;
#X connect 13 0 14 0;
#X connect 14 0 15 0;
#X connect 15 0 18 0;
#X connect 16 0 17 0;
#X connect 17 0 21 0;
#X connect 18 0 32 0;
#X connect 19 0 16 1;
#X connect 21 0 30 0;
#X connect 21 1 20 0;
#X connect 22 0 24 0;
#X connect 23 0 31 0;
#X connect 24 0 1 0;
#X connect 24 1 25 0;
#X connect 24 2 23 0;
#X connect 28 0 26 0;
#X connect 28 1 29 0;
#X connect 29 0 27 0;
#X connect 31 0 25 1;
#X connect 32 0 16 0;
#X connect 33 0 32 1;
#X connect 34 0 2 0;
#X coords 0 855 1 854 22 22 0;
