#N canvas 466 114 590 732 12;
#X obj 3 -298 inlet;
#X obj 103 331 pack 0 \$1 1;
#X obj 571 206 pack 0 \$1 0;
#X text 568 165 turn-off last val;
#X text 99 150 turn-on this val;
#X obj 102 514 s \$2-read;
#X obj 571 270 s \$2-noread;
#X obj 955 90 v \$2-mtx-rows;
#X obj 846 114 v \$2-mtx-cols;
#X msg 103 356 \$2 \$1 \$3;
#X msg 571 235 \$2 \$1 \$3;
#X obj 846 62 r \$2-cloneloadbang;
#X msg 955 133 255;
#X obj 969 155 /;
#X obj 955 112 t b f;
#X obj 969 178 * \$1;
#X obj 846 88 t b b;
#X text 1011 180 hue;
#X obj 969 201 s \$0-hue;
#X obj 102 169 r \$0-auxrow_col;
#X obj 571 183 r \$0-auxrow_lastcol;
#N canvas 0 23 1127 855 color_control 0;
#X obj 26 367 pack 0 \$1 0;
#X obj 25 77 pack 0 \$1 0;
#X obj 12 504 s \$2-colors;
#X obj 125 100 r \$2-isatvalon;
#X obj 41 100 list append;
#X msg 41 143 cellcolorons \$2 \$1 \$3 \$4 \$5;
#X obj 26 194 list append;
#X obj 110 194 r \$2-isatvaloff;
#X msg 26 247 cellcoloroffs \$2 \$1 0 \$4 \$5;
#X obj 35 393 list append;
#X msg 36 415 cellcolorons \$2 \$1 \$3 \$4 \$5;
#X obj 26 459 list append;
#X msg 12 482 cellcoloroffs \$2 \$1 0 \$4 \$5;
#X obj 119 393 r \$2-asatvalon;
#X obj 110 459 r \$2-asatvaloff;
#X obj 100 344 r \$0-hue;
#X obj 99 55 r \$0-hue;
#X obj 26 318 r \$0-auxrow_col;
#X text 33 294 active color;
#X obj 25 33 r \$0-auxrow_lastcol;
#X obj 26 271 s \$2-colors;
#X obj 41 165 s \$2-colors;
#X obj 36 437 s \$2-colors;
#X text 24 15 inactive color;
#X obj 493 132 pack 0 \$1 0;
#X obj 479 269 s \$2-colors;
#X obj 502 158 list append;
#X msg 503 180 cellcolorons \$2 \$1 \$3 \$4 \$5;
#X obj 493 224 list append;
#X msg 479 247 cellcoloroffs \$2 \$1 0 \$4 \$5;
#X obj 774 102 r \$2-asatvalon;
#X obj 567 109 r \$0-hue;
#X obj 503 202 s \$2-colors;
#X obj 493 42 r \$0-auxrow_lastcoloff;
#X obj 752 227 r \$2-asatvaloff;
#X obj 774 125 unpack 0 0;
#X obj 774 147 pack 0 0;
#X obj 752 249 unpack 0 0;
#X obj 752 271 pack 0 0;
#X obj 855 170 int;
#X obj 819 293 int;
#X obj 855 148 * 0.75;
#X obj 819 271 * 0.75;
#X connect 0 0 9 0;
#X connect 0 0 11 0;
#X connect 1 0 4 0;
#X connect 1 0 6 0;
#X connect 3 0 4 1;
#X connect 4 0 5 0;
#X connect 5 0 21 0;
#X connect 6 0 8 0;
#X connect 7 0 6 1;
#X connect 8 0 20 0;
#X connect 9 0 10 0;
#X connect 10 0 22 0;
#X connect 11 0 12 0;
#X connect 12 0 2 0;
#X connect 13 0 9 1;
#X connect 14 0 11 1;
#X connect 15 0 0 2;
#X connect 16 0 1 2;
#X connect 17 0 0 0;
#X connect 19 0 1 0;
#X connect 24 0 26 0;
#X connect 24 0 28 0;
#X connect 26 0 27 0;
#X connect 27 0 32 0;
#X connect 28 0 29 0;
#X connect 29 0 25 0;
#X connect 30 0 35 0;
#X connect 31 0 24 2;
#X connect 33 0 24 0;
#X connect 34 0 37 0;
#X connect 35 0 36 0;
#X connect 35 1 41 0;
#X connect 36 0 26 1;
#X connect 37 0 38 0;
#X connect 37 1 42 0;
#X connect 38 0 28 1;
#X connect 39 0 36 1;
#X connect 40 0 38 1;
#X connect 41 0 39 0;
#X connect 42 0 40 0;
#X restore 45 -298 pd color_control;
#N canvas 0 23 450 300 sw 0;
#X obj 197 44 r \$2-rowmetros_sw;
#X obj 256 90 t l l;
#X msg 305 90 \$1;
#X obj 305 114 == \$1;
#X obj 256 114 spigot;
#X msg 225 114 \$2;
#X obj 197 67 route float list;
#X obj 197 114 f;
#X obj 229 171 outlet;
#X obj 197 145 t f f;
#X obj 197 195 s \$0-swval;
#X connect 0 0 6 0;
#X connect 1 0 4 0;
#X connect 1 1 2 0;
#X connect 2 0 3 0;
#X connect 3 0 4 1;
#X connect 4 0 5 0;
#X connect 5 0 7 0;
#X connect 6 0 7 0;
#X connect 6 1 1 0;
#X connect 7 0 9 0;
#X connect 9 0 10 0;
#X connect 9 1 8 0;
#X restore 115 -219 pd sw;
#N canvas 0 23 450 300 metro 0;
#X obj 4 5 inlet;
#X obj 4 275 outlet;
#X obj 4 201 metro;
#X obj 12 80 r \$2-rowmetros_set;
#X obj 173 126 t l l;
#X msg 224 126 \$1;
#X obj 224 150 == \$1, f 6;
#X obj 173 150 spigot;
#X msg 58 149 \$2;
#X obj 12 102 route float list;
#X obj 12 179 f;
#X obj 17 126 r \$2-rowbeatgroup_set;
#X obj 17 149 t b f;
#X obj 40 179 /;
#X msg 67 179 1;
#X obj 99 179 loadbang;
#X connect 0 0 2 0;
#X connect 2 0 1 0;
#X connect 3 0 9 0;
#X connect 4 0 7 0;
#X connect 4 1 5 0;
#X connect 5 0 6 0;
#X connect 6 0 7 1;
#X connect 7 0 8 0;
#X connect 8 0 10 0;
#X connect 9 0 10 0;
#X connect 9 1 4 0;
#X connect 10 0 13 0;
#X connect 11 0 12 0;
#X connect 12 0 10 0;
#X connect 12 1 13 1;
#X connect 13 0 2 1;
#X connect 14 0 13 1;
#X connect 15 0 14 0;
#X restore 115 -197 pd metro;
#N canvas 327 48 1113 484 beatpattern 0;
#X obj 132 14 inlet;
#X msg 202 195 1;
#N canvas 0 23 450 300 rot 0;
#X obj 120 24 inlet;
#X obj 20 24 inlet;
#X obj 120 46 list store;
#X obj 38 76 list length;
#X obj 20 99 mod;
#X obj 20 123 f;
#X obj 53 146 list store;
#X obj 53 168 outlet;
#X msg 53 123 get \$1 1;
#X connect 0 0 2 0;
#X connect 1 0 4 0;
#X connect 2 0 3 0;
#X connect 2 0 6 1;
#X connect 3 0 4 1;
#X connect 4 0 5 0;
#X connect 5 0 8 0;
#X connect 6 0 7 0;
#X connect 8 0 6 0;
#X restore 152 195 pd rot;
#X obj 123 195 ==;
#X obj 91 147 t f f;
#X obj 132 147 f;
#X obj 161 147 + 1;
#X msg 189 147 1;
#X obj 252 196 f;
#X obj 252 218 + 1;
#X obj 49 147 sel 1;
#X obj 123 218 sel 1;
#X obj 220 125 r \$0-rowbeat_newcycle;
#X obj 305 147 r \$0-rowbeat_reset;
#X obj 220 147 t b b;
#X obj 123 240 s \$0-rowbeat_newcycle;
#X obj 263 147 t b b;
#X obj 394 101 r \$2-ready;
#X obj 394 123 t b b;
#X msg 295 172 0;
#X obj 152 170 r \$0-patls;
#X obj 49 309 outlet;
#X obj 568 212 s \$0-rowbeat_reset;
#X obj 526 212 t a b;
#X obj 526 235 s \$0-patls;
#X obj 585 145 list split 1;
#X obj 558 190 list store;
#X msg 585 168 \$1;
#X obj 585 123 r \$2-row_beatpat_set;
#X obj 526 101 r \$2-allrows_beatpat_set;
#X obj 535 168 sel \$1;
#X connect 0 0 5 0;
#X connect 1 0 2 1;
#X connect 2 0 3 1;
#X connect 3 0 11 0;
#X connect 4 0 10 0;
#X connect 4 1 3 0;
#X connect 5 0 6 0;
#X connect 5 0 4 0;
#X connect 6 0 5 1;
#X connect 7 0 5 1;
#X connect 8 0 9 0;
#X connect 8 0 2 0;
#X connect 9 0 8 1;
#X connect 10 0 21 0;
#X connect 11 0 15 0;
#X connect 12 0 14 0;
#X connect 13 0 16 0;
#X connect 14 0 7 0;
#X connect 14 1 8 0;
#X connect 16 0 14 0;
#X connect 16 1 19 0;
#X connect 17 0 18 0;
#X connect 18 0 16 0;
#X connect 18 1 1 0;
#X connect 19 0 8 0;
#X connect 20 0 2 1;
#X connect 23 0 24 0;
#X connect 23 1 22 0;
#X connect 25 0 27 0;
#X connect 25 1 26 1;
#X connect 26 0 23 0;
#X connect 27 0 30 0;
#X connect 28 0 25 0;
#X connect 29 0 23 0;
#X connect 30 0 26 0;
#X restore 114 -174 pd beatpattern;
#N canvas 0 23 450 300 del 0;
#X obj 42 -13 inlet;
#X obj 42 135 delay;
#X obj 74 18 r \$2-rowdel_set;
#X obj 133 63 t l l;
#X msg 182 63 \$1;
#X obj 182 87 == \$1;
#X obj 133 87 spigot;
#X msg 102 87 \$2;
#X obj 74 40 route float list;
#X obj 74 87 f;
#X msg 89 130 0;
#X obj 89 108 r \$2-cloneloadbang;
#X obj 42 158 outlet;
#X connect 0 0 1 0;
#X connect 1 0 12 0;
#X connect 2 0 8 0;
#X connect 3 0 6 0;
#X connect 3 1 4 0;
#X connect 4 0 5 0;
#X connect 5 0 6 1;
#X connect 6 0 7 0;
#X connect 7 0 9 0;
#X connect 8 0 9 0;
#X connect 8 1 3 0;
#X connect 9 0 1 1;
#X connect 10 0 1 1;
#X connect 11 0 10 0;
#X restore 114 -151 pd del;
#N canvas 0 23 605 802 numset_dir 1;
#X obj 51 635 f;
#X obj 81 635 + 1;
#X msg 112 657 0;
#X obj 112 636 r \$2-cloneloadbang;
#X obj 99 613 r \$0-localdir;
#X obj 51 659 outlet;
#X obj 51 63 inlet;
#X obj 77 473 r \$2-allrows_num_set;
#X obj 90 494 r \$2-row_num_set;
#X obj 149 538 t l l;
#X msg 198 538 \$1;
#X obj 198 562 == \$1;
#X obj 149 562 spigot;
#X msg 118 562 \$2;
#X obj 90 515 route float list;
#X obj 90 562 f;
#X obj 364 245 t a b;
#X obj 423 178 list split 1;
#X obj 396 223 list store;
#X msg 423 201 \$1;
#X obj 373 201 sel \$1;
#X obj 364 134 r \$2-allrows_dirpat_set;
#X obj 423 156 r \$2-row_dirpat_set;
#X obj 406 245 s \$0-rowdir_reset;
#X obj 364 268 s \$0-dirpatls;
#X msg 190 243 1;
#N canvas 0 23 450 300 rot 0;
#X obj 120 24 inlet;
#X obj 20 24 inlet;
#X obj 120 46 list store;
#X obj 38 76 list length;
#X obj 20 99 mod;
#X obj 20 123 f;
#X obj 53 146 list store;
#X obj 53 168 outlet;
#X msg 53 123 get \$1 1;
#X connect 0 0 2 0;
#X connect 1 0 4 0;
#X connect 2 0 3 0;
#X connect 2 0 6 1;
#X connect 3 0 4 1;
#X connect 4 0 5 0;
#X connect 5 0 8 0;
#X connect 6 0 7 0;
#X connect 8 0 6 0;
#X restore 140 243 pd rot;
#X obj 83 243 f;
#X obj 112 243 + 1;
#X msg 101 221 0;
#X obj 140 268 s \$0-localdir;
#X obj 101 200 r \$0-rowdir_reset;
#X obj 179 222 r \$0-dirpatls;
#X obj 221 243 r \$2-cloneloadbang;
#X obj 51 189 t b b;
#X connect 0 0 1 0;
#X connect 0 0 5 0;
#X connect 1 0 0 1;
#X connect 2 0 0 1;
#X connect 3 0 2 0;
#X connect 4 0 1 1;
#X connect 6 0 34 0;
#X connect 7 0 15 0;
#X connect 8 0 14 0;
#X connect 9 0 12 0;
#X connect 9 1 10 0;
#X connect 10 0 11 0;
#X connect 11 0 12 1;
#X connect 12 0 13 0;
#X connect 13 0 15 0;
#X connect 14 0 15 0;
#X connect 14 1 9 0;
#X connect 15 0 0 1;
#X connect 16 0 24 0;
#X connect 16 1 23 0;
#X connect 17 0 19 0;
#X connect 17 1 18 1;
#X connect 18 0 16 0;
#X connect 19 0 20 0;
#X connect 20 0 18 0;
#X connect 21 0 16 0;
#X connect 22 0 17 0;
#X connect 25 0 26 1;
#X connect 26 0 30 0;
#X connect 27 0 28 0;
#X connect 27 0 26 0;
#X connect 28 0 27 1;
#X connect 29 0 27 1;
#X connect 31 0 29 0;
#X connect 32 0 26 1;
#X connect 33 0 25 0;
#X connect 34 0 0 0;
#X connect 34 1 27 0;
#X restore 114 -129 pd numset_dir;
#X obj 846 137 s \$0-colnum;
#X obj 114 -43 mod;
#X obj 114 -21 + 1;
#X obj 142 -43 r \$0-colnum;
#N canvas 0 23 450 300 phase 0;
#X obj 52 19 inlet;
#X obj 52 179 outlet;
#X obj 52 148 +;
#X obj 140 124 t l l;
#X msg 189 124 \$1;
#X obj 189 148 == \$1;
#X obj 140 148 spigot;
#X msg 109 148 \$2;
#X obj 81 101 route float list;
#X obj 81 148 f;
#X obj 81 78 r \$2-rowphase_set;
#X connect 0 0 2 0;
#X connect 2 0 1 0;
#X connect 3 0 6 0;
#X connect 3 1 4 0;
#X connect 4 0 5 0;
#X connect 5 0 6 1;
#X connect 6 0 7 0;
#X connect 7 0 9 0;
#X connect 8 0 9 0;
#X connect 8 1 3 0;
#X connect 9 0 2 1;
#X connect 10 0 8 0;
#X restore 114 -106 pd phase;
#X obj 102 199 f;
#X obj 126 436 s \$2-update_vals;
#X obj 103 381 t l l l;
#X msg 126 409 \$1 \$2;
#X obj 125 305 tabwrite \$2-acellsR;
#X obj 255 231 f \$1;
#X obj 102 229 t f f b;
#N canvas 0 129 1307 749 row_avoid_activecols 0;
#X obj 34 22 inlet;
#X obj 28 501 s \$0-auxrow_col;
#X obj 615 329 spigot;
#X msg 677 301 1;
#X msg 707 301 0;
#X obj 736 301 r \$2-cloneloadbang;
#N canvas 0 23 836 671 crcheck 0;
#X obj 71 50 r \$2-mode;
#X obj 71 74 route colrow;
#X obj 62 153 outlet;
#X obj 111 153 outlet;
#X connect 0 0 1 0;
#X connect 1 0 2 0;
#X connect 1 1 3 0;
#X restore 678 278 pd crcheck;
#X text 755 281 colrowmode?;
#X obj 615 273 sel 1;
#X obj 615 300 f;
#X obj 80 66 f;
#X obj 108 34 r \$0-auxrow_col;
#X obj 80 90 route 0;
#X obj 618 400 s \$0-auxrow_lastcol;
#X obj 619 371 f;
#X obj 34 44 t f f b f;
#X obj 509 174 tabread \$2-acellsC;
#X obj 509 197 != \$1;
#X text 108 198 active row for this same col (if matches \, should
not be turned off);
#X obj 679 207 !=;
#X obj 679 184 tabread \$2-acellsR;
#X obj 679 130 f \$1;
#X obj 611 238 &&;
#X text 712 205 last row is not equal this same row?;
#X obj 509 151 - 1;
#X obj 679 154 - 1;
#X obj 343 357 r \$2-cloneloadbang;
#N canvas 671 116 836 671 crcheck 0;
#X obj 71 50 r \$2-mode;
#X obj 62 153 outlet;
#X obj 111 153 outlet;
#X obj 71 74 route colrow;
#X connect 0 0 3 0;
#X connect 3 0 1 0;
#X connect 3 1 2 0;
#X restore 285 334 pd crcheck;
#X text 362 337 colrowmode?;
#X msg 284 357 0;
#X msg 314 357 1;
#X obj 287 386 spigot;
#X obj 291 428 f;
#X obj 659 105 t f b f f;
#X obj 290 486 s \$0-auxrow_lastcol;
#X obj 276 34 r \$0-swval;
#X obj 243 86 f;
#X obj 276 57 sel 0;
#X obj 243 111 s \$0-auxrow_lastcoloff;
#X obj 119 64 t f f;
#X connect 0 0 15 0;
#X connect 2 0 14 0;
#X connect 3 0 2 1;
#X connect 4 0 2 1;
#X connect 5 0 4 0;
#X connect 6 0 3 0;
#X connect 6 1 4 0;
#X connect 8 0 9 0;
#X connect 9 0 2 0;
#X connect 10 0 12 0;
#X connect 11 0 39 0;
#X connect 12 1 33 0;
#X connect 14 0 13 0;
#X connect 15 0 1 0;
#X connect 15 2 10 0;
#X connect 16 0 17 0;
#X connect 17 0 22 0;
#X connect 17 0 8 0;
#X connect 19 0 22 1;
#X connect 20 0 19 0;
#X connect 21 0 25 0;
#X connect 24 0 16 0;
#X connect 25 0 20 0;
#X connect 26 0 30 0;
#X connect 27 0 29 0;
#X connect 27 1 30 0;
#X connect 29 0 31 1;
#X connect 30 0 31 1;
#X connect 31 0 32 0;
#X connect 32 0 34 0;
#X connect 33 0 24 0;
#X connect 33 1 21 0;
#X connect 33 2 9 1;
#X connect 33 2 19 1;
#X connect 33 3 31 0;
#X connect 35 0 37 0;
#X connect 36 0 38 0;
#X connect 37 0 36 0;
#X connect 39 0 36 1;
#X connect 39 1 10 1;
#X restore 114 67 pd row_avoid_activecols;
#X obj 255 254 - 1;
#X obj 114 -81 spigot;
#X obj 162 -81 r \$0-swval;
#X obj 412 183 r \$0-auxrow_lastcoloff;
#X connect 1 0 9 0;
#X connect 2 0 10 0;
#X connect 7 0 14 0;
#X connect 8 0 27 0;
#X connect 9 0 34 0;
#X connect 10 0 6 0;
#X connect 11 0 16 0;
#X connect 12 0 13 0;
#X connect 13 0 15 0;
#X connect 14 0 12 0;
#X connect 14 1 13 1;
#X connect 15 0 18 0;
#X connect 16 0 8 0;
#X connect 16 1 7 0;
#X connect 19 0 32 0;
#X connect 20 0 2 0;
#X connect 22 0 23 0;
#X connect 23 0 24 0;
#X connect 24 0 25 0;
#X connect 25 0 26 0;
#X connect 26 0 31 0;
#X connect 28 0 29 0;
#X connect 29 0 39 0;
#X connect 30 0 28 1;
#X connect 31 0 41 0;
#X connect 32 0 38 0;
#X connect 34 0 5 0;
#X connect 34 1 35 0;
#X connect 35 0 33 0;
#X connect 37 0 40 0;
#X connect 38 0 1 0;
#X connect 38 1 36 0;
#X connect 38 2 37 0;
#X connect 40 0 36 1;
#X connect 41 0 28 0;
#X connect 42 0 41 1;
#X connect 43 0 2 0;
#X coords 0 732 1 731 22 22 0;
