#N canvas 605 23 1440 855 10;
#X obj 1 29 cnv 3 800 3 empty empty description 12 12 0 12 -128992
-66577 0;
#X obj 1 113 cnv 3 800 3 empty empty inlets 8 12 0 13 -228856 -1 0
;
#X obj 83 119 cnv 18 3 17 empty empty 0 5 9 0 14 -228856 -162280 0
;
#X obj 1 273 cnv 3 800 3 empty empty outlets 8 12 0 13 -228856 -1 0
;
#X obj 83 281 cnv 18 3 17 empty empty 0 5 9 0 14 -228856 -162280 0
;
#X obj 1 413 cnv 3 800 3 empty empty example 8 12 0 13 -228856 -1 0
;
#X obj 1 1 cnv 3 800 3 empty empty mtxstep 14 14 1 16 -128992 -66577
0;
#N canvas 0 23 1183 557 (subpatch) 0;
#X obj 347 40 pdcontrol;
#X obj 13 8 inlet;
#X msg 14 40 browse http://josehenriquepadovani.com;
#X connect 1 0 2 0;
#X connect 2 0 0 0;
#X coords 0 -1 1 1 1 1 2 1 1;
#X restore 656 91 pd;
#X msg 656 77 José H. Padovani \, 2020;
#X text 650 7 planifolia \, v.0.1.0;
#X text 694 96 tested on pd 0.51;
#X text 32 50 a vanilla abstraction/GUI to create polymetric \, pattern-based
step sequencers.;
#X text 104 121 commands:;
#X text 176 133 ms \, sec \, bpm \, cps;
#X text 224 146 num/phase;
#X text 224 172 del/delay;
#X text 248 212 color;
#X text 218 225 colorreset;
#X text 224 120 sw \, float;
#X text 288 120 switch metro(s) on/off;
#X text 288 133 tempo setting;
#X text 288 145 jump to specific cell on next beat;
#X text 288 172 set delay of a specific metro (in ms);
#X text 194 185 dirpat/steppat;
#X text 288 184 direction/step pattern (default 1);
#X text 164 198 beatpat/beatpattern;
#X text 288 198 beat pattern (in beat divisions);
#X text 288 212 color setting (see syntax below);
#X text 288 225 reset to the default color;
#X text 272 238 +;
#X text 408 237 col row matrix element get set setrows setcols setsize
setcellsize setnewargs mtxdump;
#N canvas 224 400 1183 557 (subpatch) 0;
#X obj 13 46 pdcontrol;
#X obj 13 8 inlet;
#X msg 13 65 \; pd open mtxgui-help.pd \$1 \;;
#X msg 13 27 dir 0;
#X connect 0 0 2 0;
#X connect 1 0 3 0;
#X connect 3 0 0 0;
#X coords 0 -1 1 1 1 1 2 1 1;
#X restore 710 407 pd;
#X msg 710 393 mtxgui-help.pd;
#X obj 991 550 mtxstep 2 3;
#X msg 1107 533 row 2 0 1 0;
#X msg 949 509 matrix;
#X msg 999 476 sw \$1;
#X obj 952 436 tgl 15 0 empty empty empty 17 7 0 10 -262144 -1 -1 0
1;
#X msg 1068 466 set 2 1 1;
#X obj 991 585 print;
#X msg 1021 514 matrix 2 3 1 0 1 0 1 0;
#X obj 985 693 mtxstep 8 4;
#X msg 991 666 sw \$1;
#X obj 989 641 tgl 15 0 empty empty empty 17 7 0 10 -262144 -1 -1 0
1;
#X msg 1053 629 mode colrow;
#X msg 1055 653 num col 2 1;
#X msg 821 642 colorreset;
#X msg 1108 720 color hue \$1;
#X obj 1188 647 vsl 15 128 0 255 0 0 empty empty empty 0 -9 0 10 -262144
-1 -1 0 1;
#X obj 948 647 tgl 15 0 empty empty empty 17 7 0 10 -262144 -1 -1 0
1;
#X text 105 280 the abstraction uses only one real output \, but uses
tags to route the following info:;
#X text 146 309 cellon:;
#X text 195 309 [list] retrieves list if current cell is on (row col
val);
#X text 152 329 idxon:;
#X text 195 329 [list] retrieves list if current cell is on (idx val)
;
#X text 195 349 [list] retrieves list if current cell is off (row col
0);
#X text 140 349 celloff:;
#X text 146 369 idxoff:;
#X text 195 369 [list] retrieves list if current cell is off (idx 0)
;
#X text 182 388 +;
#X text 198 388 lists with mtxgui output tags: cell/row/col/changed/mtx*
;
#X text 288 238 mtxgui* methods...;
#X text 674 394 *see:;
#X obj 1082 277 mtxstep 4 8;
#X obj 118 478 tgl 15 0 empty empty empty 17 7 0 10 -262144 -1 -1 0
1;
#X msg 643 507 mode colrow;
#X msg 643 489 mode row;
#X msg 484 676 dirpat row 1 -1;
#X msg 386 760 dirpat row 1 1 1 1 1 -1 -1 -1 -1 -1 -1 -1 -1;
#X msg -135 799 dirpat 1;
#X obj 781 853 tgl 15 0 empty empty empty 17 7 0 10 -262144 -1 -1 0
1;
#X msg 786 873 sw row 7 \$1;
#X msg 803 808 bpm row 7 72 2;
#X msg 793 831 bpm row 7 72 3;
#X msg 644 813 dirpat row 7 0.5;
#X obj 506 579 s \$0-in1;
#X obj 547 554 tgl 15 0 empty empty empty 17 7 0 10 -262144 -1 -1 1
1;
#X text 543 539 all metros on/off;
#X obj 646 602 tgl 15 0 empty empty empty 17 7 0 10 -262144 -1 -1 0
1;
#X obj 740 602 s \$0-in1;
#X text 664 586 col metro on/off;
#X msg 664 602 sw col 6 \$1;
#N canvas 0 23 450 300 load_somevals 0;
#X obj 16 110 outlet;
#X obj 16 23 loadbang;
#X obj 73 22 inlet;
#X msg 68 109 bpm 72 4;
#X msg 16 41 matrix 8 16 1 0 0 0 1 0 1 0 1 0 0 1 1 0 1 0 1 1 0 0 0
1 0 0 0 1 0 0 0 1 0 1 1 0 0 0 1 0 1 0 0 1 0 0 1 0 1 0 0 0 1 0 0 1 0
1 0 0 1 0 1 0 0 0 1 1 1 1 1 1 1 1 1 1 1 1 1 1 1 1 1 1 0 1 0 1 0 1 0
1 0 1 1 0 1 0 1 1 1 1 1 1 1 1 1 1 1 1 1 1 1 1 1 0 1 0 1 0 0 0 0 0 1
0 1 0 1 0;
#X connect 1 0 4 0;
#X connect 1 0 3 0;
#X connect 2 0 4 0;
#X connect 2 0 3 0;
#X connect 3 0 0 0;
#X connect 4 0 0 0;
#X restore 197 503 pd load_somevals;
#N canvas 277 78 1163 812 synths 0;
#X obj 33 21 inlet;
#X obj 33 40 route cellon celloff;
#X obj 249 563 catch~ \$0-L;
#X obj 249 594 dac~;
#X obj 339 563 catch~ \$0-R;
#X obj 376 611 env~;
#X obj 34 186 bng 15 250 50 0 empty empty empty 17 7 0 10 -262144 -1
-1;
#X obj 34 216 bng 15 250 50 0 empty empty empty 17 7 0 10 -262144 -1
-1;
#X obj 118 246 + 1;
#X obj 34 246 bng 15 250 50 0 empty empty empty 17 7 0 10 -262144 -1
-1;
#X obj 54 246 random 2;
#X obj 118 276 + 1;
#X obj 34 276 bng 15 250 50 0 empty empty empty 17 7 0 10 -262144 -1
-1;
#X obj 118 306 + 1;
#X obj 34 306 bng 15 250 50 0 empty empty empty 17 7 0 10 -262144 -1
-1;
#X obj 54 306 random 32;
#X obj 118 336 + 1;
#X obj 34 336 bng 15 250 50 0 empty empty empty 17 7 0 10 -262144 -1
-1;
#X obj 54 336 random 11;
#X obj 34 101 route 1 2 3 4 5 6 7 8;
#X obj 118 366 + 1;
#X obj 34 366 bng 15 250 50 0 empty empty empty 17 7 0 10 -262144 -1
-1;
#X obj 54 367 random 14;
#X obj 118 396 + 1;
#X obj 34 396 bng 15 250 50 0 empty empty empty 17 7 0 10 -262144 -1
-1;
#X obj 54 397 random 10;
#X obj 222 246 clone -s 1 sndabs 2 \$0 2 conga 90 96 -400 10 30 60
;
#X floatatom 383 641 5 0 0 0 - - -;
#X obj 222 397 clone -s 1 sndabs 10 \$0 10 caxi 88 95 0 100 40 80;
#X msg 143 366 \$1 noteon;
#X msg 143 396 \$1 noteon;
#X msg 143 336 \$1 noteon;
#X msg 143 306 \$1 noteon;
#X msg 143 277 \$1 noteon;
#X msg 143 246 \$1 noteon;
#X msg 143 216 \$1 noteon;
#X msg 143 186 \$1 noteon;
#X obj 222 337 clone -s 1 sndabs 11 \$0 11 ago 93 95 -10 10 40 80;
#X obj 222 367 clone -s 1 sndabs 14 \$0 14 cctri 95 99 -10 10 75 80
;
#X obj 222 307 clone -s 1 sndabs 32 \$0 32 pand 99 103 0 500 40 80
;
#X obj 221 277 clone -s 1 sndabs 17 \$0 17 ganza 90 96 -400 10 30 60
;
#X obj 54 276 random 17;
#X obj 118 186 + 2;
#X obj 54 186 random 1;
#X text 547 185 only surdo2 works better :);
#X obj 222 185 clone -s 2 sndabs 1 \$0 1 surdo 94 96 800 850 10 40
;
#X obj 118 216 + 3;
#X obj 54 216 random 2;
#X obj 222 216 clone -s 3 sndabs 2 \$0 2 zab 96 100 300 350 80 100
;
#X connect 0 0 1 0;
#X connect 1 0 19 0;
#X connect 2 0 3 0;
#X connect 2 0 5 0;
#X connect 4 0 3 1;
#X connect 4 0 5 0;
#X connect 5 0 27 0;
#X connect 6 0 43 0;
#X connect 7 0 47 0;
#X connect 8 0 34 0;
#X connect 9 0 10 0;
#X connect 10 0 8 0;
#X connect 11 0 33 0;
#X connect 12 0 41 0;
#X connect 13 0 32 0;
#X connect 14 0 15 0;
#X connect 15 0 13 0;
#X connect 16 0 31 0;
#X connect 17 0 18 0;
#X connect 18 0 16 0;
#X connect 19 0 6 0;
#X connect 19 1 7 0;
#X connect 19 2 9 0;
#X connect 19 3 12 0;
#X connect 19 4 14 0;
#X connect 19 5 17 0;
#X connect 19 6 21 0;
#X connect 19 7 24 0;
#X connect 20 0 29 0;
#X connect 21 0 22 0;
#X connect 22 0 20 0;
#X connect 23 0 30 0;
#X connect 24 0 25 0;
#X connect 25 0 23 0;
#X connect 29 0 38 0;
#X connect 30 0 28 0;
#X connect 31 0 37 0;
#X connect 32 0 39 0;
#X connect 33 0 40 0;
#X connect 34 0 26 0;
#X connect 35 0 48 0;
#X connect 36 0 45 0;
#X connect 41 0 11 0;
#X connect 42 0 36 0;
#X connect 43 0 42 0;
#X connect 46 0 35 0;
#X connect 47 0 46 0;
#X restore 44 701 pd synths;
#X text 289 521 [mtxstep 8 16];
#X text 9 572 surdo;
#X text 21 588 zab;
#X text 9 604 conga;
#X text 15 635 pand;
#X text 21 649 ago;
#X text 9 665 cctri;
#X text 15 680 caxi;
#X obj 130 512 tgl 15 0 empty empty empty 17 7 0 10 -262144 -1 -1 0
1;
#X msg 134 532 sw row 6 \$1;
#X msg 184 549 bpm 72 4;
#X obj 43 551 r \$0-in1;
#X obj 286 587 tgl 15 0 empty empty empty 17 7 0 10 -262144 -1 -1 0
1;
#X obj 420 587 s \$0-in1;
#X text 363 553 row metro on/off;
#X obj 286 571 tgl 15 0 empty empty empty 17 7 0 10 -262144 -1 -1 0
1;
#X obj 420 571 s \$0-in1;
#X obj 43 571 mtxstep 8 16 15;
#X text 9 620 ganza;
#X msg 304 587 sw row 2 \$1;
#X obj 286 618 tgl 15 0 empty empty empty 17 7 0 10 -262144 -1 -1 0
1;
#X obj 420 618 s \$0-in1;
#X obj 286 603 tgl 15 0 empty empty empty 17 7 0 10 -262144 -1 -1 0
1;
#X obj 420 603 s \$0-in1;
#X msg 304 603 sw row 3 \$1;
#X msg 304 618 sw row 4 \$1;
#X obj 286 633 tgl 15 0 empty empty empty 17 7 0 10 -262144 -1 -1 0
1;
#X obj 420 633 s \$0-in1;
#X msg 304 633 sw row 5 \$1;
#X obj 286 649 tgl 15 0 empty empty empty 17 7 0 10 -262144 -1 -1 1
1;
#X obj 420 649 s \$0-in1;
#X msg 304 649 sw row 6 \$1;
#X obj 286 665 tgl 15 0 empty empty empty 17 7 0 10 -262144 -1 -1 0
1;
#X obj 420 665 s \$0-in1;
#X msg 304 665 sw row 7 \$1;
#X obj 286 681 tgl 15 0 empty empty empty 17 7 0 10 -262144 -1 -1 0
1;
#X obj 420 681 s \$0-in1;
#X msg 304 681 sw row 8 \$1;
#X msg 45 517 num 1;
#X msg 7 482 num row 1 1;
#X text 288 158 jump to specific cell immediately;
#X text 188 159 numnow/phasenow;
#X obj 197 486 bng 15 250 50 0 empty empty empty 17 7 0 10 -262144
-1 -1;
#X obj 894 831 s \$0-in1;
#X msg 412 496 bpm \$1 4;
#X obj 122 702 s \$0-swing;
#X obj 421 426 r \$0-swing;
#X floatatom 445 478 5 0 0 0 - - -;
#X obj 105 702 bng 15 250 50 0 empty empty empty 17 7 0 10 -262144
-1 -1;
#X obj 411 477 + 70;
#X msg 304 569 sw row 1 \$1;
#X obj -27 736 print;
#X obj 215 701 route cellon;
#X msg 215 720 \$2;
#X msg 216 805 13 13 14 14;
#X obj 216 763 ls.mode;
#X floatatom 216 782 5 0 0 0 - - -;
#X text 255 782 <-probably in this beatdiv;
#X obj 162 788 print;
#X obj 110 809 f;
#X obj 99 783 bng 15 250 50 0 empty empty empty 17 7 0 10 -262144 -1
-1;
#X obj 110 830 + 1;
#X obj 114 868 s \$0-in1;
#X text 97 765 sync!;
#X obj 215 739 ls.group 8;
#X obj 412 457 random 4;
#X msg 110 848 numnow \$1;
#X msg 496 646 dirpat 1 \, num 1;
#X msg 494 728 dirpat row 6 1 1 1 1 4;
#X msg 512 706 beatpat row 7 1 1 2 1 3 1;
#X connect 8 0 7 0;
#X connect 32 0 31 0;
#X connect 33 0 39 0;
#X connect 34 0 33 0;
#X connect 35 0 33 0;
#X connect 36 0 33 0;
#X connect 37 0 36 0;
#X connect 38 0 33 0;
#X connect 40 0 33 0;
#X connect 42 0 41 0;
#X connect 43 0 42 0;
#X connect 44 0 41 0;
#X connect 45 0 41 0;
#X connect 46 0 41 0;
#X connect 47 0 41 0;
#X connect 48 0 47 0;
#X connect 49 0 41 0;
#X connect 67 0 75 0;
#X connect 70 0 71 0;
#X connect 73 0 127 0;
#X connect 76 0 75 0;
#X connect 78 0 81 0;
#X connect 81 0 79 0;
#X connect 82 0 101 0;
#X connect 92 0 93 0;
#X connect 94 0 101 0;
#X connect 95 0 101 0;
#X connect 96 0 103 0;
#X connect 99 0 134 0;
#X connect 101 0 83 0;
#X connect 101 0 132 0;
#X connect 101 0 136 0;
#X connect 103 0 97 0;
#X connect 104 0 109 0;
#X connect 106 0 108 0;
#X connect 108 0 107 0;
#X connect 109 0 105 0;
#X connect 110 0 112 0;
#X connect 112 0 111 0;
#X connect 113 0 115 0;
#X connect 115 0 114 0;
#X connect 116 0 118 0;
#X connect 118 0 117 0;
#X connect 119 0 121 0;
#X connect 121 0 120 0;
#X connect 122 0 101 0;
#X connect 123 0 101 0;
#X connect 126 0 82 0;
#X connect 130 0 149 0;
#X connect 132 0 129 0;
#X connect 133 0 128 0;
#X connect 133 0 131 0;
#X connect 134 0 100 0;
#X connect 136 0 137 0;
#X connect 137 0 148 0;
#X connect 139 0 140 0;
#X connect 140 0 142 0;
#X connect 140 0 143 1;
#X connect 143 0 145 0;
#X connect 144 0 143 0;
#X connect 145 0 150 0;
#X connect 148 0 139 0;
#X connect 149 0 133 0;
#X connect 150 0 146 0;
#X connect 151 0 75 0;
#X connect 152 0 75 0;
#X connect 153 0 75 0;
