#N canvas -17 27 1165 1035 12;
#X obj 3 5 inlet;
#X obj 102 496 pack 0 \$1 1;
#X obj 314 490 pack 0 \$1 0;
#X text 311 449 turn-off last val;
#X text 99 453 turn-on this val;
#X obj 102 557 s \$2-read;
#X obj 314 554 s \$2-noread;
#X obj 955 393 v \$2-mtx-rows;
#X obj 846 417 v \$2-mtx-cols;
#X msg 102 521 \$2 \$1 \$3;
#X msg 314 519 \$2 \$1 \$3;
#X obj 846 365 r \$2-cloneloadbang;
#X msg 955 436 255;
#X obj 969 458 /;
#X obj 955 415 t b f;
#X obj 969 481 * \$1;
#X obj 846 391 t b b;
#X text 1011 483 hue;
#X obj 969 504 s \$0-hue;
#X obj 102 472 r \$0-auxrow_col;
#X obj 314 467 r \$0-auxrow_lastcol;
#N canvas 0 23 454 893 color_control 0;
#X obj 26 367 pack 0 \$1 0;
#X obj 25 77 pack 0 \$1 0;
#X obj 12 504 s \$2-colors;
#X obj 125 100 r \$2-isatvalon;
#X obj 41 100 list append;
#X msg 41 143 cellcolorons \$2 \$1 \$3 \$4 \$5;
#X obj 26 194 list append;
#X obj 110 194 r \$2-isatvaloff;
#X msg 26 247 cellcoloroffs \$2 \$1 0 \$4 \$5;
#X obj 35 393 list append;
#X msg 36 415 cellcolorons \$2 \$1 \$3 \$4 \$5;
#X obj 26 459 list append;
#X msg 12 482 cellcoloroffs \$2 \$1 0 \$4 \$5;
#X obj 119 393 r \$2-asatvalon;
#X obj 110 459 r \$2-asatvaloff;
#X obj 100 344 r \$0-hue;
#X obj 99 55 r \$0-hue;
#X obj 26 318 r \$0-auxrow_col;
#X text 33 294 active color;
#X obj 25 33 r \$0-auxrow_lastcol;
#X obj 26 271 s \$2-colors;
#X obj 41 165 s \$2-colors;
#X obj 36 437 s \$2-colors;
#X text 24 15 inactive color;
#X connect 0 0 9 0;
#X connect 0 0 11 0;
#X connect 1 0 4 0;
#X connect 1 0 6 0;
#X connect 3 0 4 1;
#X connect 4 0 5 0;
#X connect 5 0 21 0;
#X connect 6 0 8 0;
#X connect 7 0 6 1;
#X connect 8 0 20 0;
#X connect 9 0 10 0;
#X connect 10 0 22 0;
#X connect 11 0 12 0;
#X connect 12 0 2 0;
#X connect 13 0 9 1;
#X connect 14 0 11 1;
#X connect 15 0 0 2;
#X connect 16 0 1 2;
#X connect 17 0 0 0;
#X connect 19 0 1 0;
#X restore 45 5 pd color_control;
#N canvas 0 23 450 300 sw 0;
#X obj 197 44 r \$2-rowmetros_sw;
#X obj 256 90 t l l;
#X msg 305 90 \$1;
#X obj 305 114 == \$1;
#X obj 256 114 spigot;
#X msg 225 114 \$2;
#X obj 197 67 route float list;
#X obj 197 114 f;
#X obj 197 141 outlet;
#X connect 0 0 6 0;
#X connect 1 0 4 0;
#X connect 1 1 2 0;
#X connect 2 0 3 0;
#X connect 3 0 4 1;
#X connect 4 0 5 0;
#X connect 5 0 7 0;
#X connect 6 0 7 0;
#X connect 6 1 1 0;
#X connect 7 0 8 0;
#X restore 115 124 pd sw;
#N canvas 0 23 450 300 metro 0;
#X obj 4 5 inlet;
#X obj 4 275 outlet;
#X obj 4 201 metro;
#X obj 12 80 r \$2-rowmetros_set;
#X obj 173 126 t l l;
#X msg 224 126 \$1;
#X obj 224 150 == \$1, f 6;
#X obj 173 150 spigot;
#X msg 58 149 \$2;
#X obj 12 102 route float list;
#X obj 12 179 f;
#X obj 17 126 r \$2-rowbeatgroup_set;
#X obj 17 149 t b f;
#X obj 40 179 /;
#X msg 67 179 1;
#X obj 99 179 loadbang;
#X connect 0 0 2 0;
#X connect 2 0 1 0;
#X connect 3 0 9 0;
#X connect 4 0 7 0;
#X connect 4 1 5 0;
#X connect 5 0 6 0;
#X connect 6 0 7 1;
#X connect 7 0 8 0;
#X connect 8 0 10 0;
#X connect 9 0 10 0;
#X connect 9 1 4 0;
#X connect 10 0 13 0;
#X connect 11 0 12 0;
#X connect 12 0 10 0;
#X connect 12 1 13 1;
#X connect 13 0 2 1;
#X connect 14 0 13 1;
#X connect 15 0 14 0;
#X restore 115 146 pd metro;
#N canvas 0 23 1113 484 beatpattern 0;
#X obj 132 14 inlet;
#X msg 202 195 1;
#N canvas 0 23 450 300 rot 0;
#X obj 120 24 inlet;
#X obj 20 24 inlet;
#X obj 120 46 list store;
#X obj 38 76 list length;
#X obj 20 99 mod;
#X obj 20 123 f;
#X obj 53 146 list store;
#X obj 53 168 outlet;
#X msg 53 123 get \$1 1;
#X connect 0 0 2 0;
#X connect 1 0 4 0;
#X connect 2 0 3 0;
#X connect 2 0 6 1;
#X connect 3 0 4 1;
#X connect 4 0 5 0;
#X connect 5 0 8 0;
#X connect 6 0 7 0;
#X connect 8 0 6 0;
#X restore 152 195 pd rot;
#X obj 123 195 ==;
#X obj 91 147 t f f;
#X obj 132 147 f;
#X obj 161 147 + 1;
#X msg 189 147 1;
#X obj 252 196 f;
#X obj 252 218 + 1;
#X obj 49 147 sel 1;
#X obj 123 218 sel 1;
#X obj 220 125 r \$0-rowbeat_newcycle;
#X obj 305 147 r \$0-rowbeat_reset;
#X obj 220 147 t b b;
#X obj 123 240 s \$0-rowbeat_newcycle;
#X obj 263 147 t b b;
#X obj 394 101 r \$2-ready;
#X obj 394 123 t b b;
#X msg 295 172 0;
#X obj 152 170 r \$0-patls;
#X obj 49 309 outlet;
#X obj 568 212 s \$0-rowbeat_reset;
#X obj 526 212 t a b;
#X obj 526 235 s \$0-patls;
#X obj 585 145 list split 1;
#X obj 558 190 list store;
#X msg 585 168 \$1;
#X obj 585 123 r \$2-row_beatpat_set;
#X obj 526 101 r \$2-allrows_beatpat_set;
#X obj 535 168 sel \$1;
#X connect 0 0 5 0;
#X connect 1 0 2 1;
#X connect 2 0 3 1;
#X connect 3 0 11 0;
#X connect 4 0 10 0;
#X connect 4 1 3 0;
#X connect 5 0 6 0;
#X connect 5 0 4 0;
#X connect 6 0 5 1;
#X connect 7 0 5 1;
#X connect 8 0 9 0;
#X connect 8 0 2 0;
#X connect 9 0 8 1;
#X connect 10 0 21 0;
#X connect 11 0 15 0;
#X connect 12 0 14 0;
#X connect 13 0 16 0;
#X connect 14 0 7 0;
#X connect 14 1 8 0;
#X connect 16 0 14 0;
#X connect 16 1 19 0;
#X connect 17 0 18 0;
#X connect 18 0 16 0;
#X connect 18 1 1 0;
#X connect 19 0 8 0;
#X connect 20 0 2 1;
#X connect 23 0 24 0;
#X connect 23 1 22 0;
#X connect 25 0 27 0;
#X connect 25 1 26 1;
#X connect 26 0 23 0;
#X connect 27 0 30 0;
#X connect 28 0 25 0;
#X connect 29 0 23 0;
#X connect 30 0 26 0;
#X restore 114 169 pd beatpattern;
#N canvas 0 23 450 300 del 0;
#X obj 42 -13 inlet;
#X obj 42 135 delay;
#X obj 74 18 r \$2-rowdel_set;
#X obj 133 63 t l l;
#X msg 182 63 \$1;
#X obj 182 87 == \$1;
#X obj 133 87 spigot;
#X msg 102 87 \$2;
#X obj 74 40 route float list;
#X obj 74 87 f;
#X msg 89 130 0;
#X obj 89 108 r \$2-cloneloadbang;
#X obj 42 158 outlet;
#X connect 0 0 1 0;
#X connect 1 0 12 0;
#X connect 2 0 8 0;
#X connect 3 0 6 0;
#X connect 3 1 4 0;
#X connect 4 0 5 0;
#X connect 5 0 6 1;
#X connect 6 0 7 0;
#X connect 7 0 9 0;
#X connect 8 0 9 0;
#X connect 8 1 3 0;
#X connect 9 0 1 1;
#X connect 10 0 1 1;
#X connect 11 0 10 0;
#X restore 114 192 pd del;
#N canvas 0 23 1010 585 numset_dir 0;
#X obj 51 175 f;
#X obj 81 175 + 1;
#X msg 292 126 0;
#X obj 292 105 r \$2-cloneloadbang;
#X obj 109 175 r \$0-localdir;
#X obj 51 199 outlet;
#X obj 51 63 inlet;
#X obj 107 39 r \$2-allrows_num_set;
#X obj 120 60 r \$2-row_num_set;
#X obj 179 104 t l l;
#X msg 228 104 \$1;
#X obj 228 128 == \$1;
#X obj 179 128 spigot;
#X msg 148 128 \$2;
#X obj 120 81 route float list;
#X obj 120 128 f;
#X obj 601 88 list split 1;
#X obj 574 133 list store;
#X msg 601 111 \$1;
#X obj 551 111 sel \$1;
#X obj 542 44 r \$2-allrows_dir_set;
#X obj 601 66 r \$2-row_dir_set;
#X obj 542 155 t f f;
#X obj 584 155 != 0;
#X obj 542 178 spigot;
#X obj 542 200 s \$0-localdir;
#X connect 0 0 1 0;
#X connect 0 0 5 0;
#X connect 1 0 0 1;
#X connect 2 0 0 1;
#X connect 3 0 2 0;
#X connect 4 0 1 1;
#X connect 6 0 0 0;
#X connect 7 0 15 0;
#X connect 8 0 14 0;
#X connect 9 0 12 0;
#X connect 9 1 10 0;
#X connect 10 0 11 0;
#X connect 11 0 12 1;
#X connect 12 0 13 0;
#X connect 13 0 15 0;
#X connect 14 0 15 0;
#X connect 14 1 9 0;
#X connect 15 0 0 1;
#X connect 16 0 18 0;
#X connect 16 1 17 1;
#X connect 17 0 22 0;
#X connect 18 0 19 0;
#X connect 19 0 17 0;
#X connect 20 0 22 0;
#X connect 21 0 16 0;
#X connect 22 0 24 0;
#X connect 22 1 23 0;
#X connect 23 0 24 1;
#X connect 24 0 25 0;
#X restore 114 214 pd numset_dir;
#X obj 846 440 s \$0-colnum;
#X obj 114 260 mod;
#X obj 114 282 + 1;
#X obj 142 260 r \$0-colnum;
#N canvas 0 23 450 300 phase 0;
#X obj 52 19 inlet;
#X obj 52 179 outlet;
#X obj 52 148 +;
#X obj 140 124 t l l;
#X msg 189 124 \$1;
#X obj 189 148 == \$1;
#X obj 140 148 spigot;
#X msg 109 148 \$2;
#X obj 81 101 route float list;
#X obj 81 148 f;
#X obj 81 78 r \$2-rowphase_set;
#X connect 0 0 2 0;
#X connect 2 0 1 0;
#X connect 3 0 6 0;
#X connect 3 1 4 0;
#X connect 4 0 5 0;
#X connect 5 0 6 1;
#X connect 6 0 7 0;
#X connect 7 0 9 0;
#X connect 8 0 9 0;
#X connect 8 1 3 0;
#X connect 9 0 2 1;
#X connect 10 0 8 0;
#X restore 114 237 pd phase;
#N canvas 0 433 1307 749 avoid_active_cols 1;
#X obj 34 22 inlet;
#X obj 57 400 s \$0-auxrow_col;
#X obj 165 329 spigot;
#X msg 227 301 1;
#X msg 257 301 0;
#X obj 286 301 r \$2-cloneloadbang;
#N canvas 0 23 836 671 crcheck 0;
#X obj 71 50 r \$2-mode;
#X obj 71 74 route colrow;
#X obj 62 153 outlet;
#X obj 111 153 outlet;
#X connect 0 0 1 0;
#X connect 1 0 2 0;
#X connect 1 1 3 0;
#X restore 228 278 pd crcheck;
#X text 305 281 colrowmode?;
#X obj 395 155 v;
#X floatatom 395 68 5 0 0 0 - - -;
#X obj 395 112 t b l;
#X obj 395 89 pack 0 \$2;
#X floatatom 395 180 5 0 0 0 - - -;
#X obj 165 273 sel 1;
#X obj 165 300 f;
#X obj 80 66 f;
#X obj 108 44 r \$0-auxrow_col;
#X obj 80 90 route 0;
#X obj 168 400 s \$0-auxrow_lastcol;
#X obj 169 371 f;
#X obj 114 329 spigot;
#X msg 110 280 1;
#X msg 79 280 0;
#N canvas 0 23 836 671 crcheck 0;
#X obj 71 50 r \$2-mode;
#X obj 71 74 route colrow;
#X obj 62 153 outlet;
#X obj 111 153 outlet;
#X connect 0 0 1 0;
#X connect 1 0 2 0;
#X connect 1 1 3 0;
#X restore 79 255 pd crcheck;
#X obj 159 508 print r\$1:;
#X obj 432 160 t s s;
#X obj 340 34 t f b f f f;
#X obj 34 44 t f f b f;
#X obj 167 194 !=;
#X obj 606 156 v;
#X floatatom 606 69 5 0 0 0 - - -;
#X obj 606 113 t b l;
#X obj 606 90 pack 0 \$2;
#X floatatom 606 181 5 0 0 0 - - -;
#X obj 643 161 t s s;
#X obj 207 232 &&;
#X msg 427 138 symbol \$2-col-\$1;
#X obj 483 203 ==;
#X msg 638 139 symbol \$2-lastcol-\$1;
#X obj 139 457 pack 0 0 s 0 0 s;
#X msg 139 480 lastval \$4 thisval \$1 col \$3 - \$2 lastcol \$6 -
\$5;
#X text 128 167 apagacol;
#X obj 272 220 != \$1;
#X obj 294 179 t f f;
#X connect 0 0 27 0;
#X connect 2 0 19 0;
#X connect 3 0 2 1;
#X connect 4 0 2 1;
#X connect 5 0 4 0;
#X connect 6 0 3 0;
#X connect 6 1 4 0;
#X connect 8 0 12 0;
#X connect 9 0 11 0;
#X connect 10 0 8 0;
#X connect 10 1 36 0;
#X connect 11 0 10 0;
#X connect 12 0 39 1;
#X connect 12 0 43 0;
#X connect 13 0 14 0;
#X connect 14 0 2 0;
#X connect 15 0 17 0;
#X connect 16 0 15 1;
#X connect 17 1 26 0;
#X connect 19 0 18 0;
#X connect 20 0 19 0;
#X connect 21 0 20 1;
#X connect 22 0 20 1;
#X connect 23 0 22 0;
#X connect 23 1 21 0;
#X connect 25 0 8 1;
#X connect 25 1 39 2;
#X connect 26 0 20 0;
#X connect 26 2 14 1;
#X connect 26 2 28 0;
#X connect 26 3 9 0;
#X connect 26 4 30 0;
#X connect 26 4 37 0;
#X connect 26 4 39 3;
#X connect 27 0 1 0;
#X connect 27 1 39 0;
#X connect 27 2 15 0;
#X connect 28 0 35 0;
#X connect 29 0 33 0;
#X connect 30 0 32 0;
#X connect 31 0 29 0;
#X connect 31 1 38 0;
#X connect 32 0 31 0;
#X connect 33 0 37 1;
#X connect 33 0 39 4;
#X connect 34 0 29 1;
#X connect 34 1 39 5;
#X connect 35 0 13 0;
#X connect 36 0 25 0;
#X connect 38 0 34 0;
#X connect 39 0 40 0;
#X connect 40 0 24 0;
#X connect 42 0 35 1;
#X connect 43 0 28 1;
#X connect 43 1 42 0;
#X restore 114 370 pd avoid_active_cols;
#X obj 146 329 v \$2-row-\$1;
#X obj 114 306 t f f;
#X connect 1 0 9 0;
#X connect 2 0 10 0;
#X connect 7 0 14 0;
#X connect 8 0 27 0;
#X connect 9 0 5 0;
#X connect 10 0 6 0;
#X connect 11 0 16 0;
#X connect 12 0 13 0;
#X connect 13 0 15 0;
#X connect 14 0 12 0;
#X connect 14 1 13 1;
#X connect 15 0 18 0;
#X connect 16 0 8 0;
#X connect 16 1 7 0;
#X connect 19 0 1 0;
#X connect 20 0 2 0;
#X connect 22 0 23 0;
#X connect 23 0 24 0;
#X connect 24 0 25 0;
#X connect 25 0 26 0;
#X connect 26 0 31 0;
#X connect 28 0 29 0;
#X connect 29 0 34 0;
#X connect 30 0 28 1;
#X connect 31 0 28 0;
#X connect 34 0 32 0;
#X connect 34 1 33 0;
#X coords 0 1035 1 1034 22 22 0;
