#N canvas 189 23 1251 855 12;
#X obj 51 40 inlet;
#X obj 63 498 pack 0 \$1 1;
#X obj 310 509 pack 0 \$1 0;
#X text 307 418 turn-off last val;
#X text 60 374 turn-on this val;
#X obj 310 567 s \$2-noread;
#N canvas 0 23 1920 1035 color_control 0;
#X obj 14 604 s \$2-colors;
#X obj 1251 458 r \$2-isatvalon;
#X obj 1097 458 list append;
#X obj 1083 540 list append;
#X obj 1217 540 r \$2-isatvaloff;
#X obj 37 493 list append;
#X obj 28 559 list append;
#X obj 323 445 r \$2-asatvalon;
#X obj 539 488 r \$2-asatvaloff;
#X obj 1156 387 r \$0-hue;
#X text 35 284 active color;
#X obj 1069 587 s \$2-colors;
#X obj 1098 503 s \$2-colors;
#X obj 38 537 s \$2-colors;
#X text 1081 188 inactive color;
#X msg 1098 480 cellcolorons \$1 \$2 \$3 \$4 \$5;
#X msg 1069 563 cellcoloroffs \$1 \$2 0 \$4 \$5;
#X msg 38 515 cellcolorons \$1 \$2 \$3 \$4 \$5;
#X msg 14 582 cellcoloroffs \$1 \$2 0 \$4 \$5;
#X obj 28 431 pack 1 \$1 0;
#X obj 1082 410 pack 1 \$1 0;
#X obj 493 172 pack 0 \$1 0;
#X obj 479 329 s \$2-colors;
#X obj 502 218 list append;
#X obj 493 284 list append;
#X obj 774 102 r \$2-asatvalon;
#X obj 503 262 s \$2-colors;
#X obj 752 227 r \$2-asatvaloff;
#X obj 774 125 unpack 0 0;
#X obj 774 147 pack 0 0;
#X obj 752 249 unpack 0 0;
#X obj 752 271 pack 0 0;
#X obj 855 170 int;
#X obj 819 293 int;
#X obj 855 148 * 0.75;
#X obj 819 271 * 0.75;
#X msg 503 240 cellcolorons \$1 \$2 \$3 \$4 \$5;
#X msg 479 307 cellcoloroffs \$1 \$2 0 \$4 \$5;
#X msg 1082 433 \$2 \$1 \$3;
#X obj 1149 433 r \$0_colrowmess;
#X msg 493 195 \$2 \$1 \$3;
#X obj 560 195 r \$0_colrowmess;
#X msg 28 456 \$2 \$1 \$3;
#X obj 95 456 r \$0_colrowmess;
#X obj 28 308 r \$0-auxval;
#X obj 1082 206 r \$0-auxlast;
#X obj 493 35 r \$0-auxlastoff;
#X obj 567 151 r \$0-hue;
#X obj 186 372 r \$0-hue;
#X obj 186 395 t b f;
#X obj 1189 458 t b l;
#X obj 1172 540 t b l;
#X obj 235 493 t b l;
#X obj 297 493 r \$2-asatvalon;
#X obj 234 560 t b l;
#X obj 296 560 r \$2-asatvaloff;
#X obj 1082 348 f;
#X obj 1698 375 s \$0-hue_col;
#X obj 1780 422 s \$0-hue_list;
#X msg 1714 503 \$1;
#X obj 1714 547 == \$1;
#X obj 1665 547 spigot;
#X obj 1665 503 t l l;
#X msg 1665 525 \$2;
#X obj 1491 484 list prepend set;
#X obj 1665 481 r \$2-hue_\$3;
#X msg 1492 520;
#X obj 1665 595 symbol \$3;
#X obj 1665 617 sel row col;
#X obj 1665 641 v \$2-mtx-cols;
#X obj 1702 664 v \$2-mtx-rows;
#X obj 1727 571 s \$0-hue;
#X obj 1665 696 until;
#X obj 1665 719 f;
#X obj 1703 719 + 1;
#X msg 1707 696 1;
#X obj 1665 571 t b b f;
#X obj 1688 858 - 1;
#X obj 1718 859 tabread \$2-acells\$3;
#X obj 1542 862 r \$0-swval;
#X obj 1665 882 !=;
#X text 1694 886 different? -> inactive;
#X text 1754 481 \$0-hue_row;
#X text 1754 496 \$0-hue_col;
#X obj 1165 256 r \$0-this_inactive;
#X obj 1665 941 f;
#X obj 1665 747 t f f;
#X obj 1665 966 s \$0-this_inactive;
#X obj 1665 910 sel 1;
#X obj 679 788 s \$0-this_active;
#X obj 1514 862 ==;
#X obj 1524 886 &&;
#X obj 1432 862 r \$0-swval;
#X obj 1432 885 - 1;
#X obj 1432 907 abs;
#X obj 1389 862 ==;
#X obj 1399 886 &&;
#X obj 1526 942 f;
#X obj 1526 967 s \$0-this_active;
#X obj 1371 955 f;
#X obj 1371 980 s \$0-this_halfactive;
#X obj 493 132 f;
#X obj 556 94 r \$0-this_halfactive;
#X obj 28 389 f;
#X obj 91 351 r \$0-this_active;
#X obj 1526 914 sel 1;
#X obj 1356 924 sel 1;
#X obj 1720 819 f \$1;
#X obj 1642 783 t f f b f;
#X obj 1539 556 r \$2-hue_float;
#X connect 1 0 50 0;
#X connect 2 0 15 0;
#X connect 3 0 16 0;
#X connect 4 0 51 0;
#X connect 5 0 17 0;
#X connect 6 0 18 0;
#X connect 9 0 20 2;
#X connect 15 0 12 0;
#X connect 16 0 11 0;
#X connect 17 0 13 0;
#X connect 18 0 0 0;
#X connect 19 0 42 0;
#X connect 20 0 38 0;
#X connect 21 0 40 0;
#X connect 23 0 36 0;
#X connect 24 0 37 0;
#X connect 25 0 28 0;
#X connect 27 0 30 0;
#X connect 28 0 29 0;
#X connect 28 1 34 0;
#X connect 29 0 23 1;
#X connect 30 0 31 0;
#X connect 30 1 35 0;
#X connect 31 0 24 1;
#X connect 32 0 29 1;
#X connect 33 0 31 1;
#X connect 34 0 32 0;
#X connect 35 0 33 0;
#X connect 36 0 26 0;
#X connect 37 0 22 0;
#X connect 38 0 2 0;
#X connect 38 0 3 0;
#X connect 39 0 38 0;
#X connect 40 0 23 0;
#X connect 40 0 24 0;
#X connect 41 0 40 0;
#X connect 42 0 5 0;
#X connect 42 0 6 0;
#X connect 43 0 42 0;
#X connect 44 0 103 0;
#X connect 45 0 56 0;
#X connect 46 0 101 0;
#X connect 47 0 21 2;
#X connect 48 0 49 0;
#X connect 49 0 19 0;
#X connect 49 1 19 2;
#X connect 50 0 20 0;
#X connect 50 1 2 1;
#X connect 51 0 20 0;
#X connect 51 1 3 1;
#X connect 52 0 19 0;
#X connect 52 1 5 1;
#X connect 53 0 52 0;
#X connect 54 0 19 0;
#X connect 54 1 6 1;
#X connect 55 0 54 0;
#X connect 56 0 20 0;
#X connect 59 0 60 0;
#X connect 60 0 61 1;
#X connect 61 0 76 0;
#X connect 62 0 63 0;
#X connect 62 1 59 0;
#X connect 63 0 61 0;
#X connect 64 0 66 0;
#X connect 65 0 62 0;
#X connect 65 0 64 0;
#X connect 67 0 68 0;
#X connect 68 0 69 0;
#X connect 68 1 70 0;
#X connect 69 0 72 0;
#X connect 70 0 72 0;
#X connect 72 0 73 0;
#X connect 73 0 74 0;
#X connect 73 0 86 0;
#X connect 73 0 108 0;
#X connect 74 0 73 1;
#X connect 75 0 73 1;
#X connect 76 0 67 0;
#X connect 76 1 75 0;
#X connect 76 2 71 0;
#X connect 77 0 78 0;
#X connect 78 0 80 1;
#X connect 78 0 90 1;
#X connect 78 0 95 1;
#X connect 79 0 91 1;
#X connect 80 0 88 0;
#X connect 84 0 56 0;
#X connect 85 0 87 0;
#X connect 88 0 85 0;
#X connect 90 0 91 0;
#X connect 91 0 105 0;
#X connect 92 0 93 0;
#X connect 93 0 94 0;
#X connect 94 0 96 1;
#X connect 95 0 96 0;
#X connect 96 0 106 0;
#X connect 97 0 98 0;
#X connect 99 0 100 0;
#X connect 101 0 21 0;
#X connect 102 0 101 0;
#X connect 103 0 19 0;
#X connect 104 0 103 0;
#X connect 105 0 97 0;
#X connect 106 0 99 0;
#X connect 107 0 77 0;
#X connect 108 0 95 0;
#X connect 108 1 80 0;
#X connect 108 1 90 0;
#X connect 108 2 107 0;
#X connect 108 3 85 1;
#X connect 108 3 97 1;
#X connect 108 3 99 1;
#X connect 109 0 76 0;
#X restore 93 40 pd color_control;
#X msg 63 523 \$2 \$1 \$3;
#X msg 310 532 \$2 \$1 \$3;
#N canvas 499 23 450 300 sw 0;
#X obj 165 205 t l l;
#X msg 214 205 \$1;
#X obj 214 229 == \$1;
#X obj 165 229 spigot;
#X msg 134 229 \$2;
#X obj 106 182 route float list;
#X obj 106 229 f;
#X obj 106 159 r \$2-\$3metros_sw;
#X obj 138 280 outlet;
#X obj 106 254 t f f;
#X obj 106 304 s \$0-swval;
#X connect 0 0 3 0;
#X connect 0 1 1 0;
#X connect 1 0 2 0;
#X connect 2 0 3 1;
#X connect 3 0 4 0;
#X connect 4 0 6 0;
#X connect 5 0 6 0;
#X connect 5 1 0 0;
#X connect 6 0 9 0;
#X connect 7 0 5 0;
#X connect 9 0 10 0;
#X connect 9 1 8 0;
#X restore 51 87 pd sw;
#N canvas 0 23 450 300 metro 0;
#X obj 9 8 inlet;
#X obj 9 245 outlet;
#X obj 9 223 metro;
#X obj 215 58 t l l;
#X msg 247 80 \$1;
#X obj 247 104 == \$1;
#X obj 215 127 spigot;
#X msg 84 131 \$2;
#X obj 54 54 route float list;
#X obj 54 131 f;
#X obj 59 101 t b f;
#X msg 82 154 1;
#X obj 54 32 r \$2-\$3metros_set;
#X obj 59 78 r \$2-\$3beatgroup_set;
#X floatatom 82 206 5 0 0 0 - - -;
#X obj 113 154 r \$2-cloneloadbang;
#X obj 55 154 / 1;
#X connect 0 0 2 0;
#X connect 2 0 1 0;
#X connect 3 0 6 0;
#X connect 3 1 4 0;
#X connect 4 0 5 0;
#X connect 5 0 6 1;
#X connect 6 0 7 0;
#X connect 7 0 9 0;
#X connect 8 0 9 0;
#X connect 8 1 3 0;
#X connect 9 0 16 0;
#X connect 10 0 9 0;
#X connect 10 1 16 1;
#X connect 11 0 16 1;
#X connect 12 0 8 0;
#X connect 13 0 10 0;
#X connect 15 0 11 0;
#X connect 16 0 2 1;
#X connect 16 0 14 0;
#X restore 51 109 pd metro;
#N canvas 523 23 917 681 beatpattern 0;
#X msg 191 180 1;
#N canvas 0 23 450 300 rot 0;
#X obj 120 24 inlet;
#X obj 20 24 inlet;
#X obj 120 46 list store;
#X obj 38 76 list length;
#X obj 20 99 mod;
#X obj 20 123 f;
#X obj 53 146 list store;
#X obj 53 168 outlet;
#X msg 53 123 get \$1 1;
#X connect 0 0 2 0;
#X connect 1 0 4 0;
#X connect 2 0 3 0;
#X connect 2 0 6 1;
#X connect 3 0 4 1;
#X connect 4 0 5 0;
#X connect 5 0 8 0;
#X connect 6 0 7 0;
#X connect 8 0 6 0;
#X restore 141 180 pd rot;
#X obj 112 180 ==;
#X obj 80 132 t f f;
#X obj 121 132 f;
#X obj 150 132 + 1;
#X msg 198 132 1;
#X obj 261 181 f;
#X obj 261 203 + 1;
#X obj 39 132 sel 1;
#X obj 112 203 sel 1;
#X obj 229 132 t b b;
#X obj 272 132 t b b;
#X obj 403 86 r \$2-ready;
#X obj 403 108 t b b;
#X msg 304 157 0;
#X obj 180 155 r \$0-patls;
#X obj 229 108 r \$0-\$3beat_newcycle;
#X obj 314 132 r \$0-\$3beat_reset;
#X obj 112 225 s \$0-\$3beat_newcycle;
#X obj 121 102 inlet;
#X obj 39 250 outlet;
#X obj 521 199 t a b;
#X obj 521 222 s \$0-patls;
#X obj 580 132 list split 1;
#X obj 553 177 list store;
#X msg 580 155 \$1;
#X obj 530 155 sel \$1;
#X obj 521 88 r \$2-all\$3s_beatpat_set;
#X obj 580 110 r \$2-\$3_beatpat_set;
#X obj 564 199 s \$0-\$3beat_reset;
#X floatatom 123 157 5 0 0 0 - - -;
#X connect 0 0 1 1;
#X connect 1 0 2 1;
#X connect 2 0 10 0;
#X connect 3 0 9 0;
#X connect 3 1 2 0;
#X connect 3 1 31 0;
#X connect 4 0 5 0;
#X connect 4 0 3 0;
#X connect 5 0 4 1;
#X connect 6 0 4 1;
#X connect 7 0 8 0;
#X connect 7 0 1 0;
#X connect 8 0 7 1;
#X connect 9 0 21 0;
#X connect 10 0 19 0;
#X connect 11 0 6 0;
#X connect 11 1 7 0;
#X connect 12 0 11 0;
#X connect 12 1 15 0;
#X connect 13 0 14 0;
#X connect 14 0 12 0;
#X connect 14 1 0 0;
#X connect 15 0 7 0;
#X connect 16 0 1 1;
#X connect 17 0 11 0;
#X connect 18 0 12 0;
#X connect 20 0 4 0;
#X connect 22 0 23 0;
#X connect 22 1 30 0;
#X connect 24 0 26 0;
#X connect 24 1 25 1;
#X connect 25 0 22 0;
#X connect 26 0 27 0;
#X connect 27 0 25 0;
#X connect 28 0 22 0;
#X connect 29 0 24 0;
#X restore 51 131 pd beatpattern;
#N canvas 0 23 863 552 del 0;
#X obj 42 -13 inlet;
#X obj 42 135 delay;
#X msg 89 160 0;
#X obj 89 138 r \$2-cloneloadbang;
#X obj 42 158 outlet;
#X obj 133 83 t l l;
#X msg 182 83 \$1;
#X obj 182 107 == \$1;
#X obj 133 107 spigot;
#X msg 102 107 \$2;
#X obj 74 60 route float list;
#X obj 74 107 f;
#X floatatom 218 39 5 0 0 0 - - -;
#X obj 61 18 r \$2-all\$3s_del_set;
#X obj 74 39 r \$2-\$3_del_set;
#X connect 0 0 1 0;
#X connect 1 0 4 0;
#X connect 2 0 1 1;
#X connect 3 0 2 0;
#X connect 5 0 8 0;
#X connect 5 1 6 0;
#X connect 6 0 7 0;
#X connect 7 0 8 1;
#X connect 8 0 9 0;
#X connect 9 0 11 0;
#X connect 10 0 11 0;
#X connect 10 1 5 0;
#X connect 11 0 1 1;
#X connect 13 0 11 0;
#X connect 14 0 10 0;
#X connect 14 0 12 0;
#X restore 51 153 pd del;
#X obj 51 241 mod;
#X obj 51 263 + 1;
#N canvas 0 23 1028 680 hue 0;
#X obj 20 135 inlet;
#X msg 134 230 255;
#X obj 134 252 /;
#X obj 134 209 t b f;
#X obj 52 258 s \$0-hue;
#X obj 52 235 *;
#X obj 134 187 v \$2-mtx-rows;
#X obj 373 173 v \$2-mtx-rows;
#X msg 373 216 255;
#X obj 387 238 /;
#X obj 373 195 t b f;
#X obj 387 261 * \$1;
#X text 429 263 hue;
#X obj 387 284 s \$0-hue;
#X obj 52 209 spigot;
#X obj 20 178 t f f;
#X obj 20 337 outlet;
#X obj 102 117 symbol \$3;
#X obj 101 94 r \$2-cloneloadbang;
#X obj 102 140 sel col row;
#X msg 102 187 1;
#X msg 102 209 0;
#X obj 102 164 t b b;
#X obj 242 94 r \$2-colorreset;
#X obj 100 71 loadbang;
#X connect 0 0 15 0;
#X connect 1 0 2 0;
#X connect 2 0 5 1;
#X connect 3 0 1 0;
#X connect 3 1 2 1;
#X connect 5 0 4 0;
#X connect 6 0 3 0;
#X connect 7 0 10 0;
#X connect 8 0 9 0;
#X connect 9 0 11 0;
#X connect 10 0 8 0;
#X connect 10 1 9 1;
#X connect 11 0 13 0;
#X connect 14 0 5 0;
#X connect 15 0 16 0;
#X connect 15 1 14 0;
#X connect 17 0 19 0;
#X connect 18 0 17 0;
#X connect 19 0 22 0;
#X connect 19 1 21 0;
#X connect 19 1 7 0;
#X connect 20 0 14 1;
#X connect 21 0 14 1;
#X connect 22 0 20 0;
#X connect 22 1 6 0;
#X connect 23 0 17 0;
#X connect 24 0 17 0;
#X restore 51 285 pd hue;
#X obj 63 418 f;
#X obj 216 428 f \$1;
#X obj 63 448 t f f b;
#X obj 62 580 s \$2-read;
#X obj 216 452 - 1;
#X obj 51 219 spigot;
#X obj 99 219 r \$0-swval;
#N canvas 591 23 1145 855 preparevals 0;
#X obj -196 2 inlet;
#X obj -70 454 spigot;
#X msg -18 454 1;
#X msg 12 454 0;
#X obj 41 454 r \$2-cloneloadbang;
#N canvas 0 23 836 671 crcheck 0;
#X obj 71 50 r \$2-mode;
#X obj 62 153 outlet;
#X obj 111 153 outlet;
#X obj 71 74 route colrow;
#X connect 0 0 3 0;
#X connect 3 0 1 0;
#X connect 3 1 2 0;
#X restore -18 423 pd crcheck;
#X obj -70 406 sel 1;
#X obj -70 433 f;
#X obj -172 106 f;
#X obj -144 106 route 0;
#X obj -70 476 f;
#X obj -70 355 != \$1;
#X obj -14 281 !=;
#X obj -78 256 f \$1;
#X obj -70 381 &&;
#X obj -98 326 - 1;
#X obj -43 256 - 1;
#X obj 70 158 r \$2-cloneloadbang;
#N canvas 604 116 836 671 crcheck 0;
#X obj 71 50 r \$2-mode;
#X obj 62 153 outlet;
#X obj 111 153 outlet;
#X obj 71 74 route colrow;
#X connect 0 0 3 0;
#X connect 3 0 1 0;
#X connect 3 1 2 0;
#X restore 12 135 pd crcheck;
#X msg 11 158 0;
#X msg 41 158 1;
#X obj -28 181 spigot;
#X obj -28 203 f;
#X obj -98 182 t f b f f;
#X obj -41 49 r \$0-swval;
#X obj -41 95 f;
#X obj -41 71 sel 0;
#X obj -154 71 t f f;
#X obj -196 24 t f b f;
#X text 149 95 metro switch off -> half-active color / turn off synths
;
#X obj -138 24 s \$0-nowval;
#X obj 15 281 r \$0-nowval;
#X text 89 138 mode is not \$3\$4 -> just turn last cell to inactive
;
#X text 59 423 mode is \$3\$4;
#X text -15 345 active 0 for this same 0 (if matches \, should not
be turned off);
#X text 126 256 last 0 is not equal this same \$3?;
#X obj 602 224 symbol \$3;
#X obj 601 201 r \$2-cloneloadbang;
#X obj -14 256 tabread \$2-acells\$3;
#X obj 602 247 sel col row;
#X msg 472 296 set \$1-acellsrow;
#X msg 639 296 set \$1-acellscol;
#X obj -192 551 s \$0-auxval;
#X obj -154 49 r \$0-auxval;
#X obj -70 499 s \$0-auxlast;
#X obj -1 203 s \$0-auxlast;
#X obj -14 95 s \$0-auxlastoff;
#X msg 487 353 8117-acellscol;
#X floatatom -62 129 5 0 0 0 - - -;
#X obj -70 326 tabread;
#X floatatom 38 375 5 0 0 0 - - -;
#X floatatom 121 287 5 0 0 0 - - -;
#X floatatom -145 357 5 0 0 0 - - -;
#X obj 507 201 bng 15 250 50 0 empty empty empty 17 7 0 10 -262144
-1 -1;
#X obj 472 273 f \$2;
#X obj 639 273 f \$2;
#X connect 0 0 28 0;
#X connect 1 0 10 0;
#X connect 2 0 1 1;
#X connect 3 0 1 1;
#X connect 4 0 3 0;
#X connect 5 0 2 0;
#X connect 5 1 3 0;
#X connect 6 0 7 0;
#X connect 7 0 1 0;
#X connect 8 0 9 0;
#X connect 9 1 23 0;
#X connect 10 0 44 0;
#X connect 11 0 14 0;
#X connect 12 0 14 1;
#X connect 13 0 16 0;
#X connect 14 0 6 0;
#X connect 15 0 49 0;
#X connect 15 0 52 0;
#X connect 16 0 38 0;
#X connect 17 0 20 0;
#X connect 18 0 19 0;
#X connect 18 1 20 0;
#X connect 19 0 21 1;
#X connect 20 0 21 1;
#X connect 21 0 22 0;
#X connect 22 0 45 0;
#X connect 23 0 15 0;
#X connect 23 1 13 0;
#X connect 23 2 7 1;
#X connect 23 3 21 0;
#X connect 24 0 26 0;
#X connect 25 0 46 0;
#X connect 26 0 25 0;
#X connect 27 0 8 1;
#X connect 27 1 25 1;
#X connect 27 1 48 0;
#X connect 28 0 42 0;
#X connect 28 1 8 0;
#X connect 28 2 30 0;
#X connect 31 0 12 1;
#X connect 36 0 39 0;
#X connect 37 0 36 0;
#X connect 38 0 12 0;
#X connect 38 0 51 0;
#X connect 39 0 54 0;
#X connect 39 1 55 0;
#X connect 40 0 47 0;
#X connect 40 0 49 0;
#X connect 41 0 47 0;
#X connect 41 0 49 0;
#X connect 43 0 27 0;
#X connect 49 0 11 0;
#X connect 49 0 50 0;
#X connect 53 0 36 0;
#X connect 54 0 40 0;
#X connect 55 0 41 0;
#X restore 51 307 pd preparevals;
#X obj 310 436 r \$0-auxlast;
#X obj 272 394 r \$0-auxlastoff;
#X obj 86 474 tabwrite \$2-acells\$3;
#X obj 63 393 r \$0-auxval;
#X obj 316 80 r \$2-cloneloadbang;
#N canvas 0 23 893 764 colrowmessage 0;
#X obj 169 66 symbol \$3;
#X obj 169 89 sel col row;
#X msg 169 112 set \, adddollar 1 \, adddollar 2 \, adddollar 3;
#X msg 207 137 set \, adddollar 2 \, adddollar 1 \, adddollar 3;
#X obj 169 165 outlet;
#X obj 169 44 inlet;
#X connect 0 0 1 0;
#X connect 1 0 2 0;
#X connect 1 1 3 0;
#X connect 2 0 4 0;
#X connect 3 0 4 0;
#X connect 5 0 0 0;
#X restore 316 102 pd colrowmessage;
#X obj 316 124 s \$0_colrowmess;
#X obj 131 523 r \$0_colrowmess;
#X obj 377 532 r \$0_colrowmess;
#X obj 79 241 r \$0-modnum;
#N canvas 0 23 348 262 modset 0;
#X obj 6 4 r \$2-cloneloadbang;
#X obj 6 93 v \$2-mtx-rows;
#X obj 6 116 s \$0-modnum;
#X obj 6 27 symbol \$3;
#X obj 6 50 sel col row;
#X obj 43 71 v \$2-mtx-cols;
#X connect 0 0 3 0;
#X connect 1 0 2 0;
#X connect 3 0 4 0;
#X connect 4 0 1 0;
#X connect 4 1 5 0;
#X connect 5 0 2 0;
#X restore 166 241 pd modset;
#N canvas 359 36 903 647 phase_numset 0;
#X obj 54 139 inlet;
#X obj 54 249 outlet;
#X obj 54 208 f;
#X obj 114 208 + 1;
#X msg 240 208 0;
#X obj 240 187 r \$2-cloneloadbang;
#X obj 142 208 r \$0-localdir;
#X obj 182 111 t l l;
#X msg 231 111 \$1;
#X obj 231 135 == \$1;
#X obj 182 135 spigot;
#X msg 151 135 \$2;
#X obj 123 88 route float list;
#X obj 123 135 f;
#X floatatom 267 67 5 0 0 0 - - -;
#X obj 110 46 r \$2-all\$3s_num_set;
#X obj 123 67 r \$2-\$3_num_set;
#X connect 0 0 2 0;
#X connect 2 0 3 0;
#X connect 2 0 1 0;
#X connect 3 0 2 1;
#X connect 4 0 2 1;
#X connect 5 0 4 0;
#X connect 6 0 3 1;
#X connect 7 0 10 0;
#X connect 7 1 8 0;
#X connect 8 0 9 0;
#X connect 9 0 10 1;
#X connect 10 0 11 0;
#X connect 11 0 13 0;
#X connect 12 0 13 0;
#X connect 12 1 7 0;
#X connect 13 0 2 1;
#X connect 15 0 13 0;
#X connect 16 0 12 0;
#X connect 16 0 14 0;
#X restore 51 197 pd phase_numset;
#N canvas 379 56 1061 762 dirpattern 0;
#X obj 51 659 outlet;
#X obj 51 63 inlet;
#X obj 304 245 t a b;
#X obj 363 178 list split 1;
#X obj 336 223 list store;
#X msg 363 201 \$1;
#X obj 313 201 sel \$1;
#X obj 304 268 s \$0-dirpatls;
#X msg 190 243 1;
#N canvas 0 23 450 300 rot 0;
#X obj 120 24 inlet;
#X obj 20 24 inlet;
#X obj 120 46 list store;
#X obj 38 76 list length;
#X obj 20 99 mod;
#X obj 20 123 f;
#X obj 53 146 list store;
#X obj 53 168 outlet;
#X msg 53 123 get \$1 1;
#X connect 0 0 2 0;
#X connect 1 0 4 0;
#X connect 2 0 3 0;
#X connect 2 0 6 1;
#X connect 3 0 4 1;
#X connect 4 0 5 0;
#X connect 5 0 8 0;
#X connect 6 0 7 0;
#X connect 8 0 6 0;
#X restore 140 243 pd rot;
#X obj 83 243 f;
#X obj 112 243 + 1;
#X msg 101 221 0;
#X obj 140 269 s \$0-localdir;
#X obj 179 222 r \$0-dirpatls;
#X obj 221 243 r \$2-ready;
#X obj 101 200 r \$0-\$3dir_reset;
#X obj 304 134 r \$2-all\$3s_dirpat_set;
#X obj 363 156 r \$2-\$3_dirpat_set;
#X obj 346 245 s \$0-\$3dir_reset;
#X obj 51 189 t b b;
#X connect 1 0 20 0;
#X connect 2 0 7 0;
#X connect 2 1 19 0;
#X connect 3 0 5 0;
#X connect 3 1 4 1;
#X connect 4 0 2 0;
#X connect 5 0 6 0;
#X connect 6 0 4 0;
#X connect 8 0 9 1;
#X connect 9 0 13 0;
#X connect 10 0 11 0;
#X connect 10 0 9 0;
#X connect 11 0 10 1;
#X connect 12 0 10 1;
#X connect 14 0 9 1;
#X connect 15 0 8 0;
#X connect 16 0 12 0;
#X connect 17 0 2 0;
#X connect 18 0 3 0;
#X connect 20 0 0 0;
#X connect 20 1 10 0;
#X restore 51 175 pd dirpattern;
#X connect 1 0 7 0;
#X connect 2 0 8 0;
#X connect 7 0 19 0;
#X connect 8 0 5 0;
#X connect 9 0 10 0;
#X connect 10 0 11 0;
#X connect 11 0 12 0;
#X connect 12 0 36 0;
#X connect 13 0 14 0;
#X connect 14 0 15 0;
#X connect 15 0 23 0;
#X connect 16 0 18 0;
#X connect 17 0 20 0;
#X connect 18 0 1 0;
#X connect 18 1 26 0;
#X connect 18 2 17 0;
#X connect 20 0 26 1;
#X connect 21 0 13 0;
#X connect 22 0 21 1;
#X connect 24 0 2 0;
#X connect 25 0 2 0;
#X connect 27 0 16 0;
#X connect 28 0 29 0;
#X connect 29 0 30 0;
#X connect 31 0 7 0;
#X connect 32 0 8 0;
#X connect 33 0 13 1;
#X connect 35 0 21 0;
#X connect 36 0 35 0;
