#N canvas 1058 27 960 1035 12;
#X obj 161 60 inlet;
#X obj 229 842 pack 0 \$1 1;
#X obj 441 842 pack 0 \$1 0;
#X text 438 751 turn-off last val;
#X text 226 750 turn-on this val;
#X obj 229 903 s \$2-read;
#X obj 441 900 s \$2-noread;
#X obj 276 471 f;
#X obj 229 769 r \$0-auxrow_col;
#X obj 294 447 r \$0-auxrow_col;
#N canvas 0 23 531 511 color_control 0;
#X obj 12 524 s \$2-colors;
#X obj 114 140 r \$2-isatvalon;
#X obj 30 140 list append;
#X obj 26 207 list append;
#X obj 110 207 r \$2-isatvaloff;
#X obj 35 413 list append;
#X obj 26 479 list append;
#X obj 119 413 r \$2-asatvalon;
#X obj 110 479 r \$2-asatvaloff;
#X obj 100 364 r \$0-hue;
#X obj 99 95 r \$0-hue;
#X obj 26 308 r \$0-auxrow_col;
#X text 33 284 active color;
#X obj 12 254 s \$2-colors;
#X obj 31 185 s \$2-colors;
#X obj 36 457 s \$2-colors;
#X text 24 15 inactive color;
#X obj 25 33 r \$0-auxrow_lastrow;
#X msg 31 162 cellcolorons \$1 \$2 \$3 \$4 \$5;
#X msg 12 230 cellcoloroffs \$1 \$2 0 \$4 \$5;
#X msg 36 435 cellcolorons \$1 \$2 \$3 \$4 \$5;
#X msg 12 502 cellcoloroffs \$1 \$2 0 \$4 \$5;
#X obj 26 336 mod;
#X obj 54 336 r \$0-rownum;
#X obj 25 60 mod;
#X obj 53 60 r \$0-rownum;
#X obj 26 387 pack 1 \$1 0;
#X obj 25 117 pack 1 \$1 0;
#X connect 1 0 2 1;
#X connect 2 0 18 0;
#X connect 3 0 19 0;
#X connect 4 0 3 1;
#X connect 5 0 20 0;
#X connect 6 0 21 0;
#X connect 7 0 5 1;
#X connect 8 0 6 1;
#X connect 9 0 26 2;
#X connect 10 0 27 2;
#X connect 11 0 22 0;
#X connect 17 0 24 0;
#X connect 18 0 14 0;
#X connect 19 0 13 0;
#X connect 20 0 15 0;
#X connect 21 0 0 0;
#X connect 22 0 26 0;
#X connect 23 0 22 1;
#X connect 24 0 27 0;
#X connect 25 0 24 1;
#X connect 26 0 5 0;
#X connect 26 0 6 0;
#X connect 27 0 2 0;
#X connect 27 0 3 0;
#X restore 203 60 pd color_control;
#X obj 441 769 r \$0-auxrow_lastrow;
#X msg 229 867 \$1 \$2 \$3;
#X msg 441 865 \$1 \$2 \$3;
#X floatatom 113 390 5 0 0 0 - - -;
#N canvas 0 23 450 300 sw 0;
#X obj 106 253 outlet;
#X obj 165 205 t l l;
#X msg 214 205 \$1;
#X obj 214 229 == \$1;
#X obj 165 229 spigot;
#X msg 134 229 \$2;
#X obj 106 182 route float list;
#X obj 106 229 f;
#X obj 106 159 r \$2-colmetros_sw;
#X connect 1 0 4 0;
#X connect 1 1 2 0;
#X connect 2 0 3 0;
#X connect 3 0 4 1;
#X connect 4 0 5 0;
#X connect 5 0 7 0;
#X connect 6 0 7 0;
#X connect 6 1 1 0;
#X connect 7 0 0 0;
#X connect 8 0 6 0;
#X restore 221 147 pd sw;
#N canvas 0 23 450 300 metro 0;
#X obj 9 8 inlet;
#X obj 9 245 outlet;
#X obj 9 223 metro;
#X obj 215 58 t l l;
#X msg 247 80 \$1;
#X obj 247 104 == \$1;
#X obj 215 127 spigot;
#X msg 84 131 \$2;
#X obj 54 54 route float list;
#X obj 54 131 f;
#X obj 59 101 t b f;
#X msg 82 154 1;
#X obj 54 32 r \$2-colmetros_set;
#X obj 59 78 r \$2-colbeatgroup_set;
#X floatatom 82 206 5 0 0 0 - - -;
#X obj 113 154 r \$2-cloneloadbang;
#X obj 55 154 / 1;
#X connect 0 0 2 0;
#X connect 2 0 1 0;
#X connect 3 0 6 0;
#X connect 3 1 4 0;
#X connect 4 0 5 0;
#X connect 5 0 6 1;
#X connect 6 0 7 0;
#X connect 7 0 9 0;
#X connect 8 0 9 0;
#X connect 8 1 3 0;
#X connect 9 0 16 0;
#X connect 10 0 9 0;
#X connect 10 1 16 1;
#X connect 11 0 16 1;
#X connect 12 0 8 0;
#X connect 13 0 10 0;
#X connect 15 0 11 0;
#X connect 16 0 2 1;
#X connect 16 0 14 0;
#X restore 221 177 pd metro;
#N canvas 681 23 917 681 beatpattern 0;
#X msg 191 180 1;
#N canvas 0 23 450 300 rot 0;
#X obj 120 24 inlet;
#X obj 20 24 inlet;
#X obj 120 46 list store;
#X obj 38 76 list length;
#X obj 20 99 mod;
#X obj 20 123 f;
#X obj 53 146 list store;
#X obj 53 168 outlet;
#X msg 53 123 get \$1 1;
#X connect 0 0 2 0;
#X connect 1 0 4 0;
#X connect 2 0 3 0;
#X connect 2 0 6 1;
#X connect 3 0 4 1;
#X connect 4 0 5 0;
#X connect 5 0 8 0;
#X connect 6 0 7 0;
#X connect 8 0 6 0;
#X restore 141 180 pd rot;
#X obj 112 180 ==;
#X obj 80 132 t f f;
#X obj 121 132 f;
#X obj 150 132 + 1;
#X msg 198 132 1;
#X obj 261 181 f;
#X obj 261 203 + 1;
#X obj 39 132 sel 1;
#X obj 112 203 sel 1;
#X obj 229 132 t b b;
#X obj 272 132 t b b;
#X obj 403 86 r \$2-ready;
#X obj 403 108 t b b;
#X msg 304 157 0;
#X obj 180 155 r \$0-patls;
#X obj 229 108 r \$0-colbeat_newcycle;
#X obj 314 132 r \$0-colbeat_reset;
#X obj 112 225 s \$0-colbeat_newcycle;
#X obj 121 102 inlet;
#X obj 39 250 outlet;
#X obj 521 199 t a b;
#X obj 521 222 s \$0-patls;
#X obj 580 132 list split 1;
#X obj 553 177 list store;
#X msg 580 155 \$1;
#X obj 530 155 sel \$1;
#X obj 521 88 r \$2-allcols_beatpat_set;
#X obj 580 110 r \$2-col_beatpat_set;
#X obj 564 199 s \$0-colbeat_reset;
#X floatatom 112 285 5 0 0 0 - - -;
#X floatatom 234 272 5 0 0 0 - - -;
#X floatatom 123 157 5 0 0 0 - - -;
#X obj 179 75 bng 15 250 50 0 empty empty empty 17 7 0 10 -262144 -1
-1;
#X connect 0 0 1 1;
#X connect 1 0 2 1;
#X connect 1 0 32 0;
#X connect 2 0 10 0;
#X connect 3 0 9 0;
#X connect 3 0 31 0;
#X connect 3 1 2 0;
#X connect 3 1 33 0;
#X connect 4 0 5 0;
#X connect 4 0 3 0;
#X connect 5 0 4 1;
#X connect 6 0 4 1;
#X connect 7 0 8 0;
#X connect 7 0 1 0;
#X connect 8 0 7 1;
#X connect 9 0 21 0;
#X connect 10 0 19 0;
#X connect 11 0 6 0;
#X connect 11 1 7 0;
#X connect 12 0 11 0;
#X connect 12 1 15 0;
#X connect 13 0 14 0;
#X connect 14 0 12 0;
#X connect 14 1 0 0;
#X connect 15 0 7 0;
#X connect 16 0 1 1;
#X connect 17 0 11 0;
#X connect 18 0 12 0;
#X connect 20 0 4 0;
#X connect 20 0 34 0;
#X connect 22 0 23 0;
#X connect 22 1 30 0;
#X connect 24 0 26 0;
#X connect 24 1 25 1;
#X connect 25 0 22 0;
#X connect 26 0 27 0;
#X connect 27 0 25 0;
#X connect 28 0 22 0;
#X connect 29 0 24 0;
#X restore 221 200 pd beatpattern;
#N canvas 0 23 450 300 del 0;
#X obj 42 -13 inlet;
#X obj 42 135 delay;
#X obj 133 63 t l l;
#X msg 182 63 \$1;
#X obj 182 87 == \$1;
#X obj 133 87 spigot;
#X msg 102 87 \$2;
#X obj 74 40 route float list;
#X obj 74 87 f;
#X msg 89 130 0;
#X obj 89 108 r \$2-cloneloadbang;
#X obj 42 158 outlet;
#X obj 74 18 r \$2-coldel_set;
#X connect 0 0 1 0;
#X connect 1 0 11 0;
#X connect 2 0 5 0;
#X connect 2 1 3 0;
#X connect 3 0 4 0;
#X connect 4 0 5 1;
#X connect 5 0 6 0;
#X connect 6 0 8 0;
#X connect 7 0 8 0;
#X connect 7 1 2 0;
#X connect 8 0 1 1;
#X connect 9 0 1 1;
#X connect 10 0 9 0;
#X connect 12 0 7 0;
#X restore 221 223 pd del;
#N canvas 0 23 1061 300 numset_dir 0;
#X obj 51 175 f;
#X obj 81 175 + 1;
#X msg 292 126 0;
#X obj 292 105 r \$2-cloneloadbang;
#X obj 109 175 r \$0-localdir;
#X obj 51 199 outlet;
#X obj 51 63 inlet;
#X obj 827 110 list split 1;
#X obj 800 155 list store;
#X msg 827 133 \$1;
#X obj 777 133 sel \$1;
#X obj 768 177 t f f;
#X obj 810 177 != 0;
#X obj 768 200 spigot;
#X obj 768 222 s \$0-localdir;
#X obj 768 66 r \$2-allcols_dir_set;
#X obj 827 88 r \$2-col_dir_set;
#X obj 179 104 t l l;
#X msg 228 104 \$1;
#X obj 228 128 == \$1;
#X obj 179 128 spigot;
#X msg 148 128 \$2;
#X obj 120 81 route float list;
#X obj 120 128 f;
#X obj 107 39 r \$2-allcols_num_set;
#X obj 120 60 r \$2-col_num_set;
#X connect 0 0 1 0;
#X connect 0 0 5 0;
#X connect 1 0 0 1;
#X connect 2 0 0 1;
#X connect 3 0 2 0;
#X connect 4 0 1 1;
#X connect 6 0 0 0;
#X connect 7 0 9 0;
#X connect 7 1 8 1;
#X connect 8 0 11 0;
#X connect 9 0 10 0;
#X connect 10 0 8 0;
#X connect 11 0 13 0;
#X connect 11 1 12 0;
#X connect 12 0 13 1;
#X connect 13 0 14 0;
#X connect 15 0 11 0;
#X connect 16 0 7 0;
#X connect 17 0 20 0;
#X connect 17 1 18 0;
#X connect 18 0 19 0;
#X connect 19 0 20 1;
#X connect 20 0 21 0;
#X connect 21 0 23 0;
#X connect 22 0 23 0;
#X connect 22 1 17 0;
#X connect 23 0 0 1;
#X connect 24 0 23 0;
#X connect 25 0 22 0;
#X restore 221 247 pd numset_dir;
#X obj 221 293 mod;
#X obj 221 315 + 1;
#N canvas 0 23 450 300 phase 0;
#X obj 52 19 inlet;
#X obj 52 179 outlet;
#X obj 52 148 +;
#X obj 140 124 t l l;
#X msg 189 124 \$1;
#X obj 189 148 == \$1;
#X obj 140 148 spigot;
#X msg 109 148 \$2;
#X obj 81 101 route float list;
#X obj 81 148 f;
#X obj 81 78 r \$2-colphase_set;
#X connect 0 0 2 0;
#X connect 2 0 1 0;
#X connect 3 0 6 0;
#X connect 3 1 4 0;
#X connect 4 0 5 0;
#X connect 5 0 6 1;
#X connect 6 0 7 0;
#X connect 7 0 9 0;
#X connect 8 0 9 0;
#X connect 8 1 3 0;
#X connect 9 0 2 1;
#X connect 10 0 8 0;
#X restore 221 270 pd phase;
#X obj 249 293 r \$0-rownum;
#N canvas 0 23 450 300 hue 0;
#X obj 20 15 inlet;
#X obj 131 99 v \$2-mtx-rows;
#X obj 98 50 r \$2-cloneloadbang;
#X msg 131 142 255;
#X obj 145 164 /;
#X obj 131 121 t b f;
#X obj 99 76 t b b;
#X obj 20 224 s \$0-hue;
#X obj 20 201 *;
#X obj 29 102 v \$2-mtx-rows;
#X obj 29 125 s \$0-rownum;
#X connect 0 0 8 0;
#X connect 1 0 5 0;
#X connect 2 0 6 0;
#X connect 3 0 4 0;
#X connect 4 0 8 1;
#X connect 5 0 3 0;
#X connect 5 1 4 1;
#X connect 6 0 9 0;
#X connect 6 1 1 0;
#X connect 8 0 7 0;
#X connect 9 0 10 0;
#X restore 295 411 pd hue;
#N canvas 412 145 1145 892 avoid_active_rows 1;
#X obj 34 23 inlet;
#X obj 24 395 s \$0-auxrow_col;
#X obj 275 350 spigot;
#X msg 337 322 1;
#X msg 367 322 0;
#X obj 396 322 r \$2-cloneloadbang;
#N canvas 0 23 836 671 crcheck 0;
#X obj 71 50 r \$2-mode;
#X obj 71 74 route colrow;
#X obj 62 153 outlet;
#X obj 111 153 outlet;
#X connect 0 0 1 0;
#X connect 1 0 2 0;
#X connect 1 1 3 0;
#X restore 338 299 pd crcheck;
#X text 415 302 colrowmode?;
#X obj 313 221 v;
#X floatatom 313 134 5 0 0 0 - - -;
#X obj 313 178 t b l;
#X obj 313 155 pack 0 \$2;
#X floatatom 313 246 5 0 0 0 - - -;
#X obj 295 268 !=;
#X obj 275 294 sel 1;
#X obj 275 321 f;
#X msg 374 228 2800-row-12;
#X obj 34 45 t f f b;
#X obj 186 46 f;
#X obj 204 24 r \$0-auxrow_col;
#X obj 186 68 route 0;
#X msg 345 204 symbol \$2-row-\$1;
#X obj 287 388 f, f 4;
#X obj 224 349 spigot;
#X msg 220 300 1;
#X msg 189 300 0;
#N canvas 0 23 836 671 crcheck 0;
#X obj 71 50 r \$2-mode;
#X obj 71 74 route colrow;
#X obj 62 153 outlet;
#X obj 111 153 outlet;
#X connect 0 0 1 0;
#X connect 1 0 2 0;
#X connect 1 1 3 0;
#X restore 189 275 pd crcheck;
#X obj 317 76 s \$0-auxrow_lastrow;
#X obj 70 527 pack 0 0 s 0;
#X msg 71 550 lastval \$4 thisval \$1 row \$3 - \$2;
#X obj 236 134 t f f f f;
#X obj 90 578 print c\$1:;
#X obj 190 462 loadbang;
#X msg 191 485 -1;
#X msg 559 123 0;
#X obj 602 122 loadbang;
#X obj 247 50 v \$2-lastcol-\$1;
#X obj 249 101 t f f;
#X connect 0 0 17 0;
#X connect 2 0 22 0;
#X connect 3 0 2 1;
#X connect 4 0 2 1;
#X connect 5 0 4 0;
#X connect 6 0 3 0;
#X connect 6 1 4 0;
#X connect 8 0 12 0;
#X connect 9 0 11 0;
#X connect 10 0 8 0;
#X connect 10 1 21 0;
#X connect 11 0 10 0;
#X connect 12 0 13 1;
#X connect 12 0 28 1;
#X connect 13 0 14 0;
#X connect 14 0 15 0;
#X connect 15 0 2 0;
#X connect 17 0 1 0;
#X connect 17 1 28 0;
#X connect 17 2 18 0;
#X connect 18 0 20 0;
#X connect 19 0 18 1;
#X connect 20 1 30 0;
#X connect 20 1 37 0;
#X connect 21 0 8 1;
#X connect 21 0 16 0;
#X connect 21 0 28 2;
#X connect 23 0 22 0;
#X connect 24 0 23 1;
#X connect 25 0 23 1;
#X connect 26 0 25 0;
#X connect 26 1 24 0;
#X connect 28 0 29 0;
#X connect 29 0 31 0;
#X connect 30 0 13 0;
#X connect 30 1 15 1;
#X connect 30 1 23 0;
#X connect 30 2 9 0;
#X connect 30 3 28 3;
#X connect 30 3 22 1;
#X connect 32 0 33 0;
#X connect 35 0 34 0;
#X connect 37 0 36 0;
#X connect 37 1 27 0;
#X restore 221 513 pd avoid_active_rows;
#X obj 221 337 t f f;
#X obj 253 360 v \$2-col-\$1;
#X obj 221 388 t f f;
#X connect 1 0 12 0;
#X connect 2 0 13 0;
#X connect 8 0 1 0;
#X connect 9 0 7 1;
#X connect 11 0 2 0;
#X connect 12 0 5 0;
#X connect 13 0 6 0;
#X connect 15 0 16 0;
#X connect 16 0 17 0;
#X connect 17 0 18 0;
#X connect 18 0 19 0;
#X connect 19 0 22 0;
#X connect 20 0 21 0;
#X connect 21 0 26 0;
#X connect 22 0 20 0;
#X connect 23 0 20 1;
#X connect 26 0 28 0;
#X connect 26 1 27 0;
#X connect 28 0 14 0;
#X connect 28 0 25 0;
#X connect 28 1 24 0;
#X coords 0 1035 1 1034 22 22 0;
