#N canvas 481 109 1044 647 12;
#X obj 190 357 r \$0_ip_port;
#X msg 181 685 disconnect \, connect 6000 0;
#X msg 80 685 disconnect;
#X obj 31 233 tgl 25 0 empty empty empty 17 7 0 10 #e4e4e4 #4d4d4d #373737 0 1;
#X obj 31 350 s \$0_connection;
#X msg 90 202 1;
#X msg 87 233 0;
#X obj 80 631 r \$0_connection;
#X obj 80 723 s \$0-nsin;
#X obj 80 657 sel 0 1;
#X obj 269 256 t a b;
#X obj 316 286 s \$0_connection;
#X msg 318 255 0;
#X obj 876 874 outlet anything: messages received from netreceive objects;
#X obj 32 36 inlet 1/0 | netaddr IP port | oscmessage as in slash.osc.format;
#X obj 68 878 outlet float: 0 closed connection / non-0 otherwise;
#X obj 267 185 slash.oscformat send;
#X obj 267 217 s \$0-nsin;
#X obj 419 36 inlet here everything goes directly to netsend;
#X obj 419 62 s \$0-nsin;
#X obj 97 160 t b a;
#X obj 139 188 list;
#X obj 139 214 route list;
#X obj 200 259 list;
#X text 1108 123 1 arg: porta (localhost);
#X text 1108 151 2args: ip e porta;
#X obj 32 110 route float connect disconnect netaddr;
#X obj 190 408 list length;
#X obj 68 777 r \$0-nsin;
#X obj 51 831 tgl 13 0 empty empty empty 17 7 0 10 #e4e4e4 #4d4d4d #373737 0 1;
#X obj 68 804 netsend -u -b;
#X obj 490 795 list prepend;
#X obj 546 758 r \$0_ip_port;
#X obj -33 878 s \$0_netstate;
#X obj 490 731 r \$0_netstate;
#X obj 490 874 outlet list: current ip \, port \, state of connection;
#X obj 11 745 loadbang;
#X msg 11 771 0;
#X obj 31 265 t f b;
#X msg 49 295 0;
#X obj 80 295 s \$0_netstate;
#N canvas 733 172 450 300 build_IP_port_msg 0;
#X msg 284 412 set disconnect;
#X msg 276 443 addcomma;
#X msg 199 470 add2 connect \$1 \$2;
#X obj 199 412 t a b b a;
#X obj 199 359 inlet;
#X obj 199 534 outlet;
#X connect 0 0 5 0;
#X connect 1 0 5 0;
#X connect 2 0 5 0;
#X connect 3 0 2 0;
#X connect 3 1 1 0;
#X connect 3 2 0 0;
#X connect 4 0 3 0;
#X restore 202 544 pd build_IP_port_msg;
#N canvas 733 172 450 300 build_IP_port_backport_msg 0;
#X msg 284 412 set disconnect;
#X msg 276 443 addcomma;
#X obj 199 412 t a b b a;
#X obj 199 359 inlet;
#X obj 199 534 outlet;
#X msg 199 470 add2 connect \$1 \$2 \$3;
#X connect 0 0 4 0;
#X connect 1 0 4 0;
#X connect 2 0 5 0;
#X connect 2 1 1 0;
#X connect 2 2 0 0;
#X connect 3 0 2 0;
#X connect 5 0 4 0;
#X restore 359 544 pd build_IP_port_backport_msg;
#X obj 202 507 list store;
#X obj 359 507 list store;
#X listbox 340 421 37 0 0 0 - - - 0;
#X obj 190 380 t a a, f 11;
#X msg 819 319 args 0;
#X obj 819 344 pdcontrol;
#X obj 764 421 list length;
#X obj 819 370 t a a, f 27;
#X obj 1034 528 list store;
#X obj 764 448 sel 0 1 2 3;
#X msg 683 528 list localhost 9000;
#X obj 683 584 s \$0_ip_port;
#X obj 267 312 s \$0_ip_port_def;
#X obj 581 339 r \$0_ip_port_def;
#X floatatom 101 428 5 0 0 0 - - - 12;
#X obj 190 441 sel 1 2 3;
#X obj 180 805 s \$0_backmsg;
#X obj 861 717 r \$0_backmsg;
#X obj 861 746 t l l;
#X obj 933 780 list tosymbol;
#X obj 861 780 oscparse;
#X obj 861 807 list split, f 8;
#X obj 876 837 list prepend;
#X obj 819 528 list prepend localhost \$1;
#X floatatom 896 431 5 0 0 0 - - - 12;
#X obj 844 490 bng 25 250 50 0 empty empty empty 17 7 0 10 #e4e4e4 #4d4d4d #373737;
#X obj 819 286 loadbang;
#X connect 0 0 46 0;
#X connect 1 0 8 0;
#X connect 2 0 8 0;
#X connect 3 0 38 0;
#X connect 5 0 3 0;
#X connect 6 0 3 0;
#X connect 7 0 9 0;
#X connect 9 0 2 0;
#X connect 9 1 1 0;
#X connect 10 0 55 0;
#X connect 10 1 12 0;
#X connect 12 0 11 0;
#X connect 14 0 26 0;
#X connect 16 0 17 0;
#X connect 18 0 19 0;
#X connect 20 0 5 0;
#X connect 20 1 21 0;
#X connect 21 0 22 0;
#X connect 22 0 10 0;
#X connect 23 0 10 0;
#X connect 26 0 3 0;
#X connect 26 1 20 0;
#X connect 26 2 6 0;
#X connect 26 3 23 0;
#X connect 26 4 16 0;
#X connect 27 0 57 0;
#X connect 27 0 58 0;
#X connect 28 0 30 0;
#X connect 29 0 33 0;
#X connect 30 0 15 0;
#X connect 30 0 29 0;
#X connect 30 1 59 0;
#X connect 31 0 35 0;
#X connect 32 0 31 1;
#X connect 34 0 31 0;
#X connect 36 0 37 0;
#X connect 37 0 33 0;
#X connect 38 0 4 0;
#X connect 38 1 39 0;
#X connect 39 0 40 0;
#X connect 41 0 1 0;
#X connect 42 0 1 0;
#X connect 43 0 41 0;
#X connect 44 0 42 0;
#X connect 46 0 27 0;
#X connect 46 1 43 1;
#X connect 46 1 44 1;
#X connect 46 1 45 0;
#X connect 47 0 48 0;
#X connect 48 0 50 0;
#X connect 49 0 52 0;
#X connect 49 0 67 0;
#X connect 50 0 49 0;
#X connect 50 1 51 1;
#X connect 51 0 54 0;
#X connect 52 0 53 0;
#X connect 52 1 66 0;
#X connect 52 2 51 0;
#X connect 52 3 51 0;
#X connect 53 0 54 0;
#X connect 56 0 50 0;
#X connect 58 0 43 0;
#X connect 58 1 43 0;
#X connect 58 2 44 0;
#X connect 60 0 61 0;
#X connect 61 0 63 0;
#X connect 61 1 62 0;
#X connect 62 0 65 1;
#X connect 63 0 64 0;
#X connect 63 1 64 1;
#X connect 64 1 65 0;
#X connect 65 0 13 0;
#X connect 66 0 54 0;
#X connect 68 0 66 0;
#X connect 69 0 47 0;
