#N canvas 481 109 1044 647 12;
#X obj 31 233 tgl 25 0 empty empty empty 17 7 0 10 #e4e4e4 #4d4d4d #373737 0 1;
#X msg 90 202 1;
#X msg 101 239 0;
#X obj 32 36 inlet 1/0 | netaddr IP port | oscmessage as in slash.osc.format;
#X obj 691 225 loadbang;
#X msg 691 250 args 0;
#X obj 691 275 pdcontrol;
#X obj 691 334 list length;
#X obj 691 301 t a a, f 27;
#X obj 43 477 t l l;
#X obj 115 511 list tosymbol;
#X obj 43 511 oscparse;
#X obj 43 538 list split, f 8;
#X obj 58 568 list prepend;
#X obj 43 441 netreceive -u -b -f;
#X obj 58 605 outlet osc message;
#X obj 486 605 outlet origin: ip \, port;
#X msg 691 427 set listen 9000;
#X obj 691 605 s \$0_control;
#X obj 309 267 r \$0_control;
#X msg 221 343 listen 6001;
#X obj 691 361 sel 0 1;
#X obj 31 279 sel 0 1;
#X obj 32 110 route float connect disconnect listen port;
#X obj 90 161 route bang float, f 17;
#X obj 137 194 t b f;
#X msg 148 233 set listen \$1;
#X obj 809 477 t b a;
#X obj 39 316 t b b;
#X msg 148 343 listen 0;
#X obj 148 369 t b b;
#X msg 209 447 0;
#X obj 207 605 outlet float: listening port (0: not listening);
#X obj 242 411 route listen;
#X floatatom 242 447 5 0 0 0 - - - 12;
#X obj 419 36 inlet here everything goes directly to netreceive;
#X obj 419 62 s \$0-nrin;
#X obj 42 379 r \$0-nrin;
#X obj 221 379 t a a;
#X obj 827 427 list prepend listen \$1;
#X msg 821 514 set \$1 \$2;
#X obj 82 134 t a b, f 6;
#X connect 0 0 22 0;
#X connect 1 0 0 0;
#X connect 2 0 0 0;
#X connect 3 0 23 0;
#X connect 4 0 5 0;
#X connect 5 0 6 0;
#X connect 6 0 8 0;
#X connect 7 0 21 0;
#X connect 8 0 7 0;
#X connect 9 0 11 0;
#X connect 9 1 10 0;
#X connect 10 0 13 1;
#X connect 11 0 12 0;
#X connect 11 1 12 1;
#X connect 12 1 13 0;
#X connect 13 0 15 0;
#X connect 14 0 9 0;
#X connect 14 1 16 0;
#X connect 17 0 18 0;
#X connect 19 0 20 0;
#X connect 20 0 38 0;
#X connect 21 0 17 0;
#X connect 21 1 39 0;
#X connect 22 0 28 0;
#X connect 22 1 20 0;
#X connect 23 0 0 0;
#X connect 23 1 41 0;
#X connect 23 2 2 0;
#X connect 23 3 24 0;
#X connect 23 4 24 0;
#X connect 24 0 1 0;
#X connect 24 1 25 0;
#X connect 25 0 1 0;
#X connect 25 1 26 0;
#X connect 26 0 20 0;
#X connect 27 0 18 0;
#X connect 27 1 40 0;
#X connect 28 1 29 0;
#X connect 29 0 30 0;
#X connect 30 0 31 0;
#X connect 30 1 14 0;
#X connect 31 0 32 0;
#X connect 33 0 34 0;
#X connect 34 0 32 0;
#X connect 35 0 36 0;
#X connect 37 0 14 0;
#X connect 38 0 14 0;
#X connect 38 0 33 0;
#X connect 38 1 33 0;
#X connect 39 0 27 0;
#X connect 40 0 18 0;
#X connect 41 0 24 0;
#X connect 41 1 2 0;
