#N canvas 459 0 820 825 12;
#X declare -path planifolia;
#X obj 87 133 cnv 18 3 17 empty empty 0 5 9 0 14 #dcdcdc #9c9c9c 0;
#X obj 88 286 cnv 18 3 17 empty empty 0 5 9 0 14 #dcdcdc #9c9c9c 0;
#X obj -1 -1 cnv 15 805 23 empty empty osc.io 8 10 0 20 #282d39 #efefef 0;
#X obj -1 111 cnv 15 805 17 empty empty inlets 8 8 0 12 #282d39 #efefef 0;
#X obj 0 260 cnv 15 805 17 empty empty outlets 8 8 0 12 #282d39 #efefef 0;
#X obj -1 500 cnv 15 805 17 empty empty example 8 8 0 12 #282d39 #efefef 0;
#X obj 0 360 cnv 15 805 17 empty empty arguments 8 8 0 12 #282d39 #efefef 0;
#X obj 621 40 plnf_version;
#X text 107 132 float 1/0: connects/disconnects;
#X obj 87 225 cnv 18 3 17 empty empty 1 5 9 0 14 #dcdcdc #9c9c9c 0;
#X text 110 283 netsend left outlet: 1/0 connection status;
#X obj 88 308 cnv 18 3 17 empty empty 1 5 9 0 14 #dcdcdc #9c9c9c 0;
#X text 89 406 no arg: default IP:port will be localhost 9000;
#X text 89 382 The abstraction parses 5 possible arg combinations:;
#X text 337 132 (or [sw 1< / [sw 0<);
#X text 110 175 connect/diconnect;
#X text 89 426 1 arg: <port> (IP will be localhost), f 53;
#X text 89 446 2 args: <ip> <port>;
#X text 32 35 Creates netsend (with -u \, udp \, and -b \, binary) and sends/receives OSC in a single object.;
#X obj 88 331 cnv 18 3 17 empty empty 2 5 9 0 14 #dcdcdc #9c9c9c 0;
#X text 110 328 back messages formated to osc;
#X text 110 305 ip por state (single way) / ip port backport state (two-way);
#X text 89 466 3 args: <ip> <port> <backport>;
#X msg 466 949 disconnect;
#X msg 434 913 connect 127.0.0.1 8001 8000;
#X msg 574 958 /chat/B hello 10 20 30;
#X text 434 881 B (listens to 8001 \, answers 8000);
#X obj 19 1209 tgl 25 0 empty empty empty 17 7 0 10 #e4e4e4 #4d4d4d #373737 0 1;
#X msg 51 949 disconnect;
#X listbox 38 1152 21 0 0 0 - - - 12;
#X text 38 1175 IP port state \, or IP port backport state;
#X obj 19 1046 osc.io;
#X listbox 86 1046 40 0 0 0 - - - 0;
#X text 19 881 A (listens to 8000 \, answers 8001);
#X msg 159 958 /chat/A hi 1 2 3;
#X msg 159 989 /chat/A something 4 5 a b;
#X msg 574 989 /chat/B anything 9 8 7;
#X msg 19 913 connect 127.0.0.1 8000 8001;
#X obj 617 535 declare -path planifolia;
#X text 19 848 ex. 2: Two-way communication;
#X text 19 528 ex. 1: simple send;
#X listbox 58 1099 20 0 0 0 - - - 0;
#X obj 429 1209 tgl 25 0 empty empty empty 17 7 0 10 #e4e4e4 #4d4d4d #373737 0 1;
#X listbox 448 1152 21 0 0 0 - - - 12;
#X text 448 1175 IP port state \, or IP port backport state;
#X obj 429 1046 osc.io;
#X listbox 496 1046 40 0 0 0 - - - 0;
#X listbox 468 1099 20 0 0 0 - - - 0;
#X obj 467 1074 planifolia/osc.route /chat/A;
#X obj 58 1074 planifolia/osc.route /chat/B;
#X text 109 153 netaddr <ip> <port>: sets new destination;
#X text 407 153 (auto-disconnects before!);
#X text 243 175 (connect passes also ip/ports);
#X text 109 197 messages '/should/be/written/as/OSC arg1 arg2 arg3 etc';
#X text 109 224 anything here is sent directly to the internal [netsend];
#X text 14 1564 --;
#X msg 57 612 connect;
#X obj 22 779 tgl 25 0 empty empty empty 17 7 0 10 #e4e4e4 #4d4d4d #373737 0 1;
#X obj 20 568 tgl 25 0 empty empty empty 17 7 0 10 #e4e4e4 #4d4d4d #373737 0 1;
#X msg 79 640 disconnect;
#X msg 123 695 /a/b/c 1 2 3 4 5;
#X msg 133 722 1 2 3;
#X text 192 721 non OSC message;
#X text 245 694 OSC message;
#X listbox 77 786 21 0 0 0 - - - 12;
#X text 81 806 IP port state \, or IP port backport state;
#X listbox 175 754 21 0 0 0 - - - 12;
#X text 334 753 back msgs as osc list;
#X obj 22 754 osc.io 127.0.0.1 6000;
#X msg 110 668 connect 255.255.255.255 6001;
#X text 334 667 broadcasting to 6001;
#X floatatom 574 709 5 0 0 0 - - - 12;
#X listbox 548 748 37 0 0 0 - - - 0;
#X listbox 636 680 25 0 0 0 - - - 0;
#X text 624 709 >0: port / 0: no connection;
#X obj 548 680 osc.in 6000;
#X obj 75 -1 cnv 15 15 23 empty empty or 0 10 0 13 #282d39 #efefef 0;
#X obj 92 -1 cnv 15 289 23 empty empty osc.out 8 10 0 13 #282d39 #efefef 0;
#X connect 23 0 45 0;
#X connect 24 0 45 0;
#X connect 25 0 45 0;
#X connect 28 0 31 0;
#X connect 31 0 27 0;
#X connect 31 1 29 0;
#X connect 31 2 32 0;
#X connect 31 2 49 0;
#X connect 34 0 31 0;
#X connect 35 0 31 0;
#X connect 36 0 45 0;
#X connect 37 0 31 0;
#X connect 45 0 42 0;
#X connect 45 1 43 0;
#X connect 45 2 46 0;
#X connect 45 2 48 0;
#X connect 48 0 47 0;
#X connect 49 0 41 0;
#X connect 56 0 68 0;
#X connect 58 0 68 0;
#X connect 59 0 68 0;
#X connect 60 0 68 0;
#X connect 61 0 68 1;
#X connect 68 0 57 0;
#X connect 68 1 64 0;
#X connect 68 2 66 0;
#X connect 69 0 68 0;
#X connect 75 0 72 0;
#X connect 75 1 71 0;
#X connect 75 2 73 0;
