#N canvas 120 220 161 407 12;
#N canvas 806 206 928 664 write 1;
#X obj 210 10 loadbang;
#X obj 113 130 textfile;
#X obj 287 7 bng 15 250 50 0 empty empty empty 17 7 0 10 #fcfcfc #000000 #000000;
#X msg 113 228 label \$1;
#X obj 113 253 s \$0_line1;
#X msg 111 106 read planifoliaversion.txt \, rewind \, bang;
#X obj 385 130 textfile;
#X msg 385 228 label \$1;
#X obj 385 253 s \$0_line2;
#X msg 385 106 read lastchange.txt \, rewind \, bang;
#X obj 423 156 list prepend symbol;
#X obj 423 180 list trim;
#X obj 385 203 makefilename udated\ on:\ %s;
#X obj 113 203 makefilename planifolia\ %.2f;
#X connect 0 0 5 0;
#X connect 0 0 9 0;
#X connect 1 0 13 0;
#X connect 3 0 4 0;
#X connect 5 0 1 0;
#X connect 6 0 10 0;
#X connect 7 0 8 0;
#X connect 9 0 6 0;
#X connect 10 0 11 0;
#X connect 11 0 12 0;
#X connect 12 0 7 0;
#X connect 13 0 3 0;
#X restore 242 16 pd write;
#X obj -1 1 cnv 15 160 16 empty \$0_line1 planifolia\ 0.320000.2 6 7 0 12 #282d39 #efefef 0;
#X obj -1 19 cnv 15 160 16 empty \$0_line2 udated\ on:\ 2025-mar-16 6 7 0 10 #282d39 #efefef 0;
#X coords 0 -1 1 1 161 36 1 -1 0;
