#N canvas 222 23 1302 1035 12;
#X obj 1 27 cnv 3 800 3 empty empty description 12 12 0 12 -128992
-66577 0;
#X obj 1 131 cnv 3 800 3 empty empty inlets 8 12 0 13 -228856 -1 0
;
#X obj 83 137 cnv 18 3 17 empty empty 0 5 9 0 14 -228856 -162280 0
;
#X obj 1 201 cnv 3 800 3 empty empty outlets 8 12 0 13 -228856 -1 0
;
#X obj 83 207 cnv 18 3 17 empty empty 0 5 9 0 14 -228856 -162280 0
;
#X obj 1 251 cnv 3 800 3 empty empty example 8 12 0 13 -228856 -1 0
;
#X obj 1 -1 cnv 3 800 3 empty empty slash.oscformat 14 14 1 16 -128992
-66577 0;
#X obj 621 40 plnf_version;
#X obj 88 450 slash.oscformat;
#X obj 75 536 netsend -u -b;
#X obj 88 473 list prepend send;
#X obj 712 415 print from;
#X text 271 385 connect to test;
#X obj 547 389 netreceive -u -b -f 8005;
#X msg 30 387 disconnect \, connect localhost 8005;
#X msg 89 410 /a/b/c 1 2 3 string 5 6 somethingelse 0.1 0.2 0.3;
#X obj 547 413 oscparse;
#X obj 547 435 list trim;
#X obj 88 495 list trim;
#X obj 547 510 slash.oscroute /a/b/c;
#X obj 547 459 t a a;
#X obj 579 481 print no_route;
#X obj 547 545 print routed;
#X text 32 48 usefull tool to format OSC messages using slashes;
#X text 106 137 message to format;
#X text 105 207 list (usually will want to prepend send and remove
'list' using [list trim]);
#X text 659 269 *see:;
#X msg 703 269 slash.oscroute;
#N canvas 224 400 1183 557 (subpatch) 0;
#X obj 13 46 pdcontrol;
#X obj 13 8 inlet;
#X msg 13 27 dir 0;
#X msg 13 65 \; pd open slash.oscroute-help.pd \$1 \;;
#X connect 0 0 3 0;
#X connect 1 0 2 0;
#X connect 2 0 0 0;
#X coords 0 -1 1 1 1 1 2 1 1;
#X restore 703 286 pd;
#X connect 8 0 10 0;
#X connect 10 0 18 0;
#X connect 13 0 16 0;
#X connect 13 1 11 0;
#X connect 14 0 9 0;
#X connect 15 0 8 0;
#X connect 16 0 17 0;
#X connect 17 0 20 0;
#X connect 18 0 9 0;
#X connect 19 0 22 0;
#X connect 20 0 19 0;
#X connect 20 1 21 0;
#X connect 27 0 28 0;
