#N canvas 0 28 1920 977 12;
#X obj 172 51 inlet;
#N canvas 0 32 703 607 \$0-routes 0;
#X obj 10 10 r 1495-dynin;
#X obj 10 35 route aa;
#X obj 10 60 route bb;
#X obj 10 85 route cc;
#X obj 10 110 route d2d;
#X obj 10 135 s 1495-dynout1;
#X obj 160 135 s 1495-dynout2;
#X connect 0 0 1 0;
#X connect 1 0 2 0;
#X connect 1 1 6 0;
#X connect 2 0 3 0;
#X connect 2 1 6 0;
#X connect 3 0 4 0;
#X connect 3 1 6 0;
#X connect 4 0 5 0;
#X connect 4 1 6 0;
#X coords 0 607 1 606 150 400 0;
#X restore 260 303 pd \$0-routes;
#X obj 156 255 list trim;
#X obj 156 279 symbol;
#X obj 379 379 r \$0messadd2;
#X obj 172 191 list split 1, f 38;
#N canvas 422 57 694 674 slashsplit 0;
#N canvas 0 32 1440 824 split 0;
#X obj 581 106 list fromsymbol;
#X obj 581 155 list length;
#X floatatom 581 207 5 0 0 0 - - - 0;
#X obj 581 234 until;
#X msg 623 234 0;
#X obj 581 258 f;
#X obj 610 258 + 1;
#X obj 581 337 list store;
#X msg 581 311 get \$1 1;
#X obj 581 130 t l l b;
#X msg 1099 448 set;
#X obj 501 311 ==;
#X obj 581 179 t f f;
#X obj 581 282 t f f;
#X obj 501 335 sel 1;
#X obj 576 370 t f f;
#X obj 576 395 spigot;
#X msg 576 420 add2 \$1;
#X msg 577 473 101 101;
#X obj 524 498 list tosymbol;
#X obj 682 398 t b b;
#X msg 523 793 97 97 \, 98 98 \, 99 99 \, 100 100 \, 101 101;
#X msg 650 447 set;
#X obj 669 370 t f f;
#X obj 627 398 sel 0;
#X obj 519 278 - 1;
#X msg 442 599 addcomma;
#X obj 469 505 !=;
#X obj 383 605 spigot;
#X obj 487 472 - 2;
#X obj 581 37 inlet;
#X obj 581 60 list trim;
#X obj 523 842 outlet;
#X obj 581 82 symbol;
#X obj 627 364 != 47;
#X obj 525 522 t b a b;
#X obj 694 607 f;
#X obj 722 607 + 1;
#X msg 788 520 0;
#X obj 714 692 outlet;
#X obj 677 660 f;
#X obj 485 414 t b b b;
#X obj 704 660 + 1;
#X obj 888 627 list fromsymbol;
#X obj 1064 587 symbol;
#X msg 982 587 symbol a\$1;
#X obj 1010 626 list fromsymbol;
#X obj 1010 650 list split 1;
#X obj 888 554 route symbol float bang;
#X msg 895 587 symbol bang;
#X obj 1008 679 list tosymbol;
#X obj 830 674 list prepend add2;
#X obj 830 698 list trim;
#X connect 0 0 9 0;
#X connect 1 0 12 0;
#X connect 2 0 3 0;
#X connect 3 0 5 0;
#X connect 4 0 5 1;
#X connect 5 0 6 0;
#X connect 5 0 13 0;
#X connect 6 0 5 1;
#X connect 7 0 15 0;
#X connect 8 0 7 0;
#X connect 9 0 1 0;
#X connect 9 1 7 1;
#X connect 9 2 4 0;
#X connect 9 2 10 0;
#X connect 9 2 38 0;
#X connect 10 0 21 0;
#X connect 10 0 18 0;
#X connect 11 0 14 0;
#X connect 12 0 2 0;
#X connect 12 1 25 0;
#X connect 12 1 29 0;
#X connect 13 0 11 0;
#X connect 13 0 27 0;
#X connect 13 1 8 0;
#X connect 14 0 41 0;
#X connect 15 0 16 0;
#X connect 15 1 34 0;
#X connect 16 0 17 0;
#X connect 17 0 18 0;
#X connect 18 0 19 0;
#X connect 19 0 35 0;
#X connect 20 0 22 0;
#X connect 20 1 18 0;
#X connect 21 0 32 0;
#X connect 22 0 18 0;
#X connect 23 1 16 1;
#X connect 24 0 20 0;
#X connect 25 0 11 1;
#X connect 26 0 21 0;
#X connect 27 0 28 1;
#X connect 28 0 26 0;
#X connect 29 0 27 1;
#X connect 30 0 31 0;
#X connect 31 0 33 0;
#X connect 33 0 0 0;
#X connect 34 0 23 0;
#X connect 34 0 24 0;
#X connect 35 0 28 0;
#X connect 35 1 48 0;
#X connect 35 2 36 0;
#X connect 36 0 37 0;
#X connect 36 0 40 1;
#X connect 37 0 36 1;
#X connect 38 0 36 1;
#X connect 40 0 42 0;
#X connect 41 0 21 0;
#X connect 41 1 40 0;
#X connect 41 2 18 0;
#X connect 42 0 39 0;
#X connect 43 0 51 0;
#X connect 44 0 43 0;
#X connect 45 0 46 0;
#X connect 46 0 47 0;
#X connect 47 1 50 0;
#X connect 48 0 43 0;
#X connect 48 1 45 0;
#X connect 48 2 49 0;
#X connect 48 3 44 0;
#X connect 49 0 43 0;
#X connect 50 0 51 0;
#X connect 51 0 52 0;
#X connect 52 0 21 0;
#X restore 192 162 pd split;
#X obj 192 119 symbol \$1;
#X obj 115 3 inlet;
#X obj 115 70 f \$0;
#X obj 192 194 t a b;
#X obj 343 176 f;
#X obj 373 176 + 1;
#X msg 233 140 0;
#X obj 192 140 t a b;
#X obj 343 198 * 25;
#X obj 377 198 + 35;
#X obj 206 242 pack s 0 \$0;
#X obj 115 48 t b a;
#X obj 260 34 loadbang;
#X obj 194 217 list tosymbol;
#X obj 114 334 s \$0messadd2;
#X msg 164 299 add2 \$1;
#X obj 272 62 t b b;
#X obj 350 85 outlet;
#X obj 114 95 t b b;
#X connect 0 0 4 0;
#X connect 1 0 8 0;
#X connect 2 0 12 0;
#X connect 3 0 19 0;
#X connect 4 0 14 0;
#X connect 4 1 5 0;
#X connect 5 0 6 0;
#X connect 5 0 9 0;
#X connect 6 0 5 1;
#X connect 7 0 5 1;
#X connect 8 0 0 0;
#X connect 8 1 7 0;
#X connect 9 0 10 0;
#X connect 10 0 11 1;
#X connect 11 0 16 0;
#X connect 12 0 3 0;
#X connect 12 1 1 1;
#X connect 13 0 17 0;
#X connect 14 0 11 0;
#X connect 16 0 15 0;
#X connect 17 0 3 0;
#X connect 17 1 18 0;
#X connect 19 0 15 0;
#X connect 19 1 1 0;
#X restore 156 303 pd slashsplit;
#X msg 260 461 aa bb cc dd ee;
#X obj 172 219 t b a b;
#X obj 172 397 list store;
#X obj 199 699 outlet;
#X obj 172 106 route send;
#X obj 199 519 list prepend;
#X msg 260 379 set;
#X obj 172 423 t a b;
#X obj 339 519 list length;
#X obj 286 491 t a a;
#X obj 339 693 outlet;
#X connect 0 0 11 0;
#X connect 2 0 3 0;
#X connect 3 0 6 0;
#X connect 4 0 7 0;
#X connect 5 0 8 0;
#X connect 5 1 9 1;
#X connect 6 0 13 0;
#X connect 7 0 16 0;
#X connect 8 0 9 0;
#X connect 8 1 2 0;
#X connect 8 2 13 0;
#X connect 9 0 14 0;
#X connect 11 0 5 0;
#X connect 11 1 5 0;
#X connect 12 0 10 0;
#X connect 13 0 7 0;
#X connect 14 0 12 0;
#X connect 14 1 7 0;
#X connect 15 0 17 0;
#X connect 16 0 12 1;
#X connect 16 1 15 0;
