#N canvas 333 88 1107 748 12;
#X obj 6 6 inlet;
#X obj 205 343 tabread4~ \$2-\$4\$1;
#X obj 205 302 line~;
#X msg 204 272 0 \, 6481 111;
#X obj 8 329 del 5;
#X obj 8 304 t b b;
#X msg 49 353 0;
#X obj 8 353 t b b;
#X msg 8 377 0;
#X obj 29 152 s \$0-switch;
#X msg 29 130 1;
#X obj 159 558 *~;
#X obj 245 559 *~;
#X obj 245 582 throw~ \$2-R;
#X obj 159 581 throw~ \$2-L;
#X obj 6 106 t b b b;
#X obj 221 375 env~;
#X floatatom 222 404 5 0 0 0 - - - 0;
#X obj 76 378 loadbang;
#X obj 8 278 del;
#X obj 8 254 t b b;
#X obj 208 465 *~;
#X obj 6 32 route noteon dB pshift pan;
#X msg 41 377 1;
#X obj 8 419 switch~ 64 1 1;
#X obj 8 401 tgl 15 0 empty empty empty 17 7 0 10 #fcfcfc #000000 #000000 0 1;
#X obj 71 278 r \$0-linevals;
#X msg 40 278 \$1;
#N canvas 0 23 450 300 linemessbuild 0;
#X msg 193 130 addcomma;
#X msg 216 107 set 0;
#X obj 170 79 t l b b;
#X obj 170 56 r \$0-linevals;
#X msg 171 156 add2 \$1 \$2;
#X obj 170 182 outlet;
#X connect 0 0 5 0;
#X connect 1 0 5 0;
#X connect 2 0 4 0;
#X connect 2 1 0 0;
#X connect 2 2 1 0;
#X connect 3 0 2 0;
#X connect 4 0 5 0;
#X restore 204 250 pd linemessbuild;
#X obj 66 130 s \$0-nob1;
#X obj 50 58 s \$0-dBset;
#N canvas 0 23 837 697 dB-line~ 0;
#X obj 75 221 dbtorms~;
#X msg 80 154 set \$1 5;
#X obj 81 109 list store;
#N canvas 0 23 450 300 frandminmax 0;
#X obj 142 44 unpack 0 0;
#X obj 171 92 -;
#X obj 171 114 abs;
#X obj 218 98 min;
#X obj 171 68 t f f;
#X obj 230 252 +;
#X obj 164 211 random;
#X obj 170 162 + 1;
#X obj 133 18 inlet;
#X obj 230 276 outlet;
#X obj 170 138 * 100000;
#X obj 165 235 / 100000;
#X floatatom 277 196 5 0 0 0 - - - 0;
#X obj 170 187 t b f;
#X connect 0 0 4 0;
#X connect 0 1 1 1;
#X connect 0 1 3 1;
#X connect 1 0 2 0;
#X connect 2 0 10 0;
#X connect 3 0 5 1;
#X connect 4 0 1 0;
#X connect 4 1 3 0;
#X connect 5 0 9 0;
#X connect 6 0 11 0;
#X connect 7 0 13 0;
#X connect 8 0 0 0;
#X connect 10 0 7 0;
#X connect 11 0 5 0;
#X connect 13 0 6 0;
#X connect 13 1 6 1;
#X restore 81 131 pd frandminmax;
#X msg 74 177 99.5997 5;
#X obj 159 109 list store \$5 \$6;
#X obj 75 199 line~;
#X obj 81 87 r \$0-nob1;
#X obj 239 87 loadbang;
#X obj 161 87 r \$0-dBset;
#X obj 13 45 inlet;
#X obj 75 244 outlet~;
#X connect 0 0 11 0;
#X connect 1 0 4 0;
#X connect 2 0 3 0;
#X connect 3 0 1 0;
#X connect 4 0 6 0;
#X connect 5 0 2 1;
#X connect 6 0 0 0;
#X connect 7 0 2 0;
#X connect 8 0 5 0;
#X connect 9 0 2 1;
#X connect 10 0 4 0;
#X restore 199 440 pd dB-line~;
#X obj 90 88 s \$0-pshiftset;
#X obj 201 88 s \$0-panset;
#N canvas 0 27 781 647 pan 1;
#X obj 16 150 * 1.5708;
#X floatatom 16 104 5 0 0 0 - - - 0;
#X obj 16 127 clip 0 1;
#X obj 16 209 cos~;
#X obj 16 81 / 100;
#X text 73 80 pan: 0 a 100;
#N canvas 0 23 450 300 frandminmax 0;
#X obj 142 44 unpack 0 0;
#X obj 171 92 -;
#X obj 171 114 abs;
#X obj 218 98 min;
#X obj 171 68 t f f;
#X obj 230 252 +;
#X obj 164 211 random;
#X obj 170 162 + 1;
#X obj 133 18 inlet;
#X obj 230 276 outlet;
#X obj 170 138 * 100000;
#X obj 165 235 / 100000;
#X floatatom 277 196 5 0 0 0 - - - 0;
#X obj 170 187 t b f;
#X connect 0 0 4 0;
#X connect 0 1 1 1;
#X connect 0 1 3 1;
#X connect 1 0 2 0;
#X connect 2 0 10 0;
#X connect 3 0 5 1;
#X connect 4 0 1 0;
#X connect 4 1 3 0;
#X connect 5 0 9 0;
#X connect 6 0 11 0;
#X connect 7 0 13 0;
#X connect 8 0 0 0;
#X connect 10 0 7 0;
#X connect 11 0 5 0;
#X connect 11 0 12 0;
#X connect 13 0 6 0;
#X connect 13 1 6 1;
#X restore 16 36 pd frandminmax;
#X floatatom 16 59 5 0 0 0 - - - 0;
#X obj 16 13 r \$0-randpan;
#X obj 16 233 outlet~;
#X obj 77 233 outlet~;
#X obj 220 269 list store;
#X obj 287 245 list store \$9 \$10;
#X obj 220 293 s \$0-randpan;
#X obj 150 270 r \$0-nob1;
#X obj 314 201 loadbang;
#X obj 297 269 r \$0-panset;
#X obj 78 185 + 1.5708;
#X obj 78 209 cos~;
#X connect 0 0 3 0;
#X connect 0 0 17 0;
#X connect 1 0 2 0;
#X connect 2 0 0 0;
#X connect 3 0 9 0;
#X connect 4 0 1 0;
#X connect 6 0 7 0;
#X connect 7 0 4 0;
#X connect 8 0 6 0;
#X connect 11 0 13 0;
#X connect 12 0 11 1;
#X connect 14 0 11 0;
#X connect 15 0 12 0;
#X connect 16 0 11 1;
#X connect 17 0 18 0;
#X connect 18 0 10 0;
#X restore 187 558 pd pan;
#N canvas 0 23 450 300 sfileload 0;
#X obj -83 93 soundfiler;
#X obj -83 42 pdcontrol;
#X msg -83 18 args 0;
#X text -7 40 idx (1 based) / parent\$0 / \$3 num / \$4 name;
#X obj -83 -5 loadbang;
#X msg -83 69 read -resize sounds/\$4/\$4\$1.wav \$2-\$4\$1;
#X obj 78 94 table \$2-\$4\$1;
#N canvas 0 23 836 471 linetimecalc 0;
#X msg 117 195 \$1;
#X text 146 194 srate;
#X obj 89 124 - 2;
#X obj 89 172 *;
#X obj 45 124 f;
#X obj 89 195 /;
#X obj 89 219 * 1000;
#X obj 45 147 t b f;
#X obj 45 170 t f f;
#X obj 89 243 int;
#N canvas 0 23 450 300 cents2ratio 0;
#X msg 36 88 2;
#X obj 36 111 pow;
#X obj 84 88 / 1200;
#X floatatom 36 134 5 0 0 0 - - - 0;
#X obj 36 65 t b f;
#X floatatom 36 43 5 0 0 0 - - - 0;
#X obj 84 65 * -1;
#X text 80 43 pshift;
#X obj 36 21 r \$0-randpshift;
#X obj 90 165 outlet;
#X connect 0 0 1 0;
#X connect 1 0 3 0;
#X connect 2 0 1 1;
#X connect 3 0 9 0;
#X connect 4 0 0 0;
#X connect 4 1 6 0;
#X connect 5 0 4 0;
#X connect 6 0 2 0;
#X connect 8 0 5 0;
#X restore 45 101 pd cents2ratio;
#X obj 77 69 inlet;
#X obj 118 69 inlet;
#X obj 89 266 pack 0 0;
#X obj 88 312 outlet;
#X msg 89 289 \$2 \$1;
#X obj 195 119 list store;
#X obj 263 72 loadbang;
#X obj 263 96 list store \$7 \$8;
#N canvas 0 23 450 300 frandminmax 0;
#X obj 142 44 unpack 0 0;
#X obj 171 92 -;
#X obj 171 114 abs;
#X obj 218 98 min;
#X obj 171 68 t f f;
#X obj 230 252 +;
#X obj 164 211 random;
#X obj 170 162 + 1;
#X obj 133 18 inlet;
#X obj 230 276 outlet;
#X obj 170 138 * 100000;
#X obj 165 235 / 100000;
#X floatatom 277 196 5 0 0 0 - - - 0;
#X obj 170 187 t b f;
#X connect 0 0 4 0;
#X connect 0 1 1 1;
#X connect 0 1 3 1;
#X connect 1 0 2 0;
#X connect 2 0 10 0;
#X connect 3 0 5 1;
#X connect 4 0 1 0;
#X connect 4 1 3 0;
#X connect 5 0 9 0;
#X connect 6 0 11 0;
#X connect 7 0 13 0;
#X connect 8 0 0 0;
#X connect 10 0 7 0;
#X connect 11 0 5 0;
#X connect 11 0 12 0;
#X connect 13 0 6 0;
#X connect 13 1 6 1;
#X restore 196 142 pd frandminmax;
#X obj 302 143 s \$0-randpshift;
#X obj 273 120 r \$0-pshiftset;
#X obj 194 93 r \$0-nob1;
#X connect 0 0 5 1;
#X connect 2 0 4 1;
#X connect 3 0 5 0;
#X connect 4 0 8 0;
#X connect 5 0 6 0;
#X connect 6 0 9 0;
#X connect 7 0 4 0;
#X connect 7 1 3 1;
#X connect 8 0 3 0;
#X connect 8 1 13 1;
#X connect 9 0 13 0;
#X connect 10 0 7 0;
#X connect 11 0 2 0;
#X connect 12 0 0 0;
#X connect 13 0 15 0;
#X connect 15 0 14 0;
#X connect 16 0 19 0;
#X connect 17 0 18 0;
#X connect 18 0 16 1;
#X connect 19 0 20 0;
#X connect 21 0 16 1;
#X connect 22 0 16 0;
#X restore -83 115 pd linetimecalc;
#X obj -83 138 s \$0-linevals;
#X connect 0 0 7 0;
#X connect 0 1 7 1;
#X connect 1 0 5 0;
#X connect 2 0 1 0;
#X connect 4 0 2 0;
#X connect 5 0 0 0;
#X connect 7 0 8 0;
#X restore 401 136 pd sfileload;
#X connect 0 0 22 0;
#X connect 1 0 16 0;
#X connect 1 0 21 0;
#X connect 2 0 1 0;
#X connect 3 0 2 0;
#X connect 4 0 7 0;
#X connect 5 0 4 0;
#X connect 6 0 2 0;
#X connect 7 0 8 0;
#X connect 7 1 6 0;
#X connect 8 0 25 0;
#X connect 10 0 9 0;
#X connect 11 0 14 0;
#X connect 12 0 13 0;
#X connect 15 0 3 0;
#X connect 15 0 20 0;
#X connect 15 1 10 0;
#X connect 15 2 29 0;
#X connect 16 0 17 0;
#X connect 18 0 23 0;
#X connect 19 0 5 0;
#X connect 20 0 19 0;
#X connect 20 1 3 0;
#X connect 20 1 23 0;
#X connect 20 1 31 0;
#X connect 21 0 12 0;
#X connect 21 0 11 0;
#X connect 22 0 15 0;
#X connect 22 1 30 0;
#X connect 22 2 32 0;
#X connect 22 3 33 0;
#X connect 23 0 25 0;
#X connect 25 0 24 0;
#X connect 26 0 27 0;
#X connect 27 0 19 1;
#X connect 28 0 3 0;
#X connect 31 0 21 1;
#X connect 34 0 11 1;
#X connect 34 1 12 1;
