#N canvas 370 1187 864 831 12;
#X declare -path planifolia;
#X obj 83 115 cnv 18 3 17 empty empty 0 5 9 0 14 #dcdcdc #9c9c9c 0;
#X obj 83 209 cnv 18 3 17 empty empty 0 5 9 0 14 #dcdcdc #9c9c9c 0;
#X obj 621 40 plnf_version;
#X text 26 49 Allows to get/set symbol variables \, like [value] / [v] does for numbers \, by means of using an array.;
#X text 104 114 symbol: symbol to store;
#X text 104 134 bang: retrieves the symbol stored;
#X text 104 156 set: changes the name of the array used to store the symbol;
#X text 105 208 stored symbol;
#X text 87 261 \$1 array name used to store the symbol;
#X msg 18 349 test;
#X msg 27 380 symbol something;
#X obj 39 655 bng 20 250 50 0 empty empty empty 0 -10 0 12 #fcfcfc #000000 #000000;
#X msg 107 623 set mysymbol;
#X msg 107 653 set mysymbol2;
#X obj 39 731 print;
#X msg 218 349 test2;
#X msg 227 380 symbol something2;
#X obj 18 414 symbol.v mysymbol;
#X obj 218 413 symbol.v mysymbol2;
#X obj 39 687 symbol.v mysymbol;
#X obj 71 511 send mysymbol;
#X msg 71 484 symbol another_test;
#X text 197 512 if using send \, its mandatory to use the symbol;
#X obj 0 -2 cnv 15 805 23 empty empty symbol.value 8 10 0 20 #282d39 #efefef 0;
#X obj 0 92 cnv 15 805 17 empty empty inlets 8 8 0 12 #282d39 #efefef 0;
#X obj 0 184 cnv 15 805 17 empty empty outlets 8 8 0 12 #282d39 #efefef 0;
#X obj 0 238 cnv 15 805 17 empty empty example 8 8 0 12 #282d39 #efefef 0;
#X obj 612 268 declare -path planifolia;
#X obj 443 380 array define mysymbol;
#X obj 443 406 array define mysymbol2;
#X text 443 354 IMPORTANT: you need arrays to store the symbol data!;
#X connect 9 0 17 0;
#X connect 10 0 17 0;
#X connect 11 0 19 0;
#X connect 12 0 19 0;
#X connect 13 0 19 0;
#X connect 15 0 18 0;
#X connect 16 0 18 0;
#X connect 19 0 14 0;
#X connect 21 0 20 0;
