#N canvas 618 140 1920 1035 12;
#X obj 229 330 list length;
#X obj 500 332 list length;
#X obj 264 914 outlet;
#X obj 643 21 inlet;
#X obj 643 120 list fromsymbol;
#X obj 819 80 symbol;
#X msg 737 80 symbol a\$1;
#X obj 765 119 list fromsymbol;
#X obj 765 143 list split 1;
#X obj 643 47 route symbol float bang;
#X msg 650 80 symbol bang;
#X obj 334 -12 inlet;
#X obj 301 168 list fromsymbol;
#X obj 510 47 symbol;
#X msg 428 47 symbol a\$1;
#X obj 456 86 list fromsymbol;
#X obj 456 110 list split 1;
#X obj 334 14 route symbol float bang;
#X msg 341 47 symbol bang;
#X obj 482 411 ==;
#X obj 482 434 sel 0;
#X msg 482 456 0;
#X obj 295 891 r \$0-outlet;
#X obj 482 507 s \$0-outlet;
#X obj 263 657 list store;
#X obj 346 656 list store;
#X obj 243 478 f;
#X obj 243 503 until;
#X obj 243 557 f;
#X obj 272 557 + 1;
#X msg 261 535 0;
#X obj 503 201 t l;
#X obj 229 353 t f f;
#X msg 263 628 get \$1 1;
#X msg 343 629 get \$1 1;
#X obj 285 503 r \$0-stopLoop;
#X obj 243 580 t f f f;
#X obj 263 696 ==;
#X obj 333 480 v \$0-comp;
#X obj 240 433 t b b;
#X msg 333 459 1;
#X obj 189 647 ==;
#X obj 189 620 + 1;
#X obj 263 721 sel 0;
#X obj 309 786 v \$0-comp;
#X msg 309 765 0;
#X obj 263 743 t b b b;
#X obj 286 814 s \$0-stopLoop;
#X obj 263 845 v \$0-comp;
#X obj 189 671 sel 1;
#X obj 301 202 t l l b b;
#X obj 158 784 spigot;
#X msg 360 231 1;
#X connect 0 0 32 0;
#X connect 1 0 19 1;
#X connect 3 0 9 0;
#X connect 4 0 31 0;
#X connect 5 0 4 0;
#X connect 6 0 7 0;
#X connect 7 0 8 0;
#X connect 8 1 31 0;
#X connect 9 0 4 0;
#X connect 9 1 6 0;
#X connect 9 2 10 0;
#X connect 9 3 5 0;
#X connect 10 0 4 0;
#X connect 11 0 17 0;
#X connect 12 0 50 0;
#X connect 13 0 12 0;
#X connect 14 0 15 0;
#X connect 15 0 16 0;
#X connect 16 1 50 0;
#X connect 17 0 12 0;
#X connect 17 1 14 0;
#X connect 17 2 18 0;
#X connect 17 3 13 0;
#X connect 18 0 12 0;
#X connect 19 0 20 0;
#X connect 20 0 21 0;
#X connect 20 1 39 0;
#X connect 21 0 23 0;
#X connect 22 0 2 0;
#X connect 24 0 37 0;
#X connect 25 0 37 1;
#X connect 26 0 27 0;
#X connect 27 0 28 0;
#X connect 28 0 29 0;
#X connect 28 0 36 0;
#X connect 29 0 28 1;
#X connect 30 0 28 1;
#X connect 31 0 1 0;
#X connect 31 0 25 1;
#X connect 32 0 19 0;
#X connect 32 1 26 1;
#X connect 32 1 41 1;
#X connect 33 0 24 0;
#X connect 34 0 25 0;
#X connect 35 0 27 1;
#X connect 36 0 42 0;
#X connect 36 1 33 0;
#X connect 36 2 34 0;
#X connect 37 0 43 0;
#X connect 39 0 26 0;
#X connect 39 1 40 0;
#X connect 40 0 38 0;
#X connect 41 0 49 0;
#X connect 42 0 41 0;
#X connect 43 0 46 0;
#X connect 45 0 44 0;
#X connect 45 0 51 1;
#X connect 46 0 48 0;
#X connect 46 1 47 0;
#X connect 46 2 45 0;
#X connect 48 0 2 0;
#X connect 49 0 51 0;
#X connect 50 0 0 0;
#X connect 50 1 24 1;
#X connect 50 2 30 0;
#X connect 50 3 52 0;
#X connect 51 0 48 0;
#X connect 52 0 51 1;
