#N canvas 0 32 1920 990 12;
#X obj 255 132 symbol;
#X obj 255 156 list fromsymbol;
#X obj 255 181 t l l;
#X obj 287 208 list length;
#X obj 48 308 list tosymbol;
#X obj 287 233 array size \$1;
#X obj 255 257 array set \$1;
#X obj 48 283 array get \$1;
#X obj 48 52 inlet;
#X obj 48 333 outlet;
#X obj 96 219 s \$0_set_new_array;
#X obj 386 233 r \$0_set_new_array;
#X obj 349 257 r \$0_set_new_array;
#X obj 139 284 r \$0_set_new_array;
#X obj 48 105 route bang set symbol;
#X obj 96 136 symbol;
#X obj 255 99 receive \$1;
#X connect 0 0 1 0;
#X connect 1 0 2 0;
#X connect 2 0 6 0;
#X connect 2 1 3 0;
#X connect 3 0 5 0;
#X connect 4 0 9 0;
#X connect 7 0 4 0;
#X connect 8 0 14 0;
#X connect 11 0 5 1;
#X connect 12 0 6 2;
#X connect 13 0 7 2;
#X connect 14 0 7 0;
#X connect 14 1 15 0;
#X connect 14 2 0 0;
#X connect 14 3 0 0;
#X connect 15 0 10 0;
#X connect 16 0 0 0;
