#N canvas 908 23 804 710 12;
#X obj 1 1 cnv 3 800 3 empty empty empty 20 12 0 14 -128992 -99865
0;
#X obj 1 27 cnv 3 800 3 empty empty description 12 12 0 12 -128992
-66577 0;
#X obj 1 81 cnv 3 800 3 empty empty inlets 8 12 0 13 -228856 -1 0;
#X obj 83 87 cnv 18 3 17 empty empty 0 5 9 0 14 -228856 -162280 0;
#X obj 83 107 cnv 18 3 17 empty empty 1 5 9 0 14 -228856 -162280 0
;
#X obj 1 131 cnv 3 800 3 empty empty outlets 8 12 0 13 -228856 -1 0
;
#X obj 83 137 cnv 18 3 17 empty empty 0 5 9 0 14 -228856 -162280 0
;
#X obj 1 174 cnv 3 800 3 empty empty example 8 12 0 13 -228856 -1 0
;
#X floatatom 26 413 5 0 0 0 - - -;
#X obj 26 437 print case;
#X text 652 40 tested on pd 0.50-2;
#X obj 1 562 cnv 3 800 3 empty empty empty 8 12 0 13 -128992 -1 0;
#X msg 274 260 symbol list;
#X text 105 137 1: same symbol \; 0: different symbol;
#X text 32 48 test if two symbols are equal;
#X text 104 87 symbol: symbol to compare 1;
#X text 104 107 symbol: symbol to compare 2;
#X msg 274 238 symbol a;
#X msg 274 282 symbol bang;
#X msg 274 305 symbol float;
#X msg 274 327 symbol symbol;
#X obj 566 317 list fromsymbol;
#X obj 742 277 symbol;
#X msg 660 277 symbol a\$1;
#X obj 688 316 list fromsymbol;
#X obj 688 340 list split 1;
#X msg 274 216 1;
#X msg 385 200 bang;
#X obj 608 403 list tosymbol;
#X obj 543 364 print xx;
#X obj 609 435 print zz;
#X obj 566 244 route symbol float bang;
#X msg 573 277 symbol bang;
#X msg 650 196 symbol symbol;
#X msg 471 429 symbol sy;
#X msg 530 196 1;
#X msg 23 242 symbol list;
#X msg 23 220 symbol a;
#X msg 23 264 symbol bang;
#X msg 23 287 symbol float;
#X msg 23 309 symbol symbol;
#X msg 23 198 1;
#X obj 26 385 symbol.==;
#X connect 8 0 9 0;
#X connect 12 0 42 1;
#X connect 17 0 42 1;
#X connect 18 0 42 1;
#X connect 19 0 42 1;
#X connect 20 0 42 1;
#X connect 21 0 28 0;
#X connect 21 0 29 0;
#X connect 22 0 21 0;
#X connect 23 0 24 0;
#X connect 24 0 25 0;
#X connect 25 1 28 0;
#X connect 25 1 29 0;
#X connect 26 0 42 1;
#X connect 27 0 31 0;
#X connect 28 0 30 0;
#X connect 31 0 21 0;
#X connect 31 1 23 0;
#X connect 31 2 32 0;
#X connect 31 3 22 0;
#X connect 32 0 21 0;
#X connect 33 0 31 0;
#X connect 34 0 21 0;
#X connect 35 0 31 0;
#X connect 36 0 42 0;
#X connect 37 0 42 0;
#X connect 38 0 42 0;
#X connect 39 0 42 0;
#X connect 40 0 42 0;
#X connect 41 0 42 0;
#X connect 42 0 8 0;
