#N canvas 175 106 804 710 12;
#X obj 1 1 cnv 3 800 3 empty empty empty 20 12 0 14 -128992 -99865
0;
#X obj 1 27 cnv 3 800 3 empty empty description 12 12 0 12 -128992
-66577 0;
#X obj 1 101 cnv 3 800 3 empty empty inlets 8 12 0 13 -228856 -1 0
;
#X obj 83 107 cnv 18 3 17 empty empty 0 5 9 0 14 -228856 -162280 0
;
#X obj 83 127 cnv 18 3 17 empty empty 1 5 9 0 14 -228856 -162280 0
;
#X obj 1 151 cnv 3 800 3 empty empty outlets 8 12 0 13 -228856 -1 0
;
#X obj 83 157 cnv 18 3 17 empty empty 0 5 9 0 14 -228856 -162280 0
;
#X obj 83 267 cnv 18 3 17 empty empty 4 5 9 0 14 -228856 -162280 0
;
#X obj 1 291 cnv 3 800 3 empty empty example 8 12 0 13 -228856 -1 0
;
#X obj 10 7 cnv 14 200 14 empty empty [symbol.compare] 0 7 0 14 -262144
-66577 0;
#X msg 53 324 a;
#X msg 53 346 symbol a;
#X msg 53 368 b;
#X msg 273 324 a;
#X msg 273 346 symbol a;
#X msg 273 368 b;
#X floatatom 121 537 5 0 0 0 - - -;
#X msg 282 391 c;
#X msg 55 393 c;
#X text 104 127 symbol to compare 2;
#X text 104 107 symbol to compare 1;
#X obj 26 661 print before;
#X obj 49 638 print after;
#X obj 164 537 print case;
#X msg 54 446 ba;
#X msg 275 470 eb;
#X msg 273 493 be;
#X msg 54 469 be;
#X msg 274 515 ba;
#X obj 26 515 symbol.compare;
#X msg 273 444 abcde;
#X msg 55 418 abc;
#X msg 323 444 abc;
#X msg 86 418 abcde;
#X text 32 48 compares two symbols to know which one precedes the other
in alphabetical order (using its ASCII representation to do this).
;
#X obj 83 177 cnv 18 3 17 empty empty 1 5 9 0 14 -228856 -162280 0
;
#X text 105 157 comes first in the ASCII representation;
#X text 105 177 comes later in the ASCII representation;
#X text 104 267 0: equal \, 1: left symbol comes first \, 2: right
comes first;
#X obj 73 608 print toPrepend;
#X obj 97 578 print toAppend;
#X obj 83 197 cnv 18 3 17 empty empty 2 5 9 0 14 -228856 -162280 0
;
#X obj 83 232 cnv 18 3 17 empty empty 3 5 9 0 14 -228856 -162280 0
;
#X text 105 196 if left-in symbol comes first in ASCII representation
\, it will also come out here (to be used in prepend situations);
#X text 105 232 if left-in symbol comes later in ASCII representation
\, it will also come out here (to be used in append situations);
#X text 652 80 tested on pd 0.50-2;
#X obj 1 692 cnv 3 800 3 empty empty empty 8 12 0 13 -128992 -1 0;
#X connect 10 0 29 0;
#X connect 11 0 29 0;
#X connect 12 0 29 0;
#X connect 13 0 29 1;
#X connect 14 0 29 1;
#X connect 15 0 29 1;
#X connect 16 0 23 0;
#X connect 17 0 29 1;
#X connect 18 0 29 0;
#X connect 24 0 29 0;
#X connect 25 0 29 1;
#X connect 26 0 29 1;
#X connect 27 0 29 0;
#X connect 28 0 29 1;
#X connect 29 0 21 0;
#X connect 29 1 22 0;
#X connect 29 2 39 0;
#X connect 29 3 40 0;
#X connect 29 4 16 0;
#X connect 30 0 29 1;
#X connect 31 0 29 0;
#X connect 32 0 29 1;
#X connect 33 0 29 0;
