#N canvas 0 23 1920 1035 12;
#X obj 197 153 list fromsymbol;
#X obj 197 131 list prepend;
#X obj 197 107 list trim;
#X obj 197 223 list length;
#X obj 417 153 list fromsymbol;
#X obj 417 131 list prepend;
#X obj 417 107 list trim;
#X obj 417 223 list length;
#X obj 602 495 list store;
#X obj 828 497 list store;
#N canvas 0 23 1057 815 iterate 0;
#X obj 158 171 until;
#X obj 158 199 f;
#X obj 196 199 + 1;
#X obj 158 84 inlet;
#X obj 301 120 inlet;
#X obj 154 354 outlet;
#X obj 388 448 outlet;
#X obj 300 151 t b b b;
#X msg 290 186 0;
#X obj 341 307 sel;
#X obj 158 123 t f b f;
#X obj 204 145 - 1;
#X obj 158 221 t f f;
#X obj 228 256 t f b;
#X obj 260 278 v \$0-comp;
#X obj 260 301 == 0;
#X obj 231 330 spigot;
#X connect 0 0 1 0;
#X connect 1 0 2 0;
#X connect 1 0 12 0;
#X connect 2 0 1 1;
#X connect 3 0 10 0;
#X connect 4 0 7 0;
#X connect 7 1 8 0;
#X connect 7 2 0 1;
#X connect 7 2 6 0;
#X connect 8 0 1 1;
#X connect 9 0 6 0;
#X connect 10 0 0 0;
#X connect 10 1 8 0;
#X connect 10 2 11 0;
#X connect 11 0 9 1;
#X connect 12 0 13 0;
#X connect 12 1 5 0;
#X connect 13 0 16 0;
#X connect 13 1 14 0;
#X connect 14 0 15 0;
#X connect 15 0 16 1;
#X connect 16 0 9 0;
#X restore 197 405 pd iterate;
#X msg 197 436 get \$1 1;
#X obj 602 537 s;
#X obj 828 541 s;
#X obj 756 595 r \$0-testleft;
#X obj 865 595 r \$0-testright;
#N canvas 317 550 847 508 to_test 0;
#X obj 86 162 f \$0;
#X obj 107 90 f \$0;
#X obj 86 210 s \$0-leftSendTo;
#X obj 107 136 s \$0-rightSendTo;
#X obj 47 68 t a a b b;
#X obj 67 239 s \$0-rightLeft;
#X obj 47 269 s \$0-leftLeft;
#X obj 47 41 inlet;
#X msg 86 185 symbol \$1-testleft;
#X msg 107 113 symbol \$1-testright;
#X connect 0 0 8 0;
#X connect 1 0 9 0;
#X connect 4 0 6 0;
#X connect 4 1 5 0;
#X connect 4 2 0 0;
#X connect 4 3 1 0;
#X connect 7 0 4 0;
#X connect 8 0 2 0;
#X connect 9 0 3 0;
#X restore 197 460 pd to_test;
#X obj 865 617 t f f;
#X obj 714 240 v \$0-comp;
#X text 801 229 0 no diff;
#X text 801 242 1 left;
#X text 801 255 2 right;
#X obj 714 197 loadbang;
#X obj 756 676 spigot;
#X obj 795 645 !=;
#X obj 865 676 spigot;
#X obj 178 577 v \$0-comp;
#X obj 191 1342 outlet;
#X obj 264 427 s \$0-get_final_symbol;
#X obj 178 512 r \$0-get_final_symbol;
#X obj 620 516 r \$0-leftSendTo;
#X obj 846 519 r \$0-rightSendTo;
#X obj 602 452 r \$0-leftLeft;
#X obj 828 454 r \$0-rightLeft;
#X obj 669 474 r \$0-leftRight;
#X obj 229 202 s \$0-leftRight;
#X obj 449 202 s \$0-rightRight;
#X obj 895 476 r \$0-rightRight;
#X obj 264 382 r \$0-stopIteration;
#X obj 779 828 v \$0-comp;
#X obj 756 862 s \$0-stopIteration;
#X obj 442 898 f \$0;
#X obj 442 940 s \$0-rightSendTo;
#X obj 191 1279 r \$0-leftOutlet;
#X obj 198 898 f \$0;
#X obj 198 940 s \$0-leftSendTo;
#X obj 178 961 s \$0-leftLeft;
#X obj 422 961 s \$0-rightLeft;
#X obj 178 697 sel 1 2;
#X obj 864 1312 outlet;
#X obj 864 1289 r \$0-rightOutlet;
#X obj 178 647 t f f;
#X obj 756 730 >;
#X obj 756 758 + 1;
#X obj 756 782 t b f b;
#X obj 210 671 s \$0-rightOutlet;
#X obj 191 1300 list tosymbol;
#X obj 191 1321 list trim;
#X obj 197 51 inlet;
#X obj 417 51 inlet;
#X obj 197 181 t l l b;
#X obj 417 181 t l l b;
#X obj 562 202 v \$0-comp;
#X obj 336 202 v \$0-comp;
#X msg 198 919 symbol \$1-leftOutlet;
#X msg 442 919 symbol \$1-leftOutlet;
#X obj 197 245 t f f;
#X obj 417 245 t f f;
#X text 522 304 0 equal length;
#X obj 197 327 min;
#X msg 562 180 0;
#X msg 714 219 0;
#X msg 336 181 0;
#X obj 350 601 v \$0-len;
#X obj 178 555 t b b b;
#X obj 442 601 v \$0-comp;
#X obj 442 624 sel 0;
#X msg 442 654 1;
#X msg 474 654 0;
#X obj 350 623 spigot;
#X obj 350 648 v \$0-comp;
#X text 522 316 1 left is smaller;
#X text 522 327 2 right is smaller;
#X text 346 702 if length is smaller \, drop the smallest symbol;
#X text 440 674 same chars?;
#X obj 321 1342 outlet;
#X obj 321 1300 list tosymbol;
#X obj 321 1321 list trim;
#X obj 321 1279 r \$0-middleOutlet;
#X obj 482 804 f \$0;
#X obj 482 850 s \$0-leftSendTo;
#X obj 462 871 s \$0-leftLeft;
#X obj 238 804 f \$0;
#X obj 238 850 s \$0-rightSendTo;
#X obj 218 871 s \$0-rightLeft;
#X obj 178 781 t b b b b;
#X obj 422 776 t b b b b;
#X msg 482 828 symbol \$1-middleOutlet;
#X msg 238 827 symbol \$1-middleOutlet;
#X obj 847 646 f;
#X obj 756 617 t f b f;
#N canvas 0 23 742 472 lengthcompare 0;
#X obj 102 101 inlet;
#X obj 162 101 inlet;
#X obj 100 184 spigot;
#X obj 148 151 !=, f 4;
#X obj 209 184 spigot;
#X obj 303 224 v \$0-len;
#X obj 303 177 sel 0;
#X msg 302 201 0;
#X obj 100 208 >;
#X obj 100 232 + 1;
#X obj 161 124 t f f;
#X obj 193 153 f;
#X obj 102 125 t f b f;
#X connect 0 0 12 0;
#X connect 1 0 10 0;
#X connect 2 0 8 0;
#X connect 3 0 4 1;
#X connect 3 0 2 1;
#X connect 3 0 6 0;
#X connect 4 0 8 1;
#X connect 6 0 7 0;
#X connect 7 0 5 0;
#X connect 8 0 9 0;
#X connect 9 0 5 0;
#X connect 10 0 11 1;
#X connect 10 1 3 1;
#X connect 11 0 4 0;
#X connect 12 0 2 0;
#X connect 12 1 11 0;
#X connect 12 2 3 0;
#X restore 404 304 pd lengthcompare;
#X obj 912 646 print test1;
#X obj 502 1316 outlet;
#X obj 502 1252 list tosymbol;
#X obj 502 1273 list trim;
#X obj 632 1316 outlet;
#X obj 632 1252 list tosymbol;
#X obj 632 1273 list trim;
#X obj 632 1226 r \$0-outAppend;
#X obj 502 1226 r \$0-outPrepend;
#X obj 365 1079 f \$0;
#X obj 365 1121 s \$0-leftSendTo;
#X obj 345 1142 s \$0-leftLeft;
#X msg 365 1100 symbol \$1-outPrepend;
#X obj 345 1049 t b b;
#X obj 555 1079 f \$0;
#X obj 555 1121 s \$0-leftSendTo;
#X obj 535 1142 s \$0-leftLeft;
#X obj 535 1049 t b b;
#X msg 555 1100 symbol \$1-outAppend;
#X obj 502 1295 list prepend;
#X obj 632 1295 list prepend;
#X connect 0 0 60 0;
#X connect 1 0 0 0;
#X connect 2 0 1 0;
#X connect 3 0 66 0;
#X connect 4 0 61 0;
#X connect 5 0 4 0;
#X connect 6 0 5 0;
#X connect 7 0 67 0;
#X connect 8 0 12 0;
#X connect 9 0 13 0;
#X connect 10 0 11 0;
#X connect 10 1 28 0;
#X connect 11 0 16 0;
#X connect 14 0 100 0;
#X connect 15 0 17 0;
#X connect 17 0 99 1;
#X connect 17 1 24 1;
#X connect 22 0 71 0;
#X connect 23 0 52 0;
#X connect 24 0 25 1;
#X connect 24 0 23 1;
#X connect 24 0 102 0;
#X connect 25 0 52 1;
#X connect 26 0 51 0;
#X connect 29 0 74 0;
#X connect 30 0 12 1;
#X connect 31 0 13 1;
#X connect 32 0 8 0;
#X connect 33 0 9 0;
#X connect 34 0 8 1;
#X connect 37 0 9 1;
#X connect 38 0 10 1;
#X connect 41 0 65 0;
#X connect 43 0 56 0;
#X connect 44 0 64 0;
#X connect 48 0 95 0;
#X connect 48 0 115 0;
#X connect 48 1 96 0;
#X connect 48 1 119 0;
#X connect 48 2 95 0;
#X connect 48 2 115 0;
#X connect 50 0 49 0;
#X connect 51 0 48 0;
#X connect 51 1 55 0;
#X connect 52 0 53 0;
#X connect 53 0 54 0;
#X connect 54 0 40 0;
#X connect 54 1 39 0;
#X connect 56 0 57 0;
#X connect 57 0 27 0;
#X connect 58 0 2 0;
#X connect 59 0 6 0;
#X connect 60 0 3 0;
#X connect 60 1 35 0;
#X connect 60 2 72 0;
#X connect 61 0 7 0;
#X connect 61 1 36 0;
#X connect 61 2 70 0;
#X connect 64 0 45 0;
#X connect 65 0 42 0;
#X connect 66 0 69 0;
#X connect 66 1 101 0;
#X connect 67 0 69 1;
#X connect 67 1 101 1;
#X connect 69 0 10 0;
#X connect 70 0 62 0;
#X connect 71 0 18 0;
#X connect 72 0 63 0;
#X connect 73 0 79 0;
#X connect 74 0 26 0;
#X connect 74 1 73 0;
#X connect 74 2 75 0;
#X connect 75 0 76 0;
#X connect 76 0 77 0;
#X connect 76 1 78 0;
#X connect 77 0 79 1;
#X connect 78 0 79 1;
#X connect 79 0 80 0;
#X connect 86 0 87 0;
#X connect 87 0 85 0;
#X connect 88 0 86 0;
#X connect 89 0 97 0;
#X connect 92 0 98 0;
#X connect 95 0 46 0;
#X connect 95 1 44 0;
#X connect 95 2 94 0;
#X connect 95 3 92 0;
#X connect 96 0 47 0;
#X connect 96 1 41 0;
#X connect 96 2 91 0;
#X connect 96 3 89 0;
#X connect 97 0 90 0;
#X connect 98 0 93 0;
#X connect 99 0 25 0;
#X connect 100 0 23 0;
#X connect 100 1 99 0;
#X connect 100 2 24 0;
#X connect 104 0 105 0;
#X connect 105 0 121 0;
#X connect 107 0 108 0;
#X connect 108 0 122 0;
#X connect 109 0 107 0;
#X connect 110 0 104 0;
#X connect 111 0 114 0;
#X connect 114 0 112 0;
#X connect 115 0 113 0;
#X connect 115 1 111 0;
#X connect 116 0 120 0;
#X connect 119 0 118 0;
#X connect 119 1 116 0;
#X connect 120 0 117 0;
#X connect 121 0 103 0;
#X connect 122 0 106 0;
