#N canvas 402 56 1424 744 12;
#X obj 581 106 list fromsymbol;
#X obj 581 155 list length;
#X floatatom 581 207 5 0 0 0 - - -;
#X obj 581 234 until;
#X obj 895 148 list fromsymbol;
#X floatatom 896 170 5 0 0 0 - - -;
#X msg 623 234 0;
#X obj 581 258 f;
#X obj 610 258 + 1;
#X obj 581 337 list store;
#X msg 581 311 get \$1 1;
#X obj 581 130 t l l b;
#X msg 849 440 set;
#X obj 627 364 !=;
#X obj 501 311 ==;
#X obj 581 179 t f f;
#X obj 581 282 t f f;
#X obj 501 335 sel 1;
#X obj 576 370 t f f;
#X obj 576 395 spigot;
#X msg 576 420 add2 \$1;
#X msg 577 473 117 98 117;
#X obj 576 500 list tosymbol;
#X msg 576 562 add2 \$1;
#X obj 682 398 t b b;
#X msg 576 595 aba \, ebe \, ibi \, obo \, ubu;
#X msg 650 447 set;
#X obj 669 370 t f f;
#X obj 627 398 sel 0;
#X obj 485 414 t b b;
#X obj 519 278 - 1;
#X msg 495 561 addcomma;
#X obj 525 522 t b a;
#X obj 469 505 !=;
#X obj 436 567 spigot;
#X obj 487 472 - 2;
#X obj 1093 87 pdcontrol;
#X msg 1093 65 args 0;
#X obj 1093 109 list length;
#X obj 908 51 inlet;
#X obj 581 37 inlet;
#X obj 581 60 list trim;
#X obj 895 124 symbol;
#X msg 1093 183 47;
#X obj 1093 43 loadbang;
#X obj 1078 153 sel 1;
#X obj 1122 153 sel 1;
#X obj 576 644 outlet;
#X obj 581 82 symbol;
#X obj 1093 131 < 1;
#X obj 1121 131 == 1;
#X obj 1126 183 symbol \$1;
#X connect 0 0 11 0;
#X connect 1 0 15 0;
#X connect 2 0 3 0;
#X connect 3 0 7 0;
#X connect 4 0 5 0;
#X connect 5 0 13 1;
#X connect 6 0 7 1;
#X connect 7 0 8 0;
#X connect 7 0 16 0;
#X connect 8 0 7 1;
#X connect 9 0 18 0;
#X connect 10 0 9 0;
#X connect 11 0 1 0;
#X connect 11 1 9 1;
#X connect 11 2 6 0;
#X connect 11 2 12 0;
#X connect 12 0 25 0;
#X connect 12 0 21 0;
#X connect 13 0 27 0;
#X connect 13 0 28 0;
#X connect 14 0 17 0;
#X connect 15 0 2 0;
#X connect 15 1 30 0;
#X connect 15 1 35 0;
#X connect 16 0 14 0;
#X connect 16 0 33 0;
#X connect 16 1 10 0;
#X connect 17 0 29 0;
#X connect 18 0 19 0;
#X connect 18 1 13 0;
#X connect 19 0 20 0;
#X connect 20 0 21 0;
#X connect 21 0 22 0;
#X connect 22 0 32 0;
#X connect 23 0 25 0;
#X connect 24 0 26 0;
#X connect 24 1 21 0;
#X connect 25 0 47 0;
#X connect 26 0 21 0;
#X connect 27 1 19 1;
#X connect 28 0 24 0;
#X connect 29 0 25 0;
#X connect 29 1 21 0;
#X connect 30 0 14 1;
#X connect 31 0 25 0;
#X connect 32 0 34 0;
#X connect 32 1 23 0;
#X connect 33 0 34 1;
#X connect 34 0 31 0;
#X connect 35 0 33 1;
#X connect 36 0 38 0;
#X connect 37 0 36 0;
#X connect 38 0 49 0;
#X connect 38 0 50 0;
#X connect 39 0 42 0;
#X connect 40 0 41 0;
#X connect 41 0 48 0;
#X connect 42 0 4 0;
#X connect 43 0 5 0;
#X connect 44 0 37 0;
#X connect 45 0 43 0;
#X connect 46 0 51 0;
#X connect 48 0 0 0;
#X connect 49 0 45 0;
#X connect 50 0 46 0;
#X connect 51 0 42 0;
